<svg width="268" height="105" viewBox="0 0 268 105" fill="none" xmlns="http://www.w3.org/2000/svg">
<path d="M166.689 26.1408C166.689 26.3088 166.894 26.4437 167.149 26.4437H246.018C246.273 26.4437 246.478 26.3088 246.478 26.1408C246.478 25.9728 246.273 25.8379 246.018 25.8379H167.149C166.894 25.8379 166.689 25.9728 166.689 26.1408H166.689Z" fill="white"/>
<path d="M102.546 69.3999L103.327 88.4437H101.427V90.5996H106.737V88.4437H105.188L105.299 69.3999H102.546Z" fill="white"/>
<path d="M100.497 85.3892H100.497C101.305 85.3892 101.961 85.9924 101.961 86.7366V92.306C101.961 93.0502 101.305 93.6534 100.497 93.6534H100.497C99.6888 93.6534 99.0336 93.0502 99.0336 92.306V86.7366C99.0336 85.9924 99.6888 85.3892 100.497 85.3892Z" fill="#14213D"/>
<path d="M107.912 85.3892H107.912C108.721 85.3892 109.376 85.9924 109.376 86.7366V92.306C109.376 93.0502 108.721 93.6534 107.912 93.6534H107.912C107.104 93.6534 106.449 93.0502 106.449 92.306V86.7366C106.449 85.9924 107.104 85.3892 107.912 85.3892Z" fill="#14213D"/>
<path d="M119.816 57.5346L89.7644 56.277L94.4478 54.3008L120.792 54.6601L119.816 57.5346Z" fill="#14213D"/>
<path d="M0 60.3269L3.6293 59.0693L116.303 61.7642L120.987 59.788L119.035 72.0047L29.5334 63.2243L0 60.3269Z" fill="#14213D"/>
<path d="M28.9783 67.4233L29.5333 63.2241L119.035 72.0046L118.548 78.2028L28.9783 67.4233Z" fill="white"/>
<path d="M89.1789 79.8198C94.2982 79.8198 98.4481 75.7578 98.4481 70.7471C98.4481 65.7363 94.2982 61.6743 89.1789 61.6743C84.0597 61.6743 79.9098 65.7363 79.9098 70.7471C79.9098 75.7578 84.0597 79.8198 89.1789 79.8198Z" fill="white"/>
<path d="M89.179 75.4183C92.9511 75.4183 96.0089 72.6031 96.0089 69.1303C96.0089 65.6575 92.9511 62.8423 89.179 62.8423C85.407 62.8423 82.3491 65.6575 82.3491 69.1303C82.3491 72.6031 85.407 75.4183 89.179 75.4183Z" fill="#14213D"/>
<path d="M165.381 69.3999L164.601 88.4437H166.501V90.5996H161.19V88.4437H162.739L162.628 69.3999H165.381Z" fill="white"/>
<path d="M167.43 85.3892H167.43C166.622 85.3892 165.967 85.9924 165.967 86.7366V92.306C165.967 93.0502 166.622 93.6534 167.43 93.6534H167.43C168.238 93.6534 168.894 93.0502 168.894 92.306V86.7366C168.894 85.9924 168.238 85.3892 167.43 85.3892Z" fill="#14213D"/>
<path d="M160.015 85.3892H160.015C159.207 85.3892 158.551 85.9924 158.551 86.7366V92.306C158.551 93.0502 159.207 93.6534 160.015 93.6534H160.015C160.823 93.6534 161.478 93.0502 161.478 92.306V86.7366C161.478 85.9924 160.823 85.3892 160.015 85.3892Z" fill="#14213D"/>
<path d="M148.111 57.5346L178.163 56.277L173.48 54.3008L147.136 54.6601L148.111 57.5346Z" fill="#14213D"/>
<path d="M137.355 53.6639L135.989 25.9966L133.843 30.3084L134.233 54.5622L137.355 53.6639Z" fill="#14213D"/>
<path d="M267.927 60.3269L264.298 59.0693L151.624 61.7642L146.94 59.788L148.892 72.0047L238.394 63.2243L267.927 60.3269Z" fill="#14213D"/>
<path d="M238.949 67.4233L238.394 63.2241L148.892 72.0046L149.38 78.2028L238.949 67.4233Z" fill="white"/>
<path d="M178.748 79.8198C183.867 79.8198 188.017 75.7578 188.017 70.7471C188.017 65.7363 183.867 61.6743 178.748 61.6743C173.629 61.6743 169.479 65.7363 169.479 70.7471C169.479 75.7578 173.629 79.8198 178.748 79.8198Z" fill="white"/>
<path d="M178.748 75.4183C182.52 75.4183 185.578 72.6031 185.578 69.1303C185.578 65.6575 182.52 62.8423 178.748 62.8423C174.976 62.8423 171.918 65.6575 171.918 69.1303C171.918 72.6031 174.976 75.4183 178.748 75.4183Z" fill="#14213D"/>
<path d="M150.99 54.088L150.547 57.0931L150.316 73.2695C150.299 74.4732 150.141 75.6626 149.844 76.816C148.989 80.1756 146.993 83.2316 144.045 85.4468C141.369 87.4589 137.72 88.9824 132.89 88.713C120.011 87.9943 118.873 77.9029 118.873 77.9029L119.359 59.6029L119.426 57.0931L120.011 52.5645C120.011 52.5645 121.572 39.8088 136.013 40.1681C150.453 40.5274 150.99 54.088 150.99 54.088Z" fill="#14213D"/>
<path d="M123.133 49.8697L126.06 45.5579L129.768 44.48H142.452L145.574 45.5579L148.408 49.8697L143.233 47.7138H128.716L123.133 49.8697Z" fill="white"/>
<path d="M133.868 80.8687L134.368 93.0854H133.15V94.4684H136.556V93.0854H135.563L135.634 80.8687H133.868Z" fill="white"/>
<path d="M132.553 91.126C133.072 91.126 133.492 91.513 133.492 91.9904V95.5632C133.492 96.0406 133.072 96.4276 132.553 96.4276C132.035 96.4276 131.614 96.0406 131.614 95.5632V91.9904C131.614 91.513 132.035 91.126 132.553 91.126Z" fill="#14213D"/>
<path d="M137.31 91.126C137.829 91.126 138.249 91.513 138.249 91.9904V95.5632C138.249 96.0406 137.829 96.4276 137.31 96.4276C136.792 96.4276 136.371 96.0406 136.371 95.5632V91.9904C136.371 91.513 136.792 91.126 137.31 91.126Z" fill="#14213D"/>
<path d="M130.235 41.8318L127.539 50.7681L128.059 50.9009L130.755 41.9647L130.235 41.8318Z" fill="#14213D"/>
<path d="M142.46 43.2578L141.931 43.3535L143.874 52.454L144.403 52.3583L142.46 43.2578Z" fill="#14213D"/>
<path d="M198.012 28.9812C199.947 28.9812 201.517 27.5365 201.517 25.7543C201.517 23.9721 199.947 22.5273 198.012 22.5273C196.076 22.5273 194.507 23.9721 194.507 25.7543C194.507 27.5365 196.076 28.9812 198.012 28.9812Z" fill="#14213D"/>
<path d="M100.999 39.5442C102.935 39.5442 104.504 38.0995 104.504 36.3173C104.504 34.5351 102.935 33.0903 100.999 33.0903C99.0635 33.0903 97.4943 34.5351 97.4943 36.3173C97.4943 38.0995 99.0635 39.5442 100.999 39.5442Z" fill="#14213D"/>
<path d="M21.6353 96.8854C21.6353 97.0534 21.8399 97.1883 22.0947 97.1883H100.964C101.219 97.1883 101.424 97.0534 101.424 96.8854C101.424 96.7174 101.219 96.5825 100.964 96.5825H22.0947C21.8399 96.5825 21.6353 96.7174 21.6353 96.8854Z" fill="white"/>
<path d="M52.9573 99.7259C54.8931 99.7259 56.4623 98.2811 56.4623 96.4989C56.4623 94.7167 54.8931 93.272 52.9573 93.272C51.0215 93.272 49.4523 94.7167 49.4523 96.4989C49.4523 98.2811 51.0215 99.7259 52.9573 99.7259Z" fill="#14213D"/>
</svg>
