<svg width="210" height="172" viewBox="0 0 210 172" fill="none" xmlns="http://www.w3.org/2000/svg">
<g clip-path="url(#clip0_476_975)">
<path d="M0 171.629C0 171.808 0.152126 171.952 0.341565 171.952H209.658C209.848 171.952 210 171.808 210 171.629C210 171.45 209.848 171.306 209.658 171.306H0.341565C0.152126 171.306 0 171.45 0 171.629Z" fill="#3F3D56"/>
<path d="M127.299 38.1999L128.447 44.4464L116.105 46.3475L118.976 37.6567L127.299 38.1999Z" fill="#A0616A"/>
<path d="M158.777 42.329C161.263 43.3837 161.859 47.2355 160.106 50.9319C159.428 52.4187 158.382 53.7298 157.058 54.7559L154.553 61.0848C152.909 68.6292 149.168 76.5725 144.015 75.9567C136.721 75.0852 134.424 66.6973 134.424 66.6973L144.238 63.0643L148.62 55.0711L150.114 51.8099C150.043 50.1922 150.382 48.582 151.103 47.114C152.856 43.4158 156.291 41.2742 158.777 42.329Z" fill="#A0616A"/>
<path d="M75.2281 163.721L68.4221 158.961L68.4762 158.859L106.395 87.3703L106.466 87.3587L137 82.4526L143.359 95.8561L159.99 117.982C161.136 119.506 161.734 121.3 161.722 123.17L161.453 162.582L151.136 162.861L151.122 162.736L147.523 130.871C147.261 128.549 145.988 126.4 144.03 124.977L123.732 110.22L75.2281 163.721H75.2281Z" fill="#44241D"/>
<path d="M69.4654 159.463C69.4654 159.463 66.0213 160.006 64.8732 161.907C63.7251 163.808 60.281 167.882 60.281 167.882C60.281 167.882 57.6978 172.499 63.7251 171.956C69.7524 171.413 72.0486 168.968 72.0486 168.968L74.6317 162.179L69.4654 159.463Z" fill="#44241D"/>
<path d="M156.431 159.463C156.431 159.463 159.875 160.006 161.023 161.907C162.171 163.808 165.615 167.882 165.615 167.882C165.615 167.882 168.199 172.499 162.171 171.956C156.144 171.413 153.848 168.968 153.848 168.968L151.265 162.179L156.431 159.463Z" fill="#44241D"/>
<path d="M110.365 46.0756L130.743 42.2734L142.224 45.804L139.067 86.2703L106.49 87.4924L110.365 46.0756Z" fill="#FCA311"/>
<path d="M140.18 44.8975L144.619 51.2421L145.649 66.884L132.465 67.8309L132.82 47.5664L140.18 44.8975Z" fill="#FCA311"/>
<path d="M152.38 60.1217L147.045 58.1162L140.263 70.0029L146.457 72.9254L152.38 60.1217Z" fill="#A0616A"/>
<path d="M156.098 50.0055C155.727 50.0055 155.356 49.9461 155.001 49.8262C154.147 49.5371 153.453 48.9186 153.098 48.1288L149.052 39.1341C147.528 35.7457 145.777 32.4068 143.849 29.2104L143.003 27.8098C142.422 26.9637 128.654 6.91415 127.999 5.34829C127.506 4.16753 128.981 1.74634 129.044 1.6437L129.061 1.62142C129.094 1.58694 132.397 -1.81822 136.371 1.344C140.273 4.4484 146.842 25.0223 147.119 25.8968L147.297 26.3203C148.917 30.1931 150.965 33.9218 153.385 37.4023L158.824 45.2236C159.33 45.9511 159.487 46.8518 159.257 47.6947C159.026 48.5373 158.426 49.2518 157.61 49.6552C157.14 49.8878 156.62 50.0055 156.098 50.0055Z" fill="#3F3D56"/>
<path d="M119.809 52.8658L126.217 53.2063L138.528 40.9168L143.338 35.5057C143.76 33.9364 144.572 32.4855 145.707 31.2742C148.505 28.2058 152.445 27.0844 154.508 28.7686C156.571 30.4528 155.976 34.3046 153.179 37.3716C152.078 38.6123 150.68 39.5855 149.101 40.2097L147.914 41.6901L134.327 59.761C131.876 63.0215 127.541 64.4969 123.456 63.461L115.14 61.3521L119.809 52.8658Z" fill="#A0616A"/>
<path d="M116.213 64.976L106.325 58.9661C103.182 57.056 101.975 53.3142 103.453 50.0691C104.351 48.0981 106.114 46.6208 108.29 46.0161C110.464 45.4109 112.794 45.7511 114.676 46.9501L124.385 53.1337L116.213 64.976Z" fill="#FCA311"/>
<path d="M120.991 40.4957C126.586 40.4957 131.122 36.2035 131.122 30.9088C131.122 25.614 126.586 21.3218 120.991 21.3218C115.395 21.3218 110.859 25.614 110.859 30.9088C110.859 36.2035 115.395 40.4957 120.991 40.4957Z" fill="#A0616A"/>
<path d="M127.655 39.1841L126.781 37.8048C126.781 37.8048 130.612 35.361 127.447 33.9426C124.281 32.5242 123.781 29.0562 123.781 29.0562C123.781 29.0562 114.534 26.5351 115.034 24.6433C115.533 22.7516 114.117 21.4118 116.449 20.6234C118.782 19.8349 129.194 20.6218 130.36 22.9075C131.527 25.1931 132.694 31.4985 132.111 32.3656C131.528 33.2327 127.655 39.1841 127.655 39.1841V39.1841Z" fill="#44241D"/>
<path d="M125.03 28.3464L115.617 22.4361C115.617 22.4361 103.455 18.8906 108.037 25.6686L111.911 26.4169C111.911 26.4169 122.448 28.7408 125.03 28.3464H125.03Z" fill="#FCA311"/>
<path d="M122.198 27.0069L132.028 34.0207C132.028 34.0207 137.774 24.3252 128.777 19.5183C119.781 14.7113 114.076 22.2393 114.076 22.2393L116.45 24.643L122.198 27.0069Z" fill="#FCA311"/>
<path d="M51.5645 11.1772C51.5645 14.1048 54.073 16.4812 57.1699 16.4812C58.6854 16.4812 60.0603 15.911 61.0676 14.9848C62.1209 14.0206 62.7723 12.6709 62.7723 11.1772C62.7723 8.24942 60.264 5.87305 57.1699 5.87305C56.1999 5.87305 55.29 6.10671 54.4949 6.51408C54.36 6.58463 54.228 6.66075 54.0988 6.74217C52.8877 7.49182 52.0065 8.67311 51.6937 10.0556C51.6536 10.2131 51.6247 10.3733 51.6076 10.5363C51.5788 10.7454 51.5645 10.96 51.5645 11.1772H51.5645Z" fill="#FCA311"/>
<path d="M51.6077 10.5364C51.6965 10.6286 51.7885 10.7292 51.8888 10.8432C52.2277 11.2288 52.3625 11.438 52.552 11.7285C52.7154 11.9811 52.9222 12.2962 53.3267 12.8285C54.1619 13.9257 54.581 14.477 55.2326 14.9768C55.8756 15.4683 56.6764 16.0821 57.8788 16.1609C57.9621 16.1663 58.0453 16.1663 58.1258 16.1663C59.5807 16.1663 60.6427 15.3379 61.0475 14.9659C62.1067 13.9882 62.3275 12.8013 62.3735 12.3369C62.4108 11.9622 62.4624 10.6476 61.5526 9.46632C60.749 8.42335 59.6382 8.05137 58.5619 7.68736C57.8586 7.45105 57.325 7.36684 56.8513 7.29086C56.2027 7.18769 55.6458 7.09804 54.7934 6.67435C54.6757 6.61468 54.5782 6.56296 54.4949 6.51416C54.3601 6.58471 54.2281 6.66083 54.0989 6.74225C54.119 6.75312 54.142 6.76665 54.165 6.78031C54.2769 6.84277 54.4145 6.91875 54.6039 7.01383C55.5138 7.46736 56.131 7.56788 56.7823 7.67105C57.2619 7.74717 57.7583 7.82594 58.4271 8.05137C59.4891 8.40982 60.4936 8.74652 61.2227 9.69441C62.0492 10.7672 62.0005 11.9594 61.9688 12.2989C61.9259 12.7226 61.7249 13.8008 60.7633 14.6889C60.3759 15.0447 59.3254 15.8675 57.9077 15.7752C56.8314 15.7046 56.0878 15.1342 55.488 14.678C54.8795 14.2108 54.4719 13.6731 53.6597 12.6057C53.2608 12.0817 53.0598 11.772 52.8992 11.5248C52.7098 11.2343 52.5604 11.0034 52.2047 10.5988C52.0124 10.3788 51.8428 10.2023 51.6937 10.0556C51.6536 10.2132 51.6248 10.3734 51.6077 10.5364L51.6077 10.5364Z" fill="white"/>
</g>
<defs>
<clipPath id="clip0_476_975">
<rect width="210" height="172" fill="white"/>
</clipPath>
</defs>
</svg>
