<svg width="346" height="244" viewBox="0 0 346 244" fill="none" xmlns="http://www.w3.org/2000/svg">
<g clip-path="url(#clip0_346_1101)">
<path d="M43.0123 217.049L48.3525 217.177L46.3354 233.663L42.7168 233.576L43.0123 217.049Z" fill="#FFB6B6"/>
<path d="M55.1319 241.233L55.1318 241.233C55.1318 240.785 54.9022 240.38 54.5474 240.202L50.562 238.206L47.8448 231.815L47.8036 225.377L42.2045 224.709L41.3947 228.811C41.3947 228.811 43.062 228.558 41.0035 230.371C38.9451 232.183 39.9362 235.728 39.9362 235.728L39.4873 242.355H43.1926L43.3915 238.234C46.2733 239.474 46.9802 242.355 46.9802 242.355H54.1629C54.698 242.355 55.1318 241.852 55.1318 241.233H55.1318H55.1319Z" fill="#2F2E41"/>
<path d="M50.8346 217.23L56.1748 217.359L54.1577 233.845L50.5391 233.758L50.8346 217.23Z" fill="#FFB6B6"/>
<path d="M62.9541 241.414H62.9541C62.9541 240.966 62.7244 240.562 62.3697 240.384L58.3842 238.387L55.667 231.997L55.6259 225.558L50.0268 224.891L49.217 228.992C49.217 228.992 50.8843 228.74 48.8258 230.552C46.7673 232.364 47.7585 235.91 47.7585 235.91L47.3096 242.537H51.0149L51.2138 238.415C54.0956 239.655 54.8025 242.537 54.8025 242.537H61.9851C62.5203 242.537 62.9541 242.034 62.9541 241.414L62.9541 241.414H62.9541Z" fill="#2F2E41"/>
<path d="M44.7106 120.53L38.6567 135.189C36.6387 140.075 35.9992 145.434 36.8095 150.668L39.7519 222.681H51.385L56.4628 158.553L57.4648 183.885L45.8191 219.976H57.273L71.975 183.885L73.065 156.094L67.8418 134.529L44.7106 120.53L44.7106 120.53Z" fill="#2F2E41"/>
<path d="M208.719 57.8067V21.1917C208.719 9.48783 199.363 2.95512e-09 187.822 2.95512e-09H111.324C99.7825 -0.000193346 90.4262 9.48749 90.426 21.1913V222.064C90.426 233.768 99.7821 243.256 111.323 243.256H187.821C199.362 243.256 208.718 233.768 208.718 222.064V83.87H208.719C209.445 83.87 210.035 83.2724 210.035 82.5352L210.036 59.1416C210.036 58.4044 209.446 57.8067 208.719 57.8067L208.719 57.8067V57.8067Z" fill="#3F3D56"/>
<path d="M204.795 19.4293V223.14C192.582 222.379 198.794 238.698 188.951 239.21H110.884C102.13 239.212 95.0319 232.017 95.0293 223.14V19.4293C95.0319 10.5526 102.129 3.35824 110.883 3.35938H116.64C115.072 7.26934 127.726 8.54144 128.696 8.54268H168.678C172.841 8.53734 182.882 4.27062 182.517 3.35938H188.948C197.698 3.36089 204.792 10.5529 204.795 19.4262L204.795 19.4293H204.795Z" fill="white"/>
<path d="M89.8107 62.292C89.254 62.292 88.8013 62.7511 88.8013 63.3157V71.5052C88.8013 72.0698 89.254 72.5289 89.8107 72.5289C90.3675 72.5289 90.8202 72.0698 90.8202 71.5052V63.3157C90.8202 62.7511 90.3675 62.292 89.8107 62.292Z" fill="#3F3D56"/>
<path d="M89.8107 86.8604C89.254 86.8604 88.8013 87.3195 88.8013 87.884V103.751C88.8013 104.316 89.254 104.775 89.8107 104.775C90.3675 104.775 90.8202 104.316 90.8202 103.751V87.884C90.8202 87.3195 90.3675 86.8604 89.8107 86.8604Z" fill="#3F3D56"/>
<path d="M89.8107 109.382C89.254 109.382 88.8013 109.841 88.8013 110.406V126.273C88.8013 126.837 89.254 127.296 89.8107 127.296C90.3675 127.296 90.8202 126.837 90.8202 126.273V110.406C90.8202 109.841 90.3675 109.382 89.8107 109.382Z" fill="#3F3D56"/>
<path d="M178.309 82.8066H120.528C116.568 82.8021 113.358 79.5473 113.354 75.531V50.3442C113.358 46.3279 116.568 43.0731 120.528 43.0686C138.966 37.8885 158.303 38.3739 178.309 43.0686C182.27 43.0733 185.479 46.328 185.484 50.3442V75.531C185.479 79.5472 182.27 82.8019 178.309 82.8066H178.309Z" fill="#F2F2F2"/>
<path d="M184.196 109.204H114.642C113.931 109.203 113.355 108.619 113.354 107.898V90.4018C113.355 89.6809 113.931 89.0966 114.642 89.0957H184.196C184.907 89.0966 185.483 89.6809 185.484 90.4018V107.898C185.483 108.619 184.907 109.203 184.196 109.204V109.204V109.204ZM114.642 89.6181C114.215 89.6186 113.87 89.9692 113.869 90.4018V107.898C113.87 108.331 114.215 108.681 114.642 108.682H184.196C184.623 108.681 184.968 108.331 184.969 107.898V90.4018C184.968 89.9692 184.623 89.6186 184.196 89.6181H114.642V89.6181Z" fill="#E6E6E6"/>
<path d="M136.152 95.4912C135.654 95.5019 135.259 95.9199 135.269 96.4248C135.28 96.9148 135.669 97.3094 136.152 97.3198H178.657C179.155 97.3391 179.574 96.9456 179.593 96.4409C179.612 95.9362 179.224 95.5113 178.726 95.492H136.152V95.4912V95.4912Z" fill="#E6E6E6"/>
<path d="M136.152 100.979C135.654 100.989 135.259 101.407 135.269 101.912C135.28 102.402 135.669 102.797 136.152 102.807H178.657C179.155 102.826 179.574 102.433 179.593 101.928C179.612 101.423 179.224 100.999 178.726 100.979H136.152V100.979V100.979Z" fill="#E6E6E6"/>
<path d="M124.212 102.807C126.204 102.807 127.819 101.17 127.819 99.1498C127.819 97.1297 126.204 95.4922 124.212 95.4922C122.22 95.4922 120.605 97.1297 120.605 99.1498C120.605 101.17 122.22 102.807 124.212 102.807Z" fill="#E6E6E6"/>
<path d="M184.196 195.082H114.642C113.931 195.081 113.355 194.497 113.354 193.776V176.28C113.355 175.559 113.931 174.975 114.642 174.974H184.196C184.907 174.975 185.483 175.559 185.484 176.28V193.776C185.483 194.497 184.907 195.081 184.196 195.082V195.082V195.082ZM114.642 175.496C114.215 175.497 113.87 175.847 113.869 176.28V193.776C113.87 194.209 114.215 194.559 114.642 194.56L176.295 193.944C176.722 193.943 183.191 191.497 183.191 191.064L184.969 176.28C184.968 175.847 184.623 175.497 184.196 175.496H114.642V175.496Z" fill="#E6E6E6"/>
<path d="M136.152 183.977C135.654 183.966 135.242 184.367 135.231 184.872C135.221 185.377 135.616 185.795 136.114 185.805C136.127 185.806 136.139 185.806 136.152 185.805H178.657C179.155 185.825 179.574 185.431 179.593 184.926C179.612 184.422 179.224 183.997 178.726 183.978H136.152V183.977V183.977Z" fill="#E6E6E6"/>
<path d="M124.212 188.685C126.204 188.685 127.819 187.048 127.819 185.028C127.819 183.008 126.204 181.37 124.212 181.37C122.22 181.37 120.605 183.008 120.605 185.028C120.605 187.048 122.22 188.685 124.212 188.685Z" fill="#E6E6E6"/>
<path d="M184.196 158.88H114.642C113.931 158.879 113.355 158.295 113.354 157.574V140.078C113.355 139.357 113.931 138.772 114.642 138.771H184.196C184.907 138.772 185.483 139.357 185.484 140.078V157.574C185.483 158.295 184.907 158.879 184.196 158.88V158.88V158.88ZM114.642 139.294C114.215 139.294 113.87 139.645 113.869 140.078V157.574C113.87 158.007 114.215 158.357 114.642 158.358L176.295 157.742C176.722 157.741 183.191 155.294 183.191 154.862L184.969 140.078C184.968 139.645 184.623 139.294 184.196 139.294H114.642V139.294Z" fill="#E6E6E6"/>
<path d="M136.152 147.775C135.654 147.764 135.242 148.165 135.231 148.67C135.221 149.175 135.616 149.593 136.114 149.603C136.127 149.603 136.139 149.603 136.152 149.603H178.657C179.155 149.623 179.574 149.229 179.593 148.724C179.612 148.22 179.224 147.795 178.726 147.775H136.152V147.775V147.775Z" fill="#E6E6E6"/>
<path d="M124.212 152.483C126.204 152.483 127.819 150.846 127.819 148.826C127.819 146.806 126.204 145.168 124.212 145.168C122.22 145.168 120.605 146.806 120.605 148.826C120.605 150.846 122.22 152.483 124.212 152.483Z" fill="#E6E6E6"/>
<path d="M122.236 66.379C124.346 67.0895 126.558 67.8088 128.811 67.6874C129.836 67.6321 130.822 67.3843 131.752 66.9433C132.706 66.491 133.577 65.8769 134.543 65.4484C138.09 63.8738 141.609 66.5638 144.917 67.5734C146.568 68.0772 148.304 68.1977 149.919 67.4961C151.703 66.721 153.049 65.2417 154.518 64.0066C157.811 61.2374 162.108 59.7445 166.382 59.8573C171.071 59.9811 175.61 62.0814 178.839 65.5168C179.11 65.8048 179.54 65.368 179.269 65.0805C176.447 62.0781 172.645 60.054 168.596 59.4406C164.538 58.8259 160.325 59.6473 156.757 61.6965C154.952 62.7335 153.504 64.153 151.913 65.4778C150.364 66.7678 148.642 67.5991 146.6 67.3249C143.082 66.8526 140.056 64.1036 136.408 64.3529C134.077 64.512 132.413 66.29 130.22 66.8568C127.604 67.5329 124.87 66.6165 122.398 65.7839C122.025 65.6585 121.865 66.2542 122.236 66.379L122.236 66.379V66.379Z" fill="#FCA311"/>
<path d="M128.841 69.667C130.086 69.667 131.095 68.6436 131.095 67.3813C131.095 66.119 130.086 65.0957 128.841 65.0957C127.596 65.0957 126.587 66.119 126.587 67.3813C126.587 68.6436 127.596 69.667 128.841 69.667Z" fill="#FCA311"/>
<path d="M148.298 69.7675C149.543 69.7675 150.552 68.7442 150.552 67.4819C150.552 66.2196 149.543 65.1963 148.298 65.1963C147.053 65.1963 146.044 66.2196 146.044 67.4819C146.044 68.7442 147.053 69.7675 148.298 69.7675Z" fill="#FCA311"/>
<path d="M168.058 62.0146C169.303 62.0146 170.312 60.9913 170.312 59.729C170.312 58.4667 169.303 57.4434 168.058 57.4434C166.813 57.4434 165.804 58.4667 165.804 59.729C165.804 60.9913 166.813 62.0146 168.058 62.0146Z" fill="#FCA311"/>
<path d="M37.2751 139.026C30.6113 158.267 39.1017 173.426 37.3398 163.647C35.8673 155.475 60.9588 130.607 68.5115 135.735C68.3533 134.905 63.5526 119.943 63.0821 119.874C63.7404 118.193 62.8228 118.177 62.7855 117.315C62.6427 113.988 63.4054 110.534 64.8909 106.979C65.8645 104.233 65.8816 101.873 64.938 99.9707C64.1261 98.4069 62.7621 97.2114 61.1186 96.6233L56.1695 90.562C54.8803 88.9844 52.9789 85.5802 50.9587 85.593L40.114 85.2001C39.8041 85.0113 35.9961 88.3319 32.2883 89.9614C28.2669 91.7304 29.0965 96.5583 29.1066 96.62L29.116 96.6776L29.1602 96.7187L35.0711 114.362L40.4118 119.438C40.1412 120.233 40.2089 120.831 40.7156 121.173C39.9883 121.719 36.7526 138.043 37.2751 138.615V139.026L37.2751 139.026Z" fill="#FCA311"/>
<path d="M92.9992 104.108C92.1928 104.435 91.4752 104.952 90.9063 105.617L82.3184 108.603L83.8388 112.705L92.3866 109.235C93.2528 109.296 94.1209 109.146 94.9184 108.798C96.9252 107.953 98.1231 106.219 97.5925 104.924C97.0619 103.629 95.006 103.264 92.9992 104.108V104.108V104.108Z" fill="#FFB6B6"/>
<path d="M47.1875 90.9427L66.7792 117.761L89.7444 111.347L88.7461 105.272L71.2586 108.631L61.5027 93.4213C58.317 87.1765 52.0381 85.9189 47.1875 90.9423V90.9427V90.9427Z" fill="#FCA311"/>
<path d="M187.899 226.171H178.959C177.397 226.171 176.127 224.882 176.127 223.299C174.432 218.629 174.219 214.441 176.127 210.942C176.127 209.358 177.397 208.07 178.959 208.07C181.603 206.125 184.685 206.716 187.899 208.07C189.461 208.07 190.731 209.358 190.731 210.942C189.646 214.901 189.725 219.032 190.731 223.299C190.731 224.882 189.461 226.171 187.899 226.171Z" fill="#FCA311"/>
<path d="M187.035 213.57H179.814C179.565 213.57 179.363 213.365 179.363 213.112C179.363 212.859 179.565 212.654 179.814 212.654H187.035C187.284 212.654 187.486 212.859 187.486 213.112C187.486 213.365 187.284 213.57 187.035 213.57Z" fill="white"/>
<path d="M187.035 217.23H179.814C179.565 217.23 179.363 217.025 179.363 216.772C179.363 216.519 179.565 216.314 179.814 216.314H187.035C187.284 216.314 187.486 216.519 187.486 216.772C187.486 217.025 187.284 217.23 187.035 217.23Z" fill="white"/>
<path d="M187.035 220.891H179.814C179.565 220.891 179.363 220.686 179.363 220.433C179.363 220.18 179.565 219.976 179.814 219.976H187.035C187.284 219.976 187.486 220.18 187.486 220.433C187.486 220.686 187.284 220.891 187.035 220.891Z" fill="white"/>
<path d="M248.293 243H0V244H248.293V243Z" fill="#E6E6E6"/>
<path d="M53.4851 82.9169L37.8024 84.365L37.3396 67.8357L54.4249 67.3438L53.4851 82.9169Z" fill="#2F2E41"/>
<path d="M45.5548 80.6983C50.1003 80.6983 53.7851 76.9616 53.7851 72.3521C53.7851 67.7426 50.1003 64.0059 45.5548 64.0059C41.0093 64.0059 37.3245 67.7426 37.3245 72.3521C37.3245 76.9616 41.0093 80.6983 45.5548 80.6983Z" fill="#FFB6B6"/>
<path d="M52.1755 64.2191C52.1175 62.1482 49.5764 61.9239 47.5965 61.4128L45.8012 60.468C44.0389 60.0131 42.1692 60.333 40.6518 61.3491L35.8645 64.2901C33.715 65.7296 33.3735 68.0562 32.4994 70.5134L30.9173 74.1103C30.0568 76.5293 31.1939 79.7344 32.0637 82.1499L32.4282 83.162L31.8583 86.4746L41.8347 86.0021L42.7215 80.8883L41.0186 78.9471C40.4143 78.2583 40.3653 77.2355 40.9008 76.4906H40.9008C42.8272 73.8109 42.4702 70.0556 42.4702 70.0556L44.9081 71.4042C46.5099 71.6258 47.9374 71.6015 49.1934 71.3353C50.5747 71.0426 51.7486 70.4573 52.7188 69.5848L53.5879 72.5494C53.8119 76.2391 53.132 77.2184 49.8889 80.8276L55.576 84.4483L55.3656 82.4889C54.8653 77.8279 56.3907 74.1523 56.1769 70.3588C56.029 67.7357 54.4906 65.3986 52.1755 64.2191H52.1755H52.1755Z" fill="#2F2E41"/>
<path d="M53.5379 134.596C52.7344 134.263 51.8638 134.129 50.999 134.207L42.7774 130.302L41.0598 134.323L49.5845 137.851C50.1653 138.506 50.8923 139.01 51.7046 139.321C53.7264 140.128 55.7763 139.725 56.2822 138.42C56.788 137.114 55.5598 135.403 53.5379 134.596H53.5379Z" fill="#FFB6B6"/>
<path d="M29.6148 92.8463L25.3274 125.937L46.237 137.508L49.682 132.436L34.8046 122.528L38.2109 104.716C40.199 97.9805 36.5454 92.6516 29.6151 92.846L29.6148 92.8463V92.8463Z" fill="#FCA311"/>
</g>
<defs>
<clipPath id="clip0_346_1101">
<rect width="345.237" height="244" fill="white"/>
</clipPath>
</defs>
</svg>
