<svg width="653" height="467" viewBox="0 0 653 467" fill="none" xmlns="http://www.w3.org/2000/svg">
<g clip-path="url(#clip0_4_191)">
<path opacity="0.1" d="M326.5 467C506.821 467 653 457.811 653 446.476C653 435.141 506.821 425.952 326.5 425.952C146.179 425.952 0 435.141 0 446.476C0 457.811 146.179 467 326.5 467Z" fill="#6C63FF"/>
<path d="M601.786 431.275C601.791 432.897 601.624 434.515 601.289 436.102C601.226 436.4 601.158 436.724 601.09 436.979C599.323 444.063 594.342 449.243 588.397 449.573C588.198 449.573 587.999 449.573 587.775 449.573C581.487 449.573 576.17 444.15 574.416 436.68C574.366 436.481 574.323 436.282 574.279 436.058C573.944 434.472 573.777 432.854 573.782 431.232C573.782 421.113 580.044 412.916 587.775 412.916C595.505 412.916 601.786 421.169 601.786 431.275Z" fill="#3F3D56"/>
<path opacity="0.1" d="M601.786 431.275C601.791 432.897 601.624 434.515 601.289 436.102C601.226 436.4 601.158 436.724 601.09 436.979C600.878 436.979 600.673 436.979 600.468 436.979C598.928 436.896 597.397 436.688 595.89 436.357C594.556 436.769 593.192 437.081 591.811 437.29C590.752 437.449 589.684 437.549 588.614 437.588H587.532C586.251 437.588 584.971 437.503 583.701 437.333C581.648 437.059 579.631 436.558 577.687 435.841C576.623 436.195 575.539 436.486 574.441 436.711C574.391 436.512 574.348 436.313 574.304 436.089C573.969 434.503 573.802 432.885 573.807 431.263C573.807 421.144 580.069 412.947 587.799 412.947C595.53 412.947 601.786 421.169 601.786 431.275Z" fill="black"/>
<path d="M631.638 397.162C631.643 392.711 630.599 388.322 628.59 384.35L612.135 389.468L626.581 380.973C624.159 377.471 620.982 374.558 617.283 372.45C613.585 370.341 609.46 369.09 605.213 368.789C604.536 367.764 603.794 366.784 602.993 365.853L579.36 373.211L598.745 361.817C595.037 358.972 590.685 357.085 586.074 356.322C581.463 355.56 576.735 355.945 572.309 357.444C567.882 358.943 563.893 361.509 560.694 364.917C557.495 368.324 555.185 372.467 553.968 376.98L574.211 400.29L552.251 384.399C546.683 388.343 542.718 394.157 541.079 400.78C539.439 407.404 540.235 414.396 543.321 420.482C546.407 426.567 551.578 431.341 557.89 433.932C564.202 436.523 571.235 436.759 577.706 434.597C583.559 436.742 589.953 436.917 595.915 435.094C600.072 436.014 604.381 435.989 608.527 435.021C612.672 434.053 616.548 432.167 619.867 429.502C623.187 426.837 625.866 423.461 627.707 419.622C629.548 415.784 630.505 411.581 630.506 407.324C630.506 406.702 630.506 406.08 630.443 405.458C631.249 402.767 631.652 399.971 631.638 397.162Z" fill="#304B84"/>
<path opacity="0.1" d="M631.146 402.442C622.456 400.792 613.544 400.678 604.815 402.106C594.933 403.742 584.833 407.337 575.169 404.706C569.497 403.164 564.596 399.594 559.055 397.616C553.71 395.745 547.95 395.399 542.419 396.614C540.31 401.657 539.697 407.2 540.654 412.581C541.611 417.963 544.097 422.954 547.816 426.96C551.534 430.966 556.327 433.817 561.622 435.171C566.917 436.525 572.49 436.326 577.675 434.597C583.528 436.742 589.922 436.917 595.884 435.094C600.041 436.014 604.35 435.989 608.496 435.021C612.641 434.053 616.517 432.167 619.836 429.502C623.156 426.837 625.835 423.461 627.676 419.622C629.517 415.784 630.474 411.581 630.475 407.324C630.475 406.702 630.475 406.08 630.412 405.458C630.712 404.467 630.957 403.46 631.146 402.442Z" fill="black"/>
<path d="M434.463 106.956H430.899C430.113 106.956 429.475 107.594 429.475 108.38V158.409C429.475 159.196 430.113 159.834 430.899 159.834H434.463C435.249 159.834 435.887 159.196 435.887 158.409V108.38C435.887 107.594 435.249 106.956 434.463 106.956Z" fill="#3F3D56"/>
<path d="M218.942 65.5282H217.206C216.691 65.5282 216.274 65.9459 216.274 66.4611V82.0035C216.274 82.5188 216.691 82.9364 217.206 82.9364H218.942C219.457 82.9364 219.874 82.5188 219.874 82.0035V66.4611C219.874 65.9459 219.457 65.5282 218.942 65.5282Z" fill="#3F3D56"/>
<path d="M219.147 97.4028H217.194C216.614 97.4028 216.143 97.8734 216.143 98.4539V126.653C216.143 127.233 216.614 127.704 217.194 127.704H219.147C219.727 127.704 220.198 127.233 220.198 126.653V98.4539C220.198 97.8734 219.727 97.4028 219.147 97.4028Z" fill="#3F3D56"/>
<path d="M219.066 138.302H217.206C216.653 138.302 216.205 138.75 216.205 139.303V167.863C216.205 168.416 216.653 168.864 217.206 168.864H219.066C219.619 168.864 220.067 168.416 220.067 167.863V139.303C220.067 138.75 219.619 138.302 219.066 138.302Z" fill="#3F3D56"/>
<path d="M410.737 8.00439H240.509C228.251 8.00439 218.313 17.9424 218.313 30.2016V422.021C218.313 434.28 228.251 444.218 240.509 444.218H410.737C422.995 444.218 432.933 434.28 432.933 422.021V30.2016C432.933 17.9424 422.995 8.00439 410.737 8.00439Z" fill="#3F3D56"/>
<path d="M333.31 21.028H306.5C305.627 21.028 304.92 21.7352 304.92 22.6077V25.5371C304.92 26.4095 305.627 27.1168 306.5 27.1168H333.31C334.182 27.1168 334.89 26.4095 334.89 25.5371V22.6077C334.89 21.7352 334.182 21.028 333.31 21.028Z" fill="#E6E8EC"/>
<path d="M342.875 27.521C344.781 27.521 346.326 25.9756 346.326 24.0692C346.326 22.1629 344.781 20.6174 342.875 20.6174C340.969 20.6174 339.423 22.1629 339.423 24.0692C339.423 25.9756 340.969 27.521 342.875 27.521Z" fill="#E6E8EC"/>
<path d="M419.68 36.4087V415.795C419.678 420.315 417.882 424.65 414.685 427.846C411.488 431.041 407.153 432.837 402.634 432.837H248.613C244.093 432.837 239.758 431.041 236.561 427.846C233.365 424.65 231.568 420.315 231.566 415.795V36.4087C231.566 34.17 232.007 31.9532 232.864 29.8849C233.72 27.8166 234.976 25.9373 236.559 24.3543C238.142 22.7713 240.021 21.5156 242.089 20.6589C244.157 19.8022 246.374 19.3612 248.613 19.3612H271.66V22.3217C271.667 26.0409 273.149 29.6055 275.78 32.2337C278.411 34.8618 281.978 36.3387 285.697 36.3403H364.057C365.9 36.3403 367.725 35.9772 369.428 35.2718C371.131 34.5663 372.679 33.5324 373.982 32.2289C375.285 30.9254 376.319 29.3779 377.025 27.6748C377.73 25.9718 378.093 24.1464 378.093 22.303V19.3612H402.665C407.18 19.3694 411.508 21.1692 414.698 24.3653C417.888 27.5614 419.68 31.8928 419.68 36.4087Z" fill="white"/>
<path opacity="0.2" d="M421.03 193.07V322.081H419.68V322.211H231.566V164.598C232.773 163.221 233.996 161.793 235.235 160.313C261.654 128.761 297.563 120.458 325.356 119.588C344.398 118.966 363.354 122.903 381.451 130.72C391.01 134.85 404.729 139.378 419.68 139.826V188.599C420.594 191.205 421.03 193.07 421.03 193.07Z" fill="#6C63FF"/>
<path opacity="0.2" d="M421.03 193.07V322.081H231.566V237.571C238.314 235.873 247.736 229.342 259.826 211.3C274.285 189.712 293.931 184.034 309.136 183.436C319.553 183.026 329.927 185.7 339.827 191.055C350.966 197.07 372.434 204.321 388.746 183.269C406.782 159.989 416.371 179.189 419.68 188.599C420.594 191.205 421.03 193.07 421.03 193.07Z" fill="#6C63FF"/>
<path d="M393.666 298.453H258.09C253.969 298.453 250.628 301.794 250.628 305.916V338.257C250.628 342.379 253.969 345.721 258.09 345.721H393.666C397.787 345.721 401.129 342.379 401.129 338.257V305.916C401.129 301.794 397.787 298.453 393.666 298.453Z" fill="#736E9E"/>
<path d="M83.3725 425.236L95.2758 418.215C93.666 415.465 91.6082 413.003 89.1873 410.932L66.7303 417.941L84.3302 407.592C79.9735 405.205 75.0704 403.994 70.1035 404.078C65.1366 404.162 60.2771 405.537 56.0034 408.07C51.7297 410.602 48.189 414.204 45.7298 418.52C43.2707 422.837 41.9778 427.719 41.9785 432.687C41.9785 448.491 54.7835 449.038 70.5861 449.038C86.3887 449.038 99.1938 448.491 99.1938 432.687C99.1993 428.689 98.3623 424.735 96.7372 421.082L83.3725 425.236Z" fill="#304B84"/>
<path opacity="0.1" d="M86.4013 440.605C85.1344 439.334 83.7187 438.221 82.1848 437.29C80.0205 435.853 77.7879 434.391 75.2381 433.9C72.9992 433.471 70.692 433.832 68.3971 433.707C64.4377 433.463 60.7109 431.754 57.9429 428.912C56.3198 427.233 55.0386 425.18 53.0858 423.881C50.9776 422.5 48.3034 422.201 45.8033 422.543C45.0788 422.653 44.3606 422.8 43.6516 422.985C42.5292 426.099 41.9568 429.384 41.96 432.694C41.96 448.497 54.765 449.044 70.5676 449.044C78.2357 449.044 85.1948 448.914 90.3317 446.973L89.4735 445.369C88.6549 443.657 87.6226 442.056 86.4013 440.605Z" fill="black"/>
<path d="M141.944 362.159C141.034 362.956 140.334 363.964 139.904 365.094C138.84 368.415 141.813 371.674 142.099 375.151C142.323 377.913 140.855 380.487 140.022 383.137C139.081 386.428 139.142 389.925 140.197 393.181C141.251 396.438 143.251 399.307 145.942 401.422C146.515 401.908 147.192 402.257 147.92 402.442C148.521 402.514 149.13 402.464 149.711 402.292C150.292 402.121 150.831 401.834 151.297 401.447C152.741 400.396 153.842 398.942 154.462 397.267C154.978 395.622 155.257 393.911 155.29 392.186L155.731 385.531C156.191 378.584 156.608 371.419 154.916 364.597C154.363 362.358 153.337 357.214 150.75 356.903C148.163 356.592 143.66 360.479 141.944 362.159Z" fill="#3F3D56"/>
<path d="M185.328 333.574C182.221 344.484 179.969 355.619 178.592 366.879C178.393 368.465 178.188 370.132 177.23 371.413C175.321 373.982 171.496 373.82 168.325 373.403C167.563 373.364 166.821 373.151 166.154 372.782C164.96 371.973 164.699 370.356 164.556 368.919C162.383 347.74 160.932 326.505 160.203 305.213C160.172 304.399 186.752 304.324 189.028 306.457C191.304 308.591 189.538 316.57 189.028 319.288C188.195 324.127 186.69 328.841 185.328 333.574Z" fill="#FBBEBE"/>
<path opacity="0.05" d="M185.328 333.574C182.221 344.484 179.969 355.619 178.592 366.879C178.393 368.465 178.188 370.132 177.23 371.413C175.321 373.982 171.496 373.82 168.325 373.403C167.563 373.364 166.821 373.151 166.154 372.782C164.96 371.973 164.699 370.356 164.556 368.919C162.383 347.74 160.932 326.505 160.203 305.213C160.172 304.399 186.752 304.324 189.028 306.457C191.304 308.591 189.538 316.57 189.028 319.288C188.195 324.127 186.69 328.841 185.328 333.574Z" fill="black"/>
<path d="M129.978 302.184L140.743 325.862C144.325 333.736 147.932 341.697 149.643 350.174C150.329 353.715 150.767 357.3 150.955 360.902C151.215 363.99 151.119 367.097 150.669 370.163C150.277 372.439 149.556 374.654 149.238 376.942C147.995 386.066 153.163 394.649 156.701 403.139C159.759 410.43 161.704 418.139 162.473 426.008C162.796 429.36 162.976 432.917 164.892 435.685C168.393 434.634 171.814 433.726 175.464 434.136C176.117 428.781 172.734 423.849 171.49 418.588C169.208 408.948 174.251 398.816 172.535 389.058C171.602 383.771 168.71 378.796 168.947 373.435C169.388 363.658 171.223 353.781 169.357 344.203C167.255 333.375 161.21 323.53 159.873 312.583C158.847 304.175 160.495 294.877 155.812 287.811C145.582 287.208 135.003 293.247 129.978 302.184Z" fill="#FBBEBE"/>
<path d="M165.358 450.879C164.282 450.917 163.026 450.879 162.361 450.027C162.036 449.532 161.849 448.958 161.82 448.367C161.31 444.617 161.061 440.837 161.073 437.053C161.073 435.673 161.136 434.205 161.907 433.067C162.473 432.372 163.117 431.746 163.828 431.201C165.476 429.677 166.677 427.469 168.804 426.766C169.735 426.495 170.723 426.482 171.662 426.729C172.601 426.975 173.455 427.472 174.133 428.166C175.475 429.597 176.306 431.431 176.497 433.384C176.808 435.698 176.546 438.216 177.771 440.225C178.257 441.003 178.934 441.637 179.482 442.371C181.347 444.859 183.02 449.729 179.171 450.736C175.091 451.8 169.593 450.742 165.358 450.879Z" fill="#3F3D56"/>
<path d="M174.693 162.06C176.87 157.856 175.57 152.445 172.46 148.875C169.351 145.305 164.805 143.315 160.165 142.239C153.946 140.783 147.279 140.796 141.328 143.085C136.583 144.907 132.497 148.06 128.119 150.635C120.381 155.19 111.721 157.953 102.776 158.72C92.8255 159.56 81.712 158.254 74.0191 164.592C59.9267 176.197 69.7404 202.35 56.6057 215.013C53.0609 218.427 48.3282 220.274 44.2671 223.054C40.2061 225.835 36.5742 230.281 37.2272 235.157C37.5381 237.502 38.8193 239.617 40.2994 241.464C46.6553 249.406 57.3272 253.567 67.4207 252.329C77.5142 251.092 86.7557 244.611 91.675 235.692C92.9188 233.46 93.9262 231.015 95.8852 229.392C99.8095 226.152 105.568 227.464 110.655 227.309C121.968 226.96 132.242 217.264 133.231 205.982C133.654 201.162 132.833 195.552 136.297 192.169C139.089 189.432 143.455 189.457 147.273 188.617C154.288 187.081 159.394 182.006 162.597 175.811C164.065 172.963 163.915 169.779 166.092 167.415C168.412 164.815 172.622 166.053 174.693 162.06Z" fill="#3F3D56"/>
<g opacity="0.1">
<path d="M93.5034 160.692C97.6294 160.34 101.708 159.563 105.674 158.372C104.555 158.528 103.435 158.658 102.31 158.752C94.5109 159.405 85.9783 158.752 78.9508 161.494C83.7395 161.003 88.7582 161.09 93.5034 160.692Z" fill="black"/>
<path d="M86.563 231.364C84.604 232.981 83.5716 235.431 82.3527 237.664C78.5838 244.458 72.5483 249.713 65.3 252.51C65.8535 252.472 66.407 252.423 66.9605 252.354C77.054 251.11 86.2956 244.642 91.2148 235.723C92.4586 233.491 93.4599 231.04 95.4251 229.423L95.7609 229.162C92.3467 229.081 89.0755 229.286 86.563 231.364Z" fill="black"/>
<path d="M171.994 148.912C168.885 145.342 164.307 143.358 159.699 142.276C153.48 140.821 146.813 140.84 140.855 143.128L140.457 143.29C143.962 143.09 147.478 143.403 150.893 144.217C155.501 145.299 160.085 147.283 163.188 150.859C166.291 154.435 167.597 159.84 165.421 164.044C163.35 168.037 159.139 166.793 156.77 169.374C154.593 171.732 154.742 174.922 153.275 177.771C150.52 183.101 146.347 187.591 140.774 189.724C142.721 189.264 144.811 189.059 146.751 188.636C153.766 187.094 158.872 182.025 162.075 175.83C163.549 172.982 163.399 169.791 165.57 167.434C167.945 164.853 172.156 166.09 174.22 162.104C176.397 157.912 175.097 152.501 171.994 148.912Z" fill="black"/>
<path d="M137.951 190.583C134.133 191.416 129.767 191.397 126.974 194.128C123.51 197.517 124.331 203.127 123.908 207.947C123.168 216.375 117.242 223.919 109.573 227.346H110.139C121.452 226.998 131.72 217.295 132.708 206.019C133.137 201.193 132.317 195.583 135.781 192.2C136.574 191.442 137.508 190.847 138.529 190.446L137.951 190.583Z" fill="black"/>
</g>
<path d="M174.88 218.664C174.363 219.578 173.3 220.001 172.311 220.368C162.075 224.137 151.303 227.974 140.507 226.388C140.103 224.69 139.705 222.986 139.307 221.288C138.73 218.825 138.15 216.362 137.565 213.899C137.292 212.724 137.012 211.536 136.788 210.342C136.402 208.456 136.279 206.527 136.421 204.608C136.487 203.912 136.612 203.223 136.794 202.549C137.114 201.322 137.648 200.162 138.374 199.122C138.498 198.954 138.629 198.786 138.766 198.624C139.381 197.883 140.127 197.261 140.967 196.79C142.802 195.782 145.32 195.353 146.061 193.4C146.347 192.379 146.319 191.295 145.98 190.29C145.358 187.803 144.232 185.464 143.536 183.001C142.652 179.891 143.983 180.084 146.987 179.332C152.398 177.97 158.057 176.993 163.611 178.088C163.349 180.831 163.094 183.642 163.785 186.316C164.475 188.991 166.322 191.528 168.978 192.268C169.369 192.38 169.786 192.449 170.222 192.542C170.798 192.635 171.345 192.86 171.82 193.201C172.147 193.471 172.407 193.814 172.579 194.202C172.849 194.859 173.027 195.55 173.107 196.255C174.081 202.781 174.784 209.338 175.215 215.927V216.176C175.343 217.02 175.227 217.883 174.88 218.664Z" fill="#FBBEBE"/>
<path d="M122.179 207.947C119.854 211.486 119.07 215.79 118.361 219.97L113.846 246.153C113.224 249.736 112.671 253.673 114.505 256.814C115.127 257.877 115.998 258.798 116.452 259.923C116.795 261.056 117.02 262.221 117.123 263.4C118.181 269.402 124.082 273.451 130.003 274.906C132.142 275.435 134.642 275.64 136.328 274.216C138.193 272.667 138.193 269.719 137.093 267.592C135.992 265.465 133.983 263.96 132.037 262.535L125.587 257.784L129.319 229.174C129.593 227.097 130.563 224.404 132.665 224.634C134.58 224.839 136.054 227.632 137.758 226.73C138.292 226.369 138.668 225.817 138.809 225.188C139.555 222.843 139.35 220.318 139.139 217.861L138.368 208.992C138.113 206.113 138.853 203.954 139.201 201.249C139.605 198.096 137.503 199.054 134.91 199.731C129.928 201.05 125.059 203.556 122.179 207.947Z" fill="#FBBEBE"/>
<path d="M202.374 250.949C201.9 251.746 201.198 252.383 200.359 252.777C195.324 255.616 189.402 256.449 183.779 255.109C182.483 254.729 181.167 254.421 179.836 254.189C177.709 253.928 175.545 254.351 173.399 254.189C169.046 253.859 165.221 251.141 162.205 247.97C160.389 246.104 158.741 243.05 160.433 241.047C160.905 240.564 161.492 240.208 162.139 240.012C162.786 239.817 163.472 239.788 164.133 239.928C165.45 240.221 166.72 240.694 167.908 241.333C172.07 243.263 176.523 244.49 181.086 244.966C184.196 245.289 188.151 244.76 189.227 241.806C189.749 240.369 189.382 238.777 189.016 237.291C188.012 233.219 187.009 229.145 186.006 225.07C185.937 224.714 185.811 224.371 185.632 224.056C185.581 223.97 185.521 223.891 185.452 223.819C185.055 223.489 184.576 223.274 184.065 223.197C181.745 222.625 179.426 221.699 177.765 219.988C176.677 218.774 175.81 217.378 175.203 215.865C175.029 215.485 174.867 215.1 174.699 214.714C173.424 211.741 172.081 208.694 171.042 205.572C170.317 203.461 169.783 201.29 169.444 199.085C169.171 197.175 169.021 196.298 170.066 195.452C170.346 195.241 170.644 195.054 170.955 194.893C171.434 194.638 171.975 194.383 172.547 194.14L173.101 193.91C174.802 193.23 176.55 192.673 178.331 192.243C182.647 191.242 187.256 193.332 190.216 196.634C193.176 199.937 194.712 204.259 195.695 208.582C196.677 212.904 197.181 217.333 198.413 221.587C198.891 223.253 199.488 224.895 199.899 226.562C200.339 228.545 200.653 230.554 200.838 232.576C201.423 237.73 202.005 242.884 202.585 248.038C202.8 249.008 202.727 250.02 202.374 250.949Z" fill="#FBBEBE"/>
<path d="M138.517 248.71C139.761 256.646 136.185 264.451 132.727 271.722C134.686 273.152 137.08 273.861 139.419 274.477C155.069 278.591 171.339 279.816 187.43 278.09C187.815 275.404 188.176 272.555 187.075 270.08C186.391 268.543 185.209 267.293 184.457 265.788C183.213 263.301 183.338 260.408 183.474 257.647L184.588 234.119C176.87 230.561 167.921 233.895 159.432 234.374C155.035 234.623 150.582 234.088 146.247 234.865C143.996 235.269 136.919 236.383 135.855 238.703C134.792 241.022 138.137 246.185 138.517 248.71Z" fill="#FBBEBE"/>
<path opacity="0.05" d="M138.517 248.71C139.761 256.646 136.185 264.451 132.727 271.722C134.686 273.152 137.08 273.861 139.419 274.477C155.069 278.591 171.339 279.816 187.43 278.09C187.815 275.404 188.176 272.555 187.075 270.08C186.391 268.543 185.209 267.293 184.457 265.788C183.213 263.301 183.338 260.408 183.474 257.647L184.588 234.119C176.87 230.561 167.921 233.895 159.432 234.374C155.035 234.623 150.582 234.088 146.247 234.865C143.996 235.269 136.919 236.383 135.855 238.703C134.792 241.022 138.137 246.185 138.517 248.71Z" fill="black"/>
<path d="M158.965 271.485C150.6 269.744 142.379 266.864 133.84 266.665C133.411 266.622 132.979 266.704 132.596 266.902C132.18 267.246 131.901 267.73 131.813 268.264C130.93 271.311 130.14 274.381 129.443 277.475C127.13 287.755 125.992 299.112 131.079 308.342C131.029 305.344 132.913 302.539 135.432 300.878C137.951 299.218 140.967 298.546 143.952 298.272C146.937 297.999 150.128 298.111 152.908 299.336C154.85 300.219 156.527 301.597 157.768 303.333C159.009 305.069 159.772 307.101 159.979 309.225L189.364 310.176C189.536 310.227 189.718 310.233 189.893 310.195C190.068 310.158 190.231 310.077 190.367 309.96C190.503 309.843 190.607 309.694 190.671 309.527C190.735 309.359 190.756 309.179 190.732 309.001C191.815 299.574 191.776 290.052 190.614 280.634C190.29 278.003 190.247 274.352 187.287 273.364C183.754 272.182 178.17 273.563 174.395 273.401C169.208 273.183 164.048 272.542 158.965 271.485Z" fill="#3F3D56"/>
<path d="M185.639 225.412L185.545 238.472L155.818 239.461C150.364 239.648 144.866 239.834 139.549 241.047C138.019 241.396 136.508 241.831 135.003 242.26C133.436 236.52 131.893 230.505 132.304 224.653C132.417 223.074 132.692 221.511 133.125 219.988C134.07 216.704 135.843 213.607 136.788 210.36C137.169 209.096 137.378 207.787 137.41 206.467C137.339 205.149 137.131 203.842 136.788 202.568C136.515 201.522 136.385 200.445 136.402 199.365L138.759 198.637C138.828 198.917 138.884 199.19 138.933 199.476C139.033 200.067 139.114 200.671 139.17 201.274C139.303 202.769 139.344 204.271 139.294 205.771C139.213 208.768 138.809 212.108 140.681 214.478C143.113 217.519 147.789 217.046 151.608 216.288L161.608 214.291C164.767 213.669 168.294 212.786 169.942 210.018C170.645 208.674 171.016 207.182 171.024 205.665V205.366C171.173 202.063 170.844 198.755 170.047 195.546C169.805 194.538 169.506 193.543 169.17 192.567H170.172C170.748 192.659 171.296 192.885 171.77 193.226C172.097 193.496 172.357 193.839 172.529 194.227L173.082 193.997C175.289 203.018 178.925 211.626 183.854 219.497C184.487 220.398 184.99 221.384 185.346 222.426C185.494 222.991 185.578 223.571 185.595 224.155C185.645 224.522 185.639 224.964 185.639 225.412Z" fill="#FCA311"/>
<path d="M154.232 185.881C164.193 185.881 172.268 177.806 172.268 167.844C172.268 157.883 164.193 149.808 154.232 149.808C144.272 149.808 136.197 157.883 136.197 167.844C136.197 177.806 144.272 185.881 154.232 185.881Z" fill="#FBBEBE"/>
<path d="M122.179 207.947C119.854 211.486 119.07 215.79 118.361 219.97L113.846 246.153C113.224 249.736 112.671 253.673 114.505 256.814C115.127 257.877 115.998 258.798 116.452 259.923C116.795 261.056 117.02 262.221 117.123 263.4C118.181 269.402 124.082 273.451 130.003 274.906C132.142 275.435 134.642 275.64 136.328 274.216C138.193 272.667 138.193 269.719 137.093 267.592C135.992 265.465 133.983 263.96 132.037 262.535L125.587 257.784L129.319 229.174C129.568 227.116 125.059 203.556 122.179 207.947Z" fill="#FBBEBE"/>
<path d="M195.701 208.619C196.684 212.942 197.187 217.37 198.419 221.624C198.898 223.297 199.495 224.933 199.905 226.6C200.346 228.58 200.659 230.587 200.844 232.608L202.592 248.069C202.793 249.024 202.717 250.017 202.374 250.93C201.898 251.726 201.197 252.362 200.359 252.759C195.321 255.591 189.403 256.423 183.779 255.091C182.485 254.704 181.168 254.397 179.836 254.17C177.709 253.903 175.545 254.332 173.399 254.17C169.046 253.841 165.221 251.129 162.205 247.982C160.389 246.116 158.741 243.056 160.433 241.054C160.905 240.57 161.492 240.214 162.139 240.019C162.786 239.823 163.472 239.794 164.133 239.934C165.45 240.23 166.72 240.705 167.908 241.346C172.072 243.271 176.524 244.496 181.086 244.972C184.196 245.301 188.151 244.773 189.227 241.812C189.749 240.376 189.382 238.783 189.016 237.297L186.005 225.076C185.881 224.653 194.718 204.303 195.701 208.619Z" fill="#FBBEBE"/>
<path d="M143.069 173.398C142.267 170.519 141.141 166.918 143.399 164.965C144.21 164.338 145.188 163.964 146.21 163.889C151.278 163.267 156.521 166.252 161.372 164.66C162.919 164.154 164.287 163.212 165.31 161.946C166.334 160.68 166.969 159.145 167.139 157.526C167.31 155.907 167.008 154.273 166.27 152.822C165.533 151.371 164.391 150.164 162.983 149.348C160.862 148.104 158.331 147.861 155.887 147.644C149.45 147.053 142.74 146.505 136.72 148.887C130.699 151.27 125.625 157.402 126.869 163.752C127.447 166.781 129.319 169.387 131.222 171.8C132.683 173.635 138.548 182.373 140.905 182.249C144.226 182.062 143.592 175.27 143.069 173.398Z" fill="#3F3D56"/>
<path opacity="0.1" d="M162.983 149.348C162.623 149.14 162.249 148.959 161.863 148.807C162.955 149.798 163.768 151.058 164.22 152.462C164.672 153.865 164.747 155.363 164.439 156.805C164.13 158.247 163.449 159.583 162.462 160.679C161.475 161.775 160.218 162.592 158.816 163.049C153.965 164.641 148.722 161.656 143.654 162.278C142.632 162.353 141.654 162.728 140.843 163.354C138.585 165.307 139.711 168.908 140.513 171.788C141.036 173.653 141.67 180.451 138.361 180.638H138.305C139.332 181.639 140.258 182.292 140.917 182.255C144.226 182.068 143.592 175.277 143.069 173.405C142.267 170.525 141.141 166.924 143.399 164.971C144.21 164.345 145.188 163.97 146.21 163.895C151.278 163.273 156.521 166.258 161.372 164.666C162.919 164.161 164.287 163.218 165.31 161.952C166.334 160.686 166.969 159.151 167.139 157.532C167.31 155.913 167.008 154.28 166.27 152.828C165.533 151.377 164.391 150.171 162.983 149.354V149.348Z" fill="black"/>
<path d="M427.87 373.708H225.13V436.525H427.87V373.708Z" fill="#3F3D56"/>
<path d="M317.793 394.009V416.212L335.207 405.11L317.793 394.009Z" fill="white"/>
<path d="M162.317 21.227L152.665 27.3469L158.524 16.693C156.863 15.3676 154.808 14.6344 152.684 14.6095H152.528C151.858 14.6193 151.188 14.5694 150.526 14.4602L147.255 16.5313L148.66 13.9813C146.339 13.174 144.336 11.6492 142.939 9.62772L137.08 13.3594L140.781 6.63616C137.354 2.5251 132.739 0.00622559 127.665 0.00622559C121.576 0.00622559 116.153 3.62595 112.652 9.26699C111.616 10.9608 110.149 12.3488 108.401 13.2887C106.652 14.2286 104.685 14.6866 102.701 14.6157H102.372C95.6489 14.6157 90.201 22.2346 90.201 31.6384C90.201 41.0422 95.6489 48.661 102.372 48.661C103.851 48.6541 105.306 48.2892 106.613 47.5975C108.9 46.4843 111.402 45.8821 113.945 45.8327C116.488 45.7833 119.011 46.2879 121.34 47.3114C123.31 48.1928 125.444 48.6484 127.602 48.6484C129.761 48.6484 131.895 48.1928 133.865 47.3114C136.177 46.309 138.678 45.8157 141.197 45.865C143.717 45.9144 146.196 46.5053 148.467 47.5975C149.761 48.2746 151.199 48.6308 152.659 48.6361C159.382 48.6361 164.83 41.0111 164.83 31.6135C164.876 27.9955 164.012 24.4239 162.317 21.227Z" fill="#F2F2F2"/>
<path opacity="0.03" d="M144.12 46.1359C140.615 45.471 136.99 45.8651 133.71 47.2679C131.739 48.1474 129.605 48.6019 127.447 48.6019C125.289 48.6019 123.155 48.1474 121.184 47.2679C118.855 46.2465 116.332 45.7437 113.789 45.7942C111.246 45.8446 108.745 46.4472 106.458 47.5602C105.15 48.2493 103.695 48.612 102.216 48.6175C96.246 48.6175 91.277 42.6033 90.2446 34.6673C91.4349 33.7948 92.448 32.7035 93.2298 31.4518C96.7311 25.8045 102.154 22.1848 108.243 22.1848C114.331 22.1848 119.686 25.761 123.168 31.3461C124.216 33.0259 125.68 34.4069 127.417 35.3559C129.155 36.3048 131.108 36.7895 133.088 36.7632H133.243C138.001 36.7632 142.118 40.5757 144.12 46.1359Z" fill="black"/>
<path d="M492.549 159.946L487.735 162.999L490.658 157.682C489.83 157.022 488.806 156.657 487.747 156.643H487.667C487.334 156.649 487.001 156.626 486.672 156.575L485.011 157.62L485.714 156.345C484.557 155.943 483.558 155.186 482.859 154.18L479.936 156.046L481.802 152.694C481.025 151.691 480.035 150.874 478.904 150.302C477.772 149.73 476.527 149.416 475.26 149.385C472.225 149.385 469.519 151.189 467.797 154.006C467.278 154.852 466.544 155.545 465.67 156.013C464.796 156.482 463.813 156.71 462.822 156.674H462.66C459.308 156.674 456.59 160.481 456.59 165.164C456.59 169.847 459.308 173.66 462.66 173.66C463.397 173.656 464.122 173.475 464.774 173.131C465.915 172.575 467.162 172.274 468.43 172.249C469.698 172.223 470.957 172.473 472.119 172.982C473.096 173.424 474.156 173.655 475.229 173.66C476.299 173.656 477.358 173.431 478.338 173C479.491 172.5 480.738 172.254 481.994 172.277C483.251 172.301 484.487 172.594 485.621 173.137C486.265 173.477 486.982 173.656 487.71 173.66C491.062 173.66 493.78 169.853 493.78 165.164C493.816 163.348 493.393 161.553 492.549 159.946Z" fill="#F2F2F2"/>
<path opacity="0.03" d="M483.45 172.372C481.699 172.036 479.888 172.233 478.251 172.938C477.272 173.374 476.213 173.6 475.141 173.6C474.07 173.6 473.011 173.374 472.032 172.938C470.87 172.43 469.612 172.18 468.344 172.205C467.076 172.229 465.829 172.528 464.687 173.081C464.036 173.428 463.31 173.611 462.573 173.616C459.594 173.616 457.119 170.612 456.602 166.656C457.196 166.222 457.701 165.677 458.089 165.052C459.836 162.234 462.542 160.431 465.552 160.431C468.562 160.431 471.261 162.216 473.015 164.996C473.537 165.841 474.271 166.536 475.143 167.013C476.015 167.489 476.996 167.731 477.99 167.714H478.064C480.397 167.695 482.455 169.598 483.45 172.372Z" fill="black"/>
<path d="M503.202 80.6414L510.932 85.5486L506.23 77.0093C507.561 75.95 509.207 75.3636 510.907 75.3425H511.032C511.569 75.3505 512.106 75.3109 512.636 75.2243L515.261 76.8849L514.135 74.8449C515.99 74.1939 517.594 72.9754 518.718 71.362L523.414 74.3349L520.447 68.9489C523.19 65.6525 526.89 63.6375 530.957 63.6375C535.839 63.6375 540.18 66.5357 542.985 71.0573C543.814 72.4103 544.987 73.5195 546.384 74.2722C547.782 75.0249 549.353 75.3942 550.939 75.3425H551.2C556.586 75.3425 560.952 81.45 560.952 88.9817C560.952 96.5135 556.599 102.621 551.2 102.621C550.016 102.615 548.851 102.322 547.805 101.769C545.97 100.874 543.963 100.391 541.922 100.351C539.881 100.311 537.857 100.716 535.989 101.539C534.41 102.244 532.701 102.608 530.973 102.608C529.244 102.608 527.535 102.244 525.957 101.539C524.106 100.734 522.102 100.338 520.084 100.377C518.065 100.415 516.079 100.888 514.259 101.763C513.22 102.304 512.067 102.59 510.895 102.596C505.509 102.596 501.143 96.4886 501.143 88.9568C501.124 86.0565 501.831 83.1975 503.202 80.6414Z" fill="#F2F2F2"/>
<path opacity="0.03" d="M517.773 100.6C520.587 100.063 523.498 100.38 526.131 101.508C527.71 102.213 529.419 102.577 531.147 102.577C532.876 102.577 534.585 102.213 536.163 101.508C538.032 100.688 540.056 100.284 542.097 100.325C544.137 100.366 546.144 100.85 547.979 101.744C549.026 102.296 550.191 102.586 551.375 102.59C556.157 102.59 560.137 97.7697 560.971 91.3948C560.011 90.6994 559.198 89.8224 558.576 88.8137C555.771 84.2984 551.424 81.3939 546.549 81.3939C541.673 81.3939 537.375 84.2611 534.571 88.7329C533.733 90.0813 532.561 91.1905 531.168 91.9532C529.776 92.7159 528.21 93.1063 526.623 93.0865H526.498C522.68 93.0927 519.378 96.1465 517.773 100.6Z" fill="black"/>
</g>
<defs>
<clipPath id="clip0_4_191">
<rect width="653" height="467" fill="white"/>
</clipPath>
</defs>
</svg>
