<svg width="246" height="186" viewBox="0 0 246 186" fill="none" xmlns="http://www.w3.org/2000/svg">
<g clip-path="url(#clip0_476_876)">
<path d="M246 102.407C246 102.587 245.86 102.734 245.687 102.734H0V102.08H245.687C245.86 102.08 246 102.226 246 102.407Z" fill="#E6E6E6"/>
<path d="M80.783 22.9528C85.9109 22.9528 90.0678 18.6088 90.0678 13.2501C90.0678 7.89142 85.9109 3.54736 80.783 3.54736C75.6552 3.54736 71.4983 7.89142 71.4983 13.2501C71.4983 18.6088 75.6552 22.9528 80.783 22.9528Z" fill="#FFB6B6"/>
<path d="M85.7031 25L73.4819 28.649L71.736 32.7541L67.8077 52.3672V83.3834C67.8077 83.3834 63.0066 94.3303 65.6254 103.909C68.4247 114.147 78.2831 102.063 85.7031 103.442C93.1231 104.821 104.908 106.189 104.908 106.189L97.9243 72.8927L96.1784 32.2979L85.7031 25H85.7031Z" fill="#E6E6E6"/>
<path d="M83.3968 16.4275L81.5092 15.4412C81.5092 15.4412 81.0373 11.0027 80.0934 10.0164C79.1496 9.03004 79.1496 8.53687 79.1496 8.53687L80.5653 6.56421C80.5653 6.56421 73.4865 10.5095 72.0708 8.04371C70.655 5.57789 72.5427 4.59156 72.5427 4.59156L70.1831 2.6189C70.1831 2.6189 73.0146 4.59156 73.4865 3.11206C73.9585 1.63257 76.79 0.628762 76.79 0.628762C76.79 0.628762 82.9732 2.09078 82.4772 0.628762C81.9811 -0.833258 83.8688 0.646238 84.3407 1.1394C84.8126 1.63257 89.0599 6.56421 89.5318 6.07105C90.0037 5.57789 92.3633 7.05738 91.8914 7.55054C91.4195 8.04371 91.4195 8.53687 91.8914 9.03004C92.3633 9.52321 95.1948 14.948 92.8352 16.9207C90.4756 18.8933 87.1722 21.3592 87.6441 23.3318C88.116 25.3045 87.6441 16.9207 83.3968 16.4275L83.3968 16.4275Z" fill="#2F2E41"/>
<path d="M37.6275 40.8562C35.2444 38.7094 34.3727 35.6843 35.6804 34.0997C36.988 32.515 39.9793 32.971 42.3629 35.1189C43.3264 35.9632 44.0823 37.0364 44.5675 38.2486L54.5547 47.4779L50.3104 52.2832L40.9154 42.6747C39.6962 42.3516 38.5688 41.7281 37.6275 40.8562L37.6275 40.8562Z" fill="#FFB6B6"/>
<path d="M71.8409 32.9111L78.4196 32.2861L84.1889 61.0401C85.2882 66.5191 81.8514 71.8682 76.5825 72.879L71.8409 73.7885L41.6196 45.9817L46.035 38.2899L68.3218 52.8995L71.8409 32.9111V32.9111Z" fill="#E6E6E6"/>
<path d="M57.1538 160.784C57.1538 160.784 51.9359 170.91 52.3086 170.521C52.6813 170.131 59.0173 172.468 59.0173 172.468L62.7443 162.342L57.1538 160.784Z" fill="#FFB6B6"/>
<path d="M49.4524 89.8994C49.4524 89.8994 46.7814 101.057 47.0508 100.583C47.3203 100.11 54.0118 100.745 54.0118 100.745L55.2379 89.9707L49.4524 89.8994H49.4524Z" fill="#FFB6B6"/>
<path d="M95.915 88.0233C84.1232 89.7544 73.4725 88.2451 64.7941 81.1343C64.7941 81.1343 58.4582 103.335 70.012 105.672C81.5658 108.009 94.4242 103.992 95.915 100.097C97.4058 96.2024 95.915 88.0233 95.915 88.0233Z" fill="#2F2E41"/>
<path d="M73.9256 95.0342L61.0673 126.704L55.104 163.315L62.9308 165.263L76.9307 131.573L95.9152 99.3185L73.9256 95.0342Z" fill="#2F2E41"/>
<path d="M72.2484 86.0029C72.2484 86.0029 69.2668 61.8549 63.6762 60.297C60.9508 59.5375 58.4025 59.6111 56.5064 59.886C54.5953 60.163 53.0718 61.6889 52.7376 63.6747L47.6572 93.8656H54.8413L57.1539 85.6864L63.3035 96.9084L72.2484 86.0029V86.0029Z" fill="#2F2E41"/>
<path d="M53.9858 97.6873L46.8824 96.9083L45.7863 101.193C45.7863 101.193 34.2324 112.098 40.1957 112.877C46.159 113.656 51.7496 109.372 51.7496 109.372L59.9527 104.454C59.9527 104.454 56.7811 95.6182 54.5448 95.6182C52.3086 95.6182 53.9858 97.6873 53.9858 97.6873Z" fill="#2F2E41"/>
<path d="M57.7128 170.715L50.6094 169.936L49.5133 174.221C49.5133 174.221 37.9595 185.126 43.9228 185.905C49.886 186.684 55.4766 182.4 55.4766 182.4L63.6798 177.482C63.6798 177.482 63.1171 168.257 60.8808 168.257C58.6446 168.257 57.7128 170.715 57.7128 170.715Z" fill="#2F2E41"/>
<path d="M93.6797 111.754C92.8232 114.823 90.6134 116.85 88.744 116.28C86.8747 115.71 86.0541 112.76 86.9113 109.689C87.2376 108.458 87.8414 107.326 88.6721 106.388L92.4582 93.4297L98.2394 95.416L93.8932 107.98C94.1115 109.238 94.0383 110.532 93.6797 111.754Z" fill="#FFB6B6"/>
<path d="M97.6812 32.3543L94.6667 31.4658V31.4658C91.8242 37.376 90.602 43.9928 91.1352 50.5839L92.6229 68.9755L87.7139 101.302L97.3357 103.903L104.918 63.3351L97.6812 32.3543V32.3543Z" fill="#E6E6E6"/>
<path d="M38.9952 82.8959C38.8632 82.4738 37.8626 82.6596 37.7666 82.282C37.6709 81.9058 38.6309 81.5904 39.3673 80.5301C39.5001 80.3389 40.3368 79.1341 40.0159 78.6273C39.4076 77.6667 35.1751 80.0591 34.1592 78.7166C33.9362 78.422 33.8445 77.9162 33.1803 76.9748C32.9161 76.6004 32.7465 76.4196 32.544 76.4249C32.2566 76.4325 32.1538 76.8082 31.702 77.4889C31.0246 78.5096 30.7801 78.3814 30.3339 79.2178C30.0026 79.8386 29.9633 80.2353 29.7244 80.2587C29.3864 80.2918 29.2467 79.5188 28.8336 79.4888C28.4121 79.4582 27.9903 80.222 27.7812 80.8187C27.3888 81.9385 27.6317 82.7944 27.6856 83.6474C27.7442 84.5744 27.6067 85.9314 26.6429 87.6731L17.552 102.809C19.5044 99.7235 25.0463 91.3093 27.2792 88.223C27.9238 87.332 28.6165 86.4374 29.6826 86.269C30.7091 86.107 31.958 86.6377 33.7013 86.6068C33.9049 86.6032 34.4715 86.5856 34.6093 86.2718C34.7232 86.0123 34.4403 85.7867 34.5432 85.5429C34.6813 85.2157 35.3024 85.3561 36.1488 85.1388C36.7456 84.9856 37.1511 84.7325 37.4998 84.5148C37.6049 84.4492 39.1709 83.4579 38.9952 82.8959H38.9952L38.9952 82.8959Z" fill="#F2F2F2"/>
<path d="M15.1845 86.4298C14.9482 86.3757 14.7468 86.9425 14.5417 86.8828C14.3374 86.8234 14.4663 86.2399 14.1808 85.5563C14.1293 85.4331 13.8048 84.6562 13.4742 84.6746C12.8476 84.7095 12.75 87.5706 11.8263 87.7043C11.6236 87.7337 11.3596 87.6348 10.7258 87.7038C10.4737 87.7313 10.3399 87.7661 10.284 87.8715C10.2046 88.0211 10.3514 88.1823 10.5407 88.6103C10.8247 89.2523 10.6939 89.3407 10.958 89.8109C11.154 90.16 11.3289 90.2946 11.271 90.4238C11.189 90.6068 10.7857 90.4554 10.6524 90.6586C10.5164 90.866 10.7534 91.3027 10.9733 91.5821C11.386 92.1065 11.8581 92.2288 12.2743 92.4473C12.7266 92.6848 13.3242 93.1468 13.8641 94.1437L18.35 103.174C17.4641 101.282 15.1113 96.0117 14.306 93.976C14.0735 93.3883 13.8532 92.7749 14.0818 92.1795C14.3018 91.6062 14.9115 91.1188 15.3999 90.2157C15.457 90.1103 15.6122 89.8146 15.5046 89.6534C15.4156 89.5201 15.228 89.6001 15.1432 89.4769C15.0294 89.3117 15.2745 89.0337 15.4166 88.5369C15.5169 88.1865 15.515 87.9055 15.5134 87.6639C15.5129 87.591 15.4991 86.5018 15.1845 86.4298V86.4298L15.1845 86.4298Z" fill="#F2F2F2"/>
<path d="M19.6599 88.6331L19.8009 87.2727L19.8874 87.1873C20.2875 86.7921 20.5378 86.3734 20.6317 85.9426C20.6466 85.8741 20.6582 85.8048 20.67 85.7342C20.7169 85.4545 20.775 85.1068 21.0323 84.7456C21.1764 84.5444 21.5573 84.0896 21.9503 84.2484C22.0563 84.29 22.1279 84.3618 22.1776 84.438C22.1901 84.4248 22.2029 84.4116 22.2166 84.3973C22.3863 84.2249 22.505 84.1618 22.6194 84.101C22.7073 84.0542 22.798 84.006 22.9516 83.8777C23.019 83.8214 23.0729 83.7707 23.1184 83.7282C23.2562 83.5995 23.4326 83.4489 23.6742 83.5086C23.9302 83.5817 24.018 83.837 24.0763 84.0059C24.1803 84.3074 24.2123 84.5146 24.2335 84.6521C24.2411 84.7023 24.25 84.7589 24.2567 84.7773C24.3127 84.9249 25.0163 84.9631 25.281 84.979C25.8761 85.0128 26.391 85.042 26.5148 85.4677C26.6037 85.7724 26.4185 86.1046 25.9485 86.4815C25.8022 86.5987 25.6558 86.6797 25.5283 86.7401C25.6067 86.8176 25.6692 86.923 25.673 87.0665C25.6817 87.4062 25.3482 87.6669 24.6821 87.8426C24.5165 87.8868 24.2939 87.9452 24.0025 87.9305C23.8653 87.9234 23.7451 87.9014 23.6426 87.8809C23.6273 87.9419 23.5993 88.0053 23.5488 88.0656C23.4005 88.2429 23.1611 88.288 22.836 88.188C22.4772 88.0836 22.1937 87.9415 21.9435 87.8165C21.725 87.7078 21.5366 87.6147 21.3785 87.5893C21.0845 87.5463 20.8103 87.7361 20.4822 87.9886L19.6599 88.6332H19.6599L19.6599 88.6331Z" fill="#F2F2F2"/>
<path d="M22.0065 80.8843L20.7115 81.0869L20.6105 81.0211C20.1432 80.7169 19.6922 80.5701 19.2695 80.5845C19.2023 80.5867 19.1353 80.5926 19.067 80.5986C18.7962 80.6222 18.4596 80.6516 18.06 80.4831C17.8372 80.3885 17.3196 80.1188 17.367 79.6813C17.3785 79.5636 17.4269 79.473 17.4848 79.4034C17.4693 79.3942 17.4539 79.3846 17.4372 79.3744C17.2346 79.2465 17.1461 79.1425 17.0608 79.0423C16.9952 78.9654 16.9276 78.8859 16.7698 78.7632C16.7006 78.7093 16.64 78.6677 16.5891 78.6325C16.4351 78.5258 16.2509 78.3857 16.2449 78.1264C16.2476 77.849 16.4616 77.6955 16.6033 77.5938C16.8559 77.4122 17.0396 77.3272 17.1615 77.2709C17.206 77.2505 17.2561 77.2272 17.2715 77.2157C17.3939 77.1216 17.2508 76.4008 17.1984 76.1291C17.0787 75.5191 16.9751 74.9912 17.3378 74.758C17.5972 74.5909 17.9517 74.6939 18.4198 75.0733C18.5654 75.1915 18.6775 75.3189 18.7658 75.4325C18.8176 75.3335 18.8993 75.2436 19.0312 75.2034C19.3434 75.1085 19.6693 75.3794 20.0009 76.0082C20.0838 76.1644 20.1944 76.3746 20.2546 76.6729C20.2829 76.8134 20.293 76.9405 20.3 77.0493C20.3604 77.0493 20.4262 77.0615 20.4948 77.0973C20.6965 77.2022 20.799 77.4328 20.7889 77.7867C20.7832 78.1759 20.7236 78.4985 20.6714 78.7831C20.6261 79.0316 20.5878 79.2456 20.6044 79.4119C20.6392 79.72 20.8844 79.949 21.2013 80.2167L22.0065 80.8843H22.0065L22.0065 80.8843Z" fill="#F2F2F2"/>
<path d="M22.1809 76.8206L22.3219 75.4602L22.4084 75.3748C22.8085 74.9796 23.0588 74.5609 23.1527 74.1301C23.1676 74.0616 23.1792 73.9923 23.191 73.9217C23.2379 73.642 23.296 73.2943 23.5533 72.9331C23.6974 72.7319 24.0783 72.2771 24.4713 72.4359C24.5773 72.4775 24.6489 72.5493 24.6986 72.6255C24.7111 72.6123 24.7239 72.5991 24.7376 72.5848C24.9073 72.4124 25.026 72.3493 25.1404 72.2885C25.2283 72.2417 25.319 72.1935 25.4726 72.0652C25.54 72.0089 25.5939 71.9582 25.6394 71.9157C25.7772 71.787 25.9536 71.6364 26.1951 71.6961C26.4512 71.7692 26.539 72.0245 26.5973 72.1934C26.7013 72.4949 26.7333 72.7021 26.7545 72.8396C26.7621 72.8898 26.771 72.9464 26.7777 72.9648C26.8337 73.1124 27.5373 73.1506 27.802 73.1665C28.3971 73.2003 28.912 73.2295 29.0358 73.6552C29.1247 73.9599 28.9395 74.2921 28.4695 74.669C28.3232 74.7862 28.1768 74.8672 28.0493 74.9276C28.1277 75.0051 28.1902 75.1105 28.194 75.254C28.2027 75.5937 27.8692 75.8544 27.2031 76.0301C27.0375 76.0743 26.8149 76.1327 26.5235 76.118C26.3863 76.1109 26.2661 76.0889 26.1636 76.0684C26.1483 76.1294 26.1203 76.1929 26.0698 76.2531C25.9215 76.4304 25.682 76.4755 25.357 76.3755C24.9982 76.2711 24.7147 76.129 24.4645 76.004C24.246 75.8953 24.0576 75.8022 23.8995 75.7768C23.6055 75.7338 23.3313 75.9236 23.0032 76.1761L22.1809 76.8207H22.1809L22.1809 76.8206Z" fill="#F2F2F2"/>
<path d="M17.9819 102.887L17.7529 102.65L17.7571 102.314L17.7529 102.65L17.4347 102.615C17.4362 102.584 17.4341 102.511 17.4318 102.397C17.4195 101.771 17.3815 99.866 17.6353 96.9395C17.8125 94.8966 18.1087 92.8229 18.5155 90.775C18.923 88.7239 19.346 87.1977 19.6857 85.9711C19.942 85.0459 20.2008 84.1684 20.4534 83.3137C21.1275 81.03 21.764 78.8728 22.1581 76.4123C22.2464 75.863 22.4296 74.7196 22.0545 73.3701C21.8369 72.5874 21.4643 71.8507 20.9467 71.1811L21.4477 70.7583C22.0188 71.4982 22.4308 72.3141 22.6725 73.1832C23.0884 74.6794 22.8888 75.9253 22.7929 76.5239C22.3917 79.0279 21.7489 81.2058 21.0681 83.5115C20.8168 84.3631 20.5589 85.2368 20.3037 86.1582C19.967 87.3735 19.5479 88.8863 19.1457 90.9111C18.7434 92.9345 18.4511 94.9829 18.2758 97C18.0254 99.8897 18.063 101.766 18.0754 102.382C18.0817 102.712 18.0831 102.78 17.9819 102.887L17.9819 102.887Z" fill="#F2F2F2"/>
<path d="M19.5724 71.9553C19.5466 71.9493 19.5207 71.9426 19.4947 71.9345C18.9664 71.7797 18.5426 71.3298 18.2347 70.5974C18.0907 70.253 18.0566 69.8905 17.9888 69.1676C17.9782 69.0562 17.9312 68.4922 17.989 67.7448C18.0266 67.2564 18.0768 67.0602 18.204 66.9062C18.3452 66.7346 18.5355 66.6363 18.7366 66.587C18.742 66.5223 18.7623 66.4591 18.8025 66.3991C18.9679 66.1504 19.2448 66.2527 19.395 66.3058C19.4707 66.3342 19.565 66.3704 19.6711 66.389C19.8379 66.4191 19.9375 66.3885 20.0882 66.3429C20.2324 66.2992 20.4117 66.2448 20.6595 66.2494C21.1486 66.2564 21.5106 66.4861 21.63 66.5617C22.2587 66.9565 22.4758 67.5863 22.727 68.3156C22.7769 68.4618 22.9426 68.9902 22.9811 69.6706C23.009 70.1615 22.9474 70.3624 22.8769 70.5061C22.7327 70.8014 22.512 70.9384 21.9641 71.2264C21.3917 71.5283 21.1046 71.6793 20.8691 71.757C20.3212 71.9367 19.9771 72.0496 19.5724 71.9553V71.9553Z" fill="#F2F2F2"/>
<path d="M201.51 83.4401C203.574 85.2249 206.128 85.5589 207.214 84.1863C208.301 82.8136 207.509 80.2545 205.444 78.4694C204.629 77.7445 203.659 77.2341 202.617 76.9811L193.781 69.5342L190.526 73.9414L199.581 80.8149C200.014 81.8384 200.676 82.7386 201.51 83.4401Z" fill="#FFB6B6"/>
<path d="M175.03 42.8265C175.03 42.8265 168.097 37.9808 165.826 40.3569C163.556 42.7329 164.098 48.6677 164.098 48.6677L182.281 70.8122L196.699 80.3894L200.565 74.0631L188.443 62.76L175.03 42.8265V42.8265Z" fill="#14213D"/>
<path d="M164.867 32.33L167.383 41.6745H153.575L158.122 30.1606L164.867 32.33Z" fill="#FFB6B6"/>
<path opacity="0.1" d="M164.867 32.33L167.383 41.6745H153.575L158.122 30.1606L164.867 32.33Z" fill="black"/>
<path d="M134.755 101.324C134.577 104.117 135.812 106.477 137.513 106.595C139.214 106.714 140.736 104.545 140.914 101.751C141 100.636 140.829 99.5158 140.416 98.4839L141.028 86.6393L135.703 86.4575L135.665 98.1535C135.124 99.1192 134.812 100.206 134.755 101.324Z" fill="#FFB6B6"/>
<path d="M150.789 55.1241C150.789 55.1241 150.495 46.4129 147.323 45.8781C144.15 45.3434 139.861 49.2743 139.861 49.2743L133.309 77.6386L134.309 95.4613L141.48 95.0379L143.163 78.1524L150.789 55.1241V55.1241Z" fill="#14213D"/>
<path d="M181.545 159.226C181.545 159.226 186.763 169.352 186.391 168.963C186.018 168.573 179.682 170.91 179.682 170.91L175.955 160.784L181.545 159.226Z" fill="#FFB6B6"/>
<path d="M189.247 88.3413C189.247 88.3413 191.918 99.4988 191.648 99.0254C191.379 98.552 184.687 99.1865 184.687 99.1865L183.461 88.4126L189.247 88.3413Z" fill="#FFB6B6"/>
<path d="M168.501 38.5591H155.474L141.293 48.6857L137.194 84.1287L139.43 91.1394L143.53 99.3185C143.53 99.3185 139.43 81.4023 149.493 88.413C159.556 95.4237 160.301 96.5921 160.301 96.5921L173.719 89.5814L178.75 60.5649L175.023 44.5961L168.501 38.5591Z" fill="#14213D"/>
<path d="M142.784 86.4652C154.576 88.1963 165.227 86.687 173.905 79.5762C173.905 79.5762 180.241 101.777 168.687 104.114C157.133 106.451 144.275 102.434 142.784 98.5391C141.293 94.6443 142.784 86.4652 142.784 86.4652Z" fill="#2F2E41"/>
<path d="M164.774 93.4761L177.632 125.146L183.595 161.757L175.769 163.705L161.769 130.014L142.784 97.7604L164.774 93.4761Z" fill="#2F2E41"/>
<path d="M166.451 84.4448C166.451 84.4448 169.433 60.2968 175.023 58.7389C177.749 57.9794 180.297 58.0529 182.193 58.3279C184.104 58.6049 185.628 60.1308 185.962 62.1166L191.042 92.3075H183.858L181.545 84.1283L175.396 95.3503L166.451 84.4448V84.4448Z" fill="#2F2E41"/>
<path d="M184.713 96.1292L191.817 95.3502L192.913 99.6345C192.913 99.6345 204.467 110.54 198.503 111.319C192.54 112.098 186.95 107.814 186.95 107.814L178.746 102.896C178.746 102.896 181.918 94.0601 184.154 94.0601C186.391 94.0601 184.713 96.1292 184.713 96.1292Z" fill="#2F2E41"/>
<path d="M180.986 169.157L188.09 168.378L189.186 172.663C189.186 172.663 200.74 183.568 194.776 184.347C188.813 185.126 183.223 180.842 183.223 180.842L175.019 175.924C175.019 175.924 175.582 166.699 177.818 166.699C180.055 166.699 180.986 169.157 180.986 169.157Z" fill="#2F2E41"/>
<path d="M161.586 34.3607C166.179 34.3607 169.902 30.4702 169.902 25.6711C169.902 20.8719 166.179 16.9814 161.586 16.9814C156.994 16.9814 153.271 20.8719 153.271 25.6711C153.271 30.4702 156.994 34.3607 161.586 34.3607Z" fill="#FFB6B6"/>
<path d="M164.774 15.968C164.774 15.968 166.16 20.0232 163.942 20.8921C161.725 21.7611 158.676 22.9197 158.953 24.368C159.23 25.8163 158.122 30.1611 158.122 30.1611C158.122 30.1611 164.774 34.5059 160.339 38.8507C155.904 43.1955 152.578 41.4051 153.271 45.6313C153.964 49.8575 147.035 48.1196 147.035 48.1196C147.035 48.1196 144.54 44.0645 146.48 40.0093C148.421 35.9542 145.095 43.1955 144.263 43.1955C143.431 43.1955 139.274 44.3541 140.937 39.43C142.6 34.5059 145.095 34.2162 145.095 30.4507C145.095 26.6852 146.758 22.0508 147.312 21.4715C147.866 20.8921 150.361 13.3611 155.35 13.9404C160.339 14.5198 164.774 15.968 164.774 15.968Z" fill="#2F2E41"/>
<path d="M92.0964 159.226C92.0964 159.226 86.8785 169.352 87.2512 168.963C87.6239 168.573 93.9599 170.91 93.9599 170.91L97.687 160.784L92.0964 159.226Z" fill="#A0616A"/>
<path d="M130.858 86.4652C119.066 88.1963 108.415 86.687 99.7368 79.5762C99.7368 79.5762 93.4008 101.777 104.955 104.114C116.508 106.451 129.367 102.434 130.858 98.5391C132.348 94.6443 130.858 86.4652 130.858 86.4652Z" fill="#2F2E41"/>
<path d="M108.868 93.4761L96.0097 125.146L90.0464 161.757L97.8732 163.705L111.873 130.014L130.858 97.7604L108.868 93.4761Z" fill="#2F2E41"/>
<path d="M92.6555 169.157L85.5521 168.378L84.456 172.663C84.456 172.663 72.9021 183.568 78.8654 184.347C84.8287 185.126 90.4192 180.842 90.4192 180.842L98.6224 175.924C98.6224 175.924 98.0597 166.699 95.8235 166.699C93.5872 166.699 92.6555 169.157 92.6555 169.157Z" fill="#2F2E41"/>
<path d="M103.878 153.898C103.878 153.898 101.904 165.213 102.144 164.722C102.383 164.232 109.1 164.412 109.1 164.412L109.656 153.578L103.878 153.898Z" fill="#A0616A"/>
<path d="M100.422 85.948L97.5398 120.219L102.676 156.967L110.696 156.296L114.067 119.735L122.603 82.9341L100.422 85.948Z" fill="#2F2E41"/>
<path d="M107.342 163.165L100.355 164.714L100.577 169.143C100.577 169.143 92.8063 183.241 98.7087 182.06C104.611 180.878 108.664 175.001 108.664 175.001L115.015 167.678C115.015 167.678 111.757 159.084 109.63 159.805C107.502 160.526 107.342 163.165 107.342 163.165Z" fill="#2F2E41"/>
<path d="M107.142 15.0122C107.142 15.0122 103.588 17.1905 104.754 19.3448C105.919 21.499 107.544 24.4333 106.442 25.3574C105.339 26.2816 103.519 30.3561 103.519 30.3561C103.519 30.3561 95.7501 29.2221 96.4795 35.5288C97.2089 41.8355 100.859 42.6953 97.7303 45.4698C94.602 48.2443 100.982 51.5626 100.982 51.5626C100.982 51.5626 105.386 50.1283 106.391 45.7178C107.395 41.3072 105.495 49.0902 106.132 49.6482C106.77 50.2063 109.245 53.8847 110.996 48.9941C112.747 44.1035 111.013 42.2073 113.327 39.3209C115.641 36.4345 117.214 31.7659 117.146 30.9499C117.077 30.1338 119.793 22.6868 115.612 19.7826C111.432 16.8783 107.142 15.0122 107.142 15.0122V15.0122Z" fill="#2F2E41"/>
<path d="M108.775 32.33L106.259 41.6745H120.067L115.52 30.1606L108.775 32.33Z" fill="#A0616A"/>
<path opacity="0.1" d="M108.775 32.33L106.259 41.6745H120.067L115.52 30.1606L108.775 32.33Z" fill="black"/>
<path d="M138.887 101.324C139.065 104.117 137.83 106.477 136.129 106.595C134.428 106.714 132.905 104.545 132.727 101.751C132.642 100.636 132.813 99.5158 133.226 98.4839L132.614 86.6393L137.939 86.4575L137.977 98.1535C138.518 99.1192 138.83 100.206 138.887 101.324H138.887Z" fill="#A0616A"/>
<path d="M122.852 55.1241C122.852 55.1241 123.147 46.4129 126.319 45.8781C129.491 45.3434 133.781 49.2743 133.781 49.2743L140.333 77.6386L139.333 95.4613L132.162 95.0379L130.479 78.1524L122.852 55.1241V55.1241Z" fill="#FCA311"/>
<path d="M105.141 38.5591H118.168L132.348 48.6857L136.448 84.1287L134.212 91.1394L130.112 99.3185C130.112 99.3185 134.212 81.4023 124.149 88.413C124.048 88.4831 123.949 88.5526 123.85 88.6215C117.372 93.1429 108.825 92.6787 102.828 87.4823L98.0596 83.3497L100.669 69.7178L98.6186 44.5961L105.141 38.5591V38.5591Z" fill="#FCA311"/>
<path d="M72.5439 82.9324C70.4545 84.6843 67.8959 84.9777 66.8293 83.5879C65.7627 82.1982 66.5919 79.652 68.6823 77.8998C69.5081 77.1879 70.4851 76.6931 71.5314 76.4566L80.4739 69.1509L83.6651 73.6093L74.5106 80.3381C74.0627 81.3546 73.3883 82.2442 72.5439 82.9324V82.9324Z" fill="#A0616A"/>
<path d="M99.6111 42.7441C99.6111 42.7441 106.614 38.0092 108.85 40.421C111.086 42.8328 110.457 48.7583 110.457 48.7583L91.9547 70.6114L77.3991 79.9586L73.6255 73.5716L85.9099 62.4623L99.6111 42.7441Z" fill="#FCA311"/>
<path d="M112.055 34.3607C116.648 34.3607 120.371 30.4702 120.371 25.6711C120.371 20.8719 116.648 16.9814 112.055 16.9814C107.463 16.9814 103.74 20.8719 103.74 25.6711C103.74 30.4702 107.463 34.3607 112.055 34.3607Z" fill="#A0616A"/>
<path d="M107.916 19.8464C107.916 19.8464 106.691 15.5791 108.733 15.5791C110.774 15.5791 118.941 16.0058 119.758 16.8593C120.575 17.7127 130.239 26.2782 124.522 33.1059C118.805 39.9335 124.522 43.2324 124.522 43.2324C124.522 43.2324 128.741 53.5579 124.658 54.4114C120.575 55.2648 103.825 50.3848 107.916 42.463C112.356 33.8662 114.421 20.2975 107.916 19.8464L107.916 19.8464Z" fill="#2F2E41"/>
<path d="M243.983 83.2856C243.851 82.8634 242.85 83.0493 242.754 82.6717C242.658 82.2955 243.618 81.98 244.355 80.9198C244.488 80.7286 245.324 79.5237 245.003 79.017C244.395 78.0564 240.163 80.4488 239.147 79.1062C238.924 78.8116 238.832 78.3058 238.168 77.3645C237.904 76.99 237.734 76.8092 237.532 76.8146C237.244 76.8222 237.141 77.1979 236.69 77.8785C236.012 78.8992 235.768 78.7711 235.321 79.6074C234.99 80.2282 234.951 80.6249 234.712 80.6483C234.374 80.6814 234.234 79.9084 233.821 79.8784C233.4 79.8479 232.978 80.6116 232.769 81.2084C232.376 82.3282 232.619 83.1841 232.673 84.0371C232.732 84.9641 232.594 86.321 231.63 88.0627L222.54 103.199C224.492 100.113 230.034 91.699 232.267 88.6126C232.911 87.7217 233.604 86.827 234.67 86.6587C235.697 86.4966 236.946 87.0273 238.689 86.9964C238.892 86.9928 239.459 86.9753 239.597 86.6614C239.711 86.402 239.428 86.1764 239.531 85.9325C239.669 85.6054 240.29 85.7457 241.136 85.5285C241.733 85.3753 242.139 85.1221 242.487 84.9045C242.592 84.8388 244.158 83.8475 243.983 83.2856V83.2856Z" fill="#F2F2F2"/>
<path d="M220.172 86.8194C219.936 86.7653 219.734 87.3321 219.529 87.2725C219.325 87.213 219.454 86.6296 219.168 85.946C219.117 85.8227 218.792 85.0459 218.462 85.0643C217.835 85.0991 217.738 87.9602 216.814 88.094C216.611 88.1233 216.347 88.0244 215.713 88.0935C215.461 88.121 215.327 88.1558 215.272 88.2612C215.192 88.4108 215.339 88.5719 215.528 89C215.812 89.642 215.681 89.7304 215.946 90.2006C216.142 90.5496 216.317 90.6842 216.259 90.8135C216.177 90.9964 215.773 90.8451 215.64 91.0483C215.504 91.2556 215.741 91.6924 215.961 91.9718C216.374 92.4962 216.846 92.6185 217.262 92.837C217.714 93.0744 218.312 93.5364 218.852 94.5333L223.338 103.563C222.452 101.672 220.099 96.4014 219.294 94.3656C219.061 93.7779 218.841 93.1645 219.069 92.5691C219.289 91.9959 219.899 91.5084 220.387 90.6054C220.445 90.4999 220.6 90.2042 220.492 90.043C220.403 89.9097 220.216 89.9897 220.131 89.8666C220.017 89.7014 220.262 89.4233 220.404 88.9265C220.504 88.5762 220.503 88.2952 220.501 88.0535C220.5 87.9807 220.487 86.8914 220.172 86.8194V86.8194V86.8194Z" fill="#F2F2F2"/>
<path d="M224.647 89.0228L224.788 87.6624L224.875 87.5769C225.275 87.1817 225.525 86.7631 225.619 86.3322C225.634 86.2637 225.646 86.1944 225.657 86.1238C225.704 85.8441 225.762 85.4964 226.02 85.1352C226.164 84.934 226.545 84.4792 226.938 84.6381C227.044 84.6796 227.115 84.7515 227.165 84.8276C227.178 84.8144 227.19 84.8012 227.204 84.7869C227.374 84.6146 227.492 84.5514 227.607 84.4906C227.695 84.4438 227.785 84.3957 227.939 84.2673C228.006 84.2111 228.06 84.1604 228.106 84.1178C228.244 83.9892 228.42 83.8385 228.662 83.8982C228.918 83.9714 229.005 84.2266 229.064 84.3956C229.168 84.697 229.2 84.9043 229.221 85.0418C229.229 85.092 229.237 85.1485 229.244 85.1669C229.3 85.3145 230.004 85.3527 230.268 85.3687C230.863 85.4024 231.378 85.4316 231.502 85.8574C231.591 86.162 231.406 86.4942 230.936 86.8711C230.79 86.9884 230.643 87.0693 230.516 87.1297C230.594 87.2072 230.657 87.3126 230.66 87.4561C230.669 87.7959 230.336 88.0565 229.67 88.2323C229.504 88.2764 229.281 88.3349 228.99 88.3201C228.853 88.313 228.732 88.2911 228.63 88.2705C228.615 88.3316 228.587 88.395 228.536 88.4552C228.388 88.6326 228.148 88.6777 227.823 88.5777C227.465 88.4732 227.181 88.3311 226.931 88.2062C226.712 88.0974 226.524 88.0044 226.366 87.979C226.072 87.936 225.798 88.1257 225.47 88.3782L224.647 89.0228H224.647V89.0228Z" fill="#F2F2F2"/>
<path d="M226.994 81.274L225.699 81.4765L225.598 81.4108C225.131 81.1065 224.68 80.9597 224.257 80.9741C224.19 80.9764 224.123 80.9823 224.055 80.9882C223.784 81.0118 223.447 81.0413 223.048 80.8727C222.825 80.7782 222.307 80.5085 222.355 80.071C222.366 79.9532 222.414 79.8627 222.472 79.7931C222.457 79.7838 222.441 79.7742 222.425 79.764C222.222 79.6362 222.134 79.5322 222.048 79.432C221.983 79.355 221.915 79.2755 221.757 79.1528C221.688 79.099 221.628 79.0573 221.577 79.0222C221.423 78.9154 221.238 78.7754 221.232 78.5161C221.235 78.2387 221.449 78.0852 221.591 77.9834C221.843 77.8018 222.027 77.7169 222.149 77.6606C222.194 77.6401 222.244 77.6168 222.259 77.6054C222.381 77.5113 222.238 76.7904 222.186 76.5188C222.066 75.9087 221.963 75.3808 222.325 75.1477C222.585 74.9806 222.939 75.0835 223.407 75.4629C223.553 75.5812 223.665 75.7086 223.753 75.8221C223.805 75.7232 223.887 75.6333 224.019 75.593C224.331 75.4982 224.657 75.7691 224.988 76.3979C225.071 76.554 225.182 76.7643 225.242 77.0626C225.27 77.2031 225.281 77.3301 225.288 77.439C225.348 77.4389 225.414 77.4512 225.482 77.4869C225.684 77.5918 225.787 77.8224 225.776 78.1763C225.771 78.5655 225.711 78.8882 225.659 79.1727C225.614 79.4212 225.575 79.6353 225.592 79.8015C225.627 80.1096 225.872 80.3387 226.189 80.6063L226.994 81.274H226.994V81.274Z" fill="#F2F2F2"/>
<path d="M227.169 77.2103L227.31 75.8499L227.396 75.7644C227.796 75.3692 228.046 74.9506 228.14 74.5197C228.155 74.4512 228.167 74.3819 228.179 74.3113C228.226 74.0316 228.284 73.6839 228.541 73.3227C228.685 73.1215 229.066 72.6667 229.459 72.8256C229.565 72.8671 229.637 72.939 229.686 73.0151C229.699 73.0019 229.712 72.9887 229.725 72.9744C229.895 72.8021 230.014 72.7389 230.128 72.6781C230.216 72.6313 230.307 72.5832 230.46 72.4548C230.528 72.3986 230.582 72.3479 230.627 72.3053C230.765 72.1767 230.941 72.026 231.183 72.0857C231.439 72.1589 231.527 72.4141 231.585 72.5831C231.689 72.8845 231.721 73.0918 231.742 73.2293C231.75 73.2795 231.759 73.336 231.765 73.3544C231.821 73.502 232.525 73.5402 232.79 73.5562C233.385 73.5899 233.9 73.6191 234.023 74.0449C234.112 74.3495 233.927 74.6817 233.457 75.0586C233.311 75.1759 233.164 75.2568 233.037 75.3172C233.115 75.3947 233.178 75.5001 233.182 75.6436C233.19 75.9834 232.857 76.244 232.191 76.4198C232.025 76.4639 231.803 76.5224 231.511 76.5076C231.374 76.5005 231.254 76.4786 231.151 76.458C231.136 76.5191 231.108 76.5825 231.057 76.6427C230.909 76.8201 230.67 76.8652 230.345 76.7652C229.986 76.6607 229.702 76.5186 229.452 76.3937C229.234 76.2849 229.045 76.1919 228.887 76.1665C228.593 76.1235 228.319 76.3132 227.991 76.5657L227.169 77.2103H227.169V77.2103Z" fill="#F2F2F2"/>
<path d="M222.969 103.276L222.74 103.04L222.745 102.704L222.74 103.04L222.422 103.005C222.424 102.974 222.422 102.9 222.419 102.786C222.407 102.16 222.369 100.256 222.623 97.3292C222.8 95.2863 223.096 93.2125 223.503 91.1646C223.911 89.1135 224.333 87.5874 224.673 86.3607C224.93 85.4356 225.188 84.5581 225.441 83.7033C226.115 81.4197 226.752 79.2625 227.146 76.8019C227.234 76.2526 227.417 75.1093 227.042 73.7598C226.824 72.9771 226.452 72.2403 225.934 71.5707L226.435 71.1479C227.006 71.8879 227.418 72.7038 227.66 73.5728C228.076 75.0691 227.876 76.3149 227.78 76.9135C227.379 79.4176 226.736 81.5955 226.056 83.9011C225.804 84.7528 225.546 85.6265 225.291 86.5478C224.955 87.7631 224.535 89.276 224.133 91.3008C223.731 93.3242 223.439 95.3725 223.263 97.3897C223.013 100.279 223.051 102.156 223.063 102.772C223.069 103.101 223.071 103.17 222.969 103.276V103.276Z" fill="#F2F2F2"/>
<path d="M224.56 72.3449C224.534 72.3389 224.508 72.3322 224.482 72.3242C223.954 72.1694 223.53 71.7194 223.222 70.987C223.078 70.6426 223.044 70.2802 222.976 69.5573C222.966 69.4458 222.919 68.8818 222.977 68.1344C223.014 67.646 223.064 67.4499 223.192 67.2958C223.333 67.1242 223.523 67.026 223.724 66.9766C223.73 66.912 223.75 66.8487 223.79 66.7888C223.955 66.5401 224.232 66.6423 224.383 66.6955C224.458 66.7239 224.553 66.76 224.659 66.7787C224.825 66.8088 224.925 66.7782 225.076 66.7326C225.22 66.6888 225.399 66.6344 225.647 66.639C226.136 66.6461 226.498 66.8758 226.618 66.9513C227.246 67.3461 227.463 67.976 227.715 68.7053C227.764 68.8514 227.93 69.3798 227.969 70.0602C227.997 70.5511 227.935 70.752 227.864 70.8957C227.72 71.1911 227.5 71.328 226.952 71.6161C226.379 71.9179 226.092 72.069 225.857 72.1466C225.309 72.3264 224.965 72.4393 224.56 72.3449V72.3449Z" fill="#F2F2F2"/>
<path d="M62.3013 79.7244L61.8808 65.8616C61.8739 65.6366 61.9586 65.4175 62.113 65.2605C62.2676 65.1035 62.4796 65.0212 62.6948 65.0346L73.2215 65.6944C73.4342 65.7076 73.6337 65.8139 73.769 65.9859C73.9043 66.1577 73.9655 66.3828 73.937 66.6033L72.1562 80.3818C72.1023 80.7987 71.7456 81.1034 71.344 81.0756L63.0186 80.5002C62.9341 80.4944 62.8537 80.4747 62.7792 80.4432C62.5042 80.327 62.3112 80.0508 62.3013 79.7244Z" fill="#FCA311"/>
<path d="M61.8937 64.5647C62.041 64.5485 62.2383 64.5285 62.4751 64.5078C62.4118 64.3845 62.3859 64.2389 62.413 64.0893L62.601 63.0509C62.6498 62.7814 62.8575 62.5748 63.1177 62.5385C64.6676 62.3219 69.9988 61.7343 73.3557 63.3258C73.5658 63.4254 73.7009 63.644 73.7076 63.8849L73.7383 64.9927C73.7421 65.1297 73.704 65.2567 73.6372 65.3619C73.9163 65.4403 74.1945 65.5232 74.4704 65.6137C74.6433 65.6703 74.7671 65.8298 74.7879 66.0179L74.84 66.4898C74.8731 66.7892 74.6382 67.0467 74.3505 67.0263L61.7656 66.1382C61.4792 66.118 61.2797 65.8324 61.3486 65.5412L61.4936 64.9286C61.5404 64.7312 61.7003 64.586 61.8937 64.5647V64.5647Z" fill="#3F3D56"/>
<path d="M30.6213 40.3865L30.2008 26.5237C30.194 26.2987 30.2786 26.0796 30.4331 25.9226C30.5876 25.7656 30.7997 25.6833 31.0149 25.6967L41.5416 26.3565C41.7542 26.3697 41.9538 26.476 42.089 26.648C42.2243 26.8198 42.2856 27.0449 42.2571 27.2654L40.4763 41.0439C40.4224 41.4608 40.0657 41.7655 39.6641 41.7377L31.3387 41.1623C31.2542 41.1565 31.1738 41.1368 31.0993 41.1054C30.8243 40.9891 30.6313 40.7129 30.6213 40.3865V40.3865Z" fill="#FCA311"/>
<path d="M30.2138 25.2268C30.3611 25.2106 30.5584 25.1906 30.7952 25.1699C30.7319 25.0467 30.706 24.901 30.733 24.7514L30.921 23.713C30.9698 23.4435 31.1776 23.2369 31.4377 23.2006C32.9877 22.984 38.3189 22.3964 41.6758 23.9879C41.8858 24.0875 42.021 24.3061 42.0276 24.547L42.0583 25.6548C42.0621 25.7918 42.0241 25.9188 41.9573 26.024C42.2364 26.1024 42.5145 26.1854 42.7905 26.2758C42.9634 26.3324 43.0872 26.4919 43.1079 26.68L43.1601 27.1519C43.1932 27.4513 42.9583 27.7088 42.6705 27.6884L30.0856 26.8003C29.7993 26.7801 29.5998 26.4945 29.6687 26.2033L29.8137 25.5907C29.8604 25.3933 30.0203 25.2481 30.2138 25.2268V25.2268Z" fill="#3F3D56"/>
<path d="M195.729 83.2298L195.309 69.367C195.302 69.1419 195.387 68.9229 195.541 68.7659C195.696 68.6089 195.908 68.5265 196.123 68.54L206.65 69.1998C206.862 69.213 207.062 69.3193 207.197 69.4912C207.332 69.6631 207.394 69.8882 207.365 70.1087L205.584 83.8872C205.53 84.3041 205.174 84.6088 204.772 84.5809L196.447 84.0056C196.362 83.9998 196.282 83.9801 196.207 83.9486C195.932 83.8324 195.739 83.5562 195.729 83.2298Z" fill="#FCA311"/>
<path d="M195.322 68.07C195.469 68.0538 195.667 68.0339 195.903 68.0131C195.84 67.8899 195.814 67.7442 195.841 67.5947L196.029 66.5563C196.078 66.2868 196.286 66.0802 196.546 66.0438C198.096 65.8272 203.427 65.2396 206.784 66.8312C206.994 66.9307 207.129 67.1494 207.136 67.3903L207.167 68.4981C207.17 68.6351 207.132 68.762 207.065 68.8673C207.345 68.9457 207.623 69.0286 207.899 69.119C208.072 69.1757 208.195 69.3352 208.216 69.5233L208.268 69.9952C208.301 70.2946 208.066 70.552 207.779 70.5317L195.194 69.6435C194.907 69.6233 194.708 69.3377 194.777 69.0465L194.922 68.4339C194.969 68.2366 195.128 68.0913 195.322 68.07V68.07Z" fill="#3F3D56"/>
</g>
<defs>
<clipPath id="clip0_476_876">
<rect width="246" height="186" fill="white"/>
</clipPath>
</defs>
</svg>
