<svg width="432" height="224" viewBox="0 0 432 224" fill="none" xmlns="http://www.w3.org/2000/svg">
<g clip-path="url(#clip0_482_1158)">
<path d="M27.3631 187.078L26.0156 193.572C25.9141 194.069 25.8079 194.574 25.6926 195.075C24.5663 194.851 23.3986 194.913 22.3054 195.257C23.1727 196.447 23.95 197.696 24.6312 198.994C23.7821 201.507 22.5361 203.83 20.4502 205.51C19.0571 206.608 17.3932 207.341 15.619 207.641C13.8448 207.941 12.0201 207.796 10.3209 207.222L10.3809 206.965C8.13811 202.784 9.3564 197.513 12.1437 193.652C13.5653 191.747 15.2497 190.037 17.1507 188.567C19.0335 187.06 21.0686 185.708 23.0852 184.374C23.5382 184.074 24.0737 183.912 24.6234 183.906C25.173 183.901 25.7119 184.053 26.1711 184.343C26.6303 184.634 26.989 185.049 27.2013 185.536C27.4136 186.023 27.47 186.56 27.3631 187.078Z" fill="#E4E4E4"/>
<path d="M10.8008 222.848C10.2337 218.879 9.65036 214.86 10.0481 210.848C10.4016 207.286 11.5327 203.806 13.8364 200.953C15.0591 199.442 16.5469 198.147 18.2328 197.126C18.6726 196.86 19.0769 197.529 18.6394 197.794C15.7223 199.565 13.466 202.18 12.1958 205.263C10.793 208.69 10.5678 212.427 10.8114 216.068C10.9577 218.27 11.2674 220.457 11.5798 222.642C11.6049 222.741 11.5898 222.845 11.5375 222.934C11.4851 223.022 11.3996 223.088 11.2983 223.118C11.1952 223.145 11.0854 223.131 10.9926 223.081C10.8998 223.03 10.8315 222.946 10.8027 222.848L10.8008 222.848Z" fill="#F2F2F2"/>
<path d="M15.6682 23.7764C35.4365 23.4462 55.2069 23.3987 74.9794 23.6341C94.7491 23.8708 114.512 24.3916 134.269 25.1964C145.355 25.648 156.436 26.189 167.513 26.8195C168.403 26.8701 168.4 25.54 167.513 25.4896C147.777 24.3677 128.026 23.5282 108.26 22.9711C88.4973 22.4156 68.7289 22.1441 48.9547 22.1567C37.8586 22.1638 26.7631 22.2604 15.6682 22.4465C14.7783 22.4613 14.7755 23.7913 15.6682 23.7764V23.7764Z" fill="#E6E6E6"/>
<path d="M153.434 15.4375L162.078 14.8194C162.961 14.7563 162.969 13.4259 162.078 13.4895L153.434 14.1075C152.551 14.1707 152.544 15.5011 153.434 15.4375Z" fill="#E6E6E6"/>
<path d="M153.434 23.4169L162.078 22.7989C162.961 22.7358 162.969 21.4054 162.078 21.469L153.434 22.087C152.551 22.1502 152.544 23.4806 153.434 23.4169Z" fill="#E6E6E6"/>
<path d="M152.784 19.7726L165.074 20.8452C165.961 20.9226 165.956 19.5922 165.074 19.5153L152.784 18.4427C151.897 18.3653 151.903 19.6957 152.784 19.7726Z" fill="#E6E6E6"/>
<path d="M20.7838 13.6485C20.1827 13.6449 19.5938 13.8114 19.0905 14.1272C18.5872 14.4429 18.1917 14.894 17.9535 15.4242C17.687 15.9431 17.6047 16.5315 17.7193 17.0996C17.8338 17.6676 18.1389 18.184 18.5879 18.5698C19.0099 18.9147 19.5161 19.1512 20.0591 19.2572C20.6022 19.3632 21.1643 19.3352 21.693 19.1758C22.2337 18.9944 22.7026 18.6564 23.0351 18.2085C23.3676 17.7605 23.5474 17.2245 23.5497 16.6744C23.5738 16.064 23.4017 15.4612 23.0567 14.9481C22.7117 14.435 22.2105 14.0365 21.6214 13.8066C21.4444 13.7604 21.2556 13.7833 21.0961 13.8703C20.9365 13.9573 20.8193 14.1014 20.7699 14.271C20.7262 14.4409 20.752 14.6204 20.842 14.7726C20.9319 14.9247 21.0791 15.038 21.2534 15.089C21.374 15.1338 21.1432 15.0321 21.2558 15.091C21.3021 15.1152 21.3493 15.1371 21.3948 15.163C21.4334 15.185 21.4705 15.2091 21.5081 15.2327C21.6373 15.3137 21.445 15.1732 21.5276 15.246C21.5992 15.3092 21.6702 15.3708 21.7353 15.4405C21.7599 15.4669 21.8563 15.5401 21.7814 15.4889C21.724 15.4497 21.7593 15.459 21.7814 15.4904C21.7981 15.5143 21.8159 15.5375 21.8324 15.5615C21.8864 15.64 21.9355 15.7215 21.9793 15.8055C21.9895 15.825 21.9988 15.8449 22.0092 15.8642C22.0286 15.9005 22.0566 15.91 22.0111 15.8646C21.9675 15.8212 21.9953 15.8241 22.0108 15.8659C22.0211 15.8933 22.0323 15.9205 22.0422 15.948C22.0747 16.0377 22.1019 16.1291 22.1238 16.2217C22.134 16.2645 22.1421 16.3075 22.1509 16.3506C22.1818 16.5033 22.1464 16.2557 22.1538 16.3691C22.1601 16.4638 22.1673 16.5575 22.1656 16.6526C22.1648 16.6961 22.1629 16.7395 22.1597 16.7829C22.1581 16.8046 22.1556 16.8262 22.1541 16.8478C22.147 16.9522 22.1467 16.8097 22.1619 16.8C22.1303 16.8885 22.1093 16.9803 22.0994 17.0735C22.087 17.1148 22.0722 17.1553 22.0584 17.1962C22.0103 17.3388 22.1037 17.1184 22.0523 17.2159C22.0101 17.2997 21.9629 17.381 21.9109 17.4596C21.8884 17.4925 21.8033 17.5668 21.8729 17.5151C21.9483 17.459 21.8333 17.5556 21.8087 17.5805C21.7772 17.6124 21.7445 17.6433 21.7106 17.673C21.6889 17.6933 21.6659 17.7125 21.6419 17.7303C21.6375 17.7282 21.7576 17.6533 21.6929 17.6929C21.6106 17.7433 21.5327 17.7972 21.4461 17.8411C21.436 17.8462 21.3252 17.8955 21.3256 17.8973C21.3208 17.8793 21.4681 17.8475 21.367 17.8788C21.3458 17.8854 21.3249 17.8934 21.3038 17.9002C21.2118 17.93 21.1179 17.954 21.0226 17.9722C21.0008 17.9764 20.9778 17.9785 20.9563 17.9838C20.8847 18.0016 21.0247 17.9734 21.0289 17.9757C20.976 17.9735 20.923 17.978 20.8713 17.9891C20.7731 17.9945 20.6747 17.9945 20.5764 17.9891C20.5537 17.9878 20.531 17.9857 20.5083 17.9844C20.4556 17.9814 20.4169 17.9449 20.4871 17.9846C20.5412 18.0152 20.5367 17.9928 20.4887 17.9843C20.4663 17.9803 20.4438 17.977 20.4213 17.9729C20.3241 17.9555 20.228 17.9328 20.1334 17.9052C20.0825 17.8903 20.0326 17.8729 19.9823 17.8561C19.9605 17.85 19.9392 17.8421 19.9187 17.8325C19.9184 17.8271 20.0481 17.8921 19.9796 17.8566C19.8931 17.8119 19.8037 17.7743 19.7193 17.7254C19.6742 17.6993 19.631 17.6709 19.5872 17.643C19.5679 17.6318 19.5496 17.6192 19.5324 17.6053C19.5338 17.5997 19.6397 17.6939 19.5841 17.643C19.5138 17.5787 19.4386 17.5211 19.3721 17.4526C19.3569 17.4369 19.3424 17.4205 19.3273 17.4048L19.3126 17.3886C19.2751 17.3446 19.2744 17.3448 19.3105 17.3893C19.3472 17.3997 19.3455 17.4383 19.3107 17.3881C19.2983 17.3702 19.2851 17.3528 19.2727 17.3349C19.2165 17.258 19.1686 17.1757 19.1297 17.0895C19.133 17.0869 19.1896 17.2495 19.1464 17.1268C19.1382 17.1036 19.129 17.0809 19.121 17.0576C19.1051 17.0116 19.0911 16.965 19.079 16.9179C19.067 16.8712 19.0609 16.8231 19.0488 16.7766C19.0285 16.6983 19.0607 16.8384 19.057 16.8349C19.0455 16.824 19.0504 16.7561 19.0495 16.7398C19.044 16.6355 19.0564 16.5342 19.0583 16.4305C19.0598 16.3501 19.0514 16.4931 19.0496 16.4889C19.05 16.4648 19.0545 16.441 19.0628 16.4183C19.0753 16.3636 19.087 16.3089 19.1023 16.2549C19.1199 16.1929 19.1401 16.1317 19.163 16.0713C19.1715 16.0487 19.1819 16.0264 19.1899 16.0037C19.219 15.9201 19.1322 16.1045 19.1801 16.0292C19.2459 15.9256 19.295 15.8135 19.3649 15.7112C19.3815 15.6869 19.4822 15.5518 19.4287 15.62C19.3755 15.688 19.4835 15.5592 19.5039 15.5374C19.5888 15.4465 19.6886 15.372 19.7766 15.285C19.8286 15.2335 19.7402 15.3103 19.735 15.3139C19.7623 15.2952 19.7889 15.2759 19.8165 15.2576C19.8645 15.2258 19.9138 15.1957 19.9642 15.1673C20.021 15.1354 20.0852 15.1116 20.1402 15.0777C20.2052 15.0377 20.0905 15.0953 20.0884 15.0965C20.1181 15.0823 20.1492 15.0709 20.1812 15.0625C20.2348 15.0443 20.4679 14.9476 20.5168 14.9778C20.5146 14.9765 20.3398 14.9914 20.4811 14.9826C20.5145 14.9806 20.5477 14.9775 20.5812 14.9761C20.6488 14.9734 20.7162 14.9751 20.7838 14.9784C20.967 14.9773 21.1424 14.9068 21.2719 14.7824C21.4015 14.6579 21.4748 14.4895 21.476 14.3135C21.4721 14.1383 21.3979 13.9713 21.2689 13.8474C21.14 13.7235 20.9662 13.6523 20.7838 13.6485L20.7838 13.6485Z" fill="#E6E6E6"/>
<path d="M30.4747 13.6485C29.8736 13.6449 29.2847 13.8114 28.7814 14.1272C28.2781 14.4429 27.8827 14.894 27.6444 15.4242C27.3779 15.9431 27.2956 16.5315 27.4102 17.0996C27.5247 17.6676 27.8298 18.184 28.2788 18.5698C28.7008 18.9147 29.207 19.1512 29.7501 19.2572C30.2931 19.3632 30.8552 19.3352 31.3839 19.1758C31.9246 18.9944 32.3935 18.6564 32.726 18.2085C33.0585 17.7605 33.2383 17.2245 33.2406 16.6744C33.2648 16.064 33.0926 15.4612 32.7476 14.9481C32.4026 14.435 31.9014 14.0365 31.3123 13.8066C31.1353 13.7604 30.9465 13.7833 30.787 13.8703C30.6275 13.9573 30.5102 14.1014 30.4608 14.271C30.4172 14.4409 30.4429 14.6204 30.5329 14.7726C30.6228 14.9247 30.7701 15.038 30.9443 15.089C31.0649 15.1338 30.8341 15.0321 30.9467 15.091C30.993 15.1152 31.0402 15.1371 31.0857 15.163C31.1244 15.185 31.1614 15.2091 31.199 15.2327C31.3282 15.3137 31.1359 15.1732 31.2185 15.246C31.2901 15.3092 31.3611 15.3708 31.4262 15.4405C31.4508 15.4669 31.5473 15.5401 31.4723 15.4889C31.415 15.4497 31.4502 15.459 31.4723 15.4904C31.4891 15.5143 31.5068 15.5375 31.5234 15.5615C31.5773 15.64 31.6264 15.7215 31.6703 15.8055C31.6804 15.825 31.6897 15.8449 31.7001 15.8642C31.7195 15.9005 31.7476 15.91 31.702 15.8646C31.6585 15.8212 31.6862 15.8241 31.7018 15.8659C31.712 15.8933 31.7232 15.9205 31.7331 15.948C31.7656 16.0377 31.7928 16.1291 31.8148 16.2217C31.8249 16.2645 31.8331 16.3075 31.8418 16.3506C31.8727 16.5033 31.8373 16.2557 31.8447 16.3691C31.851 16.4638 31.8583 16.5575 31.8565 16.6526C31.8558 16.6961 31.8538 16.7395 31.8506 16.7829C31.849 16.8046 31.8465 16.8262 31.845 16.8478C31.8379 16.9522 31.8376 16.8097 31.8528 16.8C31.8212 16.8885 31.8002 16.9803 31.7903 17.0735C31.7779 17.1148 31.7632 17.1553 31.7494 17.1962C31.7012 17.3388 31.7946 17.1184 31.7433 17.2159C31.701 17.2997 31.6538 17.381 31.6018 17.4596C31.5793 17.4925 31.4942 17.5668 31.5638 17.5151C31.6392 17.459 31.5242 17.5556 31.4997 17.5805C31.4681 17.6124 31.4354 17.6433 31.4015 17.673C31.3798 17.6933 31.3569 17.7125 31.3328 17.7303C31.3284 17.7282 31.4485 17.6533 31.3838 17.6929C31.3015 17.7433 31.2237 17.7972 31.137 17.8411C31.1269 17.8462 31.0161 17.8955 31.0165 17.8973C31.0117 17.8793 31.159 17.8475 31.0579 17.8788C31.0367 17.8854 31.0159 17.8934 30.9947 17.9002C30.9027 17.93 30.8088 17.954 30.7135 17.9722C30.6917 17.9764 30.6687 17.9785 30.6472 17.9838C30.5756 18.0016 30.7156 17.9734 30.7198 17.9757C30.6669 17.9735 30.6139 17.978 30.5622 17.9891C30.464 17.9945 30.3656 17.9945 30.2674 17.9891C30.2446 17.9878 30.222 17.9857 30.1992 17.9844C30.1465 17.9814 30.1078 17.9449 30.178 17.9846C30.2321 18.0152 30.2276 17.9928 30.1797 17.9843C30.1572 17.9803 30.1347 17.977 30.1122 17.9729C30.015 17.9555 29.9189 17.9328 29.8243 17.9052C29.7734 17.8903 29.7235 17.8729 29.6733 17.8561C29.6514 17.85 29.6301 17.8421 29.6096 17.8325C29.6093 17.8271 29.739 17.8921 29.6705 17.8566C29.5841 17.8119 29.4946 17.7743 29.4102 17.7254C29.3652 17.6993 29.3219 17.6709 29.2781 17.643C29.2588 17.6318 29.2405 17.6192 29.2233 17.6053C29.2247 17.5997 29.3306 17.6939 29.275 17.643C29.2047 17.5787 29.1296 17.5211 29.063 17.4526C29.0478 17.4369 29.0334 17.4205 29.0182 17.4048L29.0035 17.3886C28.966 17.3446 28.9653 17.3448 29.0014 17.3893C29.0381 17.3997 29.0364 17.4383 29.0016 17.3881C28.9892 17.3702 28.976 17.3528 28.9637 17.3349C28.9074 17.258 28.8595 17.1757 28.8206 17.0895C28.8239 17.0869 28.8805 17.2495 28.8373 17.1268C28.8291 17.1036 28.8199 17.0809 28.8119 17.0576C28.796 17.0116 28.782 16.965 28.7699 16.9179C28.7579 16.8712 28.7518 16.8231 28.7397 16.7766C28.7194 16.6983 28.7516 16.8384 28.7479 16.8349C28.7364 16.824 28.7413 16.7561 28.7404 16.7398C28.7349 16.6355 28.7473 16.5342 28.7492 16.4305C28.7507 16.3501 28.7423 16.4931 28.7405 16.4889C28.741 16.4648 28.7454 16.441 28.7537 16.4183C28.7662 16.3636 28.7779 16.3089 28.7932 16.2549C28.8108 16.1929 28.831 16.1317 28.8539 16.0713C28.8624 16.0487 28.8728 16.0264 28.8808 16.0037C28.9099 15.9201 28.8231 16.1045 28.871 16.0292C28.9368 15.9256 28.9859 15.8135 29.0558 15.7112C29.0724 15.6869 29.1731 15.5518 29.1196 15.62C29.0664 15.688 29.1744 15.5592 29.1948 15.5374C29.2797 15.4465 29.3796 15.372 29.4675 15.285C29.5195 15.2335 29.4312 15.3103 29.4259 15.3139C29.4532 15.2952 29.4798 15.2759 29.5074 15.2576C29.5555 15.2258 29.6047 15.1957 29.6551 15.1673C29.7119 15.1354 29.7761 15.1116 29.8311 15.0777C29.8962 15.0377 29.7814 15.0953 29.7794 15.0965C29.8091 15.0823 29.8401 15.0709 29.8721 15.0625C29.9257 15.0443 30.1588 14.9476 30.2077 14.9778C30.2055 14.9765 30.0307 14.9914 30.172 14.9826C30.2054 14.9806 30.2387 14.9775 30.2721 14.9761C30.3397 14.9734 30.4072 14.9751 30.4747 14.9784C30.6579 14.9773 30.8333 14.9068 30.9629 14.7824C31.0924 14.6579 31.1657 14.4895 31.1669 14.3135C31.163 14.1383 31.0888 13.9713 30.9599 13.8474C30.8309 13.7235 30.6571 13.6523 30.4747 13.6485L30.4747 13.6485Z" fill="#E6E6E6"/>
<path d="M40.1656 13.6485C39.5645 13.6449 38.9756 13.8114 38.4723 14.1272C37.969 14.4429 37.5736 14.894 37.3353 15.4242C37.0688 15.9431 36.9865 16.5315 37.1011 17.0996C37.2157 17.6676 37.5207 18.184 37.9697 18.5698C38.3917 18.9147 38.8979 19.1512 39.441 19.2572C39.984 19.3632 40.5461 19.3352 41.0748 19.1758C41.6155 18.9944 42.0844 18.6564 42.4169 18.2085C42.7494 17.7605 42.9292 17.2245 42.9315 16.6744C42.9557 16.064 42.7835 15.4612 42.4385 14.9481C42.0935 14.435 41.5924 14.0365 41.0032 13.8066C40.8262 13.7604 40.6374 13.7833 40.4779 13.8703C40.3184 13.9573 40.2011 14.1014 40.1517 14.271C40.1081 14.4409 40.1339 14.6204 40.2238 14.7726C40.3137 14.9247 40.461 15.038 40.6352 15.089C40.7558 15.1338 40.525 15.0321 40.6376 15.091C40.684 15.1152 40.7311 15.1371 40.7766 15.163C40.8153 15.185 40.8523 15.2091 40.8899 15.2327C41.0191 15.3137 40.8268 15.1732 40.9094 15.246C40.9811 15.3092 41.052 15.3708 41.1171 15.4405C41.1417 15.4669 41.2382 15.5401 41.1632 15.4889C41.1059 15.4497 41.1411 15.459 41.1632 15.4904C41.18 15.5143 41.1977 15.5375 41.2143 15.5615C41.2682 15.64 41.3173 15.7215 41.3612 15.8055C41.3714 15.825 41.3807 15.8449 41.391 15.8642C41.4104 15.9005 41.4385 15.91 41.3929 15.8646C41.3494 15.8212 41.3771 15.8241 41.3927 15.8659C41.4029 15.8933 41.4141 15.9205 41.4241 15.948C41.4565 16.0377 41.4838 16.1291 41.5057 16.2217C41.5158 16.2645 41.524 16.3075 41.5327 16.3506C41.5636 16.5033 41.5282 16.2557 41.5357 16.3691C41.5419 16.4638 41.5492 16.5575 41.5475 16.6526C41.5467 16.6961 41.5447 16.7395 41.5416 16.7829C41.54 16.8046 41.5374 16.8262 41.536 16.8478C41.5288 16.9522 41.5286 16.8097 41.5438 16.8C41.5121 16.8885 41.4911 16.9803 41.4812 17.0735C41.4688 17.1148 41.4541 17.1553 41.4403 17.1962C41.3921 17.3388 41.4855 17.1184 41.4342 17.2159C41.3919 17.2997 41.3447 17.381 41.2927 17.4596C41.2702 17.4925 41.1852 17.5668 41.2547 17.5151C41.3302 17.459 41.2151 17.5556 41.1906 17.5805C41.1591 17.6124 41.1263 17.6433 41.0924 17.673C41.0707 17.6933 41.0478 17.7125 41.0238 17.7303C41.0194 17.7282 41.1394 17.6533 41.0747 17.6929C40.9925 17.7433 40.9146 17.7972 40.8279 17.8411C40.8178 17.8462 40.707 17.8955 40.7074 17.8973C40.7027 17.8793 40.8499 17.8475 40.7488 17.8788C40.7276 17.8854 40.7068 17.8934 40.6856 17.9002C40.5936 17.93 40.4997 17.954 40.4045 17.9722C40.3826 17.9764 40.3596 17.9785 40.3381 17.9838C40.2666 18.0016 40.4065 17.9734 40.4107 17.9757C40.3578 17.9735 40.3048 17.978 40.2532 17.9891C40.155 17.9945 40.0565 17.9945 39.9583 17.9891C39.9356 17.9878 39.9129 17.9857 39.8902 17.9844C39.8374 17.9814 39.7987 17.9449 39.8689 17.9846C39.9231 18.0152 39.9186 17.9928 39.8706 17.9843C39.8481 17.9803 39.8256 17.977 39.8032 17.9729C39.7059 17.9555 39.6098 17.9328 39.5152 17.9052C39.4643 17.8903 39.4144 17.8729 39.3642 17.8561C39.3423 17.85 39.321 17.8421 39.3005 17.8325C39.3002 17.8271 39.4299 17.8921 39.3614 17.8566C39.275 17.8119 39.1856 17.7743 39.1011 17.7254C39.0561 17.6993 39.0128 17.6709 38.969 17.643C38.9497 17.6318 38.9314 17.6192 38.9142 17.6053C38.9157 17.5997 39.0215 17.6939 38.9659 17.643C38.8957 17.5787 38.8205 17.5211 38.7539 17.4526C38.7387 17.4369 38.7243 17.4205 38.7091 17.4048L38.6944 17.3886C38.6569 17.3446 38.6562 17.3448 38.6923 17.3893C38.729 17.3997 38.7274 17.4383 38.6925 17.3881C38.6801 17.3702 38.667 17.3528 38.6546 17.3349C38.5984 17.258 38.5504 17.1757 38.5115 17.0895C38.5149 17.0869 38.5715 17.2495 38.5282 17.1268C38.52 17.1036 38.5108 17.0809 38.5028 17.0576C38.4869 17.0116 38.4729 16.965 38.4608 16.9179C38.4488 16.8712 38.4427 16.8231 38.4306 16.7766C38.4103 16.6983 38.4425 16.8384 38.4388 16.8349C38.4273 16.824 38.4322 16.7561 38.4314 16.7398C38.4258 16.6355 38.4382 16.5342 38.4401 16.4305C38.4416 16.3501 38.4332 16.4931 38.4315 16.4889C38.4319 16.4648 38.4363 16.441 38.4446 16.4183C38.4571 16.3636 38.4688 16.3089 38.4841 16.2549C38.5017 16.1929 38.5219 16.1317 38.5448 16.0713C38.5533 16.0487 38.5638 16.0264 38.5717 16.0037C38.6008 15.9201 38.514 16.1045 38.5619 16.0292C38.6278 15.9256 38.6768 15.8135 38.7467 15.7112C38.7633 15.6869 38.864 15.5518 38.8106 15.62C38.7573 15.688 38.8653 15.5592 38.8857 15.5374C38.9706 15.4465 39.0705 15.372 39.1584 15.285C39.2104 15.2335 39.1221 15.3103 39.1169 15.3139C39.1441 15.2952 39.1708 15.2759 39.1983 15.2576C39.2464 15.2258 39.2956 15.1957 39.346 15.1673C39.4028 15.1354 39.467 15.1116 39.5221 15.0777C39.5871 15.0377 39.4723 15.0953 39.4703 15.0965C39.5 15.0823 39.531 15.0709 39.563 15.0625C39.6166 15.0443 39.8497 14.9476 39.8986 14.9778C39.8964 14.9765 39.7216 14.9914 39.8629 14.9826C39.8963 14.9806 39.9296 14.9775 39.963 14.9761C40.0307 14.9734 40.0981 14.9751 40.1656 14.9784C40.3489 14.9773 40.5242 14.9068 40.6538 14.7824C40.7833 14.6579 40.8567 14.4895 40.8579 14.3135C40.8539 14.1383 40.7797 13.9713 40.6508 13.8474C40.5218 13.7235 40.348 13.6523 40.1656 13.6485L40.1656 13.6485Z" fill="#E6E6E6"/>
<path d="M180.165 160.92H10.386C8.23912 160.917 6.18085 160.097 4.66276 158.639C3.14468 157.181 2.29075 155.203 2.28833 153.141V7.77883C2.29074 5.71646 3.14465 3.73923 4.66273 2.28092C6.18082 0.822607 8.23909 0.00231265 10.386 0H180.165C182.311 0.00231265 184.37 0.822606 185.888 2.28092C187.406 3.73923 188.26 5.71646 188.262 7.77883V153.141C188.26 155.203 187.406 157.181 185.888 158.639C184.37 160.097 182.311 160.917 180.165 160.92ZM10.386 0.886609C8.4838 0.888688 6.66014 1.6155 5.31509 2.90759C3.97004 4.19968 3.21344 5.95154 3.21128 7.77883V153.141C3.21349 154.968 3.97012 156.72 5.31516 158.012C6.6602 159.304 8.48384 160.031 10.386 160.033H180.165C182.067 160.031 183.89 159.304 185.235 158.012C186.58 156.72 187.337 154.968 187.339 153.141V7.77883C187.337 5.95154 186.581 4.19968 185.235 2.90759C183.89 1.6155 182.067 0.88869 180.165 0.886609H10.386Z" fill="#E6E6E6"/>
<path d="M10.1047 98.9038L69.8098 98.7293L129.21 98.5558L162.718 98.4578C162.898 98.4519 163.068 98.3792 163.192 98.2551C163.317 98.1311 163.387 97.9654 163.387 97.7929C163.387 97.6204 163.317 97.4547 163.192 97.3306C163.068 97.2066 162.898 97.1339 162.718 97.1279L103.013 97.3024L43.6126 97.476L10.1047 97.5739C9.92524 97.5798 9.75523 97.6525 9.63049 97.7766C9.50576 97.9006 9.43604 98.0664 9.43604 98.2388C9.43604 98.4113 9.50576 98.577 9.63049 98.7011C9.75523 98.8251 9.92524 98.8978 10.1047 98.9038Z" fill="#E6E6E6"/>
<path d="M40.2249 97.8257L40.5941 76.8853C40.6092 76.0292 39.2247 76.029 39.2096 76.8853L38.8405 97.8257C38.8254 98.6818 40.2098 98.682 40.2249 97.8257Z" fill="#E6E6E6"/>
<path d="M68.7601 98.0522L69.6598 71.7312L69.9168 64.211C69.9461 63.355 68.5617 63.356 68.5324 64.211L67.6327 90.5319L67.3757 98.0522C67.3464 98.9082 68.7309 98.9072 68.7601 98.0522Z" fill="#E6E6E6"/>
<path d="M97.2187 51.7341C96.676 61.0568 95.6719 88.5549 95.1292 97.8776C95.0795 98.7328 96.464 98.73 96.5137 97.8776C97.0563 88.5549 98.0605 61.0568 98.6031 51.7341C98.6529 50.8789 97.2683 50.8817 97.2187 51.7341Z" fill="#E6E6E6"/>
<path d="M125.54 88.5231L125.37 97.4837C125.354 98.3399 126.738 98.3399 126.755 97.4837C126.955 86.9006 127.469 87.2456 127.526 84.2587C127.542 83.4026 126.157 83.4025 126.141 84.2587C126.141 84.2587 125.74 77.9401 125.54 88.5231Z" fill="#E6E6E6"/>
<path d="M153.28 64.9836L153.437 90.1228L153.481 97.3213C153.488 97.4936 153.563 97.657 153.692 97.7768C153.822 97.8966 153.994 97.9636 154.174 97.9636C154.353 97.9636 154.526 97.8966 154.655 97.7768C154.784 97.657 154.86 97.4936 154.866 97.3213L154.709 72.1821L154.664 64.9836C154.658 64.8113 154.583 64.6479 154.453 64.5281C154.324 64.4083 154.152 64.3413 153.972 64.3413C153.793 64.3413 153.62 64.4083 153.491 64.5281C153.362 64.6479 153.286 64.8113 153.28 64.9836Z" fill="#E6E6E6"/>
<path d="M10.216 98.1557C9.07006 95.1306 11.6533 92.2211 14.3076 90.9137C17.4876 89.3474 21.1458 88.9924 24.3595 87.4824C29.1507 85.2313 32.6404 81.1913 35.7456 77.1473C38.9417 72.985 41.866 68.5178 45.9272 65.0594C48.0672 63.1964 50.5947 61.7913 53.3425 60.9371C56.8046 59.8992 60.4763 59.828 64.0537 60.2462C71.4458 61.1106 78.2984 64.0435 85.431 65.9076C92.1556 67.6652 99.5648 68.6535 106.165 65.9204C109.519 64.5319 112.261 62.2031 115.207 60.1878C118.057 58.2169 121.244 56.74 124.624 55.8236C131.25 54.0537 138.486 54.5263 144.655 57.5184C150.325 60.2334 154.815 64.7853 157.331 70.3709C160.256 77.0818 159.875 84.5813 158.92 91.645C158.673 93.4709 158.379 95.2906 158.082 97.1094C157.945 97.9467 159.279 98.3074 159.417 97.463C160.606 90.1792 161.792 82.6646 160.312 75.335C159.032 68.9348 155.369 63.2019 150.007 59.2091C144.623 55.2053 137.929 53.176 131.128 53.4854C127.563 53.6443 124.055 54.3939 120.756 55.7012C117.332 57.0616 114.433 59.0781 111.488 61.1998C108.46 63.3813 105.339 65.1858 101.58 65.8972C97.9335 66.5873 94.1403 66.3287 90.5099 65.6771C83.0191 64.3326 76.0369 61.2506 68.6097 59.6715C61.7284 58.2084 54.3028 58.0622 48.1408 61.7966C43.4008 64.6692 40.0515 69.1289 36.8371 73.4351C33.6509 77.7036 30.4245 82.2681 25.7654 85.184C22.9233 86.9627 19.7285 87.619 16.5492 88.6193C13.3616 89.6222 10.3016 91.314 9.00187 94.4512C8.44172 95.7432 8.39868 97.1886 8.88103 98.5093C9.1833 99.3072 10.5217 98.9627 10.216 98.1557V98.1557Z" fill="#E6E6E6"/>
<path d="M39.7657 73.9897L39.7639 73.9905L39.7675 73.9897H39.7657Z" fill="#E6E6E6"/>
<path d="M42.1659 72.7667C41.846 72.2224 41.3355 71.8046 40.7252 71.5877C40.115 71.3707 39.4444 71.3685 38.8326 71.5816C38.5285 71.6882 38.2498 71.8523 38.0128 72.0643C37.7759 72.2762 37.5856 72.5316 37.4532 72.8154C37.4267 72.8757 37.4113 72.9391 37.3896 73.0009C37.3596 73.0475 37.3236 73.0895 37.2967 73.1383C37.0098 73.6875 36.9312 74.3157 37.0745 74.9146C37.2179 75.5135 37.5741 76.0457 38.0819 76.4194C38.5897 76.7931 39.2173 76.985 39.8566 76.9621C40.4959 76.9392 41.1068 76.7028 41.5842 76.2937C42.0859 75.858 42.4172 75.2705 42.523 74.6288C42.6289 73.9871 42.5029 73.33 42.1659 72.7667ZM40.432 73.896C40.4377 73.9296 40.4356 73.9605 40.432 73.896V73.896ZM40.2558 73.5111C40.249 73.5036 40.2499 73.5044 40.2558 73.5111V73.5111ZM39.479 73.8111C39.4686 73.7958 39.4676 73.7932 39.479 73.8111V73.8111ZM39.6631 73.9611C39.707 73.9754 39.6896 73.9724 39.6631 73.9611V73.9611ZM39.7453 73.9987L39.7636 73.9907C39.7591 73.9911 39.7546 73.9903 39.7507 73.9883L39.7512 73.9882L39.7655 73.9899L39.7681 73.9887L39.7599 73.9869C39.767 73.9866 39.7679 73.9876 39.7683 73.9887C39.8507 73.9524 39.7949 73.9699 39.7472 73.9841L39.744 73.9833C39.7142 73.9688 39.6821 73.9589 39.6491 73.9541C39.646 73.9524 39.6424 73.9513 39.6399 73.9495C39.6134 73.9314 39.4794 73.8308 39.6037 73.9362C39.5766 73.9133 39.5499 73.8908 39.5245 73.866C39.5095 73.8512 39.4959 73.8352 39.4838 73.8181C39.4675 73.7912 39.4517 73.7641 39.4364 73.7367L39.4341 73.722C39.4321 73.7097 39.4306 73.7047 39.4289 73.6973C39.4297 73.6897 39.4309 73.6815 39.4322 73.6736C39.4414 73.6497 39.4474 73.6247 39.4497 73.5993L39.4551 73.5928C39.475 73.5661 39.4924 73.535 39.5114 73.5073C39.411 73.6537 39.5506 73.4912 39.561 73.4706C39.5628 73.4671 39.5597 73.469 39.5605 73.4666C39.5645 73.4644 39.5633 73.4659 39.5682 73.4631C39.5993 73.4455 39.6287 73.4259 39.6603 73.4091C39.6979 73.3891 39.846 73.3487 39.6924 73.3909C39.7273 73.3813 39.7608 73.3692 39.7961 73.3604C39.8025 73.3588 39.8542 73.3518 39.882 73.347C39.9065 73.3464 39.9302 73.3457 39.9327 73.3457C39.9442 73.3459 39.9557 73.3472 39.9672 73.3477C39.9417 73.351 40.0547 73.3744 40.0882 73.3794C40.0931 73.383 40.0956 73.3854 40.1022 73.39C40.1305 73.4099 40.165 73.4276 40.195 73.4462C40.0611 73.3631 40.1967 73.4528 40.2223 73.4774C40.2376 73.4921 40.2517 73.5077 40.2661 73.5232C40.2792 73.5379 40.2912 73.5536 40.3017 73.5702C40.3237 73.6088 40.347 73.6479 40.3701 73.6859L40.3765 73.6957C40.3763 73.6969 40.3763 73.6982 40.3763 73.6995C40.3883 73.7611 40.406 73.8216 40.4293 73.8802C40.4304 73.8852 40.4313 73.8902 40.4319 73.8952C40.434 73.929 40.437 73.9627 40.437 73.9966L40.4367 74.0035C40.3301 73.9501 40.2118 73.9218 40.0916 73.921C39.9714 73.9202 39.8527 73.9468 39.7453 73.9987H39.7453Z" fill="#E6E6E6"/>
<path d="M39.77 73.9888C39.7725 73.9894 39.7701 73.9893 39.7695 73.9895L39.77 73.9888Z" fill="#E6E6E6"/>
<path d="M39.7695 73.9888L39.7706 73.9891L39.7695 73.9888Z" fill="#E6E6E6"/>
<path d="M39.7698 73.9897L39.7676 73.99C39.7704 73.9903 39.7694 73.9899 39.7698 73.9897Z" fill="#E6E6E6"/>
<path d="M39.7683 73.9883L39.7693 73.9887L39.7683 73.9883Z" fill="#E6E6E6"/>
<path d="M69.2997 61.5771L69.2981 61.5778L69.3012 61.5771H69.2997Z" fill="#E6E6E6"/>
<path d="M71.7003 60.3541C71.3804 59.8098 70.8699 59.392 70.2596 59.1751C69.6494 58.9581 68.9788 58.9559 68.367 59.169C68.0629 59.2756 67.7842 59.4397 67.5473 59.6517C67.3103 59.8636 67.1201 60.119 66.9877 60.4028C66.9612 60.4631 66.9457 60.5265 66.924 60.5883C66.894 60.6349 66.858 60.6769 66.8311 60.7257C66.5442 61.2749 66.4656 61.9031 66.609 62.502C66.7523 63.1009 67.1085 63.6331 67.6164 64.0068C68.1242 64.3805 68.7518 64.5724 69.391 64.5495C70.0303 64.5266 70.6412 64.2902 71.1186 63.8811C71.6203 63.4454 71.9516 62.8579 72.0575 62.2162C72.1633 61.5745 72.0373 60.9174 71.7003 60.3541ZM69.9665 61.4834C69.9722 61.517 69.9701 61.5479 69.9665 61.4834V61.4834ZM69.7902 61.0985C69.7834 61.091 69.7843 61.0918 69.7902 61.0985V61.0985ZM69.0134 61.3985C69.003 61.3832 69.002 61.3806 69.0134 61.3985V61.3985ZM69.1975 61.5485C69.2414 61.5628 69.224 61.5598 69.1975 61.5485V61.5485ZM69.2797 61.5861L69.298 61.5781C69.2935 61.5785 69.289 61.5777 69.285 61.5757L69.2856 61.5756L69.2999 61.5773L69.3025 61.5761L69.2943 61.5743C69.3014 61.574 69.3022 61.575 69.3027 61.5761C69.3851 61.5398 69.3293 61.5573 69.2816 61.5715L69.2784 61.5707C69.2486 61.5562 69.2165 61.5463 69.1835 61.5415C69.1804 61.5399 69.1768 61.5387 69.1742 61.5369C69.1477 61.5188 69.0138 61.4183 69.1381 61.5236C69.111 61.5007 69.0843 61.4782 69.0589 61.4534C69.0439 61.4386 69.0303 61.4226 69.0182 61.4055C69.0019 61.3786 68.9861 61.3515 68.9708 61.3242L68.9685 61.3094C68.9665 61.2971 68.965 61.2921 68.9633 61.2847C68.9641 61.2771 68.9653 61.2689 68.9666 61.261C68.9758 61.2371 68.9818 61.2121 68.9841 61.1867L68.9895 61.1802C69.0094 61.1535 69.0268 61.1224 69.0458 61.0947C68.9454 61.2411 69.085 61.0786 69.0954 61.058C69.0972 61.0545 69.0941 61.0564 69.0949 61.054C69.0989 61.0518 69.0977 61.0533 69.1026 61.0505C69.1337 61.0329 69.1631 61.0133 69.1947 60.9965C69.2323 60.9765 69.3804 60.9361 69.2268 60.9783C69.2617 60.9687 69.2952 60.9566 69.3305 60.9478C69.3369 60.9462 69.3886 60.9392 69.4164 60.9344C69.4409 60.9338 69.4646 60.9331 69.4671 60.9331C69.4786 60.9333 69.4901 60.9346 69.5016 60.9351C69.4761 60.9384 69.5891 60.9618 69.6226 60.9668C69.6275 60.9704 69.63 60.9728 69.6366 60.9774C69.6649 60.9973 69.6994 61.015 69.7294 61.0336C69.5955 60.9505 69.7311 61.0402 69.7567 61.0648C69.772 61.0795 69.7861 61.0951 69.8005 61.1106C69.8136 61.1253 69.8256 61.141 69.8361 61.1576C69.8581 61.1962 69.8814 61.2353 69.9045 61.2733L69.9109 61.2831C69.9107 61.2843 69.9107 61.2856 69.9107 61.2869C69.9227 61.3485 69.9404 61.409 69.9637 61.4676C69.9648 61.4726 69.9657 61.4776 69.9663 61.4826C69.9684 61.5164 69.9714 61.5501 69.9714 61.584L69.9711 61.5909C69.8645 61.5375 69.7462 61.5092 69.626 61.5084C69.5058 61.5076 69.3871 61.5342 69.2797 61.5861Z" fill="#E6E6E6"/>
<path d="M69.304 61.5771L69.3018 61.5774C69.3046 61.5777 69.3035 61.5773 69.304 61.5771Z" fill="#E6E6E6"/>
<path d="M69.3027 61.5757L69.3037 61.5761L69.3027 61.5757Z" fill="#E6E6E6"/>
<path d="M69.3044 61.5762C69.307 61.5768 69.3045 61.5767 69.304 61.5769L69.3044 61.5762Z" fill="#E6E6E6"/>
<path d="M69.3037 61.5762L69.3048 61.5765L69.3037 61.5762Z" fill="#E6E6E6"/>
<path d="M97.9141 67.7822L97.915 67.7826L97.9141 67.7822Z" fill="#E6E6E6"/>
<path d="M100.312 47.9415C99.9917 47.3972 99.4812 46.9794 98.871 46.7625C98.2607 46.5455 97.5901 46.5433 96.9784 46.7564C96.6743 46.863 96.3955 47.0271 96.1586 47.2391C95.9217 47.451 95.7314 47.7064 95.599 47.9902C95.5725 48.0505 95.557 48.1139 95.5354 48.1757C95.5054 48.2223 95.4693 48.2644 95.4425 48.3131C95.1555 48.8623 95.077 49.4905 95.2203 50.0894C95.3636 50.6883 95.7199 51.2205 96.2277 51.5942C96.7355 51.9679 97.3631 52.1598 98.0024 52.1369C98.6416 52.114 99.2526 51.8776 99.7299 51.4685C100.232 51.0328 100.563 50.4453 100.669 49.8036C100.775 49.162 100.649 48.5048 100.312 47.9415ZM98.5778 49.0709C98.5835 49.1044 98.5814 49.1353 98.5778 49.0709V49.0709ZM98.4016 48.6859C98.3948 48.6784 98.3956 48.6792 98.4016 48.6859V48.6859ZM97.6247 48.9859C97.6143 48.9706 97.6133 48.968 97.6247 48.9859V48.9859ZM97.8089 49.1359C97.8527 49.1503 97.8354 49.1472 97.8089 49.1359V49.1359ZM97.8911 49.1735L97.9093 49.1655C97.9048 49.1659 97.9003 49.1651 97.8964 49.1631L97.8969 49.163L97.9112 49.1647L97.9139 49.1635L97.9056 49.1617C97.9128 49.1614 97.9136 49.1624 97.9141 49.1635C97.9964 49.1272 97.9406 49.1447 97.8929 49.1589L97.8897 49.1582C97.8599 49.1436 97.8279 49.1337 97.7948 49.1289C97.7918 49.1273 97.7881 49.1261 97.7856 49.1243C97.7591 49.1062 97.6251 49.0057 97.7494 49.111C97.7223 49.0881 97.6956 49.0656 97.6702 49.0408C97.6552 49.026 97.6416 49.01 97.6296 48.9929C97.6133 48.966 97.5974 48.9389 97.5821 48.9116L97.5798 48.8968C97.5778 48.8845 97.5763 48.8795 97.5746 48.8721C97.5754 48.8645 97.5767 48.8563 97.5779 48.8484C97.5872 48.8245 97.5931 48.7995 97.5955 48.7741L97.6008 48.7676C97.6207 48.7409 97.6381 48.7098 97.6571 48.6821C97.5568 48.8285 97.6963 48.666 97.7068 48.6454C97.7085 48.6419 97.7054 48.6438 97.7062 48.6414C97.7102 48.6392 97.709 48.6407 97.7139 48.6379C97.745 48.6203 97.7745 48.6007 97.806 48.5839C97.8436 48.5639 97.9918 48.5235 97.8381 48.5657C97.873 48.5561 97.9065 48.544 97.9418 48.5352C97.9482 48.5336 97.9999 48.5266 98.0278 48.5218C98.0522 48.5212 98.076 48.5205 98.0785 48.5205C98.09 48.5207 98.1014 48.522 98.1129 48.5225C98.0874 48.5258 98.2004 48.5492 98.234 48.5542C98.2388 48.5578 98.2413 48.5602 98.2479 48.5648C98.2762 48.5847 98.3107 48.6024 98.3407 48.621C98.2068 48.5379 98.3424 48.6276 98.368 48.6522C98.3833 48.6669 98.3974 48.6825 98.4118 48.698C98.425 48.7127 98.4369 48.7284 98.4474 48.745C98.4694 48.7836 98.4927 48.8227 98.5158 48.8607L98.5222 48.8705C98.5221 48.8717 98.522 48.873 98.522 48.8743C98.534 48.9359 98.5518 48.9964 98.575 49.055C98.5761 49.06 98.577 49.065 98.5776 49.07C98.5798 49.1038 98.5827 49.1375 98.5828 49.1714L98.5825 49.1783C98.4759 49.1249 98.3576 49.0966 98.2374 49.0958C98.1171 49.095 97.9985 49.1216 97.8911 49.1735Z" fill="#E6E6E6"/>
<path d="M97.911 67.7837L97.9094 67.7844L97.9126 67.7837H97.911Z" fill="#E6E6E6"/>
<path d="M97.915 67.7827L97.9161 67.7831L97.915 67.7827Z" fill="#E6E6E6"/>
<path d="M97.9153 67.7832L97.9131 67.7835C97.9159 67.7837 97.9149 67.7833 97.9153 67.7832Z" fill="#E6E6E6"/>
<path d="M97.9157 67.7827C97.9183 67.7834 97.9159 67.7833 97.9153 67.7834L97.9157 67.7827Z" fill="#E6E6E6"/>
<path d="M129.385 82.0758C129.065 81.5314 128.554 81.1137 127.944 80.8967C127.334 80.6798 126.663 80.6776 126.051 80.8907C125.747 80.9973 125.469 81.1614 125.232 81.3733C124.995 81.5852 124.804 81.8407 124.672 82.1244C124.645 82.1848 124.63 82.2482 124.608 82.31C124.578 82.3566 124.542 82.3986 124.515 82.4474C124.229 82.9966 124.15 83.6248 124.293 84.2237C124.437 84.8226 124.793 85.3547 125.301 85.7285C125.808 86.1022 126.436 86.2941 127.075 86.2712C127.715 86.2482 128.326 86.0119 128.803 85.6028C129.305 85.1671 129.636 84.5796 129.742 83.9379C129.848 83.2962 129.722 82.6391 129.385 82.0758ZM127.651 83.2051C127.656 83.2387 127.654 83.2696 127.651 83.2051V83.2051ZM127.475 82.8202C127.468 82.8127 127.469 82.8135 127.475 82.8202V82.8202ZM126.698 83.1202C126.687 83.1049 126.686 83.1023 126.698 83.1202V83.1202ZM126.882 83.2702C126.926 83.2845 126.908 83.2815 126.882 83.2702V83.2702ZM126.964 83.3078L126.982 83.2998C126.978 83.3002 126.973 83.2994 126.969 83.2974L126.97 83.2973L126.984 83.299L126.987 83.2978L126.979 83.296C126.986 83.2957 126.987 83.2967 126.987 83.2977C127.069 83.2615 127.014 83.2789 126.966 83.2931L126.963 83.2924C126.933 83.2779 126.901 83.268 126.868 83.2632C126.865 83.2615 126.861 83.2603 126.859 83.2586C126.832 83.2405 126.698 83.1399 126.822 83.2453C126.795 83.2224 126.769 83.1998 126.743 83.1751C126.728 83.1603 126.715 83.1442 126.703 83.1271C126.686 83.1003 126.67 83.0732 126.655 83.0458L126.653 83.0311C126.651 83.0188 126.649 83.0137 126.648 83.0064C126.648 82.9988 126.65 82.9906 126.651 82.9827C126.66 82.9588 126.666 82.9338 126.668 82.9084L126.674 82.9019C126.694 82.8752 126.711 82.8441 126.73 82.8164C126.63 82.9628 126.769 82.8003 126.78 82.7797C126.782 82.7762 126.778 82.7781 126.779 82.7756C126.783 82.7735 126.782 82.775 126.787 82.7722C126.818 82.7546 126.847 82.735 126.879 82.7182C126.917 82.6982 127.065 82.6578 126.911 82.7C126.946 82.6904 126.98 82.6783 127.015 82.6694C127.021 82.6678 127.073 82.6609 127.101 82.6561C127.125 82.6555 127.149 82.6548 127.151 82.6548C127.163 82.6549 127.174 82.6563 127.186 82.6568C127.16 82.6601 127.273 82.6835 127.307 82.6885C127.312 82.6921 127.314 82.6945 127.321 82.6991C127.349 82.719 127.384 82.7367 127.414 82.7553C127.28 82.6722 127.415 82.7619 127.441 82.7865C127.456 82.8012 127.47 82.8168 127.485 82.8323C127.498 82.847 127.51 82.8627 127.52 82.8793C127.542 82.9179 127.566 82.957 127.589 82.995L127.595 83.0048C127.595 83.006 127.595 83.0073 127.595 83.0085C127.607 83.0702 127.625 83.1307 127.648 83.1893C127.649 83.1942 127.65 83.1993 127.651 83.2043C127.653 83.2381 127.656 83.2717 127.656 83.3057L127.655 83.3126C127.549 83.2592 127.431 83.2309 127.31 83.2301C127.19 83.2293 127.071 83.2559 126.964 83.3078Z" fill="#E6E6E6"/>
<path d="M126.984 54.041L126.982 54.0417L126.986 54.041H126.984Z" fill="#E6E6E6"/>
<path d="M126.988 54.04L126.989 54.0404L126.988 54.04Z" fill="#E6E6E6"/>
<path d="M126.988 54.041L126.986 54.0413C126.989 54.0415 126.988 54.0411 126.988 54.041Z" fill="#E6E6E6"/>
<path d="M126.989 54.04C126.991 54.0407 126.989 54.0406 126.988 54.0408L126.989 54.04Z" fill="#E6E6E6"/>
<path d="M126.987 54.0396L126.988 54.0399L126.987 54.0396Z" fill="#E6E6E6"/>
<path d="M154.215 62.9062L154.216 62.9066L154.215 62.9062Z" fill="#E6E6E6"/>
<path d="M156.611 61.6837C156.292 61.1394 155.781 60.7216 155.171 60.5046C154.561 60.2877 153.89 60.2855 153.278 60.4986C152.974 60.6052 152.695 60.7693 152.458 60.9812C152.221 61.1932 152.031 61.4486 151.899 61.7323C151.872 61.7927 151.857 61.8561 151.835 61.9179C151.805 61.9645 151.769 62.0065 151.742 62.0553C151.455 62.6045 151.377 63.2327 151.52 63.8316C151.663 64.4305 152.02 64.9627 152.527 65.3364C153.035 65.7101 153.663 65.902 154.302 65.8791C154.941 65.8561 155.552 65.6198 156.03 65.2107C156.531 64.775 156.863 64.1875 156.969 63.5458C157.074 62.9041 156.948 62.247 156.611 61.6837ZM154.878 62.813C154.883 62.8466 154.881 62.8775 154.878 62.813V62.813ZM154.701 62.4281C154.695 62.4206 154.695 62.4214 154.701 62.4281V62.4281ZM153.925 62.7281C153.914 62.7128 153.913 62.7102 153.925 62.7281V62.7281ZM154.109 62.8781C154.152 62.8924 154.135 62.8894 154.109 62.8781V62.8781ZM154.191 62.9157L154.209 62.9077C154.205 62.9081 154.2 62.9073 154.196 62.9053L154.197 62.9052L154.211 62.9069L154.214 62.9057L154.205 62.9039C154.213 62.9036 154.213 62.9046 154.214 62.9056C154.296 62.8694 154.24 62.8868 154.193 62.9011L154.19 62.9003C154.16 62.8858 154.128 62.8759 154.095 62.8711C154.092 62.8694 154.088 62.8683 154.085 62.8665C154.059 62.8484 153.925 62.7478 154.049 62.8532C154.022 62.8303 153.995 62.8078 153.97 62.783C153.955 62.7682 153.941 62.7522 153.929 62.735C153.913 62.7082 153.897 62.6811 153.882 62.6537L153.88 62.639C153.878 62.6267 153.876 62.6217 153.874 62.6143C153.875 62.6067 153.876 62.5985 153.878 62.5906C153.887 62.5667 153.893 62.5417 153.895 62.5163L153.901 62.5098C153.921 62.4831 153.938 62.452 153.957 62.4243C153.857 62.5707 153.996 62.4082 154.007 62.3876C154.008 62.3841 154.005 62.386 154.006 62.3835C154.01 62.3814 154.009 62.3829 154.014 62.3801C154.045 62.3625 154.074 62.3429 154.106 62.3261C154.143 62.3061 154.292 62.2657 154.138 62.3079C154.173 62.2983 154.206 62.2862 154.242 62.2773C154.248 62.2758 154.3 62.2688 154.328 62.264C154.352 62.2634 154.376 62.2627 154.378 62.2627C154.39 62.2628 154.401 62.2642 154.413 62.2647C154.387 62.268 154.5 62.2914 154.534 62.2964C154.539 62.3 154.541 62.3024 154.548 62.307C154.576 62.3269 154.611 62.3446 154.64 62.3632C154.507 62.2801 154.642 62.3698 154.668 62.3944C154.683 62.4091 154.697 62.4247 154.712 62.4402C154.725 62.4549 154.737 62.4706 154.747 62.4872C154.769 62.5258 154.793 62.5649 154.816 62.6029L154.822 62.6127C154.822 62.6139 154.822 62.6152 154.822 62.6164C154.834 62.6781 154.852 62.7386 154.875 62.7972C154.876 62.8022 154.877 62.8072 154.877 62.8122C154.88 62.846 154.883 62.8797 154.883 62.9136L154.882 62.9205C154.776 62.8671 154.657 62.8388 154.537 62.838C154.417 62.8372 154.298 62.8638 154.191 62.9157Z" fill="#E6E6E6"/>
<path d="M154.211 62.9072L154.209 62.9079L154.212 62.9072H154.211Z" fill="#E6E6E6"/>
<path d="M154.214 62.9058L154.215 62.9062L154.214 62.9058Z" fill="#E6E6E6"/>
<path d="M154.216 62.9062C154.218 62.9069 154.216 62.9068 154.215 62.907L154.216 62.9062Z" fill="#E6E6E6"/>
<path d="M154.215 62.9067L154.213 62.907C154.216 62.9073 154.215 62.9069 154.215 62.9067Z" fill="#E6E6E6"/>
<path d="M146.75 83.223L125.293 84.3686C125.172 84.3751 125.053 84.3368 124.961 84.2615C124.868 84.1862 124.81 84.0798 124.796 83.9641C124.783 83.8484 124.817 83.7323 124.89 83.6397C124.964 83.5471 125.071 83.485 125.191 83.4663L147.122 80.0381L146.75 83.223Z" fill="#3F3D56"/>
<path d="M174.019 129.112L182.105 116.044L188.081 118.756C188.081 118.756 177.783 131.112 177.455 131.467C177.596 132.068 177.543 132.695 177.304 133.266C177.065 133.837 176.652 134.325 176.118 134.666C175.584 135.006 174.955 135.183 174.315 135.173C173.674 135.162 173.052 134.966 172.53 134.608C172.008 134.251 171.612 133.749 171.393 133.171C171.175 132.592 171.144 131.964 171.305 131.368C171.467 130.772 171.813 130.238 172.297 129.835C172.782 129.432 173.382 129.18 174.019 129.112Z" fill="#FFB6B6"/>
<path d="M177.382 98.7568L190.483 105.322C191.301 105.889 191.988 106.613 192.498 107.449C193.009 108.285 193.333 109.215 193.448 110.177C193.564 111.14 193.469 112.116 193.17 113.042C192.87 113.967 192.373 114.823 191.71 115.553L182.679 125.505L178.745 120.384L181.777 114.293L175.906 112.805L177.382 98.7568Z" fill="#14213D"/>
<path d="M140.051 83.4364L138.575 98.5722L131.966 98.5828C131.966 98.5828 135.758 83.1797 135.896 82.7235C135.501 82.2387 135.268 81.6503 135.229 81.0359C135.19 80.4215 135.346 79.8102 135.677 79.2828C136.007 78.7554 136.496 78.3368 137.08 78.0824C137.663 77.828 138.313 77.7497 138.944 77.8579C139.575 77.9661 140.157 78.2558 140.612 78.6885C141.068 79.1212 141.376 79.6766 141.496 80.2813C141.616 80.8859 141.542 81.5113 141.284 82.0747C141.026 82.6381 140.596 83.1129 140.051 83.4364V83.4364Z" fill="#FFB6B6"/>
<path d="M153.207 114.389L137.995 111.709C131.589 110.969 128.96 106.92 130.116 102.971L133.835 90.2612L139.675 93.2687L139.652 100.02L147.827 98.9468L153.207 114.389Z" fill="#14213D"/>
<path d="M146.98 218.989H142.797L140.807 203.49H146.981L146.98 218.989Z" fill="#FFB6B6"/>
<path d="M147.127 223.181L134.264 223.18V223.024C134.264 221.749 134.792 220.525 135.731 219.623C136.67 218.722 137.943 218.215 139.271 218.215H139.271L141.621 216.502L146.005 218.215L147.127 218.215L147.127 223.181Z" fill="#2F2E41"/>
<path d="M176.576 218.989H180.759L182.749 203.49H176.575L176.576 218.989Z" fill="#FFB6B6"/>
<path d="M176.429 223.181L189.292 223.18V223.024C189.292 221.749 188.764 220.525 187.826 219.623C186.887 218.722 185.613 218.215 184.285 218.215H184.285L181.936 216.502L177.552 218.215L176.429 218.215L176.429 223.181Z" fill="#2F2E41"/>
<path d="M140.623 192.101C140.685 191.216 141.176 186.326 141.176 186.326L142.353 175.953L144.426 148.459L146.275 141.232L155.424 144.656L162.847 141.237L171.671 143.947L178.542 146.422C178.542 146.422 178.554 147.481 178.607 148.761C178.677 150.437 178.801 152.491 179.095 153.025C179.586 153.968 179.463 159.035 179.463 159.035C179.463 159.035 179.951 169.342 180.566 170.472C181.18 171.602 181.304 173.956 181.118 174.428C180.933 174.899 181.733 187.278 181.733 187.278C181.733 187.278 183.787 209.183 182.498 212.486C181.21 215.789 176.342 213.625 176.342 213.625C176.342 213.625 176.577 212.744 175.165 212.328C173.754 211.913 169.453 180.853 169.453 180.853C169.453 180.853 168.653 174.484 167.918 172.659C167.183 170.834 166.506 165.705 166.506 165.705C166.506 165.705 161.965 157.218 161.906 155.33C161.906 155.33 161.312 153.564 160.75 155.508C160.189 157.452 158.533 162.109 158.533 162.109L156.918 167.827L155.018 176.371L153.788 183.565C153.788 183.565 151.947 193.112 151.653 193.525C151.359 193.937 151.653 202.66 151.653 202.66C151.653 202.66 150.229 210.088 148.218 211.384C146.206 212.681 140.876 211.405 140.876 211.405C140.876 211.405 140.562 192.985 140.623 192.101Z" fill="#2F2E41"/>
<path d="M147.463 117.978L146.294 132.526L144.537 134.273C144.379 134.43 144.255 134.616 144.174 134.821C144.092 135.025 144.054 135.244 144.063 135.462C144.071 135.681 144.125 135.896 144.222 136.094C144.319 136.292 144.456 136.47 144.626 136.616L143.658 138.21L143.316 143.233C143.218 143.623 143.211 144.03 143.296 144.424C143.381 144.817 143.555 145.188 143.806 145.509C144.058 145.831 144.38 146.095 144.749 146.283C145.119 146.471 145.528 146.578 145.945 146.597L176.233 147.964C176.649 147.983 177.063 147.914 177.448 147.762C177.833 147.609 178.178 147.378 178.46 147.084C178.741 146.789 178.952 146.439 179.077 146.058C179.202 145.677 179.238 145.274 179.183 144.878L176.608 126.253V124.86L175.455 122.171L176.048 113.161L177.426 98.8603L169.414 96.8722L165.069 94.001L157.522 94.1164L152.943 97.7294L146.837 98.648L142.219 99.5298L141.631 100.758L142.807 100.512L147.071 116.49L147.463 117.978Z" fill="#14213D"/>
<path d="M161.127 92.0511C166.037 92.0511 170.018 88.2273 170.018 83.5104C170.018 78.7935 166.037 74.9697 161.127 74.9697C156.217 74.9697 152.236 78.7935 152.236 83.5104C152.236 88.2273 156.217 92.0511 161.127 92.0511Z" fill="#FFB6B6"/>
<path d="M158.983 91.5004L165.407 91.1856C166.23 91.1453 167.128 91.0755 167.727 90.5314C168.049 90.1953 168.297 89.8 168.455 89.3694C169.049 88.0443 169.643 86.7191 170.222 85.3878C171.022 83.5464 171.808 81.602 171.604 79.6162C171.556 78.7093 171.16 77.8516 170.492 77.2086C170.152 76.8988 169.714 76.7061 169.247 76.6607C168.78 76.6152 168.311 76.7196 167.913 76.9575C167.814 76.3294 167.567 75.7311 167.192 75.2079C166.817 74.6847 166.323 74.2503 165.748 73.9375C164.585 73.3206 163.258 73.0502 161.935 73.1609C160.015 73.2798 158.182 73.9737 156.694 75.1451C156.276 75.516 155.829 75.8562 155.357 76.1628C155.12 76.3152 154.853 76.4195 154.572 76.4693C154.292 76.5192 154.004 76.5136 153.726 76.4528C153.45 76.3821 153.21 76.2179 153.051 75.9906C152.892 75.7633 152.823 75.4883 152.859 75.2164C152.406 75.5413 152.096 76.0165 151.989 76.5492C151.881 77.082 151.984 77.634 152.277 78.0978C151.944 78.232 151.58 78.2811 151.221 78.2403C150.862 78.1995 150.52 78.0702 150.228 77.8649C149.916 78.0139 149.639 78.2238 149.416 78.4814C149.193 78.739 149.029 79.0385 148.933 79.3607C148.837 79.683 148.813 80.0208 148.861 80.3527C148.909 80.6846 149.029 81.0031 149.213 81.288C149.396 81.5728 149.64 81.8176 149.928 82.0068C150.216 82.196 150.541 82.3253 150.884 82.3865C151.227 82.4477 151.58 82.4395 151.919 82.3622C152.259 82.285 152.578 82.1406 152.856 81.9381C153.245 82.4627 153.1 83.1755 153.049 83.8182C152.999 84.4609 153.178 85.2596 153.823 85.4372C154.695 85.6774 155.401 84.5496 156.308 84.5616C156.532 84.5791 156.748 84.6493 156.936 84.7661C157.125 84.8829 157.281 85.0427 157.39 85.2311C157.603 85.6099 157.75 86.0203 157.823 86.4454L158.984 91.4654" fill="#2F2E41"/>
<path d="M409.446 168.295C409.446 166.972 408.984 165.899 408.416 165.897H253.663C253.093 165.899 252.633 166.972 252.631 168.295V222.737C252.631 222.86 252.583 222.978 252.497 223.069C252.411 223.16 252.293 223.217 252.166 223.229C251.751 223.267 251.335 223.303 250.92 223.336C250.91 223.336 250.899 223.338 250.889 223.338C250.663 223.358 250.437 223.373 250.211 223.39H250.208C250.092 223.184 249.977 222.975 249.864 222.765C249.825 222.694 249.805 222.616 249.805 222.536V165.184C249.805 164.818 249.821 164.451 249.846 164.088C249.883 163.59 249.947 163.094 250.039 162.603C250.473 160.31 251.454 158.758 252.569 158.753H409.508C409.67 158.754 409.831 158.787 409.98 158.85C410.199 158.943 410.397 159.076 410.563 159.242C410.788 159.467 410.981 159.72 411.136 159.995C411.776 161.219 412.144 162.557 412.217 163.925C412.217 163.94 412.22 163.955 412.22 163.97C412.256 164.369 412.274 164.776 412.271 165.183L412.307 170.471L412.33 173.625L412.4 183.519L412.425 187.033L412.538 223.106C412.538 223.237 412.484 223.363 412.388 223.455C412.292 223.548 412.161 223.6 412.025 223.6H409.96C409.823 223.6 409.693 223.548 409.596 223.455C409.5 223.363 409.446 223.237 409.446 223.106V168.295Z" fill="#E6E6E6"/>
<path d="M367.395 134.011H350.72C350.484 134.011 350.258 134.101 350.091 134.262C349.924 134.422 349.831 134.64 349.831 134.866V160.171H368.285V134.866C368.285 134.754 368.262 134.643 368.217 134.539C368.173 134.435 368.107 134.341 368.024 134.261C367.942 134.182 367.844 134.119 367.735 134.076C367.627 134.033 367.511 134.011 367.395 134.011ZM359.113 148.388C358.592 148.386 358.092 148.186 357.724 147.832C357.355 147.478 357.147 146.998 357.144 146.497V143.578C357.144 143.077 357.352 142.595 357.721 142.241C358.09 141.886 358.591 141.687 359.113 141.687C359.635 141.687 360.136 141.886 360.505 142.241C360.875 142.595 361.082 143.077 361.082 143.578V146.497C361.08 146.998 360.872 147.478 360.503 147.832C360.134 148.186 359.635 148.386 359.113 148.388Z" fill="#FCA311"/>
<path d="M349.774 159.361V161.803C349.774 161.929 349.827 162.05 349.92 162.14C350.013 162.229 350.139 162.28 350.271 162.28H367.845C367.977 162.279 368.103 162.229 368.196 162.139C368.289 162.05 368.342 161.929 368.342 161.803V159.361H349.774Z" fill="#3F3D56"/>
<path d="M395.007 94.521H323.728C323.116 94.5219 322.529 94.756 322.096 95.172C321.663 95.588 321.419 96.1519 321.418 96.7402V142.946C321.419 143.534 321.662 144.098 322.095 144.514C322.528 144.93 323.116 145.164 323.728 145.165H395.007C395.619 145.164 396.207 144.93 396.64 144.514C397.073 144.098 397.316 143.534 397.317 142.946V96.7402C397.316 96.1519 397.072 95.588 396.639 95.172C396.206 94.756 395.619 94.5219 395.007 94.521Z" fill="#E6E6E6"/>
<path d="M394.412 96.1235H324.324C323.996 96.1242 323.681 96.2498 323.45 96.4728C323.218 96.6957 323.088 96.9978 323.088 97.3128V142.373C323.089 142.688 323.219 142.989 323.451 143.212C323.682 143.434 323.996 143.559 324.324 143.56H394.412C394.739 143.559 395.053 143.434 395.285 143.212C395.516 142.989 395.647 142.688 395.647 142.373V97.3128C395.647 96.9978 395.517 96.6957 395.285 96.4728C395.054 96.2498 394.74 96.1242 394.412 96.1235Z" fill="white"/>
<path d="M380.76 163.13H339.061C338.947 163.13 338.834 163.105 338.731 163.058C338.628 163.011 338.537 162.942 338.465 162.857C338.393 162.772 338.342 162.673 338.315 162.566C338.289 162.459 338.287 162.348 338.31 162.241L338.957 159.289C338.994 159.124 339.089 158.976 339.225 158.87C339.362 158.763 339.532 158.705 339.708 158.704H380.113C380.289 158.705 380.459 158.763 380.595 158.87C380.732 158.976 380.826 159.124 380.863 159.289L381.51 162.241C381.534 162.348 381.532 162.459 381.505 162.566C381.478 162.673 381.427 162.772 381.355 162.857C381.283 162.942 381.193 163.011 381.09 163.058C380.986 163.105 380.874 163.13 380.76 163.13Z" fill="#FCA311"/>
<path d="M341.063 159.235H340.229C340.105 159.235 340.004 159.332 340.004 159.452V159.759C340.004 159.879 340.105 159.976 340.229 159.976H341.063C341.188 159.976 341.288 159.879 341.288 159.759V159.452C341.288 159.332 341.188 159.235 341.063 159.235Z" fill="#E6E6E6"/>
<path d="M343.632 159.235H342.798C342.674 159.235 342.573 159.332 342.573 159.452V159.759C342.573 159.879 342.674 159.976 342.798 159.976H343.632C343.756 159.976 343.857 159.879 343.857 159.759V159.452C343.857 159.332 343.756 159.235 343.632 159.235Z" fill="#E6E6E6"/>
<path d="M346.2 159.235H345.366C345.242 159.235 345.141 159.332 345.141 159.452V159.759C345.141 159.879 345.242 159.976 345.366 159.976H346.2C346.325 159.976 346.425 159.879 346.425 159.759V159.452C346.425 159.332 346.325 159.235 346.2 159.235Z" fill="#E6E6E6"/>
<path d="M348.769 159.235H347.935C347.811 159.235 347.71 159.332 347.71 159.452V159.759C347.71 159.879 347.811 159.976 347.935 159.976H348.769C348.893 159.976 348.994 159.879 348.994 159.759V159.452C348.994 159.332 348.893 159.235 348.769 159.235Z" fill="#E6E6E6"/>
<path d="M351.337 159.235H350.504C350.379 159.235 350.278 159.332 350.278 159.452V159.759C350.278 159.879 350.379 159.976 350.504 159.976H351.337C351.462 159.976 351.563 159.879 351.563 159.759V159.452C351.563 159.332 351.462 159.235 351.337 159.235Z" fill="#E6E6E6"/>
<path d="M353.906 159.235H353.072C352.948 159.235 352.847 159.332 352.847 159.452V159.759C352.847 159.879 352.948 159.976 353.072 159.976H353.906C354.03 159.976 354.131 159.879 354.131 159.759V159.452C354.131 159.332 354.03 159.235 353.906 159.235Z" fill="#E6E6E6"/>
<path d="M356.475 159.235H355.641C355.516 159.235 355.416 159.332 355.416 159.452V159.759C355.416 159.879 355.516 159.976 355.641 159.976H356.475C356.599 159.976 356.7 159.879 356.7 159.759V159.452C356.7 159.332 356.599 159.235 356.475 159.235Z" fill="#E6E6E6"/>
<path d="M359.043 159.235H358.209C358.085 159.235 357.984 159.332 357.984 159.452V159.759C357.984 159.879 358.085 159.976 358.209 159.976H359.043C359.167 159.976 359.268 159.879 359.268 159.759V159.452C359.268 159.332 359.167 159.235 359.043 159.235Z" fill="#E6E6E6"/>
<path d="M361.611 159.235H360.778C360.653 159.235 360.552 159.332 360.552 159.452V159.759C360.552 159.879 360.653 159.976 360.778 159.976H361.611C361.736 159.976 361.837 159.879 361.837 159.759V159.452C361.837 159.332 361.736 159.235 361.611 159.235Z" fill="#E6E6E6"/>
<path d="M364.18 159.235H363.346C363.222 159.235 363.121 159.332 363.121 159.452V159.759C363.121 159.879 363.222 159.976 363.346 159.976H364.18C364.305 159.976 364.405 159.879 364.405 159.759V159.452C364.405 159.332 364.305 159.235 364.18 159.235Z" fill="#E6E6E6"/>
<path d="M366.749 159.235H365.915C365.791 159.235 365.69 159.332 365.69 159.452V159.759C365.69 159.879 365.791 159.976 365.915 159.976H366.749C366.873 159.976 366.974 159.879 366.974 159.759V159.452C366.974 159.332 366.873 159.235 366.749 159.235Z" fill="#E6E6E6"/>
<path d="M369.317 159.235H368.483C368.359 159.235 368.258 159.332 368.258 159.452V159.759C368.258 159.879 368.359 159.976 368.483 159.976H369.317C369.442 159.976 369.542 159.879 369.542 159.759V159.452C369.542 159.332 369.442 159.235 369.317 159.235Z" fill="#E6E6E6"/>
<path d="M371.886 159.235H371.052C370.928 159.235 370.827 159.332 370.827 159.452V159.759C370.827 159.879 370.928 159.976 371.052 159.976H371.886C372.01 159.976 372.111 159.879 372.111 159.759V159.452C372.111 159.332 372.01 159.235 371.886 159.235Z" fill="#E6E6E6"/>
<path d="M374.454 159.235H373.621C373.496 159.235 373.395 159.332 373.395 159.452V159.759C373.395 159.879 373.496 159.976 373.621 159.976H374.454C374.579 159.976 374.68 159.879 374.68 159.759V159.452C374.68 159.332 374.579 159.235 374.454 159.235Z" fill="#E6E6E6"/>
<path d="M377.023 159.235H376.189C376.065 159.235 375.964 159.332 375.964 159.452V159.759C375.964 159.879 376.065 159.976 376.189 159.976H377.023C377.147 159.976 377.248 159.879 377.248 159.759V159.452C377.248 159.332 377.147 159.235 377.023 159.235Z" fill="#E6E6E6"/>
<path d="M379.591 159.235H378.758C378.633 159.235 378.532 159.332 378.532 159.452V159.759C378.532 159.879 378.633 159.976 378.758 159.976H379.591C379.716 159.976 379.817 159.879 379.817 159.759V159.452C379.817 159.332 379.716 159.235 379.591 159.235Z" fill="#E6E6E6"/>
<path d="M341.033 160.469H340.199C340.075 160.469 339.974 160.566 339.974 160.686V160.993C339.974 161.113 340.075 161.209 340.199 161.209H341.033C341.157 161.209 341.258 161.113 341.258 160.993V160.686C341.258 160.566 341.157 160.469 341.033 160.469Z" fill="#E6E6E6"/>
<path d="M343.601 160.469H342.768C342.643 160.469 342.542 160.566 342.542 160.686V160.993C342.542 161.113 342.643 161.209 342.768 161.209H343.601C343.726 161.209 343.827 161.113 343.827 160.993V160.686C343.827 160.566 343.726 160.469 343.601 160.469Z" fill="#E6E6E6"/>
<path d="M346.17 160.469H345.336C345.212 160.469 345.111 160.566 345.111 160.686V160.993C345.111 161.113 345.212 161.209 345.336 161.209H346.17C346.294 161.209 346.395 161.113 346.395 160.993V160.686C346.395 160.566 346.294 160.469 346.17 160.469Z" fill="#E6E6E6"/>
<path d="M348.738 160.469H347.905C347.78 160.469 347.679 160.566 347.679 160.686V160.993C347.679 161.113 347.78 161.209 347.905 161.209H348.738C348.863 161.209 348.964 161.113 348.964 160.993V160.686C348.964 160.566 348.863 160.469 348.738 160.469Z" fill="#E6E6E6"/>
<path d="M351.307 160.469H350.473C350.349 160.469 350.248 160.566 350.248 160.686V160.993C350.248 161.113 350.349 161.209 350.473 161.209H351.307C351.431 161.209 351.532 161.113 351.532 160.993V160.686C351.532 160.566 351.431 160.469 351.307 160.469Z" fill="#E6E6E6"/>
<path d="M353.875 160.469H353.042C352.917 160.469 352.816 160.566 352.816 160.686V160.993C352.816 161.113 352.917 161.209 353.042 161.209H353.875C354 161.209 354.101 161.113 354.101 160.993V160.686C354.101 160.566 354 160.469 353.875 160.469Z" fill="#E6E6E6"/>
<path d="M356.444 160.469H355.61C355.486 160.469 355.385 160.566 355.385 160.686V160.993C355.385 161.113 355.486 161.209 355.61 161.209H356.444C356.568 161.209 356.669 161.113 356.669 160.993V160.686C356.669 160.566 356.568 160.469 356.444 160.469Z" fill="#E6E6E6"/>
<path d="M359.013 160.469H358.179C358.054 160.469 357.954 160.566 357.954 160.686V160.993C357.954 161.113 358.054 161.209 358.179 161.209H359.013C359.137 161.209 359.238 161.113 359.238 160.993V160.686C359.238 160.566 359.137 160.469 359.013 160.469Z" fill="#E6E6E6"/>
<path d="M361.581 160.469H360.748C360.623 160.469 360.522 160.566 360.522 160.686V160.993C360.522 161.113 360.623 161.209 360.748 161.209H361.581C361.706 161.209 361.807 161.113 361.807 160.993V160.686C361.807 160.566 361.706 160.469 361.581 160.469Z" fill="#E6E6E6"/>
<path d="M364.15 160.469H363.316C363.192 160.469 363.091 160.566 363.091 160.686V160.993C363.091 161.113 363.192 161.209 363.316 161.209H364.15C364.274 161.209 364.375 161.113 364.375 160.993V160.686C364.375 160.566 364.274 160.469 364.15 160.469Z" fill="#E6E6E6"/>
<path d="M366.718 160.469H365.885C365.76 160.469 365.659 160.566 365.659 160.686V160.993C365.659 161.113 365.76 161.209 365.885 161.209H366.718C366.843 161.209 366.944 161.113 366.944 160.993V160.686C366.944 160.566 366.843 160.469 366.718 160.469Z" fill="#E6E6E6"/>
<path d="M369.287 160.469H368.453C368.329 160.469 368.228 160.566 368.228 160.686V160.993C368.228 161.113 368.329 161.209 368.453 161.209H369.287C369.411 161.209 369.512 161.113 369.512 160.993V160.686C369.512 160.566 369.411 160.469 369.287 160.469Z" fill="#E6E6E6"/>
<path d="M371.855 160.469H371.022C370.897 160.469 370.796 160.566 370.796 160.686V160.993C370.796 161.113 370.897 161.209 371.022 161.209H371.855C371.98 161.209 372.081 161.113 372.081 160.993V160.686C372.081 160.566 371.98 160.469 371.855 160.469Z" fill="#E6E6E6"/>
<path d="M374.424 160.469H373.59C373.466 160.469 373.365 160.566 373.365 160.686V160.993C373.365 161.113 373.466 161.209 373.59 161.209H374.424C374.548 161.209 374.649 161.113 374.649 160.993V160.686C374.649 160.566 374.548 160.469 374.424 160.469Z" fill="#E6E6E6"/>
<path d="M376.992 160.469H376.159C376.034 160.469 375.933 160.566 375.933 160.686V160.993C375.933 161.113 376.034 161.209 376.159 161.209H376.992C377.117 161.209 377.218 161.113 377.218 160.993V160.686C377.218 160.566 377.117 160.469 376.992 160.469Z" fill="#E6E6E6"/>
<path d="M379.561 160.469H378.727C378.603 160.469 378.502 160.566 378.502 160.686V160.993C378.502 161.113 378.603 161.209 378.727 161.209H379.561C379.685 161.209 379.786 161.113 379.786 160.993V160.686C379.786 160.566 379.685 160.469 379.561 160.469Z" fill="#E6E6E6"/>
<path d="M362.352 161.95H352.528C352.404 161.95 352.303 162.047 352.303 162.166V162.474C352.303 162.593 352.404 162.69 352.528 162.69H362.352C362.476 162.69 362.577 162.593 362.577 162.474V162.166C362.577 162.047 362.476 161.95 362.352 161.95Z" fill="#E6E6E6"/>
<path d="M390.888 102.332H325.307C325.239 102.331 325.174 102.304 325.127 102.257C325.079 102.21 325.052 102.147 325.052 102.082C325.052 102.016 325.079 101.953 325.127 101.906C325.174 101.86 325.239 101.833 325.307 101.831H390.888C390.957 101.833 391.021 101.86 391.069 101.906C391.117 101.953 391.144 102.016 391.144 102.082C391.144 102.147 391.117 102.21 391.069 102.257C391.021 102.304 390.957 102.331 390.888 102.332Z" fill="#CACACA"/>
<path d="M329.772 100.552C330.616 100.552 331.3 99.8797 331.3 99.0508C331.3 98.2218 330.616 97.5498 329.772 97.5498C328.927 97.5498 328.243 98.2218 328.243 99.0508C328.243 99.8797 328.927 100.552 329.772 100.552Z" fill="#FCA311"/>
<path d="M335.051 100.552C335.895 100.552 336.58 99.8797 336.58 99.0508C336.58 98.2218 335.895 97.5498 335.051 97.5498C334.207 97.5498 333.523 98.2218 333.523 99.0508C333.523 99.8797 334.207 100.552 335.051 100.552Z" fill="#FCA311"/>
<path d="M340.331 100.552C341.175 100.552 341.86 99.8797 341.86 99.0508C341.86 98.2218 341.175 97.5498 340.331 97.5498C339.487 97.5498 338.803 98.2218 338.803 99.0508C338.803 99.8797 339.487 100.552 340.331 100.552Z" fill="#FCA311"/>
<path d="M387.709 97.9219H383.959C383.884 97.9233 383.814 97.9526 383.762 98.0037C383.71 98.0547 383.68 98.1232 383.68 98.1947C383.68 98.2661 383.71 98.3347 383.762 98.3857C383.814 98.4367 383.884 98.4661 383.959 98.4675H387.709C387.784 98.4661 387.855 98.4367 387.907 98.3857C387.959 98.3347 387.988 98.2661 387.988 98.1947C387.988 98.1232 387.959 98.0547 387.907 98.0037C387.855 97.9526 387.784 97.9233 387.709 97.9219H387.709Z" fill="#FCA311"/>
<path d="M387.709 98.9458H383.959C383.885 98.9472 383.814 98.9766 383.762 99.0276C383.71 99.0786 383.681 99.1472 383.681 99.2186C383.681 99.29 383.71 99.3586 383.762 99.4096C383.814 99.4606 383.885 99.49 383.959 99.4914H387.709C387.784 99.49 387.855 99.4606 387.907 99.4096C387.959 99.3586 387.988 99.29 387.988 99.2186C387.988 99.1472 387.959 99.0786 387.907 99.0276C387.855 98.9766 387.784 98.9472 387.709 98.9458H387.709Z" fill="#FCA311"/>
<path d="M387.709 99.9688H383.959C383.884 99.9702 383.814 99.9995 383.762 100.051C383.71 100.102 383.68 100.17 383.68 100.242C383.68 100.313 383.71 100.382 383.762 100.433C383.814 100.484 383.884 100.513 383.959 100.514H387.709C387.784 100.513 387.855 100.484 387.907 100.433C387.959 100.382 387.988 100.313 387.988 100.242C387.988 100.17 387.959 100.102 387.907 100.051C387.855 99.9995 387.784 99.9702 387.709 99.9688H387.709Z" fill="#FCA311"/>
<path d="M363.393 115.981H355.198C354.583 115.981 354.084 116.461 354.084 117.052C354.084 117.643 354.583 118.123 355.198 118.123H363.393C364.008 118.123 364.507 117.643 364.507 117.052C364.507 116.461 364.008 115.981 363.393 115.981Z" fill="#14213D"/>
<path d="M368.687 120.264H349.904C349.289 120.264 348.79 120.743 348.79 121.334C348.79 121.926 349.289 122.405 349.904 122.405H368.687C369.302 122.405 369.801 121.926 369.801 121.334C369.801 120.743 369.302 120.264 368.687 120.264Z" fill="#E6E6E6"/>
<path d="M368.687 124.546H349.904C349.289 124.546 348.79 125.025 348.79 125.617C348.79 126.208 349.289 126.687 349.904 126.687H368.687C369.302 126.687 369.801 126.208 369.801 125.617C369.801 125.025 369.302 124.546 368.687 124.546Z" fill="#E6E6E6"/>
<path d="M242.147 191.262L238.37 189.526L243.559 174.358L249.134 176.919L242.147 191.262Z" fill="#FFB6B6"/>
<path d="M267.474 188.817C267.199 188.982 266.925 189.145 266.647 189.308C266.095 189.633 265.537 189.953 264.979 190.267C264.699 190.424 264.416 190.582 264.136 190.736V190.744L264.119 190.747L264.114 190.75L263.686 190.851L263.073 189.294L262.79 188.577L262.39 187.562L261.658 185.704L257.801 175.921L263.797 174.5L264.022 175.382H264.025L264.136 175.819L266.231 183.982L266.658 185.65L266.672 185.701L266.93 186.698L267.152 187.562L267.399 188.527L267.474 188.817Z" fill="#FFB6B6"/>
<path d="M303.246 154.462C302.865 155.048 302.477 155.632 302.086 156.21C301.359 157.287 300.612 158.348 299.846 159.393C299.846 159.396 299.844 159.396 299.841 159.398C299.394 159.796 298.9 160.142 298.37 160.43C298.348 160.446 298.323 160.457 298.301 160.47C297.91 160.677 297.495 160.837 297.063 160.947C296.908 160.984 296.75 161.022 296.594 161.059C296.034 161.187 295.479 161.296 294.927 161.392C293.944 161.56 292.973 161.68 292.007 161.755C291.93 161.763 291.852 161.768 291.774 161.773C287.803 162.053 283.938 161.603 279.903 160.864C277.911 160.502 275.877 160.067 273.771 159.617C273.083 159.468 272.392 159.321 271.692 159.174C271.64 159.164 271.584 159.15 271.529 159.14C270.53 158.929 269.514 158.721 268.474 158.516C267.164 158.257 265.812 158.007 264.408 157.77L264.508 159.67C264.591 161.132 264.908 162.573 265.446 163.943C266.046 165.628 266.52 166.961 265.518 169.736L265.035 171.079C265.286 171.746 265.372 172.46 265.286 173.164C265.201 173.869 264.947 174.545 264.544 175.139L264.447 175.28L268.474 185.066L268.734 185.7H266.673L264.136 185.703H259.838L253.636 173.75L253.339 173.18V173.15L253.98 150.181C253.989 149.978 254.005 149.773 254.033 149.57C254.146 148.649 254.449 147.759 254.924 146.952C255.399 146.144 256.037 145.436 256.8 144.868C257.531 144.319 258.368 143.915 259.263 143.68C260.159 143.445 261.093 143.383 262.014 143.498L264.136 143.762L268.474 144.3L271.529 144.681L271.59 144.689L280.6 145.809L281.246 143.277L281.366 143.234L285.159 141.898L298.279 137.279L298.312 137.268L299.175 136.964L299.277 137.124C299.308 137.172 299.339 137.22 299.366 137.268C300.219 138.737 300.914 140.286 301.439 141.89C302.323 144.512 303.05 147.179 303.617 149.879C303.642 149.997 303.665 150.103 303.684 150.199L303.692 150.229C303.701 150.274 303.706 150.303 303.709 150.311C303.969 151.709 303.808 153.149 303.246 154.462Z" fill="#2F2E41"/>
<path d="M303.799 145.996C303.758 145.826 303.705 145.653 303.649 145.485C303.209 144.213 302.696 142.965 302.112 141.747C301.457 140.361 300.672 138.877 299.737 137.269C299.284 136.491 298.798 135.681 298.277 134.841C298.016 134.42 297.745 133.99 297.464 133.553C297.453 133.533 297.441 133.514 297.428 133.495L297.348 133.367L284.367 135.035L279.533 135.656L279.244 137.97L279.175 138.543C279.172 138.543 279.172 138.543 279.175 138.546L278.981 140.108V140.111L278.723 142.174L278.7 142.171L271.527 141.278L264.135 140.359L260.164 139.866C259.244 139.75 258.309 139.812 257.414 140.047C256.519 140.283 255.681 140.687 254.95 141.236C254.187 141.804 253.55 142.512 253.075 143.32C252.6 144.127 252.297 145.017 252.184 145.938C252.159 146.124 252.142 146.316 252.134 146.506L248.388 155.033C246.146 160.133 244.718 165.528 244.153 171.037L241.406 179.474L241.797 179.509L247.619 180.029L249.156 180.167L252.542 175.42C252.927 174.879 253.294 174.321 253.635 173.751C254.197 172.819 254.696 171.854 255.131 170.861L262.454 154.121C263.02 154.215 263.58 154.303 264.135 154.388C266.702 154.788 269.166 155.114 271.527 155.366C279.205 156.19 285.854 156.254 291.773 155.555C293.435 155.361 295.042 155.105 296.593 154.788C297.162 154.673 297.723 154.55 298.277 154.417C298.408 154.388 298.535 154.359 298.663 154.327C299.81 154.042 300.864 153.487 301.729 152.71C302.595 151.933 303.243 150.96 303.616 149.88C304.061 148.629 304.125 147.281 303.799 145.996Z" fill="#2F2E41"/>
<path d="M243.354 188.785L239.267 186.903L238.626 186.607L237.602 189.022L230.454 190.534C230.1 190.608 229.781 190.789 229.542 191.051C229.304 191.312 229.158 191.64 229.127 191.986C229.096 192.332 229.181 192.679 229.37 192.975C229.559 193.272 229.841 193.503 230.176 193.634L237.161 196.372L239.378 194.455L238.834 197.027L241.465 198.059L244.348 189.244L243.354 188.785Z" fill="#2F2E41"/>
<path d="M268.473 185.066L268.735 185.7H268.473V185.066Z" fill="#2F2E41"/>
<path d="M267.05 185.836L262.767 187.261L262.095 187.484L263.136 189.893L259.164 195.798C258.968 196.09 258.873 196.434 258.895 196.781C258.917 197.128 259.053 197.459 259.285 197.727C259.517 197.994 259.831 198.182 260.182 198.266C260.534 198.349 260.903 198.322 261.238 198.188L268.206 195.413L268.377 192.552L269.875 194.748L272.5 193.703L268.092 185.49L267.05 185.836Z" fill="#2F2E41"/>
<path d="M241.055 97.6372C241.258 98.0173 241.546 98.3499 241.897 98.6118C242.248 98.8736 242.655 99.0582 243.089 99.1527C243.523 99.2471 243.973 99.2491 244.407 99.1584C244.842 99.0677 245.25 98.8866 245.604 98.6278L254.61 104.371L254.627 98.9749L246.073 94.3483C245.581 93.8061 244.899 93.4562 244.156 93.3647C243.413 93.2732 242.662 93.4466 242.043 93.852C241.425 94.2574 240.983 94.8667 240.801 95.5643C240.618 96.2619 240.709 96.9995 241.055 97.6372V97.6372Z" fill="#FFB6B6"/>
<path d="M247.783 100.132L251.985 95.5396L269.094 105.296L291.774 103.301C292.895 103.203 294.024 103.342 295.083 103.71C296.141 104.078 297.103 104.666 297.898 105.431C298.694 106.196 299.304 107.12 299.687 108.137C300.069 109.154 300.213 110.24 300.109 111.317C299.92 113.261 298.935 115.054 297.371 116.302C295.806 117.55 293.791 118.151 291.766 117.973L266.223 115.702L247.783 100.132Z" fill="#FCA311"/>
<path d="M300.422 100.203L300.383 100.155C297.192 99.8526 293.979 100.446 291.132 101.863C288.286 103.28 285.928 105.459 284.346 108.137L282.421 111.394C276.195 118.706 280.719 123.748 280.99 124.498L278.829 134.07L279.313 137.273L279.555 138.224L304.223 150.606C305.627 144.124 304.269 138.6 299.153 134.381L304.103 119.584C305.201 116.312 305.439 112.831 304.797 109.449C304.155 106.068 302.652 102.891 300.422 100.203Z" fill="#FCA311"/>
<path d="M280.808 172.087H272.896C272.461 172.087 272.04 171.936 271.712 171.662C271.383 171.387 271.169 171.008 271.108 170.595C270.619 167.141 270.619 163.64 271.108 160.186C271.168 159.777 271.378 159.402 271.7 159.129C272.023 158.855 272.436 158.701 272.866 158.694C275.355 157.622 278.036 157.622 280.836 158.693C281.096 158.697 281.353 158.755 281.588 158.864C281.823 158.973 282.03 159.129 282.195 159.323C282.367 159.525 282.49 159.761 282.556 160.014C282.621 160.267 282.627 160.531 282.572 160.787C281.937 163.825 281.937 166.955 282.572 169.994C282.627 170.249 282.621 170.513 282.556 170.766C282.49 171.019 282.367 171.256 282.195 171.457C282.027 171.655 281.816 171.814 281.576 171.923C281.336 172.031 281.074 172.088 280.808 172.087Z" fill="#14213D"/>
<path d="M279.98 162.662H273.32C273.265 162.662 273.211 162.652 273.16 162.633C273.109 162.613 273.062 162.583 273.023 162.546C272.984 162.509 272.953 162.465 272.932 162.416C272.911 162.367 272.9 162.315 272.9 162.262C272.9 162.209 272.911 162.157 272.932 162.108C272.953 162.06 272.984 162.015 273.023 161.978C273.062 161.941 273.109 161.912 273.16 161.892C273.211 161.872 273.265 161.862 273.32 161.862H279.98C280.035 161.862 280.089 161.872 280.14 161.892C280.191 161.912 280.237 161.941 280.276 161.978C280.315 162.015 280.347 162.06 280.368 162.108C280.389 162.157 280.4 162.209 280.4 162.262C280.4 162.315 280.389 162.367 280.368 162.416C280.347 162.465 280.315 162.509 280.276 162.546C280.237 162.583 280.191 162.613 280.14 162.633C280.089 162.652 280.035 162.662 279.98 162.662Z" fill="white"/>
<path d="M279.98 165.861H273.32C273.265 165.861 273.211 165.851 273.16 165.831C273.109 165.811 273.062 165.782 273.023 165.745C272.984 165.708 272.953 165.663 272.932 165.615C272.911 165.566 272.9 165.514 272.9 165.461C272.9 165.408 272.911 165.356 272.932 165.307C272.953 165.258 272.984 165.214 273.023 165.177C273.062 165.14 273.109 165.11 273.16 165.09C273.211 165.071 273.265 165.061 273.32 165.061H279.98C280.035 165.061 280.089 165.071 280.14 165.09C280.191 165.11 280.237 165.14 280.276 165.177C280.315 165.214 280.347 165.258 280.368 165.307C280.389 165.356 280.4 165.408 280.4 165.461C280.4 165.514 280.389 165.566 280.368 165.615C280.347 165.663 280.315 165.708 280.276 165.745C280.237 165.782 280.191 165.811 280.14 165.831C280.089 165.851 280.035 165.861 279.98 165.861Z" fill="white"/>
<path d="M279.98 169.059H273.32C273.265 169.06 273.211 169.05 273.16 169.03C273.109 169.01 273.062 168.981 273.023 168.944C272.984 168.907 272.953 168.862 272.932 168.814C272.911 168.765 272.9 168.712 272.9 168.66C272.9 168.607 272.911 168.554 272.932 168.506C272.953 168.457 272.984 168.413 273.023 168.376C273.062 168.338 273.109 168.309 273.16 168.289C273.211 168.269 273.265 168.259 273.32 168.26H279.98C280.035 168.259 280.089 168.269 280.14 168.289C280.191 168.309 280.238 168.338 280.277 168.376C280.316 168.413 280.347 168.457 280.368 168.506C280.389 168.554 280.4 168.607 280.4 168.66C280.4 168.712 280.389 168.765 280.368 168.814C280.347 168.862 280.316 168.907 280.277 168.944C280.238 168.981 280.191 169.01 280.14 169.03C280.089 169.05 280.035 169.06 279.98 169.059Z" fill="white"/>
<path d="M242.506 100.272H234.594C234.158 100.271 233.738 100.12 233.409 99.8461C233.081 99.5719 232.866 99.1931 232.805 98.7791C232.317 95.3255 232.317 91.8242 232.805 88.3706C232.866 87.9616 233.076 87.5867 233.398 87.3132C233.72 87.0397 234.133 86.8854 234.563 86.8782C237.053 85.8062 239.734 85.8063 242.533 86.878C242.794 86.8814 243.051 86.9395 243.286 87.0483C243.52 87.1571 243.728 87.314 243.893 87.5079C244.065 87.7096 244.188 87.9456 244.253 88.1988C244.318 88.452 244.324 88.7159 244.27 88.9715C243.634 92.01 243.634 95.1397 244.27 98.1782C244.324 98.4338 244.318 98.6977 244.253 98.9509C244.188 99.2041 244.065 99.4401 243.893 99.6418C243.725 99.8392 243.513 99.9981 243.273 100.107C243.033 100.216 242.771 100.272 242.506 100.272Z" fill="#14213D"/>
<path d="M241.677 90.8466H235.018C234.963 90.847 234.908 90.837 234.857 90.8172C234.806 90.7973 234.76 90.7679 234.721 90.7307C234.682 90.6935 234.651 90.6493 234.63 90.6006C234.609 90.5518 234.598 90.4995 234.598 90.4467C234.598 90.3939 234.609 90.3416 234.63 90.2929C234.651 90.2442 234.682 90.1999 234.721 90.1627C234.76 90.1256 234.806 90.0962 234.857 90.0763C234.908 90.0564 234.963 90.0464 235.018 90.0469H241.677C241.732 90.0464 241.787 90.0564 241.838 90.0763C241.889 90.0962 241.935 90.1256 241.974 90.1627C242.013 90.1999 242.044 90.2442 242.065 90.2929C242.086 90.3416 242.097 90.3939 242.097 90.4467C242.097 90.4995 242.086 90.5518 242.065 90.6006C242.044 90.6493 242.013 90.6935 241.974 90.7307C241.935 90.7679 241.889 90.7973 241.838 90.8172C241.787 90.837 241.732 90.847 241.677 90.8466Z" fill="white"/>
<path d="M241.677 94.0453H235.018C234.963 94.0458 234.908 94.0358 234.857 94.0159C234.806 93.996 234.76 93.9666 234.721 93.9295C234.682 93.8923 234.651 93.848 234.63 93.7993C234.609 93.7506 234.598 93.6983 234.598 93.6455C234.598 93.5927 234.609 93.5404 234.63 93.4916C234.651 93.4429 234.682 93.3987 234.721 93.3615C234.76 93.3243 234.806 93.2949 234.857 93.275C234.908 93.2552 234.963 93.2452 235.018 93.2456H241.677C241.732 93.2452 241.787 93.2552 241.838 93.275C241.889 93.2949 241.935 93.3243 241.974 93.3615C242.013 93.3987 242.044 93.4429 242.065 93.4916C242.086 93.5404 242.097 93.5927 242.097 93.6455C242.097 93.6983 242.086 93.7506 242.065 93.7993C242.044 93.848 242.013 93.8923 241.974 93.9295C241.935 93.9666 241.889 93.996 241.838 94.0159C241.787 94.0358 241.732 94.0458 241.677 94.0453Z" fill="white"/>
<path d="M241.677 97.244H235.018C234.963 97.2445 234.908 97.2346 234.857 97.2147C234.806 97.1948 234.76 97.1655 234.721 97.1283C234.682 97.0911 234.651 97.0469 234.629 96.9981C234.608 96.9493 234.597 96.897 234.597 96.8442C234.597 96.7914 234.608 96.7391 234.629 96.6903C234.651 96.6416 234.682 96.5973 234.721 96.5601C234.76 96.523 234.806 96.4936 234.857 96.4737C234.908 96.4538 234.963 96.4439 235.018 96.4444H241.677C241.732 96.4439 241.787 96.4538 241.838 96.4737C241.889 96.4936 241.935 96.523 241.974 96.5601C242.013 96.5973 242.044 96.6416 242.065 96.6903C242.087 96.7391 242.097 96.7914 242.097 96.8442C242.097 96.897 242.087 96.9493 242.065 96.9981C242.044 97.0469 242.013 97.0911 241.974 97.1283C241.935 97.1655 241.889 97.1948 241.838 97.2147C241.787 97.2346 241.732 97.2445 241.677 97.244Z" fill="white"/>
<path d="M103.602 119.777H95.6899C95.2547 119.777 94.8343 119.626 94.5057 119.352C94.1772 119.077 93.9627 118.698 93.9016 118.285C93.413 114.831 93.413 111.33 93.9016 107.876C93.962 107.467 94.1721 107.092 94.4943 106.819C94.8165 106.545 95.2297 106.391 95.6596 106.384C98.1491 105.312 100.83 105.312 103.63 106.383C103.89 106.387 104.147 106.445 104.382 106.554C104.617 106.662 104.824 106.819 104.989 107.013C105.161 107.215 105.284 107.451 105.35 107.704C105.415 107.957 105.421 108.221 105.366 108.477C104.731 111.515 104.731 114.645 105.366 117.684C105.421 117.939 105.415 118.203 105.35 118.456C105.284 118.709 105.161 118.945 104.989 119.147C104.821 119.345 104.61 119.503 104.37 119.612C104.13 119.721 103.868 119.778 103.602 119.777Z" fill="#14213D"/>
<path d="M102.774 110.352H96.114C96.059 110.352 96.0045 110.342 95.9536 110.323C95.9027 110.303 95.8563 110.273 95.8173 110.236C95.7783 110.199 95.7473 110.155 95.7261 110.106C95.705 110.057 95.6941 110.005 95.6941 109.952C95.6941 109.899 95.705 109.847 95.7261 109.798C95.7473 109.75 95.7783 109.705 95.8173 109.668C95.8563 109.631 95.9027 109.602 95.9536 109.582C96.0045 109.562 96.059 109.552 96.114 109.552H102.774C102.829 109.552 102.883 109.562 102.934 109.582C102.985 109.602 103.031 109.631 103.07 109.668C103.109 109.705 103.14 109.75 103.162 109.798C103.183 109.847 103.194 109.899 103.194 109.952C103.194 110.005 103.183 110.057 103.162 110.106C103.14 110.155 103.109 110.199 103.07 110.236C103.031 110.273 102.985 110.303 102.934 110.323C102.883 110.342 102.829 110.352 102.774 110.352Z" fill="white"/>
<path d="M102.774 113.551H96.114C96.059 113.551 96.0045 113.541 95.9536 113.521C95.9027 113.501 95.8563 113.472 95.8173 113.435C95.7783 113.398 95.7473 113.353 95.7261 113.305C95.705 113.256 95.6941 113.204 95.6941 113.151C95.6941 113.098 95.705 113.046 95.7261 112.997C95.7473 112.948 95.7783 112.904 95.8173 112.867C95.8563 112.83 95.9027 112.8 95.9536 112.78C96.0045 112.761 96.059 112.751 96.114 112.751H102.774C102.829 112.751 102.883 112.761 102.934 112.78C102.985 112.8 103.031 112.83 103.07 112.867C103.109 112.904 103.14 112.948 103.162 112.997C103.183 113.046 103.194 113.098 103.194 113.151C103.194 113.204 103.183 113.256 103.162 113.305C103.14 113.353 103.109 113.398 103.07 113.435C103.031 113.472 102.985 113.501 102.934 113.521C102.883 113.541 102.829 113.551 102.774 113.551Z" fill="white"/>
<path d="M102.774 116.749H96.114C96.059 116.75 96.0045 116.74 95.9535 116.72C95.9026 116.7 95.8562 116.671 95.8171 116.634C95.7781 116.596 95.7471 116.552 95.7259 116.503C95.7047 116.455 95.6938 116.402 95.6938 116.35C95.6938 116.297 95.7047 116.244 95.7259 116.196C95.7471 116.147 95.7781 116.103 95.8171 116.066C95.8562 116.028 95.9026 115.999 95.9535 115.979C96.0045 115.959 96.059 115.949 96.114 115.95H102.774C102.829 115.949 102.883 115.959 102.934 115.979C102.985 115.999 103.032 116.028 103.071 116.066C103.11 116.103 103.141 116.147 103.162 116.196C103.183 116.244 103.194 116.297 103.194 116.35C103.194 116.402 103.183 116.455 103.162 116.503C103.141 116.552 103.11 116.596 103.071 116.634C103.032 116.671 102.985 116.7 102.934 116.72C102.883 116.74 102.829 116.75 102.774 116.749Z" fill="white"/>
<path d="M283.127 162.371C283.51 162.154 283.838 161.858 284.089 161.506C284.341 161.153 284.508 160.752 284.581 160.331C284.653 159.909 284.629 159.478 284.509 159.066C284.389 158.655 284.176 158.274 283.886 157.95L289.32 148.973L283.712 149.277L279.411 157.755C278.877 158.259 278.554 158.933 278.503 159.651C278.452 160.369 278.677 161.079 279.135 161.648C279.593 162.217 280.252 162.605 280.988 162.738C281.723 162.871 282.485 162.741 283.127 162.371V162.371Z" fill="#FFB6B6"/>
<path d="M285.319 155.771L280.298 152.014L289.422 135.029L286.003 113.399C285.834 112.33 285.913 111.238 286.232 110.201C286.552 109.165 287.105 108.208 287.853 107.4C288.601 106.591 289.525 105.951 290.559 105.524C291.594 105.097 292.713 104.895 293.838 104.93C295.87 104.997 297.792 105.835 299.182 107.261C300.571 108.687 301.315 110.584 301.25 112.536L300.406 137.165L285.319 155.771Z" fill="#FCA311"/>
<path d="M42.6333 151.13C42.9496 150.825 43.1923 150.457 43.3444 150.052C43.4965 149.646 43.5542 149.214 43.5135 148.785C43.4729 148.356 43.3348 147.941 43.109 147.569C42.8832 147.197 42.5753 146.877 42.2068 146.631L47.0901 123.331L41.6974 124.994L37.7886 147.531C37.4004 148.153 37.2632 148.891 37.4029 149.603C37.5427 150.316 37.9497 150.954 38.5469 151.398C39.1441 151.842 39.8899 152.059 40.643 152.01C41.3962 151.961 42.1044 151.648 42.6333 151.13H42.6333Z" fill="#9E616A"/>
<path d="M49.8438 101.834L46.4979 99.4073C46.4979 99.4073 43.5462 99.2065 43.0235 104.32C42.5007 109.433 41.4273 119.398 41.4273 119.398L36.3074 142.178L43.3947 143.672L48.8786 119.089L52.1683 111.789L49.8438 101.834Z" fill="#FCA311"/>
<path d="M44.3279 139.031L63.1823 138.729L64.7536 126.352H44.3279V139.031Z" fill="#9E616A"/>
<path d="M61.2966 215.192H65.6492L67.7198 199.064L61.2957 199.064L61.2966 215.192Z" fill="#9E616A"/>
<path d="M34.0281 215.58L38.3807 215.55L40.3337 199.409L34.6728 200.656L34.0281 215.58Z" fill="#9E616A"/>
<path d="M47.6417 115.693L46.6555 118.156L46.8526 120.62L66.1546 127.042L65.1971 116.262L63.0272 113.798L47.6417 115.693Z" fill="#FFB6B6"/>
<path d="M55.9225 93.5262C59.7299 93.5262 62.8164 90.5612 62.8164 86.9037C62.8164 83.2462 59.7299 80.2812 55.9225 80.2812C52.1151 80.2812 49.0286 83.2462 49.0286 86.9037C49.0286 90.5612 52.1151 93.5262 55.9225 93.5262Z" fill="#9E616A"/>
<path d="M60.217 213.129L67.0976 212.735V215.567L73.6392 219.907C73.9623 220.121 74.2057 220.429 74.3337 220.786C74.4618 221.142 74.4678 221.529 74.351 221.889C74.2341 222.249 74.0005 222.564 73.6842 222.787C73.3679 223.011 72.9855 223.131 72.5929 223.131H64.4012L62.9893 220.33L62.4379 223.131H59.3494L60.217 213.129Z" fill="#2F2E41"/>
<path d="M32.5391 213.527L39.4167 213.086L39.4373 215.918L46.0104 220.214C46.3351 220.426 46.5806 220.732 46.7113 221.088C46.8419 221.444 46.8508 221.83 46.7365 222.191C46.6223 222.552 46.391 222.868 46.0763 223.094C45.7617 223.319 45.3802 223.443 44.9876 223.445L36.7961 223.5L35.3638 220.709L34.8329 223.513L31.7444 223.534L32.5391 213.527Z" fill="#2F2E41"/>
<path d="M32.6736 203.214L35.8431 178.877L39.614 153.218C36.8525 148.292 43.0706 132.993 43.0706 132.993L43.9484 133.034L63.8148 136.634L63.8105 136.616C67.8739 147.262 69.2201 152.521 68.9974 163.859L68.1969 204.614H68.448C68.8647 204.614 69.2644 204.773 69.559 205.056C69.8537 205.339 70.0192 205.723 70.0192 206.123C70.0192 206.524 69.8537 206.908 69.559 207.191C69.2644 207.474 68.8647 207.633 68.448 207.633H60.592C60.3855 207.633 60.1808 207.594 59.9899 207.519C59.799 207.443 59.6254 207.332 59.4793 207.191C59.3331 207.051 59.2171 206.885 59.138 206.702C59.0588 206.518 59.0181 206.322 59.0181 206.123C59.0181 205.925 59.0588 205.728 59.138 205.545C59.2171 205.362 59.3331 205.195 59.4793 205.055C59.6254 204.915 59.799 204.804 59.9899 204.728C60.1808 204.652 60.3855 204.614 60.592 204.614H60.7946L53.5837 156.087L47.47 176.462L40.5567 203.027C43.0706 202.423 42.6803 203.822 42.6803 204.614C42.6803 205.014 42.5148 205.398 42.2201 205.681C41.9254 205.964 41.5258 206.123 41.1091 206.123H33.2531C32.8877 206.124 32.5336 206.002 32.2519 205.778C31.9702 205.555 31.7785 205.244 31.7098 204.899C31.6412 204.554 31.6999 204.197 31.8758 203.89C32.0518 203.582 32.3339 203.343 32.6737 203.214H32.6736Z" fill="#2F2E41"/>
<path d="M41.5239 133.786L42.1524 127.749C42.2176 127.502 42.3624 127.282 42.5659 127.12C42.7694 126.957 43.0212 126.861 43.2852 126.845C43.5471 123.969 44.6488 111.561 44.7147 111.02L44.7172 110.997L45.2182 100.716C45.2364 100.343 45.3971 99.9891 45.6697 99.7223C45.9423 99.4556 46.3077 99.2947 46.6959 99.2703L49.3421 99.1041C49.3784 99.1029 49.4128 99.0883 49.438 99.0632C49.4633 99.0381 49.4774 99.0046 49.4774 98.9697C49.4774 98.689 49.535 98.411 49.6468 98.1516C49.7586 97.8923 49.9225 97.6566 50.1292 97.4581C50.3358 97.2596 50.5811 97.1022 50.8511 96.9948C51.1211 96.8873 51.4104 96.832 51.7027 96.832H59.537C60.0445 96.8322 60.5344 97.0103 60.9149 97.3329C61.2953 97.6555 61.5401 98.1004 61.6034 98.584C61.6068 98.6173 61.6233 98.6481 61.6494 98.6703C61.6755 98.6925 61.7093 98.7044 61.7441 98.7036H61.7451C62.6353 98.686 63.5025 98.9755 64.1895 99.5196C64.8765 100.064 65.3377 100.826 65.4894 101.669C66.5604 107.656 68.7069 121.242 67.6457 128.796C67.2762 131.425 68.0726 129.343 68.2124 131.543C68.2262 131.755 68.1963 131.969 68.1243 132.17C68.0523 132.371 67.9396 132.557 67.7926 132.717C68.0934 132.822 68.3389 133.037 68.4759 133.315C68.6129 133.592 68.6302 133.911 68.5242 134.201L68.6619 134.168C68.6216 134.322 68.5501 134.467 68.4516 134.594C68.353 134.721 68.2294 134.828 68.0877 134.91C67.946 134.991 67.789 135.045 67.6257 135.068C67.4623 135.091 67.2959 135.083 67.1358 135.044L46.6392 137.712C45.966 137.549 41.3542 134.433 41.5239 133.786Z" fill="#FCA311"/>
<path d="M96.2936 109.239C96.1652 109.652 95.9442 110.032 95.6461 110.354C95.348 110.676 94.9801 110.931 94.5683 111.101C94.1565 111.272 93.7108 111.353 93.2626 111.34C92.8144 111.327 92.3746 111.22 91.9743 111.026L84.0504 117.973L82.9983 112.627L90.6892 106.867C91.0729 106.242 91.6817 105.775 92.4004 105.553C93.119 105.33 93.8975 105.369 94.5883 105.662C95.2791 105.954 95.8342 106.48 96.1486 107.139C96.4629 107.798 96.5145 108.546 96.2937 109.239H96.2936Z" fill="#9E616A"/>
<path d="M68.714 103.929C68.714 103.929 65.951 97.9308 62.4613 99.1231C58.9716 100.315 60.7734 106.135 60.7734 106.135L73.8843 125.114C73.8843 125.114 92.7951 113.46 90.4955 113.378C88.196 113.296 87.5081 109.278 87.5081 109.278L77.5134 114.075L77.1753 112.368L76.6332 112.888L75.2346 111.831L68.714 103.929Z" fill="#FCA311"/>
<path d="M294.735 97.34C300.051 97.34 304.36 93.2004 304.36 88.0941C304.36 82.9877 300.051 78.8481 294.735 78.8481C289.42 78.8481 285.11 82.9877 285.11 88.0941C285.11 93.2004 289.42 97.34 294.735 97.34Z" fill="#FFB6B6"/>
<path d="M325.625 101.699C324.514 103.211 322.893 104.308 321.037 104.803C320.294 105.015 319.527 105.14 318.752 105.175C318.657 104.334 318.428 103.512 318.073 102.738C318.109 103.562 317.99 104.386 317.721 105.17C316.558 105.106 315.422 104.814 314.382 104.31C313.361 103.817 312.473 103.101 311.789 102.22C311.106 101.34 310.646 100.318 310.445 99.237C310.037 96.7081 311.231 94.2248 311.662 91.6996C312.096 89.1745 311.282 85.9763 308.709 85.3127C306.749 84.8069 306.969 85.0255 305.34 86.1873C307.035 88.5942 300.776 97.4145 298.214 96.6453C296.766 96.2105 295.839 94.934 295.54 94.934C293.527 98.2654 297.318 103.878 293.497 105.044L293.812 104.742C296.118 102.017 291.298 96.2498 293.604 93.525C294.248 92.7626 294.932 91.8593 294.742 90.8953C294.562 89.9788 293.048 89.494 292.605 90.2469C293.402 88.4919 292.225 86.1493 290.275 85.6986C288.543 85.2974 288.575 85.7918 286.837 86.0066C286.723 85.2851 286.511 84.5812 286.205 83.9131C286.237 84.633 286.15 85.3531 285.946 86.0466C285.332 86.0351 284.739 85.8292 284.26 85.4609C282.842 84.3638 283.129 82.0592 284.394 80.8024C285.661 79.5455 287.543 79.0929 289.339 78.8001C289.861 75.3089 299.888 74.9447 301.217 78.4331C301.783 75.8281 305.178 74.4762 307.816 75.2843C310.455 76.0925 312.286 78.4598 313.25 80.9545C314.214 83.4473 314.483 86.1303 315.077 88.7277C315.671 91.3251 316.674 93.97 318.741 95.7402C320.807 97.5086 324.174 98.0942 326.351 96.4514C326.668 97.3195 326.767 98.247 326.641 99.1588C326.515 100.071 326.167 100.941 325.625 101.699Z" fill="#2F2E41"/>
<path d="M415.924 122.799L414.577 129.293C414.475 129.789 414.369 130.295 414.254 130.796C413.127 130.571 411.96 130.634 410.866 130.978C411.734 132.168 412.511 133.417 413.192 134.715C412.343 137.228 411.097 139.551 409.011 141.231C407.618 142.328 405.954 143.062 404.18 143.362C402.406 143.662 400.581 143.517 398.882 142.942L398.942 142.685C396.699 138.505 397.917 133.234 400.705 129.373C402.126 127.468 403.811 125.757 405.712 124.288C407.594 122.781 409.63 121.429 411.646 120.094C412.099 119.795 412.635 119.632 413.184 119.627C413.734 119.622 414.273 119.774 414.732 120.064C415.191 120.354 415.55 120.77 415.762 121.257C415.975 121.744 416.031 122.281 415.924 122.799Z" fill="#E4E4E4"/>
<path d="M399.362 158.569C398.794 154.6 398.211 150.581 398.609 146.569C398.962 143.007 400.093 139.527 402.397 136.674C403.62 135.163 405.108 133.867 406.794 132.847C407.233 132.581 407.638 133.25 407.2 133.515C404.283 135.286 402.027 137.901 400.757 140.983C399.354 144.411 399.129 148.148 399.372 151.789C399.518 153.99 399.828 156.177 400.141 158.363C400.166 158.462 400.151 158.566 400.098 158.655C400.046 158.743 399.96 158.809 399.859 158.839C399.756 158.866 399.646 158.852 399.553 158.802C399.461 158.751 399.392 158.667 399.363 158.568L399.362 158.569Z" fill="#F2F2F2"/>
<path d="M431.45 223.864L0.549345 224C0.403893 224 0.264545 223.944 0.161843 223.845C0.0591409 223.746 0.00146484 223.612 0.00146484 223.472C0.00146484 223.332 0.0591409 223.198 0.161843 223.099C0.264545 223.001 0.403893 222.945 0.549345 222.944L431.45 222.808C431.596 222.809 431.735 222.864 431.838 222.963C431.941 223.062 431.998 223.196 431.998 223.336C431.998 223.476 431.941 223.61 431.838 223.709C431.735 223.808 431.596 223.863 431.45 223.864Z" fill="#CACACA"/>
<path d="M47.8085 82.8491C46.7512 83.3365 45.5677 82.6032 44.6549 81.8766L44.9814 82.1475C43.3681 83.6553 42.6138 85.8247 42.2452 87.9602C41.8763 90.0934 41.8352 92.2751 41.3707 94.3932C40.9058 96.5091 39.9415 98.635 38.1403 99.9309C35.7272 101.667 32.3991 101.555 29.4379 101.023C29.3984 101.015 29.3616 101.01 29.3222 101.002C30.119 98.7919 30.4429 96.4501 30.2744 94.1169C29.4807 96.455 28.1294 98.5827 26.3282 100.33C24.3649 99.8114 22.4484 99.1406 20.5978 98.3245C19.4003 97.7951 18.1109 97.0711 17.7786 95.8452C17.4454 94.6287 18.2191 93.3526 19.2537 92.5844C20.2882 91.8162 21.558 91.4154 22.7365 90.8681C23.9132 90.3234 25.0776 89.5468 25.5487 88.3744C26.6354 85.6773 23.5398 82.5825 24.7462 79.9313C25.3412 78.6275 26.7983 77.9184 28.1679 77.3716C30.2587 76.5392 32.4057 75.8435 34.5942 75.2893C36.5154 74.8025 38.5214 74.4242 40.4786 74.7433C42.4357 75.0625 44.3531 76.206 45.0575 77.9915C46.2328 78.3731 47.4806 78.8031 48.2349 79.7535C48.9888 80.7016 48.928 82.3338 47.8085 82.8491Z" fill="#2F2E41"/>
<path d="M57.2163 79.7237C54.1916 77.4299 51.746 77.8214 49.8594 79.2465C49.5422 78.9076 48.1925 79.8401 47.7355 79.7061L46.0825 82.687C45.232 84.1288 44.883 85.6007 45.0205 86.429C43.4559 90.6439 47.1661 93.4901 51.5538 94.993C53.3046 95.5969 55.2148 95.6235 56.9831 95.0686L57.037 94.3504L57.3693 94.939C57.3693 94.939 61.3804 102.873 62.3283 103.229C61.7532 101.796 60.2362 94.9844 59.8128 93.5646C59.2323 91.6327 59.6288 88.5635 59.9701 86.6818C60.1828 85.5217 60.1939 84.3357 60.003 83.1721L59.9946 83.1212L60.933 84.9411L63.0387 83.6692C62.234 81.4175 62.2179 78.7238 57.2163 79.7237Z" fill="#2F2E41"/>
</g>
<defs>
<clipPath id="clip0_482_1158">
<rect width="432" height="224" fill="white"/>
</clipPath>
</defs>
</svg>
