<svg width="218" height="201" viewBox="0 0 218 201" fill="none" xmlns="http://www.w3.org/2000/svg">
<g clip-path="url(#clip0_476_848)">
<path d="M125.544 68.7628C125.544 68.7628 125.455 72.6703 118.378 78.3819L116.776 81.2827L131.729 89.9918C133.076 90.0546 134.588 90.414 136.096 91.0893C140.006 92.8411 142.391 96.0453 141.423 98.2458C140.455 100.446 136.5 100.81 132.59 99.0584C131.735 98.6753 130.952 98.2226 130.262 97.726C125.136 96.4295 102.334 90.232 104.857 83.1803C107.698 75.242 110.477 65.9604 110.477 65.9604L125.544 68.7628L125.544 68.7628V68.7628Z" fill="#FFB6B6"/>
<path d="M113.135 54.4441C114.032 51.4607 116.189 49.0766 119.051 47.9029C121.913 46.7295 125.105 46.9223 127.813 48.4254C130.437 49.8859 132.284 52.423 132.88 55.3864C133.476 58.3497 132.756 61.4128 130.905 63.7903L124.667 71.7994L108.927 68.4247L113.135 54.4441V54.4441Z" fill="#6C63FF"/>
<path d="M145.615 84.0861C141.071 82.4486 136.309 81.6414 131.347 81.5933C130.829 81.5028 130.335 81.8546 130.245 82.3775L129.706 85.5168C129.617 86.0398 129.965 86.5389 130.483 86.6296C132.418 87.7888 134.389 88.4923 136.385 88.8884L134.316 100.944C131.993 100.488 129.86 100.379 128.043 100.85C127.525 100.759 127.03 101.111 126.941 101.634L126.402 104.774C126.312 105.296 126.661 105.796 127.179 105.886C131.226 107.358 136.149 108.038 141.446 108.379C141.965 108.469 142.459 108.118 142.549 107.595L143.088 104.455C143.177 103.932 142.829 103.433 142.311 103.342C140.267 102.595 138.262 101.916 136.352 101.413L138.449 89.1955C140.531 89.4014 142.636 89.3256 144.751 89.1224C145.268 89.2129 145.763 88.8611 145.853 88.3382L146.392 85.1986C146.482 84.6759 146.133 84.1765 145.615 84.0861V84.0861Z" fill="#2F2E41"/>
<path d="M82.0932 187.834L68.1501 173.443L78.2274 158.916L80.9593 159.097C82.41 159.193 83.6647 158.087 83.7659 156.624L84.2798 149.192C84.3863 147.651 83.1765 146.342 81.6457 146.342H56.0352C56.243 145.839 56.2985 145.278 56.1766 144.733L40.8977 76.4942C40.6027 75.1767 39.3771 74.2903 38.046 74.4318L32.0096 75.0728C30.4384 75.2398 29.363 76.7522 29.7101 78.3078L46.0807 151.699C46.4499 153.354 48.1419 154.126 49.5446 153.623C49.467 153.841 49.4224 154.063 49.4038 154.285L47.2332 154.46L10.2876 195.951H21.6096L50.2127 163.781L77.624 195.951H86.5624L86.8604 190.539L82.0932 187.834ZM55.2921 157.399L70.2864 158.391L64.4127 169.587L55.8737 160.774L55.2921 157.399Z" fill="#F2F2F2"/>
<path d="M0 196.04C0 196.239 0.157922 196.398 0.354577 196.398H217.645C217.842 196.398 218 196.239 218 196.04C218 195.842 217.842 195.683 217.645 195.683H0.354577C0.157922 195.683 0 195.842 0 196.04Z" fill="#3F3D56"/>
<path d="M129.832 31.2768C136.578 31.2768 142.048 25.7577 142.048 18.9497C142.048 12.1416 136.578 6.62256 129.832 6.62256C123.085 6.62256 117.616 12.1416 117.616 18.9497C117.616 25.7577 123.085 31.2768 129.832 31.2768Z" fill="#FFB6B6"/>
<path d="M106.525 176.108V188.435L97.2886 188.736L97.6734 176.108H106.525Z" fill="#FFB6B6"/>
<path d="M103.818 186.865L103.785 186.915L103.727 186.928C103.504 186.978 98.2498 188.127 96.7202 185.967C96.5992 185.796 96.4941 185.725 96.4034 185.753C95.4036 186.076 94.6069 193.78 94.6069 196.703C94.6069 198.426 98.416 198.869 103.238 199.431C105.491 199.693 108.044 199.991 110.574 200.464C116.074 201.492 120.607 198.948 122.82 197.34C123.211 197.056 123.451 196.614 123.477 196.127C123.504 195.639 123.312 195.171 122.952 194.843C120.034 192.191 110.385 183.498 108.718 183.017C108.6 182.983 108.478 182.967 108.353 182.967C106.418 182.967 103.846 186.823 103.818 186.865Z" fill="#2F2E41"/>
<path d="M123.806 176.108V188.435L114.57 188.736L114.954 176.108H123.806Z" fill="#FFB6B6"/>
<path d="M127.53 87.8638L132.446 91.6221L133.34 134.015L124.998 180.317L114.123 180.768L113.825 136.571L99.821 96.2823L102.652 86.8115L127.53 87.8638Z" fill="#2F2E41"/>
<path d="M104.588 95.0796L99.8212 96.2822L96.3948 180.317L108.76 179.265L116.953 119.884L104.588 95.0796Z" fill="#2F2E41"/>
<path d="M127.801 200.759C125.281 200.289 122.733 199.992 120.485 199.73C115.321 199.128 111.59 198.694 111.59 196.703C111.59 195.194 112.167 185.928 113.594 185.467C113.751 185.416 113.989 185.433 114.244 185.792C115.579 187.678 120.309 186.766 120.886 186.647C121.243 186.118 124.015 182.131 126.082 182.728C127.676 183.188 135.573 190.208 140.138 194.353C140.645 194.813 140.91 195.471 140.866 196.158C140.822 196.839 140.478 197.45 139.922 197.835C138.083 199.11 134.639 201 130.4 201C129.563 201 128.694 200.927 127.801 200.759Z" fill="#2F2E41"/>
<path d="M116.467 34.3155L119.137 25.2671L130.754 28.238L130.283 38.0567L116.467 34.3155Z" fill="#FFB6B6"/>
<path d="M102.624 86.9589L102.494 86.9346L104.541 54.3493C104.964 47.6185 107.38 41.2658 111.529 35.9781L116.617 29.4922L132.817 38.574L132.878 38.6083L136.466 57.9202L136.473 57.9557L132.589 91.6647L132.551 91.7945L102.624 86.9589Z" fill="#FCA311"/>
<path d="M119.242 25.5485L120.288 25.793C120.288 25.793 122.09 18.6815 123.278 20.1574C124.466 21.6333 127.501 22.0855 127.501 22.0855L128.543 19.7612C128.543 19.7612 134.192 19.5402 135.129 16.9345C135.129 16.9345 147.126 17.5118 143.767 11.0779C140.408 4.64407 139.33 6.01835 139.33 6.01835C139.33 6.01835 136.048 4.05344 135.313 2.0841C134.577 0.114758 127.339 -1.60302 123.073 2.56291C107.442 17.8273 119.242 25.5485 119.242 25.5485V25.5485L119.242 25.5485Z" fill="#3F3D56"/>
<path d="M147.595 71.5112L145.543 71.8882L147.891 84.9033L149.943 84.5263L147.595 71.5112Z" fill="#3F3D56"/>
<path d="M141.928 86.7632C145.133 84.5377 150.454 84.1675 156.173 84.146C156.691 84.051 157.189 84.3985 157.283 84.9205L157.848 88.0553C157.942 88.5773 157.598 89.0796 157.081 89.1746C151.991 90.6949 147.137 91.7673 142.835 91.7918C142.318 91.8868 141.82 91.5392 141.726 91.0173L141.161 87.8825C141.066 87.3605 141.411 86.8582 141.928 86.7632H141.928Z" fill="#3F3D56"/>
<path d="M138.459 67.5361C143.134 65.8572 147.88 64.9604 152.704 64.919C153.222 64.8239 153.72 65.1715 153.814 65.6935L154.379 68.8282C154.473 69.3502 154.129 69.8525 153.612 69.9475C149.209 72.0743 144.629 73.5542 139.366 72.5647C138.849 72.6598 138.351 72.3122 138.257 71.7902L137.692 68.6554C137.597 68.1335 137.942 67.6312 138.459 67.5361H138.459Z" fill="#3F3D56"/>
<path d="M128.633 57.5073C128.633 57.5073 129.882 61.2069 125.187 69.0281L124.673 72.3082L141.683 75.2891C142.969 74.88 144.512 74.6917 146.158 74.8019C150.427 75.0879 153.759 77.2673 153.601 79.6697C153.443 82.072 149.854 83.7879 145.585 83.502C144.652 83.4394 143.763 83.2863 142.945 83.06C137.691 83.6238 114.168 85.7285 114.131 78.2312C114.089 69.7914 113.531 60.1117 113.531 60.1117L128.633 57.5073L128.633 57.5073V57.5073Z" fill="#FFB6B6"/>
<path d="M112.096 48.3761C111.921 45.2632 113.132 42.2755 115.419 40.179C117.706 38.0829 120.768 37.1548 123.823 37.6251C126.785 38.0845 129.384 39.8247 130.956 42.3997C132.527 44.9746 132.896 48.1006 131.969 50.9761L128.845 60.6628L112.916 62.9637L112.096 48.3761Z" fill="#FCA311"/>
<path d="M47.0112 176.606L46.4678 189.824L48.5516 189.911L49.095 176.693L47.0112 176.606Z" fill="#3F3D56"/>
<path d="M40.2453 190.316C43.8564 188.855 49.1281 189.674 54.7125 190.921C55.2378 190.943 55.6477 191.393 55.6259 191.923L55.495 195.106C55.4732 195.637 55.0278 196.05 54.5025 196.028C49.2062 196.383 44.2372 196.353 40.0354 195.423C39.51 195.401 39.1001 194.951 39.1219 194.421L39.2528 191.237C39.2746 190.707 39.72 190.294 40.2453 190.316Z" fill="#3F3D56"/>
<path d="M41.048 170.789C45.9742 170.188 50.7996 170.366 55.5152 171.395C56.0405 171.417 56.4504 171.866 56.4286 172.397L56.2977 175.58C56.276 176.11 55.8306 176.524 55.3052 176.502C50.5473 177.6 45.7564 178.028 40.8381 175.896C40.3128 175.874 39.9029 175.425 39.9247 174.895L40.0555 171.711C40.0773 171.181 40.5227 170.767 41.048 170.789Z" fill="#3F3D56"/>
</g>
<defs>
<clipPath id="clip0_476_848">
<rect width="218" height="201" fill="white"/>
</clipPath>
</defs>
</svg>
