<svg width="624" height="434" viewBox="0 0 624 434" fill="none" xmlns="http://www.w3.org/2000/svg">
<g clip-path="url(#clip0_1_2752)">
<path d="M165.076 42.2436L181.056 57.2845L173.724 67.5977L157.395 51.0953C156.687 51.0473 155.974 50.8973 155.277 50.6322C151.482 49.1908 149.576 44.9511 151.02 41.1626C152.464 37.3742 156.711 35.4716 160.505 36.9131C162.925 37.8324 164.571 39.891 165.076 42.2436V42.2436Z" fill="#FFB6B6"/>
<path d="M112.694 420.645L124.223 420.644L129.707 376.248L112.692 376.249L112.694 420.645Z" fill="#FFB6B6"/>
<path d="M112.288 432.653L147.74 432.651V432.204C147.74 424.595 141.562 418.428 133.941 418.427H133.94L127.465 413.522L115.382 418.428L112.288 418.428L112.288 432.653H112.288H112.288Z" fill="#2F2E41"/>
<path d="M139.565 408.491L150.371 412.503L171.014 372.801L155.066 366.879L139.565 408.491Z" fill="#FFB6B6"/>
<path d="M134.992 419.604L168.22 431.942L168.376 431.522C171.033 424.391 167.396 416.46 160.254 413.807L160.253 413.807L155.896 406.956L142.859 407.348L139.959 406.271L134.992 419.604L134.992 419.604Z" fill="#2F2E41"/>
<path d="M161.399 190.832L184.796 323.689L162.862 406.177L142.389 398.147L145.314 391.578L140.927 382.818L147.507 339.019L147.517 311.027L129.228 255.071L124.11 347.049L132.153 393.037L130.639 406.177L106.563 409.097L109.487 399.607L94.133 353.618L97.0577 344.859L76.5853 237.551L81.7034 203.242L161.399 190.832Z" fill="#2F2E41"/>
<path d="M92.3052 59.8007H121.454L130.325 74.4003L139.83 72.2104L144.646 74.4003L166.152 78.7802L159.571 117.469L158.109 161.998L158.84 180.978C166.528 186.585 164.543 194.314 162.838 202.932C162.838 202.932 89.3806 222.989 77.6821 216.583V208.306L84.6281 152.873L59.0377 90.0949C57.9148 81.5004 67.0093 79.1786 75.4886 77.3202L84.2625 74.4003L92.3052 59.8007Z" fill="#FCA311"/>
<path d="M159.571 83.8901L166.152 78.7802L181.123 83.8901L175.657 75.1303V70.9085L166.883 68.5605L166.152 61.9906L159.571 56.8376L170.347 44.4222L178.216 51.0438L182.968 51.0409L189.508 57.5705L212.955 89.5325C217.94 96.3278 216.506 106.061 209.498 110.751C206.804 112.554 203.566 113.819 199.785 113.819H158.325L159.571 83.8901Z" fill="#FCA311"/>
<path d="M109.637 55.2342C121.735 55.2342 131.543 45.4422 131.543 33.3633C131.543 21.2843 121.735 11.4924 109.637 11.4924C97.5386 11.4924 87.731 21.2843 87.731 33.3633C87.731 45.4422 97.5386 55.2342 109.637 55.2342Z" fill="#FFB6B6"/>
<path d="M67.5288 229.008L67.009 207.087L79.51 205.044L79.2337 228.239C79.6972 228.776 80.0915 229.387 80.3931 230.069C82.0338 233.777 80.3533 238.11 76.6397 239.748C72.9261 241.386 68.5855 239.709 66.9449 236.001C65.8986 233.636 66.2077 231.02 67.5288 229.008V229.008Z" fill="#FFB6B6"/>
<path d="M67.1597 83.09C62.2279 82.8076 58.2405 87.047 58.8325 91.9434L46.8688 158.497L44.9662 162.496L47.1481 164.746L47.6069 169.903L65.8224 217.934L88.585 218.775L80.1051 118.292L74.2104 88.4356C73.1678 85.3879 70.3802 83.2744 67.1597 83.09V83.09H67.1597Z" fill="#FCA311"/>
<path d="M90.2585 218.12C90.4773 233.901 83.6781 237.273 72.7108 233.971C63.4322 231.177 55.1631 227.796 55.1631 218.12C55.1631 208.444 60.8034 194.135 72.7108 198.932C83.3648 193.092 95.6031 206.931 90.2585 218.12Z" fill="#FF6584"/>
<path d="M72.0791 199.325C70.6789 196.781 70.5827 193.672 71.8835 191.067C73.0423 188.746 75.3368 187.018 77.8661 186.475C79.2425 186.179 79.8306 188.289 78.4492 188.586C76.4842 189.009 75.3342 197.079 74.3919 198.862C73.3782 200.78 72.9366 196.336 73.9731 198.22C74.6532 199.456 72.7597 200.562 72.0791 199.325H72.0791Z" fill="#3F3D56"/>
<path d="M177.997 27.5948C177.997 37.2706 171.417 46.748 160.449 43.4458C151.171 40.6521 139.346 41.8102 148.539 25.494C136.282 19.3755 148.542 3.60964 160.449 8.40666C171.103 2.5668 177.997 17.919 177.997 27.5948Z" fill="#FF6584"/>
<path d="M159.818 8.79991C155.55 9.79692 157.744 10.2261 159.622 4.62049C160.446 2.16133 163.075 0.571882 165.605 0.0283391C166.981 -0.267463 167.569 1.84317 166.188 2.14006C164.223 2.56232 162.535 3.79401 161.593 5.57702C160.579 7.49519 160.675 5.81112 161.712 7.6946C162.392 8.93053 160.498 10.0368 159.818 8.79991H159.818Z" fill="#3F3D56"/>
<path d="M55.42 416.325C53.3098 416.456 52.1436 413.839 53.7401 412.313L53.8989 411.683C53.878 411.633 53.857 411.582 53.8358 411.532C51.7019 406.452 44.4697 406.487 42.3539 411.574C40.4759 416.09 38.085 420.613 37.4963 425.388C37.2324 427.496 37.3511 429.643 37.8196 431.711C33.4193 422.114 31.1037 411.635 31.1037 401.097C31.1037 398.449 31.2489 395.801 31.5457 393.16C31.7898 391 32.1263 388.853 32.5617 386.725C34.9168 375.225 40.0164 364.272 47.3721 355.123C50.9082 353.193 53.857 350.177 55.6382 346.561C56.2781 345.257 56.7795 343.854 57.017 342.424C56.6146 342.477 55.4997 336.358 55.8032 335.983C55.2424 335.133 54.2386 334.711 53.6262 333.882C50.58 329.758 46.3832 330.478 44.1923 336.082C39.512 338.44 39.4667 342.351 42.3385 346.113C44.1656 348.506 44.4166 351.744 46.0197 354.306C45.8547 354.517 45.6832 354.721 45.5183 354.932C42.4939 358.805 39.8781 362.968 37.6729 367.341C38.2961 362.481 37.376 356.625 35.8074 352.851C34.0218 348.55 30.675 344.928 27.7277 341.21C24.1875 336.744 16.9281 338.693 16.3043 344.354C16.2983 344.409 16.2924 344.464 16.2867 344.519C16.7244 344.765 17.1533 345.027 17.5722 345.304C19.9618 346.882 19.136 350.58 16.3046 351.016L16.2405 351.026C16.3989 352.6 16.6693 354.161 17.0651 355.696C13.2841 370.295 21.447 375.612 33.1026 375.851C33.3599 375.983 33.6106 376.114 33.8679 376.24C32.687 379.559 31.7436 382.964 31.0443 386.416C30.4176 389.465 29.9822 392.548 29.7381 395.643C29.4346 399.549 29.461 403.475 29.7909 407.374L29.7711 407.236C28.9333 402.941 26.5979 398.93 23.207 396.15C18.1555 392.008 11.0188 390.482 5.5692 387.152C2.94591 385.549 -0.415633 387.62 0.0421985 390.657L0.0644854 390.802C0.875915 391.132 1.66754 391.514 2.43281 391.942C2.87058 392.188 3.29945 392.45 3.71839 392.727C6.10794 394.305 5.28211 398.003 2.45076 398.439L2.3866 398.449C2.34043 398.456 2.30083 398.462 2.25472 398.469C3.64671 401.769 5.5862 404.832 8.01392 407.473C10.3781 420.217 20.5322 421.426 31.394 417.715H31.4006C32.5881 422.879 34.3231 427.924 36.5529 432.732H54.9587C55.0247 432.528 55.0841 432.317 55.1435 432.113C53.4414 432.218 51.7262 432.119 50.0505 431.81C51.4161 430.137 52.7817 428.451 54.1473 426.778C54.1803 426.745 54.2067 426.712 54.2331 426.679C54.9258 425.823 55.625 424.973 56.3177 424.117L56.3181 424.116C56.3615 421.487 56.0459 418.867 55.4205 416.325L55.42 416.325V416.325V416.325Z" fill="#F2F2F2"/>
<path d="M261.284 432.787C261.284 433.46 260.743 434 260.069 434H1.35865C0.684561 434 0.143188 433.46 0.143188 432.787C0.143188 432.113 0.684561 431.573 1.35865 431.573H260.069C260.743 431.573 261.284 432.114 261.284 432.787Z" fill="#CCCCCC"/>
<path d="M519.817 40.5783C519.817 39.4535 518.901 38.5388 517.774 38.5388H486.111C484.984 38.5388 484.068 39.4535 484.068 40.5783C484.068 41.7031 484.984 42.6178 486.111 42.6178H517.774C518.901 42.6178 519.817 41.7031 519.817 40.5783Z" fill="#F2F2F2"/>
<path d="M571.909 40.7904C571.909 39.6656 570.993 38.7509 569.866 38.7509H538.203C537.076 38.7509 536.16 39.6656 536.16 40.7904C536.16 41.9153 537.076 42.83 538.203 42.83H569.866C570.993 42.83 571.909 41.9153 571.909 40.7904Z" fill="#F2F2F2"/>
<path d="M624 41.0026C624 39.8778 623.084 38.9631 621.957 38.9631H590.294C589.167 38.9631 588.251 39.8778 588.251 41.0026C588.251 42.1274 589.167 43.0421 590.294 43.0421H621.957C623.084 43.0421 624 42.1274 624 41.0026Z" fill="#F2F2F2"/>
<path d="M571.909 86.6797C571.909 85.5549 570.993 84.6402 569.866 84.6402H538.203C537.076 84.6402 536.16 85.5549 536.16 86.6797C536.16 87.8045 537.076 88.7192 538.203 88.7192H569.866C570.993 88.7192 571.909 87.8045 571.909 86.6797Z" fill="#F2F2F2"/>
<path d="M467.726 86.6797C467.726 85.5549 466.81 84.6402 465.683 84.6402H434.02C432.893 84.6402 431.977 85.5549 431.977 86.6797C431.977 87.8045 432.893 88.7192 434.02 88.7192H465.683C466.81 88.7192 467.726 87.8045 467.726 86.6797Z" fill="#F2F2F2"/>
<path d="M519.817 86.8918C519.817 85.767 518.901 84.8523 517.774 84.8523H486.111C484.984 84.8523 484.068 85.767 484.068 86.8918C484.068 88.0167 484.984 88.9314 486.111 88.9314H517.774C518.901 88.9314 519.817 88.0167 519.817 86.8918Z" fill="#F2F2F2"/>
<path d="M502.202 30.7591C509.232 30.7591 514.932 25.1888 514.932 18.3174C514.932 11.4459 509.232 5.87556 502.202 5.87556C495.171 5.87556 489.472 11.4459 489.472 18.3174C489.472 25.1888 495.171 30.7591 502.202 30.7591Z" fill="#F2F2F2"/>
<path d="M501.264 23.4545L501.235 23.454C500.896 23.4445 500.584 23.2683 500.402 22.983L496.087 16.227C495.784 15.752 495.924 15.1216 496.399 14.8189C496.875 14.5177 497.506 14.6556 497.81 15.1306L501.314 20.6173L507.899 11.4718C508.229 11.0142 508.868 10.9111 509.324 11.2388C509.782 11.5674 509.887 12.2048 509.557 12.6619L502.093 23.0298C501.901 23.2967 501.592 23.4545 501.264 23.4545V23.4545Z" fill="#14213D"/>
<path d="M556.336 30.7591C563.367 30.7591 569.066 25.1888 569.066 18.3174C569.066 11.4459 563.367 5.87556 556.336 5.87556C549.306 5.87556 543.606 11.4459 543.606 18.3174C543.606 25.1888 549.306 30.7591 556.336 30.7591Z" fill="#F2F2F2"/>
<path d="M555.398 23.4545L555.369 23.454C555.031 23.4445 554.718 23.2683 554.536 22.983L550.221 16.227C549.918 15.752 550.058 15.1216 550.534 14.8189C551.009 14.5177 551.64 14.6556 551.944 15.1306L555.448 20.6173L562.033 11.4718C562.363 11.0142 563.002 10.9111 563.458 11.2388C563.917 11.5674 564.021 12.2048 563.692 12.6619L556.227 23.0298C556.035 23.2967 555.726 23.4545 555.398 23.4545V23.4545Z" fill="#14213D"/>
<path d="M606.385 29.7394C613.415 29.7394 619.115 24.169 619.115 17.2976C619.115 10.4262 613.415 4.8558 606.385 4.8558C599.354 4.8558 593.655 10.4262 593.655 17.2976C593.655 24.169 599.354 29.7394 606.385 29.7394Z" fill="#F2F2F2"/>
<path d="M605.446 22.4347L605.418 22.4342C605.079 22.4248 604.767 22.2485 604.585 21.9632L600.27 15.2073C599.967 14.7323 600.106 14.1019 600.582 13.7991C601.057 13.4979 601.689 13.6358 601.993 14.1108L605.497 19.5975L612.081 10.4521C612.412 9.99445 613.05 9.89139 613.507 10.219C613.965 10.5477 614.069 11.185 613.74 11.6421L606.276 22.01C606.084 22.2769 605.774 22.4347 605.446 22.4347V22.4347Z" fill="#14213D"/>
<path d="M624 83.8326C624 82.7077 623.084 81.793 621.957 81.793H590.294C589.167 81.793 588.251 82.7077 588.251 83.8326C588.251 84.9574 589.167 85.8721 590.294 85.8721H621.957C623.084 85.8721 624 84.9574 624 83.8326Z" fill="#F2F2F2"/>
<path d="M606.385 72.5693C613.415 72.5693 619.115 66.999 619.115 60.1275C619.115 53.2561 613.415 47.6858 606.385 47.6858C599.354 47.6858 593.655 53.2561 593.655 60.1275C593.655 66.999 599.354 72.5693 606.385 72.5693Z" fill="#F2F2F2"/>
<path d="M605.446 65.2647L605.418 65.2642C605.079 65.2547 604.767 65.0785 604.585 64.7932L600.27 58.0372C599.967 57.5622 600.106 56.9318 600.582 56.6291C601.057 56.3278 601.689 56.4658 601.993 56.9408L605.497 62.4275L612.081 53.282C612.412 52.8244 613.05 52.7213 613.507 53.049C613.965 53.3776 614.069 54.015 613.74 54.4721L606.276 64.84C606.084 65.1068 605.774 65.2647 605.446 65.2647V65.2647Z" fill="#14213D"/>
<path d="M554.293 79.7077C561.324 79.7077 567.023 74.1373 567.023 67.2659C567.023 60.3945 561.324 54.8241 554.293 54.8241C547.263 54.8241 541.563 60.3945 541.563 67.2659C541.563 74.1373 547.263 79.7077 554.293 79.7077Z" fill="#F2F2F2"/>
<path d="M553.355 72.403L553.326 72.4025C552.988 72.3931 552.676 72.2168 552.494 71.9315L548.179 65.1756C547.875 64.7005 548.015 64.0702 548.491 63.7674C548.966 63.4662 549.597 63.6041 549.901 64.0791L553.405 69.5658L559.99 60.4203C560.32 59.9627 560.959 59.8597 561.415 60.1873C561.874 60.5159 561.978 61.1533 561.649 61.6104L554.184 71.9783C553.992 72.2452 553.683 72.403 553.355 72.403V72.403Z" fill="#14213D"/>
<path d="M503.223 79.7077C510.254 79.7077 515.953 74.1373 515.953 67.2659C515.953 60.3945 510.254 54.8241 503.223 54.8241C496.193 54.8241 490.493 60.3945 490.493 67.2659C490.493 74.1373 496.193 79.7077 503.223 79.7077Z" fill="#F2F2F2"/>
<path d="M502.285 72.403L502.257 72.4025C501.918 72.3931 501.606 72.2168 501.424 71.9315L497.109 65.1756C496.805 64.7005 496.945 64.0702 497.421 63.7674C497.896 63.4662 498.528 63.6041 498.831 64.0791L502.335 69.5658L508.92 60.4203C509.25 59.9627 509.889 59.8597 510.345 60.1873C510.804 60.5159 510.908 61.1533 510.579 61.6104L503.114 71.9783C502.922 72.2452 502.613 72.403 502.285 72.403V72.403Z" fill="#14213D"/>
<path d="M450.111 79.7077C457.141 79.7077 462.841 74.1373 462.841 67.2659C462.841 60.3945 457.141 54.8241 450.111 54.8241C443.08 54.8241 437.381 60.3945 437.381 67.2659C437.381 74.1373 443.08 79.7077 450.111 79.7077Z" fill="#F2F2F2"/>
<path d="M449.172 72.403L449.144 72.4025C448.805 72.3931 448.493 72.2168 448.311 71.9315L443.996 65.1756C443.693 64.7005 443.832 64.0702 444.308 63.7674C444.783 63.4662 445.415 63.6041 445.718 64.0791L449.223 69.5658L455.807 60.4203C456.137 59.9627 456.776 59.8597 457.233 60.1873C457.691 60.5159 457.795 61.1533 457.466 61.6104L450.002 71.9783C449.81 72.2452 449.5 72.403 449.172 72.403V72.403Z" fill="#14213D"/>
<path d="M423.856 69.0445C423.856 66.6577 421.912 64.7168 419.521 64.7168H352.335C349.944 64.7168 348 66.6577 348 69.0445C348 71.4312 349.944 73.3721 352.335 73.3721H419.521C421.912 73.3721 423.856 71.4312 423.856 69.0445Z" fill="#3F3D56"/>
<path d="M386.478 53.8005C401.396 53.8005 413.489 41.9807 413.489 27.4002C413.489 12.8198 401.396 1 386.478 1C371.56 1 359.466 12.8198 359.466 27.4002C359.466 41.9807 371.56 53.8005 386.478 53.8005Z" fill="#00B060"/>
<path d="M384.487 38.3007C384.467 38.3007 384.446 38.3007 384.426 38.2997C383.708 38.2796 383.045 37.9056 382.659 37.3002L373.503 22.9648C372.86 21.9568 373.156 20.6192 374.165 19.9768C375.174 19.3376 376.514 19.6303 377.158 20.6382L384.594 32.2804L398.566 12.8746C399.266 11.9037 400.622 11.685 401.59 12.3802C402.563 13.0775 402.784 14.4299 402.085 15.3998L386.247 37.3995C385.839 37.9658 385.183 38.3007 384.487 38.3007V38.3007Z" fill="white"/>
<path d="M127.934 15.8317C129.262 16.4844 130.508 17.3002 131.631 18.2383C131.958 18.5137 128.863 18.8809 129.17 19.1664C126.974 22.6948 136.125 27.1103 132.234 27.3244C131.458 25.6724 119.477 21.8075 118.179 20.5328C118.363 22.0013 123.215 23.8267 123.041 25.2849C118.68 25.0096 108.956 23.378 103.635 21.2059C106.841 27.5847 106.865 32.5982 99.549 34.4628H99.549C94.0736 34.4628 90.2509 39.8785 92.0925 45.0266L93.4206 48.7394L88.3136 43.6406C86.1897 41.5201 82.0762 36.5034 80.7223 31.1475C79.75 27.3009 80.5421 23.2704 82.5659 19.8563C82.6407 19.7302 82.7084 19.6085 82.7674 19.4927C81.6133 20.0229 80.408 20.4308 79.1721 20.7062C79.121 18.4831 87.762 14.3633 88.3136 13.0478C90.8774 6.91901 87.139 6.92921 97.5062 6.92921C98.3999 6.33436 100.195 7.35057 102.613 6.92921C107.063 6.15379 108.902 3.12213 114.427 4.28131C119.194 5.28166 123.834 6.74894 127.432 8.24576L129.17 8.96874C130.222 10.6513 130.651 12.2218 130.589 13.6494C130.497 13.6291 130.395 13.6086 130.303 13.5984C128.495 13.3435 129.711 15.4442 127.934 15.8317L127.934 15.8317Z" fill="#2F2E41"/>
</g>
<defs>
<clipPath id="clip0_1_2752">
<rect width="624" height="434" fill="white"/>
</clipPath>
</defs>
</svg>
