<svg width="203" height="165" viewBox="0 0 203 165" fill="none" xmlns="http://www.w3.org/2000/svg">
<g clip-path="url(#clip0_476_960)">
<path d="M203 164.449C203 164.726 202.795 164.947 202.54 164.947H0.460419C0.205063 164.947 0 164.726 0 164.449C0 164.173 0.205078 163.951 0.460419 163.951H202.54C202.795 163.951 203 164.173 203 164.449Z" fill="#F2F2F2"/>
<path d="M113.822 150.407H104.906L103.858 155.48C103.858 155.48 97.1178 164.04 104.737 164.04C112.357 164.04 125.252 166.576 125.252 163.405C125.252 160.235 115.874 158.333 115.874 158.333L113.822 150.407V150.407Z" fill="#FCA311"/>
<path d="M57.7813 126.2L57.9492 116.556L53.2807 115.327C53.2807 115.327 45.4963 107.875 45.3528 116.117C45.2094 124.358 42.6224 138.257 45.5526 138.317C48.4827 138.377 50.4174 128.269 50.4174 128.269L57.7813 126.2V126.2Z" fill="#FCA311"/>
<path d="M84.2467 18.6987L82.4278 25.9791L90.6129 30.5047L93.7051 20.8632L84.2467 18.6987Z" fill="#FFB6B6"/>
<path d="M89.5969 1.8623C84.3048 1.8623 80.0148 6.50317 80.0148 12.228C80.0148 17.9528 84.3048 22.5937 89.5969 22.5937C94.8889 22.5937 99.179 17.9528 99.179 12.228C99.179 6.50317 94.8889 1.8623 89.5969 1.8623Z" fill="#FFB6B6"/>
<path d="M78.6225 65.0117C78.0754 64.003 77.3129 63.1508 76.3989 62.5263L71.1689 51.6914L66.4759 54.5342L72.2865 65.2188C72.3741 66.3841 72.7185 67.5097 73.2907 68.5015C74.6915 71.0051 77.02 72.2525 78.4924 71.2885C79.9648 70.3246 80.0231 67.5143 78.6225 65.0117H78.6225V65.0117Z" fill="#FFB6B6"/>
<path d="M95.9456 64.8091L81.918 64.7095C81.918 64.7095 75.5386 77.3907 82.5722 90.3889L83.7444 117.019L54.438 115.434V126.938C54.438 126.938 92.5364 132.554 94.0017 129.384C95.467 126.213 98.3977 106.422 98.3977 106.422L101.357 112.055L104.259 152.844H113.32L115.313 108.777L97.8115 73.5863L95.9456 64.8091H95.9456V64.8091Z" fill="#ECECEC"/>
<path d="M92.6072 24.6531L81.8715 23.8789L77.935 37.0411L81.8715 64.914L96.5437 67.6238L99.7644 38.5896L92.6072 24.6531Z" fill="#FCA311"/>
<path d="M81.5573 25.8145L82.5872 38.5895L72.925 44.7835L76.6034 59.1026L69.3464 63.3654C69.3464 63.3654 61.8314 48.2676 63.2628 43.235C64.6942 38.2024 81.5573 25.8145 81.5573 25.8145H81.5573Z" fill="#FCA311"/>
<path opacity="0.1" d="M84.213 37.1602C84.213 37.1602 84.0981 59.8066 88.8495 60.4057C93.6009 61.0048 96.906 59.5669 96.906 59.5669" fill="black"/>
<path d="M115.341 47.8013C114.263 47.8922 113.221 48.261 112.302 48.8769L101.008 49.2238L101.318 55.0328L112.741 54.0553C113.748 54.4798 114.834 54.6373 115.909 54.5146C118.603 54.2475 120.659 52.5282 120.502 50.6742C120.345 48.8201 118.034 47.5338 115.341 47.8013V47.8013L115.341 47.8013Z" fill="#FFB6B6"/>
<path d="M109.48 54.9962L109.599 54.9461L108.077 48.1655L98.1049 48.1095L96.2409 31.4025C95.8757 28.1264 93.2997 25.6558 90.2491 25.6558C88.5357 25.6558 86.8972 26.4471 85.7536 27.8267C84.6114 29.2047 84.0627 31.0505 84.2488 32.8905C85.3881 44.1655 87.5082 57.8256 91.1381 58.873C91.8284 59.0721 92.6366 59.1591 93.5226 59.1591C99.5061 59.1591 109.02 55.1897 109.48 54.9962V54.9962V54.9962Z" fill="#FCA311"/>
<path d="M95.1631 6.84878C95.8506 8.13448 96.5651 9.45421 97.6524 10.3612C98.7397 11.2682 100.305 11.6715 101.502 10.9444C102.679 10.2299 103.185 8.5708 102.895 7.14526C102.605 5.71972 101.652 4.53498 100.53 3.72434C99.4079 2.9137 98.1172 2.42733 96.8424 1.9493C94.894 1.21874 92.9311 0.484269 90.89 0.167153C85.3222 -0.697882 79.4079 1.84577 75.9091 6.61024C74.2571 8.85983 73.1447 11.5067 72.0489 14.1238C71.1532 16.263 70.2374 18.5162 70.3959 20.8585C70.512 22.5756 71.1722 24.4567 70.3176 25.9092C69.887 26.6411 69.1527 27.0845 68.5568 27.665C67.9609 28.2455 67.4719 29.1455 67.7661 29.9525C68.0672 30.7783 69.0159 31.076 69.5222 31.7746C70.39 32.972 69.6504 34.724 68.7759 35.9156C67.9014 37.1073 66.828 38.4436 67.1046 39.9354C67.3041 41.0116 68.2077 41.813 69.1848 42.1088C70.162 42.4046 71.2038 42.2795 72.2016 42.0801C77.0781 41.1058 81.637 38.3582 84.9692 34.3854C88.3015 30.4126 90.3875 25.2378 90.8114 19.893C90.998 17.5396 90.8738 15.1497 91.3023 12.8336C91.7308 10.5175 92.8411 8.18595 94.7939 7.12924" fill="#BAB375"/>
</g>
<defs>
<clipPath id="clip0_476_960">
<rect width="203" height="165" fill="white" transform="matrix(-1 0 0 1 203 0)"/>
</clipPath>
</defs>
</svg>
