<svg width="215" height="238" viewBox="0 0 215 238" fill="none" xmlns="http://www.w3.org/2000/svg">
<g clip-path="url(#clip0_481_1057)">
<path d="M66.3927 174.591H39.4614C38.7824 174.591 38.23 173.965 38.23 173.195C38.23 172.425 38.7824 171.799 39.4614 171.799H66.3927C67.0717 171.799 67.6239 172.425 67.6239 173.195C67.6239 173.965 67.0717 174.591 66.3927 174.591H66.3927Z" fill="#14213D"/>
<path d="M18.2947 182.064C18.2947 182.315 18.4723 182.516 18.6935 182.516H87.1604C87.3815 182.516 87.5592 182.315 87.5592 182.064C87.5592 181.813 87.3815 181.612 87.1604 181.612H18.6935C18.4723 181.612 18.2947 181.813 18.2947 182.064Z" fill="#14213D"/>
<path d="M162.749 90.9624C174.78 90.9624 184.533 79.9052 184.533 66.2654C184.533 52.6256 174.78 41.5684 162.749 41.5684C150.718 41.5684 140.965 52.6256 140.965 66.2654C140.965 79.9052 150.718 90.9624 162.749 90.9624Z" fill="#FF6884"/>
<path d="M0 213.271C0 213.522 0.177637 213.724 0.398843 213.724H175.442C175.663 213.724 175.841 213.522 175.841 213.271C175.841 213.021 175.663 212.819 175.442 212.819H0.398843C0.177637 212.819 0 213.021 0 213.271Z" fill="#14213D"/>
<path d="M2.53187 182.738L1.97192 182.042L56.622 125.506L76.3114 135.513L97.5731 94.1761L115.042 84.6303L131.227 115.212C139.965 89.5653 161.879 62.7333 188.138 35.5103L188.784 36.1032C164.155 62.8346 143.084 89.6874 131.125 116.851L116.155 88.4812C115.447 87.1409 113.961 86.6232 112.712 87.2821L112.712 87.2821C103.164 92.319 95.1992 100.541 89.8838 110.848L76.5654 136.674L73.5251 135.129C63.3574 129.962 51.4544 132.127 43.2236 140.642L2.53187 182.738Z" fill="#14213D"/>
<path d="M189.37 40.6573L188.54 40.7226L187.201 37.4331L184.204 36.7429L184.087 35.8092L189.028 35.0132L189.37 40.6573Z" fill="#14213D"/>
<path d="M104.124 60.7849L107.062 47.9815L118.506 47.3574L121.93 65.0065L104.124 60.7849Z" fill="#FFB6B6"/>
<path opacity="0.1" d="M104.124 60.7849L107.062 47.9815L118.506 47.3574L121.93 65.0065L104.124 60.7849Z" fill="black"/>
<path d="M111.655 55.1468C119.284 55.1468 125.468 48.1354 125.468 39.4865C125.468 30.8375 119.284 23.8262 111.655 23.8262C104.026 23.8262 97.8416 30.8375 97.8416 39.4865C97.8416 48.1354 104.026 55.1468 111.655 55.1468Z" fill="#FFB6B6"/>
<path d="M119.276 42.8013H119.276C119.276 42.8013 114.029 31.0142 107.88 31.6947C101.732 32.3752 98.493 33.2029 98.493 33.2029C98.493 33.2029 96.668 24.0225 105.26 20.4913C105.26 20.4913 94.3353 8.28187 107.343 2.29262C120.35 -3.69664 127.629 3.94189 127.629 3.94189C127.629 3.94189 137.257 14.8388 125.13 22.9832C125.13 22.9832 134.135 36.7142 123.233 48.0318C123.233 48.0318 125.671 38.8734 123.127 40.5623C120.583 42.2513 119.276 42.8013 119.276 42.8013V42.8013L119.276 42.8013H119.276Z" fill="#2F2E41"/>
<path d="M96.414 125.541L94.5766 127.537L81.3024 159.805L79.8494 213.178H102.152L112.614 186.747L119.663 212.923H139.716L144.364 165.406L131.868 131.801L96.414 125.541Z" fill="#2F2E41"/>
<path d="M119.517 59.4839H104.623L88.4224 69.3678L92.2003 88.4766C92.2003 88.4766 91.3284 100.008 93.3627 108.574C95.397 117.14 94.5251 128.342 94.5251 128.342L131.868 131.801L133.031 92.9243L132.449 66.8968L119.517 59.4839V59.4839Z" fill="#FCA311"/>
<path d="M90.8926 69.5327C90.8926 69.5327 81.8837 69.8622 80.4307 76.4514C78.9776 83.0407 77.8152 116.975 77.8152 116.975C77.8152 116.975 78.687 137.111 88.4224 127.538C98.1578 117.964 97.2859 88.971 97.2859 88.971L90.8926 69.5327Z" fill="#FCA311"/>
<path d="M178.273 237.62H125.183C123.385 237.62 121.922 235.962 121.922 233.923V171.703C121.922 169.664 123.385 168.006 125.183 168.006H178.273C180.071 168.006 181.534 169.664 181.534 171.703V233.923C181.534 235.962 180.071 237.62 178.273 237.62Z" fill="white"/>
<path d="M178.273 238H125.183C123.2 238 121.587 236.171 121.587 233.923V171.703C121.587 169.455 123.2 167.626 125.183 167.626H178.273C180.256 167.626 181.869 169.455 181.869 171.703V233.923C181.869 236.171 180.256 238 178.273 238ZM125.183 168.386C123.57 168.386 122.257 169.874 122.257 171.703V233.923C122.257 235.752 123.57 237.24 125.183 237.24H178.273C179.886 237.24 181.199 235.752 181.199 233.923V171.703C181.199 169.874 179.886 168.386 178.273 168.386H125.183Z" fill="#14213D"/>
<path d="M153.823 221.274H149.447C148.915 221.274 148.481 220.895 148.481 220.428V199.071C148.481 198.604 148.915 198.225 149.447 198.225H153.823C154.356 198.225 154.789 198.604 154.789 199.071V220.428C154.789 220.895 154.356 221.274 153.823 221.274Z" fill="#14213D"/>
<path d="M139.357 208.688C138.926 208.688 138.576 208.994 138.576 209.371V220.405C138.576 220.781 138.926 221.088 139.357 221.088H143.732C144.163 221.088 144.513 220.781 144.513 220.405V209.371C144.513 208.994 144.163 208.688 143.732 208.688H139.357Z" fill="#14213D"/>
<path d="M163.914 221.274H159.538C159.005 221.274 158.572 220.895 158.572 220.429V185.427C158.572 184.961 159.005 184.582 159.538 184.582H163.914C164.446 184.582 164.88 184.961 164.88 185.427V220.429C164.88 220.895 164.446 221.274 163.914 221.274Z" fill="#14213D"/>
<path d="M69.7521 67.8488H64.7538C64.1452 67.8488 63.6501 67.4156 63.6501 66.883V42.4863C63.6501 41.9537 64.1452 41.5205 64.7538 41.5205H69.7521C70.3606 41.5205 70.8557 41.9537 70.8557 42.4863V66.883C70.8557 67.4156 70.3606 67.8488 69.7521 67.8488V67.8488V67.8488Z" fill="#14213D"/>
<path d="M53.2274 53.4717C52.7358 53.4717 52.3357 53.8218 52.3357 54.252V66.8559C52.3357 67.2861 52.7358 67.6362 53.2274 67.6362H58.2257C58.7173 67.6362 59.1174 67.2861 59.1174 66.8559V54.252C59.1174 53.8218 58.7173 53.4717 58.2257 53.4717H53.2274Z" fill="#14213D"/>
<path d="M81.2787 67.8489H76.2804C75.6718 67.8489 75.1768 67.4157 75.1768 66.8832V26.9013C75.1768 26.3688 75.6718 25.9355 76.2804 25.9355H81.2787C81.8872 25.9355 82.3823 26.3688 82.3823 26.9013V66.8832C82.3823 67.4157 81.8872 67.8489 81.2787 67.8489V67.8489V67.8489Z" fill="#14213D"/>
<path d="M143.589 177.059C146.178 176.778 147.96 172.812 147.571 168.198C147.438 166.353 146.916 164.571 146.051 163.001L145.552 157.779L145.628 157.753L146.883 132.996C147.174 127.24 145.164 121.584 141.292 117.846C138.988 115.622 136.531 114.496 134.951 117.306C132.329 121.968 135.725 141.185 137.956 152.11L138.82 163.785C138.233 165.514 138.019 167.376 138.197 169.217C138.586 173.829 141 177.34 143.589 177.059V177.059Z" fill="#FFB6B6"/>
<path d="M129.253 67.5559C129.253 67.5559 136.809 64.2613 140.296 74.1452C143.783 84.0291 147.561 132.789 147.561 132.789L129.834 129.165L129.253 67.5559V67.5559V67.5559Z" fill="#FCA311"/>
<path d="M25.5019 62.7215H15.3279C14.6489 62.7215 14.0964 62.0952 14.0964 61.3255C14.0964 60.5557 14.6489 59.9297 15.3279 59.9297H25.5019C26.1808 59.9297 26.733 60.5557 26.733 61.3255C26.733 62.0952 26.1809 62.7215 25.5019 62.7215Z" fill="#FCA311"/>
<path d="M25.5019 42.9339H15.3279C14.6489 42.9339 14.0964 42.3076 14.0964 41.5379C14.0964 40.7681 14.6489 40.1421 15.3279 40.1421H25.5019C26.1808 40.1421 26.733 40.7681 26.733 41.5379C26.733 42.3076 26.1809 42.9339 25.5019 42.9339Z" fill="#FCA311"/>
<path d="M25.5019 28.6639H15.3279C14.6489 28.6639 14.0964 28.0376 14.0964 27.2678C14.0964 26.4981 14.6489 25.8721 15.3279 25.8721H25.5019C26.1808 25.8721 26.733 26.4981 26.733 27.2678C26.733 28.0376 26.1809 28.6639 25.5019 28.6639Z" fill="#FCA311"/>
<path d="M13.6882 67.9184C13.6882 68.1692 13.8659 68.3706 14.0871 68.3706H82.5539C82.7751 68.3706 82.9527 68.1692 82.9527 67.9184C82.9527 67.6677 82.7751 67.4663 82.5539 67.4663H14.0871C13.8659 67.4663 13.6882 67.6677 13.6882 67.9184Z" fill="#14213D"/>
<path d="M145.735 184.944C145.735 185.195 145.913 185.396 146.134 185.396H214.601C214.822 185.396 215 185.195 215 184.944C215 184.693 214.822 184.492 214.601 184.492H146.134C145.913 184.492 145.735 184.693 145.735 184.944Z" fill="#14213D"/>
<path d="M125.627 221.8C125.627 222.051 125.804 222.252 126.026 222.252H194.492C194.714 222.252 194.891 222.051 194.891 221.8C194.891 221.549 194.714 221.348 194.492 221.348H126.026C125.804 221.348 125.627 221.549 125.627 221.8Z" fill="#14213D"/>
<path d="M79.5861 65.6325C76.9972 65.9135 75.2144 69.8796 75.6039 74.493C75.7372 76.3384 76.2584 78.1206 77.1238 79.6908L77.6228 84.9122L77.5464 84.9381L76.2922 109.695C76.0006 115.451 78.0105 121.108 81.8828 124.846C84.1864 127.069 86.6438 128.195 88.224 125.386C90.8462 120.724 87.4498 101.507 85.2194 90.5812L84.3546 78.9061C84.942 77.1778 85.1558 75.3153 84.9779 73.4742C84.5891 68.8623 82.1749 65.3515 79.5861 65.6325H79.5861V65.6325Z" fill="#FFB6B6"/>
</g>
<defs>
<clipPath id="clip0_481_1057">
<rect width="215" height="238" fill="white"/>
</clipPath>
</defs>
</svg>
