<svg width="281" height="205" viewBox="0 0 281 205" fill="none" xmlns="http://www.w3.org/2000/svg">
<g clip-path="url(#clip0_343_553)">
<path opacity="0.1" d="M276.239 163.795C269.279 178.197 255.139 187.828 240.491 194.179C228.763 199.231 216.365 202.548 203.687 204.028C201.258 204.317 198.822 204.541 196.378 204.701C190.133 205.109 183.868 205.102 177.624 204.68C173.868 204.429 170.125 204.029 166.395 203.479C153.436 201.583 140.801 197.894 128.852 192.516C125.404 190.959 122.025 189.258 118.716 187.416C113.19 184.344 107.895 180.871 102.873 177.025C101.762 176.174 100.665 175.304 99.5819 174.416L99.1364 174.051C98.2848 173.347 97.441 172.627 96.5841 171.928C95.1598 170.731 93.6479 169.644 92.0612 168.675C91.9538 168.611 91.8464 168.548 91.7363 168.488C91.4428 168.317 91.1441 168.157 90.8401 168.004C90.2139 167.688 89.5719 167.404 88.9167 167.153C85.8901 165.997 82.6486 165.576 79.3626 165.647C78.8175 165.647 78.2725 165.684 77.7248 165.721C76.9596 165.774 76.1919 165.852 75.4267 165.952L75.1437 165.992C72.7054 166.338 70.2947 166.857 67.9296 167.545C64.2767 168.596 60.6893 169.91 57.0784 171.095C55.5454 171.602 54.0099 172.085 52.4612 172.519L52.1205 172.614C49.9179 173.235 47.6758 173.705 45.4096 174.022C40.2598 174.682 35.0293 174.26 30.0512 172.782L29.8782 172.732L29.5586 172.637L29.1209 172.501C28.3872 172.269 27.6596 172.016 26.9381 171.741L26.5005 171.573C25.8017 171.303 25.1178 171.013 24.4487 170.703L24.0111 170.503C23.3123 170.178 22.6284 169.833 21.9593 169.471C21.7182 169.345 21.4797 169.208 21.2439 169.079C20.5311 168.68 19.8324 168.261 19.1476 167.823C18.4208 167.359 17.7098 166.875 17.0145 166.37C16.6931 166.139 16.3751 165.901 16.0607 165.658C14.248 164.268 12.5505 162.732 10.9849 161.067C10.8984 160.981 10.8172 160.891 10.7359 160.804C10.3193 160.353 9.91051 159.893 9.51482 159.422C9.36808 159.249 9.22134 159.075 9.07721 158.897C8.60728 158.322 8.15394 157.734 7.7172 157.134C7.65169 157.047 7.5888 156.957 7.52591 156.871C5.73547 154.388 4.25113 151.697 3.10524 148.856C3.06855 148.769 3.03448 148.68 3.00304 148.593C2.65365 147.691 2.33483 146.774 2.04658 145.842C1.92866 145.453 1.81598 145.054 1.7164 144.665C1.68234 144.549 1.65089 144.431 1.62207 144.315C0.175585 138.605 0.010498 132.669 0.010498 126.767C0.010498 126.079 0.010498 125.391 0.010498 124.705C0.052425 115.158 0.199169 105.449 1.60372 96.0335C1.60372 95.9678 1.62207 95.9021 1.63255 95.839C2.10264 92.6694 2.74208 89.5274 3.54809 86.4265C4.39166 83.1728 5.46975 79.9849 6.77385 76.8878C10.0048 69.2674 14.7033 62.3328 19.9206 55.9054C26.2096 48.1719 33.4158 41.035 41.4422 35.1463C42.5952 34.3001 43.7639 33.4785 44.9484 32.6815L45.4961 32.3215C45.6873 32.1927 45.8786 32.0587 46.0699 31.9457C46.463 31.6829 46.8561 31.4359 47.2544 31.1863L47.6998 30.9077L48.5489 30.3822L48.8109 30.2324L49.2642 29.9696L49.7123 29.7069C50.2364 29.3968 50.7666 29.0937 51.3029 28.7977C53.5932 27.5171 55.9376 26.3469 58.3362 25.287C59.0437 24.9734 59.7556 24.6713 60.4719 24.3804C63.7237 23.0524 67.0642 21.9539 70.4688 21.0932C71.7266 20.7743 72.9923 20.494 74.2658 20.2523C75.7682 19.9615 77.2785 19.7206 78.7966 19.5297C81.2123 19.2249 83.642 19.0433 86.0761 18.9857C103.193 18.5679 120.482 24.1545 133.897 34.8625C139.242 39.1299 144.045 44.1831 150.049 47.4546C155.29 50.303 161.424 51.4829 167.037 49.2414C171.675 47.3889 174.694 46.4692 179.904 46.7503C190.683 47.3592 201.31 49.5879 211.43 53.3617C211.839 53.5115 212.248 53.6665 212.654 53.8216C239.044 63.9515 261.735 84.0668 273.521 109.916C273.832 110.599 274.135 111.287 274.431 111.981C281.461 128.444 283.998 147.745 276.239 163.795Z" fill="#14213D"/>
<path opacity="0.1" d="M52.4534 72.8908V172.524L52.1127 172.619C49.9101 173.24 47.668 173.71 45.4018 174.027C40.252 174.687 35.0215 174.265 30.0434 172.787L29.8704 172.737L29.5507 172.642L29.1131 172.506C28.3794 172.274 27.6518 172.021 26.9303 171.746L26.4927 171.578C25.7939 171.308 25.11 171.018 24.4409 170.708L24.0033 170.509C23.3045 170.183 22.6206 169.838 21.9515 169.476C21.7104 169.35 21.4719 169.213 21.2361 169.084C20.5233 168.685 19.8245 168.266 19.1397 167.828C18.413 167.364 17.702 166.88 17.0067 166.375C16.6853 166.144 16.3673 165.906 16.0529 165.663C14.2402 164.273 12.5427 162.737 10.9771 161.072C10.8906 160.986 10.8094 160.896 10.7281 160.81C10.3115 160.358 9.9027 159.898 9.50701 159.427C9.36027 159.254 9.21352 159.08 9.0694 158.902C8.59947 158.327 8.14613 157.739 7.70939 157.139C7.64388 157.052 7.58099 156.963 7.5181 156.876C5.72765 154.393 4.24331 151.702 3.09742 148.861C3.06074 148.775 3.02667 148.685 2.99523 148.598C2.64583 147.696 2.32701 146.779 2.03877 145.847C1.92085 145.458 1.80817 145.059 1.70859 144.67C1.67452 144.554 1.64308 144.436 1.61425 144.321C0.167773 138.61 0.00268555 132.674 0.00268555 126.773C0.00268555 126.084 0.00268555 125.396 0.00268555 124.71C0.0446125 115.163 0.191356 105.454 1.59591 96.0385C1.59591 95.9728 1.61425 95.9072 1.62474 95.8441C2.09483 92.6745 2.73426 89.5324 3.54028 86.4316H30.3002V72.8908H35.6354V62.0146H47.1182V72.8908H52.4534Z" fill="#FCA311"/>
<path opacity="0.1" d="M276.239 163.794C269.279 178.197 255.139 187.828 240.491 194.179C228.763 199.23 216.365 202.548 203.687 204.028C201.258 204.317 198.822 204.541 196.378 204.7C190.133 205.109 183.868 205.102 177.624 204.679C173.868 204.429 170.125 204.029 166.395 203.479C153.436 201.583 140.801 197.893 128.852 192.516C125.404 190.958 122.025 189.258 118.716 187.415C113.19 184.344 107.895 180.871 102.873 177.025C101.762 176.174 100.665 175.304 99.5819 174.416L99.1365 174.051C98.2848 173.346 97.441 172.626 96.5842 171.927C95.1599 170.731 93.648 169.643 92.0613 168.674C91.9538 168.611 91.8464 168.548 91.7363 168.488C91.4429 168.317 91.1441 168.157 90.8401 168.004C90.2139 167.688 89.572 167.403 88.9167 167.153V126.394H137.549V135.467H158.893V69.0962H184.015V95.6363H196.441V79.9225H206.708V63.1365H211.425V53.3613C211.834 53.5111 212.242 53.6661 212.649 53.8212V63.1365H217.24V79.933H227.499V95.6468H242.626V155.514H266.671V111.976H274.42C281.461 128.444 283.998 147.744 276.239 163.794Z" fill="#FCA311"/>
<path opacity="0.1" d="M177.629 79.084H166.4V90.3438H177.629V79.084Z" fill="#14213D"/>
<path opacity="0.1" d="M177.629 102.424H166.4V113.684H177.629V102.424Z" fill="#14213D"/>
<path opacity="0.1" d="M177.629 125.766H166.4V137.025H177.629V125.766Z" fill="#14213D"/>
<path opacity="0.1" d="M177.629 149.108H166.4V160.368H177.629V149.108Z" fill="#14213D"/>
<path opacity="0.1" d="M177.629 172.447H166.4V183.707H177.629V172.447Z" fill="#14213D"/>
<path opacity="0.1" d="M177.629 195.784V204.676C173.873 204.426 170.13 204.026 166.4 203.476V195.784H177.629Z" fill="#14213D"/>
<path opacity="0.1" d="M131.923 140.946H92.6194V146.047H131.923V140.946Z" fill="#14213D"/>
<path opacity="0.1" d="M131.923 156.437H92.6194V161.537H131.923V156.437Z" fill="#14213D"/>
<path opacity="0.1" d="M131.923 171.928V177.026H102.878C101.767 176.174 100.67 175.304 99.5871 174.416L99.1417 174.051C98.29 173.347 97.4462 172.627 96.5894 171.928H131.923Z" fill="#14213D"/>
<path opacity="0.1" d="M131.923 187.415V192.515H128.858C125.409 190.958 122.03 189.258 118.722 187.415H131.923Z" fill="#14213D"/>
<path opacity="0.1" d="M203.692 109.574H196.384V116.903H203.692V109.574Z" fill="#14213D"/>
<path opacity="0.1" d="M45.4175 75.4189H38.1091V82.7477H45.4175V75.4189Z" fill="#14213D"/>
<path opacity="0.1" d="M45.4175 92.4463H38.1091V99.775H45.4175V92.4463Z" fill="#14213D"/>
<path opacity="0.1" d="M45.4175 109.472H38.1091V116.8H45.4175V109.472Z" fill="#14213D"/>
<path opacity="0.1" d="M45.4175 126.499H38.1091V133.828H45.4175V126.499Z" fill="#14213D"/>
<path opacity="0.1" d="M45.4175 143.526H38.1091V150.855H45.4175V143.526Z" fill="#14213D"/>
<path opacity="0.1" d="M45.4175 160.552H38.1091V167.881H45.4175V160.552Z" fill="#14213D"/>
<path opacity="0.1" d="M231.597 109.574H224.289V116.903H231.597V109.574Z" fill="#14213D"/>
<path opacity="0.1" d="M203.692 127.652H196.384V134.981H203.692V127.652Z" fill="#14213D"/>
<path opacity="0.1" d="M231.597 127.652H224.289V134.981H231.597V127.652Z" fill="#14213D"/>
<path opacity="0.1" d="M203.692 145.734H196.384V153.063H203.692V145.734Z" fill="#14213D"/>
<path opacity="0.1" d="M231.597 145.734H224.289V153.063H231.597V145.734Z" fill="#14213D"/>
<path opacity="0.1" d="M203.692 163.815H196.384V171.144H203.692V163.815Z" fill="#14213D"/>
<path opacity="0.1" d="M231.597 163.815H224.289V171.144H231.597V163.815Z" fill="#14213D"/>
<path opacity="0.1" d="M203.692 181.895H196.384V189.223H203.692V181.895Z" fill="#14213D"/>
<path opacity="0.1" d="M231.597 181.895H224.289V189.223H231.597V181.895Z" fill="#14213D"/>
<path opacity="0.1" d="M196.384 204.7V199.973H203.692V204.027L196.384 204.7Z" fill="#14213D"/>
<path opacity="0.1" d="M1.59839 95.8467V100.051H29.5506V95.8467H1.59839ZM4.0878 99.7883H2.036V96.1095H4.0878V99.7883ZM6.57722 99.7883H4.52542V96.1095H6.57722V99.7883ZM9.06664 99.7883H7.01483V96.1095H9.06664V99.7883ZM11.5561 99.7883H9.50425V96.1095H11.5561V99.7883ZM14.0455 99.7883H11.9937V96.1095H14.0455V99.7883ZM16.5349 99.7883H14.4831V96.1095H16.5349V99.7883ZM19.0243 99.7883H16.9725V96.1095H19.0243V99.7883ZM21.5137 99.7883H19.4619V96.1095H21.5137V99.7883ZM24.0031 99.7883H21.9513V96.1095H24.0031V99.7883ZM26.4925 99.7883H24.4407V96.1095H26.4925V99.7883ZM29.113 99.7883H26.9302V96.1095H29.113V99.7883Z" fill="#14213D"/>
<path opacity="0.1" d="M1.59839 108.055V112.246H29.5506V108.055H1.59839ZM4.0878 111.983H2.036V108.317H4.0878V111.983ZM6.57722 111.983H4.52542V108.317H6.57722V111.983ZM9.06664 111.983H7.01483V108.317H9.06664V111.983ZM11.5561 111.983H9.50425V108.317H11.5561V111.983ZM14.0455 111.983H11.9937V108.317H14.0455V111.983ZM16.5349 111.983H14.4831V108.317H16.5349V111.983ZM19.0243 111.983H16.9725V108.317H19.0243V111.983ZM21.5137 111.983H19.4619V108.317H21.5137V111.983ZM24.0031 111.983H21.9513V108.317H24.0031V111.983ZM26.4925 111.983H24.4407V108.317H26.4925V111.983ZM29.113 111.983H26.9302V108.317H29.113V111.983Z" fill="#14213D"/>
<path opacity="0.1" d="M1.59839 120.261V124.452H29.5506V120.261H1.59839ZM4.0878 124.189H2.036V120.524H4.0878V124.189ZM6.57722 124.189H4.52542V120.524H6.57722V124.189ZM9.06664 124.189H7.01483V120.524H9.06664V124.189ZM11.5561 124.189H9.50425V120.524H11.5561V124.189ZM14.0455 124.189H11.9937V120.524H14.0455V124.189ZM16.5349 124.189H14.4831V120.524H16.5349V124.189ZM19.0243 124.189H16.9725V120.524H19.0243V124.189ZM21.5137 124.189H19.4619V120.524H21.5137V124.189ZM24.0031 124.189H21.9513V120.524H24.0031V124.189ZM26.4925 124.189H24.4407V120.524H26.4925V124.189ZM29.113 124.189H26.9302V120.524H29.113V124.189Z" fill="#14213D"/>
<path opacity="0.1" d="M1.59839 132.456V136.66H29.5506V132.456H1.59839ZM4.0878 136.398H2.036V132.719H4.0878V136.398ZM6.57722 136.398H4.52542V132.719H6.57722V136.398ZM9.06664 136.398H7.01483V132.719H9.06664V136.398ZM11.5561 136.398H9.50425V132.719H11.5561V136.398ZM14.0455 136.398H11.9937V132.719H14.0455V136.398ZM16.5349 136.398H14.4831V132.719H16.5349V136.398ZM19.0243 136.398H16.9725V132.719H19.0243V136.398ZM21.5137 136.398H19.4619V132.719H21.5137V136.398ZM24.0031 136.398H21.9513V132.719H24.0031V136.398ZM26.4925 136.398H24.4407V132.719H26.4925V136.398ZM29.113 136.398H26.9302V132.719H29.113V136.398Z" fill="#14213D"/>
<path opacity="0.1" d="M1.70581 144.673C1.80539 145.067 1.91807 145.461 2.03599 145.85V144.936H4.08779V148.614H2.99245C3.02389 148.701 3.05796 148.791 3.09464 148.877H29.5611V144.673H1.70581ZM6.5772 148.614H4.5254V144.936H6.5772V148.614ZM9.06662 148.614H7.01482V144.936H9.06662V148.614ZM11.556 148.614H9.50423V144.936H11.556V148.614ZM14.0455 148.614H11.9936V144.936H14.0455V148.614ZM16.5349 148.614H14.4831V144.936H16.5349V148.614ZM19.0243 148.614H16.9725V144.936H19.0243V148.614ZM21.5137 148.614H19.4619V144.936H21.5137V148.614ZM24.0031 148.614H21.9513V144.936H24.0031V148.614ZM26.4925 148.614H24.4407V144.936H26.4925V148.614ZM29.113 148.614H26.9301V144.936H29.113V148.614Z" fill="#14213D"/>
<path opacity="0.1" d="M7.51538 156.878C7.57827 156.965 7.64116 157.054 7.70667 157.141H9.06668V158.904C9.2108 159.08 9.35755 159.253 9.50429 159.429V157.143H11.5561V160.822H10.7254C10.8067 160.909 10.8879 160.998 10.9744 161.085H29.5506V156.881L7.51538 156.878ZM14.0455 160.82H11.9937V157.141H14.0455V160.82ZM16.5349 160.82H14.4831V157.141H16.5349V160.82ZM19.0243 160.82H16.9725V157.141H19.0243V160.82ZM21.5138 160.82H19.462V157.141H21.5138V160.82ZM24.0032 160.82H21.9514V157.141H24.0032V160.82ZM26.4926 160.82H24.4408V157.141H26.4926V160.82ZM29.113 160.82H26.9302V157.141H29.113V160.82Z" fill="#14213D"/>
<path opacity="0.1" d="M21.2361 169.084C21.4719 169.218 21.7104 169.347 21.9515 169.476V169.347H24.0033V170.508L24.4409 170.708V169.347H26.4927V171.578L26.9303 171.746V169.347H29.1131V172.5L29.5507 172.637V169.084H21.2361Z" fill="#14213D"/>
<path opacity="0.1" d="M107.428 59.4496C107.428 59.4496 101.18 59.0712 101.925 63.4595C101.886 63.6825 101.92 63.912 102.019 64.1149C102.119 64.3179 102.28 64.484 102.48 64.5894C102.48 64.5894 102.48 64.2636 103.12 64.374C103.344 64.4109 103.572 64.4215 103.798 64.4055C104.105 64.3853 104.396 64.2653 104.629 64.0639V64.0639C104.629 64.0639 106.385 63.336 107.069 60.4586C107.069 60.4586 107.572 59.8306 107.553 59.6703L106.505 60.1223C106.505 60.1223 106.867 60.8843 106.584 61.5176C106.584 61.5176 106.55 60.1512 106.345 60.1827C106.306 60.1827 105.798 60.4455 105.798 60.4455C105.798 60.4455 106.419 61.7751 105.95 62.7395C105.95 62.7395 106.128 61.1051 105.606 60.5427L104.846 60.9816C104.846 60.9816 105.572 62.3532 105.08 63.4727C105.08 63.4727 105.208 61.7567 104.692 61.0893L104.018 61.6148C104.018 61.6148 104.7 62.9655 104.28 63.8957C104.28 63.8957 104.225 61.896 103.869 61.7436C103.613 61.9597 103.385 62.2069 103.19 62.4794C103.19 62.4794 103.657 63.4595 103.368 63.9772C103.368 63.9772 103.19 62.6475 103.044 62.6397C103.044 62.6397 102.459 63.5226 102.399 64.127C102.426 63.5663 102.599 63.0225 102.902 62.5503C102.564 62.6144 102.253 62.776 102.006 63.0154C102.006 63.0154 102.098 62.3927 103.054 62.3375C103.054 62.3375 103.539 61.67 103.67 61.628C103.67 61.628 102.724 61.5491 102.15 61.804C102.15 61.804 102.656 61.2154 103.843 61.4835L104.506 60.9395C104.506 60.9395 103.261 60.7687 102.734 60.9579C102.734 60.9579 103.34 60.4324 104.684 60.816L105.407 60.3824C104.852 60.2604 104.283 60.211 103.714 60.2353C103.714 60.2353 104.38 59.8753 105.619 60.2668L106.144 60.033C106.144 60.033 105.357 59.8805 105.14 59.8569C104.922 59.8332 104.899 59.7702 104.899 59.7702C105.391 59.6879 105.896 59.7443 106.358 59.9331C106.358 59.9331 107.446 59.5179 107.428 59.4496Z" fill="#14213D"/>
<path opacity="0.1" d="M91.0288 80.8055C91.0288 80.8055 88.8931 86.7021 93.3007 87.2408C93.5025 87.3404 93.7305 87.3734 93.9522 87.3352C94.1739 87.2969 94.3778 87.1894 94.5349 87.028C94.5349 87.028 94.2283 86.9255 94.5113 86.35C94.6105 86.1456 94.6861 85.9305 94.7367 85.7088C94.8029 85.4078 94.7698 85.0933 94.6423 84.8128V84.8128C94.6423 84.8128 94.4458 82.9182 91.8883 81.444C91.8883 81.444 91.4323 80.7792 91.2725 80.7529L91.4035 81.896C91.4035 81.896 92.2342 81.7646 92.7609 82.2166C92.7609 82.2166 91.4506 81.8618 91.4166 82.0668C91.4166 82.1062 91.5135 82.6685 91.5135 82.6685C91.5135 82.6685 92.96 82.4478 93.7488 83.1731C93.7488 83.1731 92.2342 82.5372 91.5502 82.8814L91.7546 83.717C91.7546 83.717 93.2719 83.4122 94.2021 84.2005C94.2021 84.2005 92.5984 83.5935 91.8123 83.8983L92.1241 84.6866C92.1241 84.6866 93.6099 84.4239 94.3803 85.0782C94.3803 85.0782 92.4517 84.5526 92.208 84.8627C92.3422 85.1687 92.5129 85.4572 92.7163 85.722C92.7163 85.722 93.7881 85.5538 94.1995 85.9847C94.1995 85.9847 92.8762 85.7772 92.829 85.9138C92.829 85.9138 93.5077 86.7284 94.0685 86.9649C93.5419 86.778 93.073 86.4564 92.7085 86.032C92.6737 86.3756 92.7402 86.7219 92.8997 87.028C92.8997 87.028 92.3285 86.7652 92.546 85.8323C92.546 85.8323 92.0429 85.178 92.0429 85.044C92.0429 85.044 91.697 85.9296 91.7808 86.555C91.7808 86.555 91.3615 85.9007 91.9538 84.8364L91.6236 84.0481C91.6236 84.0481 91.0995 85.1964 91.1362 85.7588C91.1362 85.7588 90.8113 85.0256 91.5555 83.8405L91.3484 83.0233C91.0742 83.5197 90.8655 84.0496 90.7274 84.5999C90.7274 84.5999 90.5702 83.8563 91.296 82.7763L91.22 82.2139C91.22 82.2139 90.8532 82.9182 90.7667 83.131C90.6802 83.3439 90.6147 83.336 90.6147 83.336C90.6751 82.8391 90.8719 82.3687 91.1834 81.9775C91.1834 81.9775 91.0995 80.8055 91.0288 80.8055Z" fill="#14213D"/>
<path opacity="0.1" d="M132.44 75.8335C132.44 75.8335 130.307 81.7406 134.712 82.2662C134.914 82.3656 135.143 82.3984 135.365 82.3597C135.587 82.321 135.791 82.2128 135.948 82.0507C135.948 82.0507 135.639 81.9482 135.925 81.3754C136.025 81.1706 136.1 80.9545 136.148 80.7316C136.215 80.4308 136.182 80.1164 136.056 79.8355C136.056 79.8355 135.859 77.9409 133.302 76.4668C133.302 76.4668 132.843 75.8046 132.683 75.7783L132.817 76.9188C132.817 76.9188 133.648 76.79 134.174 77.242C134.174 77.242 132.864 76.8872 132.827 77.0896C132.827 77.1316 132.924 77.6913 132.924 77.6913C132.924 77.6913 134.371 77.4732 135.162 78.1958C135.162 78.1958 133.648 77.5626 132.961 77.9042L133.168 78.7424C133.168 78.7424 134.685 78.435 135.616 79.2259C135.616 79.2259 134.009 78.6163 133.223 78.9211L133.535 79.7094C133.535 79.7094 135.021 79.4466 135.791 80.1009C135.791 80.1009 133.865 79.5754 133.619 79.8881C133.757 80.1953 133.933 80.4839 134.143 80.7474C134.143 80.7474 135.212 80.5766 135.626 81.0101C135.626 81.0101 134.303 80.8025 134.256 80.9418C134.256 80.9418 134.932 81.7538 135.492 81.9929C134.966 81.8068 134.498 81.4851 134.135 81.0601C134.1 81.4034 134.166 81.7494 134.324 82.056C134.324 82.056 133.755 81.7932 133.973 80.863C133.973 80.863 133.469 80.2061 133.467 80.0747C133.467 80.0747 133.124 80.9628 133.205 81.5856C133.205 81.5856 132.786 80.9339 133.378 79.8671L133.048 79.0788C133.048 79.0788 132.524 80.2271 132.56 80.7868C132.56 80.7868 132.235 80.0563 132.979 78.8712L132.77 78.0513C132.496 78.5477 132.287 79.0776 132.149 79.6279C132.149 79.6279 131.994 78.8843 132.72 77.8043L132.644 77.242C132.644 77.242 132.277 77.9462 132.188 78.159C132.099 78.3719 132.036 78.364 132.036 78.364C132.098 77.8671 132.296 77.3969 132.607 77.0055C132.607 77.0055 132.513 75.8361 132.44 75.8335Z" fill="#14213D"/>
<path opacity="0.1" d="M73.2438 124.047C73.2438 124.047 71.1082 129.946 75.5158 130.485C75.7178 130.585 75.9461 130.617 76.1679 130.579C76.3896 130.54 76.5935 130.432 76.75 130.269C76.75 130.269 76.4434 130.167 76.7264 129.594C76.8271 129.389 76.9028 129.173 76.9518 128.95C77.0194 128.649 76.9862 128.334 76.8574 128.054V128.054C76.8574 128.054 76.6609 126.16 74.1033 124.688C74.1033 124.688 73.6474 124.023 73.4875 123.997L73.6186 125.138C73.6186 125.138 74.4519 125.009 74.976 125.461C74.976 125.461 73.6657 125.106 73.6317 125.308C73.6317 125.35 73.7286 125.91 73.7286 125.91C73.7286 125.91 75.1751 125.692 75.9639 126.415C75.9639 126.415 74.4492 125.781 73.7653 126.123L73.9697 126.961C73.9697 126.961 75.4869 126.654 76.4172 127.445C76.4172 127.445 74.8135 126.835 74.0273 127.14L74.3392 127.928C74.3392 127.928 75.825 127.665 76.5954 128.32C76.5954 128.32 74.6694 127.794 74.423 128.107C74.5572 128.413 74.7279 128.701 74.9314 128.966C74.9314 128.966 76.0032 128.795 76.4172 129.229C76.4172 129.229 75.0912 129.021 75.0441 129.161C75.0441 129.161 75.7228 129.973 76.2836 130.212C75.7568 130.026 75.2879 129.706 74.9235 129.281C74.8889 129.624 74.9554 129.97 75.1148 130.275C75.1148 130.275 74.5436 130.012 74.7611 129.082C74.7611 129.082 74.2606 128.425 74.2579 128.293C74.2579 128.293 73.9121 129.182 73.9959 129.804C73.9959 129.804 73.5766 129.153 74.1689 128.086L73.8387 127.298C73.8387 127.298 73.3146 128.446 73.3539 129.006C73.3539 129.006 73.029 128.275 73.7732 127.09L73.5635 126.273C73.2888 126.769 73.08 127.299 72.9425 127.849C72.9425 127.849 72.7853 127.103 73.5111 126.026L73.4351 125.461C73.4351 125.461 73.0683 126.165 72.9818 126.378C72.8953 126.591 72.8298 126.583 72.8298 126.583C72.8904 126.085 73.0882 125.615 73.4011 125.224C73.4011 125.224 73.3146 124.047 73.2438 124.047Z" fill="#14213D"/>
<path opacity="0.1" d="M64.7692 68.4471C64.7692 68.4471 62.6362 74.3437 67.0412 74.8824C67.2435 74.9818 67.4719 75.0147 67.6939 74.9765C67.9159 74.9383 68.1203 74.8309 68.278 74.6696C68.278 74.6696 67.9688 74.5671 68.2544 73.9916C68.3533 73.7864 68.428 73.5703 68.4772 73.3478C68.5442 73.0479 68.512 72.7343 68.3854 72.4544C68.3854 72.4544 68.1889 70.5598 65.6287 69.0856C65.6287 69.0856 65.1728 68.4208 65.0129 68.3945L65.1466 69.5376C65.1466 69.5376 65.9773 69.4062 66.5013 69.8582C66.5013 69.8582 65.1911 69.5034 65.1571 69.7084C65.1571 69.7478 65.254 70.3102 65.254 70.3102C65.254 70.3102 66.7005 70.0894 67.4919 70.8147C67.4919 70.8147 65.9773 70.1788 65.2907 70.523L65.4951 71.3586C65.4951 71.3586 67.0123 71.0512 67.9452 71.8421C67.9452 71.8421 66.3389 71.2325 65.5527 71.5399L65.8646 72.3282C65.8646 72.3282 67.3504 72.0655 68.1208 72.7224C68.1208 72.7224 66.1948 72.1969 65.9484 72.5069C66.0826 72.8129 66.2533 73.1014 66.4568 73.3662C66.4568 73.3662 67.5286 73.198 67.9426 73.629C67.9426 73.629 66.6193 73.4214 66.5721 73.558C66.5721 73.558 67.2482 74.3726 67.809 74.6091C67.2827 74.4216 66.814 74.1001 66.4489 73.6763C66.4142 74.0199 66.4807 74.3661 66.6402 74.6722C66.6402 74.6722 66.069 74.4094 66.2891 73.4766C66.2891 73.4766 65.786 72.8223 65.7833 72.6882C65.7833 72.6882 65.4401 73.5738 65.5213 74.1992C65.5213 74.1992 65.0994 73.5449 65.6943 72.4807L65.3615 71.6923C65.3615 71.6923 64.8374 72.8407 64.8767 73.403C64.8767 73.403 64.5517 72.6699 65.296 71.4847L65.0863 70.6675C64.8121 71.1639 64.6033 71.6939 64.4653 72.2442C64.4653 72.2442 64.3107 71.5005 65.0339 70.4205L64.9605 69.8582C64.9605 69.8582 64.591 70.5624 64.5046 70.7726C64.4181 70.9829 64.3526 70.9802 64.3526 70.9802C64.4132 70.4829 64.611 70.0124 64.9238 69.6217C64.9238 69.6217 64.8426 68.4471 64.7692 68.4471Z" fill="#14213D"/>
<path opacity="0.1" d="M80.6072 100.558C80.6072 100.558 82.2554 106.602 86.1651 104.5C86.3873 104.464 86.5926 104.359 86.7517 104.2C86.9108 104.04 87.0155 103.834 87.0508 103.611C87.0508 103.611 86.7416 103.706 86.6447 103.073C86.6077 102.848 86.5444 102.628 86.456 102.418C86.3398 102.133 86.1324 101.895 85.8664 101.74C85.8664 101.74 84.6164 100.306 81.6737 100.579C81.6737 100.579 80.919 100.303 80.7723 100.374L81.5374 101.228C81.5374 101.228 82.1428 100.642 82.8319 100.702C82.8319 100.702 81.5505 101.175 81.6449 101.357C81.6658 101.394 82.0694 101.793 82.0694 101.793C82.0694 101.793 83.1176 100.776 84.1867 100.91C84.1867 100.91 82.5856 101.267 82.224 101.945L82.8712 102.51C82.8712 102.51 83.9351 101.383 85.151 101.488C85.151 101.488 83.487 101.919 83.0206 102.623L83.7334 103.094C83.7334 103.094 84.7815 102.014 85.8035 102.111C85.8035 102.111 83.9325 102.802 83.9037 103.191C84.1899 103.364 84.4962 103.5 84.8156 103.598C84.8156 103.598 85.6017 102.841 86.1756 102.949C86.1756 102.949 84.9728 103.546 85.0148 103.685C85.0148 103.685 86.0367 103.948 86.6263 103.822C86.0895 103.974 85.5221 103.983 84.9807 103.848C85.1492 104.149 85.4027 104.393 85.7092 104.549C85.7092 104.549 85.0907 104.662 84.7344 103.777C84.7344 103.777 83.9482 103.533 83.8644 103.422C83.8644 103.422 84.095 104.347 84.5195 104.81C84.5195 104.81 83.8015 104.518 83.6731 103.304L82.9472 102.849C82.9472 102.849 83.1857 104.087 83.5316 104.526C83.5316 104.526 82.845 104.116 82.7717 102.718L82.1323 102.171C82.1945 102.738 82.3302 103.295 82.5358 103.827C82.5358 103.827 81.9829 103.301 81.9541 102.008L81.5689 101.591C81.5689 101.591 81.6737 102.379 81.7235 102.602C81.7733 102.826 81.7235 102.865 81.7235 102.865C81.4874 102.424 81.3786 101.925 81.409 101.425C81.409 101.425 80.6674 100.518 80.6072 100.558Z" fill="#14213D"/>
<path opacity="0.1" d="M125.323 105.956C125.323 105.956 126.971 112 130.878 109.897C131.101 109.863 131.307 109.758 131.466 109.599C131.626 109.439 131.731 109.233 131.766 109.009C131.766 109.009 131.454 109.104 131.357 108.484C131.322 108.259 131.26 108.039 131.171 107.829C131.053 107.544 130.845 107.306 130.579 107.151V107.151C130.579 107.151 129.329 105.717 126.386 105.993C126.386 105.993 125.632 105.714 125.488 105.785L126.25 106.639C126.25 106.639 126.855 106.053 127.545 106.113C127.545 106.113 126.263 106.586 126.36 106.768C126.379 106.805 126.785 107.204 126.785 107.204C126.785 107.204 127.833 106.187 128.902 106.321C128.902 106.321 127.298 106.678 126.937 107.356L127.587 107.921C127.587 107.921 128.635 106.794 129.864 106.899C129.864 106.899 128.202 107.33 127.736 108.034L128.449 108.505C128.449 108.505 129.497 107.425 130.516 107.522C130.516 107.522 128.645 108.213 128.619 108.602C128.904 108.775 129.21 108.911 129.528 109.009C129.528 109.009 130.314 108.252 130.888 108.36C130.888 108.36 129.688 108.957 129.727 109.096C129.727 109.096 130.749 109.359 131.342 109.233C130.804 109.385 130.236 109.394 129.693 109.259C129.863 109.559 130.116 109.803 130.422 109.96C130.422 109.96 129.803 110.073 129.447 109.188C129.447 109.188 128.661 108.944 128.58 108.833C128.58 108.833 128.808 109.758 129.232 110.221C129.232 110.221 128.514 109.929 128.386 108.715L127.66 108.255C127.66 108.255 127.898 109.493 128.247 109.932C128.247 109.932 127.56 109.522 127.487 108.124L126.845 107.577C126.907 108.144 127.044 108.701 127.251 109.233C127.251 109.233 126.696 108.707 126.667 107.414L126.282 106.996C126.282 106.996 126.386 107.785 126.436 108.008C126.486 108.231 126.436 108.271 126.436 108.271C126.2 107.829 126.091 107.331 126.122 106.831C126.122 106.831 125.383 105.916 125.323 105.956Z" fill="#14213D"/>
<path d="M108.546 166.651C108.546 166.651 122.141 162.061 119.327 145.795L102.058 141.299L98.0488 154.645L108.546 166.651Z" fill="#CED7E7"/>
<path opacity="0.1" d="M98.0488 154.645L108.544 166.651C108.544 166.651 122.139 162.061 119.324 145.795L98.0488 154.645Z" fill="black"/>
<path d="M40.9235 34.4783C40.9235 34.4783 42.7578 37.4713 45.2655 35.9761C47.7733 34.4809 45.3677 30.3501 45.3677 30.3501C45.3677 30.3501 40.5645 29.6906 40.9235 34.4783Z" fill="#FCA311"/>
<path opacity="0.1" d="M45.2654 35.9765C44.9696 36.1684 44.6378 36.2977 44.2904 36.3565C43.9429 36.4152 43.5872 36.4022 43.245 36.3181C42.3252 36.0843 41.6177 35.3748 41.2377 34.9097C41.1244 34.7734 41.0194 34.6304 40.9233 34.4813C40.7949 32.7733 41.3242 31.7564 42.0579 31.1573C43.0668 30.3348 44.4635 30.3006 45.0662 30.3269C45.2523 30.3269 45.3597 30.3532 45.3597 30.3532L45.4095 30.4373C45.4802 30.5713 45.6348 30.8682 45.7999 31.265C46.3607 32.5657 47.0289 34.9228 45.2654 35.9765Z" fill="black"/>
<path d="M109.883 145.03L119.316 145.795L136.873 145.939L123.04 163.02C123.04 163.02 118.651 163.259 117.747 163.879C116.843 164.499 104.149 164.168 104.149 164.168L102.1 155.412L109.883 145.03Z" fill="#FFA2A2"/>
<path opacity="0.05" d="M109.883 145.03L119.316 145.795L136.873 145.939L123.04 163.02C123.04 163.02 118.651 163.259 117.747 163.879C116.843 164.499 104.149 164.168 104.149 164.168L102.1 155.412L109.883 145.03Z" fill="black"/>
<path d="M100.342 99.1078L102.535 102.839L103.012 109.345C103.012 109.345 104.54 114.893 105.685 116.519C106.83 118.146 107.307 122.453 107.307 122.453C107.307 122.453 107.784 126.47 108.355 127.33C108.926 128.189 109.692 134.425 109.692 134.425C109.692 134.425 114.749 144.565 119.327 145.808C119.327 145.808 96.6208 153.271 108.546 166.664C108.546 166.664 100.056 168.766 98.0515 166.378C96.0469 163.989 90.8008 128.588 90.8008 128.588L92.4228 98.7373L100.342 99.1078Z" fill="#CED7E7"/>
<path opacity="0.05" d="M100.342 99.1078L102.535 102.839L103.012 109.345C103.012 109.345 104.54 114.893 105.685 116.519C106.83 118.146 107.307 122.453 107.307 122.453C107.307 122.453 107.784 126.47 108.355 127.33C108.926 128.189 109.692 134.425 109.692 134.425C109.692 134.425 114.749 144.565 119.327 145.808C119.327 145.808 96.6208 153.271 108.546 166.664C108.546 166.664 100.056 168.766 98.0515 166.378C96.0469 163.989 90.8008 128.588 90.8008 128.588L92.4228 98.7373L100.342 99.1078Z" fill="black"/>
<path d="M72.7933 62.742C72.1561 66.0565 72.3451 69.4775 73.3435 72.7011L69.8112 82.8416C69.8112 82.8416 42.9072 67.8214 45.1974 64.1847C46.4945 62.1219 46.6596 56.6641 46.5548 52.3283C46.4788 49.0332 46.2456 46.3896 46.2456 46.3896C46.2456 46.3896 79.2631 49.6454 74.8686 57.2028C73.8742 58.9205 73.1727 60.7926 72.7933 62.742V62.742Z" fill="#FFA2A2"/>
<path opacity="0.1" d="M74.8684 57.2028C73.8739 58.9205 73.1725 60.7926 72.793 62.742C67.8931 64.3139 62.6016 64.1355 57.8181 62.237C53.0346 60.3385 49.0545 56.8371 46.5546 52.3283C46.4786 49.0332 46.2454 46.3896 46.2454 46.3896C46.2454 46.3896 79.255 49.6454 74.8684 57.2028Z" fill="black"/>
<path d="M88.2248 40.937C88.2271 44.4447 87.4039 47.9034 85.8223 51.032C84.2406 54.1607 81.9451 56.8709 79.1223 58.9424C76.2994 61.0139 73.029 62.3882 69.5768 62.9536C66.1246 63.5191 62.5881 63.2597 59.2547 62.1965C55.9212 61.1333 52.8851 59.2964 50.3929 56.8351C47.9007 54.3737 46.0229 51.3574 44.912 48.0313C43.8012 44.7051 43.4887 41.1631 44 37.6931C44.5112 34.2231 45.8318 30.923 47.8544 28.0611C48.1688 27.6179 48.4999 27.1852 48.8475 26.763C50.8284 24.3487 53.2934 22.3791 56.0825 20.982V20.982C57.5957 20.2228 59.1918 19.6426 60.8386 19.2529C63.8122 18.5465 66.8989 18.4613 69.9067 19.0024C72.9145 19.5436 75.7791 20.6996 78.3223 22.3985C80.8655 24.0975 83.0328 26.303 84.6895 28.8779C86.3462 31.4529 87.4569 34.3421 87.9523 37.3659C88.1374 38.5472 88.2285 39.7413 88.2248 40.937Z" fill="#FFA2A2"/>
<path d="M97.0007 132.596C96.6679 134.377 97.0845 137.633 97.7161 140.946C97.7423 141.091 97.7711 141.236 97.7999 141.38C97.8287 141.525 97.8707 141.748 97.9074 141.929C98.1982 143.353 98.5153 144.765 98.8245 146.047C99.1337 147.329 99.4115 148.428 99.6473 149.332C100.004 150.685 100.247 151.536 100.247 151.536C100.247 151.536 100.279 152.372 100.321 153.702C100.344 154.469 100.371 155.404 100.397 156.437C100.397 156.737 100.415 157.041 100.423 157.357C100.436 157.906 100.449 158.476 100.462 159.059C100.462 159.249 100.462 159.438 100.475 159.63C100.475 160.258 100.499 160.899 100.509 161.537C100.523 162.415 100.533 163.293 100.538 164.144C100.538 164.47 100.538 164.791 100.538 165.106C100.538 165.92 100.538 166.701 100.538 167.418C100.509 169.455 100.428 170.992 100.255 171.436C100.195 171.589 100.14 171.754 100.088 171.927C99.8603 172.743 99.6956 173.575 99.5949 174.416L99.1494 174.051C98.2978 173.346 97.454 172.626 96.5971 171.927C95.1729 170.731 93.661 169.644 92.0743 168.674C91.9668 168.611 91.8594 168.548 91.7493 168.488C91.4558 168.317 91.1571 168.157 90.8531 168.004C90.2269 167.688 89.585 167.404 88.9297 167.153C85.9031 165.997 82.6616 165.576 79.3756 165.647C78.0654 166.149 77.2138 166.509 77.2138 166.509L75.5472 167.014L75.2694 167.098C73.4639 167.65 70.9247 168.433 70.0102 168.758C68.5322 169.284 55.7 171.962 55.7 171.962C54.5276 172.283 53.3301 172.502 52.1204 172.619C49.9178 173.24 47.6757 173.71 45.4095 174.027C40.2597 174.687 35.0292 174.265 30.0511 172.787C29.9025 172.796 29.7535 172.791 29.6056 172.774C29.6974 172.774 29.7865 172.753 29.8677 172.737L29.548 172.642L29.1104 172.506C28.3767 172.274 27.6491 172.021 26.9276 171.746L26.4899 171.578C25.7912 171.308 25.1072 171.018 24.4381 170.708L24.0005 170.508C23.3017 170.183 22.6178 169.838 21.9487 169.476C21.7076 169.35 21.4692 169.213 21.2333 169.084C20.5206 168.685 19.8218 168.266 19.137 167.828C19.0217 166.838 18.9614 166.175 18.9614 166.175L17.9395 161.072L17.887 160.81L17.1533 157.131L17.1009 156.868L15.5051 148.864L15.4527 148.601L14.7189 144.922L14.6665 144.659L13.0497 136.661L12.9973 136.398L12.2636 132.719L12.2112 132.456L10.6075 124.442L10.5551 124.179L9.82134 120.513L9.76893 120.25L9.47806 118.805L9.04045 116.616C9.04045 116.616 7.64376 114.614 6.07149 112.246L5.89593 111.984C5.44783 111.319 4.98663 110.628 4.53854 109.95C4.38917 109.726 4.24505 109.506 4.10093 109.288C3.88256 108.956 3.67117 108.633 3.46678 108.318L3.32528 108.1L3.29645 108.055C1.03763 104.55 2.54963 103.026 2.54963 103.026C2.54963 103.026 3.49822 101.738 4.72197 100.035C4.78224 99.9486 4.84513 99.8619 4.91064 99.7725C5.43473 99.0368 6.01122 98.2327 6.57724 97.4286L7.01485 96.8032C7.17994 96.5693 7.34241 96.3355 7.49963 96.1042C7.56252 96.0175 7.62279 95.9282 7.68044 95.8414C8.88847 94.0914 9.88423 92.5647 10.0886 92.0233C10.4083 91.1693 12.447 88.6441 14.4779 86.4289C16.0789 84.6788 17.6722 83.1232 18.3876 82.7501C20.0096 81.8908 20.6778 79.1133 20.6778 79.1133C20.6778 79.1133 24.2075 77.873 24.6845 76.9165C25.1614 75.96 31.8409 71.661 31.8409 71.661C31.8409 71.661 34.5426 69.9162 35.6353 68.8651C35.79 68.7277 35.9249 68.5694 36.0362 68.3948C36.4162 67.7116 38.8977 67.1492 39.9066 66.9469C40.1686 66.8943 40.3311 66.8654 40.3311 66.8654C40.7384 66.1233 41.2532 65.4458 41.8588 64.8552C42.2702 64.4899 42.7838 63.2313 43.2162 62.012C43.6853 60.6824 44.0495 59.4027 44.0495 59.4027C44.8147 56.8196 46.3398 57.5843 46.3398 57.5843C46.3377 57.9371 46.371 58.2892 46.4393 58.6354C47.0761 61.7886 50.5351 63.1025 52.351 64.5767C54.3557 66.2006 57.5028 70.4129 59.9844 71.2721C62.0388 71.9842 64.4208 74.6698 65.1755 75.5658L65.2331 75.6342C65.3589 75.7813 65.4218 75.8654 65.4218 75.8654C65.4218 75.8654 66.829 75.7918 67.6858 75.7761H67.9977C68.172 75.7585 68.3376 75.691 68.4746 75.5816C69.3262 75.0009 70.5945 73.2981 71.1474 72.9066C71.813 72.4257 72.4839 64.6765 72.4839 64.6765L72.5179 64.6608C74.8947 63.544 77.4444 74.7223 77.4444 74.7223C77.4444 74.7223 81.9279 76.0625 82.3105 77.019C82.3839 77.2082 82.7219 77.5445 83.2303 77.9518C85.545 79.7257 88.0087 81.2951 90.5937 82.6423C90.6514 82.6712 90.7064 82.7001 90.764 82.7238C90.816 82.7519 90.8694 82.7773 90.9239 82.8C91.0208 82.8473 91.1152 82.8893 91.2043 82.9288C91.3458 82.9918 91.4768 83.0444 91.5973 83.0864L91.7546 83.1416C92.1301 83.2669 92.4838 83.4504 92.8027 83.6855C92.8971 83.7539 92.9914 83.8248 93.0831 83.901C93.44 84.1988 93.7681 84.5296 94.0632 84.8891C94.1077 84.9416 94.1496 84.9968 94.1916 85.0493C94.3907 85.299 94.5689 85.546 94.7157 85.7746C94.9565 86.1273 95.1761 86.4941 95.3734 86.873C95.3734 86.873 99.2831 93.5711 100.525 94.3331C101.767 95.0952 102.53 102.85 102.53 102.85L98.3371 118.435C98.3371 118.435 98.1406 122.376 97.7737 126.397C97.5693 128.651 97.3099 130.945 97.0007 132.596Z" fill="#CED7E7"/>
<path d="M65.4219 76.3383C65.4219 76.3383 62.6102 77.8676 60.4143 78.0121C60.1268 78.0256 59.8388 78.0088 59.5548 77.9622C57.254 77.6127 53.8789 75.7155 53.8789 75.7155L57.8384 71.3613L62.6547 73.7552L64.4262 75.408L65.4219 76.3383Z" fill="#63667E"/>
<path opacity="0.1" d="M87.9419 37.3665C87.8423 37.5078 87.729 37.6389 87.6039 37.758C86.2255 39.0719 83.778 38.528 81.8992 38.2232C80.2665 37.9555 78.6716 37.4932 77.1483 36.8462C75.8224 36.2786 74.2318 35.5849 73.0395 36.3995C72.5809 36.7096 72.2664 37.2062 71.7895 37.4795C71.3126 37.7528 70.7047 37.7712 70.1413 37.7791C68.307 37.7791 66.4726 37.8001 64.6829 37.3849C62.0127 36.7595 59.2507 35.1855 56.7115 36.2234C54.7252 37.0328 53.6482 39.2007 53.111 41.2845C52.849 42.3067 52.6551 43.3866 52.0629 44.2538C51.4706 45.121 50.3255 45.7358 49.3507 45.3285C47.9121 44.7268 47.6998 42.2777 45.9651 42.1542C44.06 42.0202 44.0836 43.9937 44.6392 45.4205C45.462 47.5227 46.539 49.6249 46.5861 51.8164C44.5387 48.1391 43.5713 43.9557 43.7957 39.75C44.0202 35.5444 45.4273 31.4884 47.8544 28.0512C48.2768 27.7889 48.6074 27.4014 48.8004 26.9423C48.8198 26.8802 48.8356 26.817 48.8476 26.7531C48.9917 26.02 48.5855 25.25 48.562 24.4827C48.4702 22.6092 50.4932 21.3032 52.3485 21.0667C53.5827 20.909 54.8458 21.0299 56.0826 20.9905C56.7056 20.9767 57.3252 20.8939 57.93 20.7435C58.9735 20.4299 59.9505 19.9267 60.8125 19.2588C63.786 18.5524 66.8727 18.4671 69.8806 19.0083C72.8884 19.5494 75.753 20.7054 78.2962 22.4044C80.8393 24.1033 83.0067 26.3088 84.6634 28.8838C86.3201 31.4587 87.4307 34.348 87.9262 37.3718L87.9419 37.3665Z" fill="black"/>
<path d="M88.39 35.8183C88.2594 36.3381 87.9872 36.8112 87.6039 37.1847C86.2255 38.4986 83.7781 37.952 81.8992 37.6472C80.2665 37.3854 78.6713 36.9266 77.1483 36.2808C75.8224 35.7158 74.2318 35.0221 73.0395 35.8367C72.5809 36.1468 72.2665 36.6434 71.7896 36.9167C71.3126 37.19 70.7047 37.2084 70.1413 37.2137C68.307 37.2268 66.4727 37.2373 64.6829 36.8221C62.0127 36.1941 59.2508 34.6227 56.7116 35.658C54.7253 36.4674 53.6483 38.6379 53.1111 40.7217C52.849 41.7439 52.6551 42.8239 52.0629 43.6884C51.4707 44.5529 50.3255 45.1731 49.3507 44.7658C47.9121 44.164 47.6999 41.715 45.9651 41.5915C44.0601 41.4574 44.0837 43.4309 44.6392 44.8577C45.614 47.3462 46.9399 49.8215 46.505 52.4598C46.0726 52.4598 45.3572 52.444 44.9327 52.4335C45.2629 51.8685 44.634 51.1958 44.0077 51.004C43.3814 50.8122 42.6503 50.8148 42.1734 50.3576C41.6964 49.9003 41.6938 49.1935 41.7436 48.5602C41.8523 47.2067 42.1825 45.8803 42.721 44.6344C43.0643 43.846 43.5072 42.992 43.2451 42.1669C43.0878 41.7929 42.8985 41.4333 42.6791 41.0922C42.1341 40.0411 42.2625 38.7272 42.7289 37.642C42.9281 37.1795 43.0722 36.7433 43.2373 36.3281C43.4457 35.7379 43.7475 35.1852 44.1308 34.691C44.7309 33.9421 45.3179 32.8148 44.6549 32.1185C44.4872 31.9424 44.8226 31.8215 44.7152 31.5929C44.6962 31.5539 44.683 31.5123 44.6759 31.4694C44.6451 31.1926 44.7118 30.9137 44.8646 30.6811C44.8955 30.6207 44.9296 30.5619 44.9668 30.5051C44.9969 30.445 45.031 30.3871 45.069 30.3316C45.6492 29.3601 46.4204 28.517 47.3356 27.8537C47.9043 27.4411 48.5699 27.0443 48.7952 26.3769C49.0573 25.5886 48.5961 24.7503 48.5568 23.9173C48.465 22.0437 50.488 20.7378 52.3433 20.5013C54.1986 20.2648 56.122 20.6563 57.9301 20.1754C60.4955 19.4975 62.2983 17.2271 64.6279 15.9527C65.9023 15.2693 67.3156 14.8871 68.7598 14.8352C70.204 14.7833 71.641 15.063 72.9609 15.6531C75.6809 16.8986 77.7327 19.416 80.5733 20.362C81.5795 20.6983 82.6696 20.8324 83.5763 21.3894C84.6245 22.0359 85.2612 23.1658 85.8063 24.2799C86.637 25.9696 86.8047 27.6671 87.3785 29.4566C87.8345 30.8756 88.466 32.7307 88.5184 34.3652C88.5479 34.8533 88.5046 35.343 88.39 35.8183V35.8183Z" fill="#896363"/>
<g opacity="0.1">
<path d="M44.9955 32.5267C45.0375 32.3585 45.0416 32.1831 45.0076 32.0131C44.9736 31.8432 44.9024 31.6829 44.799 31.5439C44.8671 31.7489 44.571 31.8672 44.7335 32.038C44.8629 32.1744 44.9534 32.3432 44.9955 32.5267Z" fill="black"/>
<path d="M44.7913 30.9424C44.7603 31.0341 44.7417 31.1295 44.7361 31.2262C44.786 31.1421 44.8544 31.0554 44.7913 30.9424Z" fill="black"/>
<path d="M87.6774 36.5442C86.2964 37.8581 83.8515 37.3141 81.9674 37.0067C80.3358 36.7433 78.7422 36.2818 77.2218 35.6324C75.8932 35.0648 74.3053 34.3711 73.1103 35.1857C72.6544 35.4958 72.3399 35.9924 71.8604 36.2657C71.3808 36.539 70.7755 36.5574 70.2121 36.5626C68.3778 36.5626 66.5435 36.5863 64.7511 36.1685C62.0835 35.5431 59.3216 33.9743 56.7824 35.007C54.7961 35.819 53.7191 37.9869 53.1819 40.0706C52.9199 41.0928 52.7286 42.1728 52.1337 43.04C51.5389 43.9071 50.3938 44.522 49.4216 44.1174C47.983 43.513 47.7707 41.0666 46.036 40.9431C44.6812 40.8458 44.3039 41.8181 44.3956 42.8981C44.4742 42.073 44.9197 41.4371 46.036 41.5159C47.7707 41.6394 47.983 44.0884 49.4216 44.6902C50.3938 45.0975 51.5415 44.4852 52.1337 43.6128C52.7259 42.7404 52.9199 41.6657 53.1819 40.6461C53.7191 38.5623 54.7961 36.3918 56.7824 35.5825C59.3216 34.5471 62.0835 36.108 64.7511 36.7439C66.533 37.1617 68.3831 37.1486 70.2121 37.1355C70.7755 37.1355 71.3704 37.1197 71.8604 36.8412C72.3504 36.5626 72.6465 36.0712 73.1103 35.7585C74.3053 34.9466 75.8932 35.6403 77.2218 36.2052C78.7426 36.8543 80.336 37.3166 81.9674 37.5822C83.8515 37.887 86.2964 38.4362 87.6774 37.1171C88.4268 36.3997 88.6522 35.3617 88.6024 34.2266C88.5604 35.1279 88.2984 35.9451 87.6774 36.5442Z" fill="black"/>
<path d="M48.6486 23.4424C48.6341 23.5732 48.6289 23.7049 48.6329 23.8365C48.6591 24.3831 48.8661 24.9297 48.9316 25.4631C49.0286 24.8088 48.7272 24.1256 48.6486 23.4424Z" fill="black"/>
<path d="M43.3238 42.0859C43.3454 42.1645 43.3621 42.2443 43.3736 42.325C43.4161 42.0539 43.3991 41.7769 43.3238 41.513C43.1676 41.1377 42.9782 40.7771 42.7578 40.4357C42.5609 40.047 42.4442 39.6225 42.4145 39.1875C42.3612 39.8154 42.4799 40.4459 42.7578 41.0111C42.9787 41.3514 43.1681 41.7111 43.3238 42.0859Z" fill="black"/>
<path d="M46.5757 51.8033L45.0428 51.7796C45.0785 51.8725 45.0929 51.9723 45.0847 52.0715C45.0765 52.1707 45.0461 52.2667 44.9956 52.3525C45.428 52.3525 46.146 52.3682 46.5679 52.3787C46.6412 51.929 46.6666 51.4727 46.6439 51.0176C46.6379 51.2807 46.6152 51.5431 46.5757 51.8033Z" fill="black"/>
<path d="M44.068 50.3504C43.4417 50.1612 42.7132 50.1585 42.2468 49.6987C41.9722 49.3975 41.8174 49.0057 41.8118 48.5977C41.7725 49.202 41.8118 49.8537 42.2468 50.2742C42.7132 50.734 43.4417 50.7366 44.068 50.9258C44.2718 50.9853 44.4612 51.0859 44.6248 51.2214C44.7884 51.357 44.9226 51.5247 45.0192 51.7142C45.2839 51.1702 44.6759 50.5317 44.068 50.3504Z" fill="black"/>
</g>
<path opacity="0.1" d="M91.7416 168.487C91.4481 168.317 91.1494 168.156 90.8455 168.004C90.2192 167.687 89.5773 167.403 88.9221 167.153C85.8954 165.996 82.654 165.576 79.3679 165.647C78.0577 166.149 77.2061 166.509 77.2061 166.509L75.5395 167.013L75.2617 167.097C75.2434 166.913 75.2224 166.729 75.2041 166.543C75.1857 166.356 75.1648 166.178 75.1438 165.994C74.5568 160.42 74.0956 154.694 74.0956 154.694V149.749V149.174L74.0642 134.603L73.8021 129.799L73.679 127.673L73.6554 127.269L73.6082 126.438L73.582 125.944C73.5242 125.788 73.4752 125.628 73.4353 125.466C73.4169 125.401 73.3986 125.327 73.3829 125.251C73.3173 124.988 73.2466 124.649 73.1732 124.281C72.6937 121.864 72.0936 117.788 72.0569 116.96C72.0097 115.857 71.0559 109.256 71.0559 109.256C70.9589 105.622 67.9114 98.7789 67.1436 97.4887C66.3758 96.1985 65.5189 88.4467 65.8072 88.0289C65.9565 87.8055 66.0535 86.4838 66.1138 85.2645C66.1138 85.1252 66.1269 84.9886 66.1321 84.8546C66.1714 83.9007 66.1898 83.1045 66.1898 83.1045L69.1875 82.5106L69.992 82.353L70.0549 82.3398L70.0811 82.3924C70.1676 82.5527 70.4375 83.0651 70.7546 83.7378C70.7912 83.8087 70.8253 83.885 70.862 83.9612C70.8777 83.9979 70.8961 84.0347 70.9144 84.0715C71.5014 85.3591 72.1801 87.054 72.1513 88.0289C72.1041 89.7527 74.0615 93.915 74.0615 93.915C74.2502 94.8715 78.401 104.389 78.401 104.389C78.401 104.389 81.7892 113.718 81.5979 115.25C81.4066 116.782 83.22 126.922 83.22 126.922L85.0805 137.351C85.9845 139.406 87.1768 144.141 87.1768 144.141L87.6302 146.827L87.7166 147.339L88.9247 154.505L89.5169 158.016C89.5169 158.016 89.7658 159.882 90.1432 161.958C90.1746 162.144 90.2113 162.333 90.248 162.522C90.4805 163.889 90.8106 165.237 91.2359 166.556C91.4468 167.188 91.6157 167.833 91.7416 168.487V168.487Z" fill="black"/>
<path d="M92.0664 168.674C91.9589 168.611 91.8515 168.548 91.7414 168.488C91.4479 168.317 91.1492 168.157 90.8452 168.004C90.219 167.688 89.577 167.404 88.9218 167.153C85.8952 165.997 82.6537 165.576 79.3677 165.647C78.0575 166.149 77.2058 166.509 77.2058 166.509L75.5393 167.014C75.5183 166.83 75.4999 166.646 75.479 166.459C75.458 166.273 75.4423 166.123 75.4266 165.955C74.8396 160.394 74.3784 154.695 74.3784 154.695V149.702V149.127L74.3469 134.593L74.0849 130.005L74.0325 129.053L73.9958 128.41L73.9486 127.558L73.9015 126.694L73.8674 126.071V125.934C73.8674 125.921 73.8674 125.905 73.8491 125.89C73.7993 125.748 73.739 125.532 73.6735 125.259L73.642 125.128C73.6289 125.067 73.6132 125.001 73.6001 124.936C73.1075 122.694 72.3842 117.862 72.3449 116.955C72.2978 115.852 71.3439 109.251 71.3439 109.251C71.247 105.617 68.1994 98.7741 67.4316 97.4838C66.6638 96.1936 65.8096 88.4418 66.0952 88.024C66.2603 87.7612 66.3572 86.1662 66.4201 84.8497C66.4201 84.7446 66.4201 84.6421 66.4201 84.5449C66.4542 83.7329 66.4673 83.0996 66.4673 83.0996L69.2554 82.5478L69.963 82.4085L70.073 82.3875L70.3351 82.335C70.3351 82.335 70.6783 82.9709 71.0897 83.8459L71.1422 83.9563C71.7422 85.2544 72.4524 87.0202 72.4314 88.024C72.3842 89.7478 74.3417 93.9101 74.3417 93.9101C74.5304 94.8666 78.6812 104.384 78.6812 104.384C78.6812 104.384 82.0694 113.713 81.8781 115.245C81.6868 116.777 83.5001 126.917 83.5001 126.917L85.3606 137.347C86.2647 139.401 87.457 144.137 87.457 144.137L87.8789 146.638L87.9654 147.145L88.9166 152.8L89.7944 158.011C89.7944 158.011 90.0565 159.869 90.4181 161.953C90.4522 162.142 90.4862 162.331 90.5229 162.523C90.755 163.895 91.0852 165.25 91.5108 166.575C91.7431 167.261 91.9287 167.963 92.0664 168.674V168.674Z" fill="#63667E"/>
<path d="M89.7028 33.7165C89.7028 33.7165 88.7018 35.0094 87.7978 35.0094C86.8937 35.0094 83.3745 34.8649 81.5402 34.292C79.7059 33.7192 70.7125 33.2856 70.7125 33.2856C70.7125 33.2856 57.9772 33.3329 57.5474 32.9019C57.1177 32.471 49.6285 30.1744 48.8659 30.3189C48.7061 30.3504 48.3156 30.4187 47.7942 30.5054L47.1967 30.6027C46.2927 30.7472 45.1632 30.9154 44.1308 31.0389C42.8546 31.1887 41.7331 31.2649 41.3767 31.1335V30.0325C41.3767 30.0325 42.8546 27.8777 42.949 27.2602C43.0433 26.6427 44.2854 17.69 47.5295 14.4868C48.8697 11.9177 51.0386 9.87984 53.6823 8.70577C58.0715 6.79015 62.4608 5.16621 62.4608 5.16621L63.2285 5.05585L65.7049 4.68797C65.7801 4.61282 65.8617 4.54425 65.9486 4.483C66.6351 3.95746 68.7157 2.81439 71.4279 5.27132L71.9074 6.03862C71.9074 6.03862 80.2535 7.99891 84.116 14.8389C87.9786 21.6789 88.1725 28.377 88.4581 31.4383C88.4581 31.4383 88.2668 32.3002 88.6494 32.6339C88.7879 32.7566 88.92 32.8864 89.0451 33.0228C89.0792 33.057 89.1132 33.0911 89.1447 33.1279C89.2547 33.2383 89.3569 33.3539 89.4408 33.4485C89.4508 33.4559 89.4596 33.4648 89.467 33.4748C89.4874 33.4997 89.5093 33.5234 89.5325 33.5457L89.7028 33.7165Z" fill="#FCA311"/>
<path opacity="0.05" d="M89.7028 33.7162C89.7028 33.7162 88.7018 35.009 87.7977 35.009C86.8937 35.009 83.3744 34.8645 81.5401 34.2916C79.7058 33.7188 70.7124 33.2852 70.7124 33.2852C70.7124 33.2852 57.9771 33.3325 57.5474 32.9016C57.1176 32.4706 49.6284 30.174 48.8659 30.3185C48.706 30.35 48.3156 30.4183 47.7941 30.5051L47.6578 29.6642L47.6238 29.4566C47.6238 29.4566 62.0781 26.348 71.7135 27.9772C81.3488 29.6064 88.4581 31.4195 88.4581 31.4195C88.4581 31.4195 88.2668 32.2814 88.6493 32.6151C88.7879 32.7378 88.9199 32.8676 89.045 33.004C89.0791 33.0382 89.1132 33.0724 89.1446 33.1091C89.2547 33.2195 89.3569 33.3351 89.4407 33.4297C89.4507 33.4371 89.4596 33.446 89.4669 33.456C89.4874 33.4809 89.5093 33.5045 89.5324 33.527L89.7028 33.7162Z" fill="black"/>
<path opacity="0.1" d="M88.3899 35.819C86.6054 35.9583 83.3168 35.5221 81.8781 35.3093C81.4693 35.2488 81.0684 35.1753 80.6649 35.0859C79.1214 34.7496 74.3758 33.8062 71.4933 34.2424C68.0108 34.768 58.1841 33.8115 58.1841 33.8115C58.1841 33.8115 52.1257 32.5685 49.6913 31.5647C48.7977 31.1942 47.3041 31.0786 45.8183 31.2626C45.4394 31.3099 45.0633 31.3775 44.6915 31.4649C42.6633 31.9458 40.9521 33.0415 41.2483 34.9099C41.1349 34.7736 41.0299 34.6305 40.9338 34.4815C40.8054 32.7735 41.3347 31.7566 42.0684 31.1574L42.2414 31.0865C43.1377 30.8311 44.0499 30.6354 44.9719 30.5005C45.116 30.4769 45.2654 30.4558 45.4174 30.4374C48.0247 30.0853 51.7955 30.0065 54.9767 31.612C54.9767 31.612 57.9326 33.0021 59.9372 33.0021C61.9418 33.0021 78.2541 33.1466 82.072 34.245C82.8321 34.4652 83.6072 34.6295 84.3911 34.7364C85.7831 34.9164 87.1976 34.7826 88.5314 34.3449C88.5587 34.8406 88.511 35.3376 88.3899 35.819V35.819Z" fill="black"/>
<path opacity="0.1" d="M89.7028 33.7163C89.7028 33.7163 88.7018 35.0092 87.7978 35.0092C86.8937 35.0092 83.3745 34.8647 81.5402 34.2918C79.7059 33.719 70.7125 33.2854 70.7125 33.2854C70.7125 33.2854 57.9772 33.3327 57.5474 32.9017C57.1177 32.4708 49.6285 30.1742 48.8659 30.3187C48.7061 30.3502 48.3156 30.4185 47.7942 30.5052L47.1967 30.6025C46.159 30.5972 45.1261 30.7441 44.1308 31.0387C42.8546 31.1885 41.7331 31.2647 41.3767 31.1333V30.9152C41.6515 30.7553 41.9379 30.6165 42.2336 30.5C44.0019 30.0034 45.8228 29.7194 47.6579 29.6539C49.9455 29.5698 52.621 29.8378 54.9715 31.0255C54.9715 31.0255 57.9274 32.4156 59.932 32.4156C61.9367 32.4156 78.2489 32.5575 82.0669 33.6585C82.8273 33.8767 83.6023 34.04 84.386 34.1473C86.1055 34.3646 87.8517 34.1131 89.4408 33.4194C89.4508 33.4268 89.4596 33.4356 89.467 33.4457C89.4875 33.4705 89.5094 33.4942 89.5325 33.5166L89.7028 33.7163Z" fill="black"/>
<path d="M41.2851 34.8645C41.2851 34.8645 38.0881 32.4234 42.2389 30.7968C42.2389 30.7968 49.4896 28.5501 54.9768 31.3224C54.9768 31.3224 57.9327 32.7072 59.9373 32.7072C61.942 32.7072 78.2542 32.8517 82.0722 33.9527C82.8325 34.1711 83.6075 34.3345 84.3913 34.4415C86.4225 34.6884 88.4801 34.2964 90.2794 33.3194C90.5414 33.1749 90.7773 33.1013 90.848 33.1854C91.0865 33.4745 90.8978 35.1483 88.7988 35.4821C87.1611 35.7448 83.44 35.2482 81.8756 35.0196C81.4695 34.9591 81.0659 34.8829 80.665 34.7962C79.1215 34.4599 74.3759 33.5165 71.4804 33.9527C68.0004 34.4783 58.1712 33.5218 58.1712 33.5218C58.1712 33.5218 52.1153 32.2788 49.6809 31.2724C47.2465 30.266 40.3784 31.1332 41.2851 34.8645Z" fill="#FCA311"/>
<path opacity="0.1" d="M68.2363 9.21511C67.9743 8.83672 64.607 6.13278 63.2339 5.03964L65.7102 4.67176C65.7855 4.59662 65.867 4.52805 65.9539 4.4668C67.7541 6.36139 68.2363 9.21511 68.2363 9.21511Z" fill="black"/>
<path opacity="0.1" d="M57.3143 23.7175L56.2163 25.3441L60.4143 25.2022L60.5086 23.3838L57.3143 23.7175Z" fill="black"/>
<path opacity="0.1" d="M82.929 25.6807L83.4059 27.1627L86.0787 27.5937L84.9336 25.8226L82.929 25.6807Z" fill="black"/>
<path opacity="0.1" d="M37.0398 75.4346C37.3254 75.9128 46.7223 88.3105 49.2039 87.9662C51.6854 87.622 37.0398 75.4346 37.0398 75.4346Z" fill="black"/>
<path opacity="0.1" d="M68.5244 86.7646C68.5244 86.7646 70.8147 88.9667 70.4793 89.826C70.1439 90.6852 68.5244 86.7646 68.5244 86.7646Z" fill="black"/>
<path opacity="0.1" d="M43.528 101.883C43.528 101.883 41.5234 111.306 42.5742 111.605C43.625 111.905 43.528 101.883 43.528 101.883Z" fill="black"/>
<path opacity="0.1" d="M69.2871 138.477C69.6199 139.433 72.3871 145.653 73.0081 145.987C73.6292 146.32 69.2871 138.477 69.2871 138.477Z" fill="black"/>
<path opacity="0.1" d="M101.44 112.932C101.343 113.265 98.9583 115.228 99.4824 115.946C100.006 116.663 101.44 112.932 101.44 112.932Z" fill="black"/>
<path opacity="0.1" d="M82.929 130.391C82.8818 130.632 82.4049 135.646 83.3116 136.61C84.2182 137.575 82.929 130.391 82.929 130.391Z" fill="black"/>
<path opacity="0.1" d="M107.373 156.437C106.681 156.823 105.965 157.196 105.237 157.553C104.451 157.937 103.665 158.302 102.863 158.647C102.543 158.786 102.223 158.922 101.906 159.054C101.424 159.254 100.947 159.445 100.476 159.629C99.0422 160.192 97.6612 160.68 96.4322 161.093C95.9553 161.253 95.4993 161.4 95.0748 161.537C92.9366 162.218 91.5163 162.588 91.5163 162.588C91.1918 162.518 90.8598 162.491 90.5284 162.507C90.4367 162.507 90.3423 162.507 90.2454 162.507C89.8016 162.539 89.3598 162.595 88.922 162.675C85.995 163.2 81.86 164.675 79.3679 165.639C78.0577 166.141 77.2061 166.501 77.2061 166.501L75.5395 167.005L75.2617 167.089C73.4562 167.641 70.917 168.424 70.0025 168.75C68.5246 169.276 55.6923 171.953 55.6923 171.953C54.5199 172.274 53.3224 172.494 52.1128 172.61C49.1319 172.885 46.1358 172.953 43.1456 172.815C40.1426 173.01 35.2843 172.348 32.4569 171.901L32.0061 171.83C30.9134 171.651 30.219 171.522 30.219 171.522L30.5859 171.015L38.1091 160.607L38.1537 160.544L45.1634 150.85L45.4254 150.498L46.0622 149.618C46.0622 149.618 46.4447 149.092 47.9174 149.058C48.0904 149.058 48.2791 149.058 48.4861 149.058C49.7231 149.158 50.9435 149.407 52.1206 149.802L52.4613 149.904C57.5371 151.362 65.3826 150.997 65.3826 150.997C65.3826 150.997 70.2645 150.209 74.1008 149.736L74.3865 149.699C75.6401 149.521 76.9024 149.412 78.1678 149.371C80.5052 149.418 85.5626 148.175 85.5626 148.175C86.6501 147.941 87.1087 147.744 87.7219 147.305C87.8031 147.247 87.8896 147.184 87.9839 147.116C88.246 146.919 88.5473 146.677 88.9351 146.378C89.6427 145.834 90.6358 145.095 92.1976 144.06C92.3339 143.971 92.478 143.881 92.6326 143.797C92.7872 143.713 92.9837 143.6 93.1724 143.506C94.6849 142.787 96.2795 142.258 97.9206 141.929C99.2819 141.635 100.663 141.445 102.053 141.359H102.26C106.191 141.148 110.205 141.824 112.553 144.039C112.964 144.428 113.321 144.87 113.617 145.353C113.761 145.582 113.888 145.821 114 146.068C114.214 146.538 114.373 147.032 114.474 147.539C114.493 147.634 114.509 147.728 114.521 147.823C114.521 147.852 114.521 147.878 114.521 147.907C114.521 147.983 114.537 148.059 114.542 148.136C114.752 151.281 111.497 154.124 107.373 156.437Z" fill="black"/>
<path d="M30.219 170.958C30.219 170.958 38.7092 172.535 43.1456 172.248C43.1456 172.248 51.303 172.679 55.6923 171.389C55.6923 171.389 68.5324 168.709 70.0025 168.183C71.4725 167.658 77.2061 165.934 77.2061 165.934C77.2061 165.934 88.3691 161.246 91.5163 162.011C91.5163 162.011 116.227 155.602 114.461 146.943C112.695 138.285 97.0978 140.248 92.1871 143.498C87.2764 146.749 87.9944 147.088 85.5574 147.613C85.5574 147.613 80.5 148.856 78.1625 148.809C75.8251 148.762 65.3774 150.435 65.3774 150.435C65.3774 150.435 57.1728 150.819 52.118 149.24C47.0632 147.661 46.0595 149.048 46.0595 149.048L30.219 170.958Z" fill="#FFA2A2"/>
<path opacity="0.1" d="M48.6302 148.485C48.6315 148.496 48.6315 148.507 48.6302 148.517C48.6119 148.712 48.5614 148.903 48.4808 149.082C47.4746 151.557 41.762 158.234 41.762 158.234C41.5016 159.028 41.1873 159.802 40.8213 160.552C40.0341 162.155 39.1275 163.697 38.1091 165.164C36.5996 167.358 34.9514 169.453 33.1748 171.436H33.1617C32.9357 171.604 32.7003 171.76 32.4568 171.901C31.841 172.269 30.916 172.724 30.0434 172.779C29.8948 172.788 29.7458 172.783 29.5979 172.766C29.6897 172.766 29.7788 172.745 29.86 172.729L29.5403 172.634L29.1027 172.498C28.369 172.266 27.6414 172.013 26.9199 171.738L26.4822 171.57C25.7835 171.3 25.0995 171.01 24.4304 170.7L23.9928 170.501C23.294 170.175 22.6101 169.831 21.941 169.468C21.6999 169.342 21.4615 169.205 21.2257 169.076C20.5129 168.677 19.8141 168.258 19.1293 167.82C18.4026 167.356 17.6916 166.872 16.9963 166.367C16.4722 165.392 16.0398 164.528 15.804 164.063C15.3742 163.198 15.3375 161.96 15.3899 161.064C15.3899 160.972 15.3899 160.886 15.4057 160.802C15.4502 160.239 15.5183 159.853 15.5183 159.853C15.1301 159.332 14.7797 158.784 14.4702 158.213C14.2923 157.93 14.1911 157.605 14.1767 157.27C14.1885 157.136 14.1761 157 14.14 156.871C13.9382 156.04 13.0708 154.613 12.269 153.717C11.6715 153.058 11.6348 150.593 11.6925 148.845C11.7266 147.794 11.7921 147.022 11.7921 147.022C11.6747 146.946 11.5868 146.832 11.5431 146.699C11.3324 146.123 11.1899 145.525 11.1186 144.917C11.1186 144.83 11.095 144.744 11.0819 144.654C10.9142 143.448 10.8382 142.237 10.8382 142.237C8.89911 140.82 7.97672 138.61 7.54696 136.64L7.49194 136.377C7.25592 135.166 7.15572 133.932 7.19321 132.698C7.19321 132.58 7.19321 132.49 7.19321 132.435C7.19321 132.38 7.19321 132.37 7.19321 132.37C7.19321 132.37 7.45001 126.675 8.16801 124.452C8.19683 124.358 8.22828 124.271 8.25972 124.189C8.31262 124.05 8.38119 123.917 8.46412 123.793C8.72616 123.443 8.91221 122.784 9.06682 122.003C9.17426 121.462 9.26335 120.86 9.32886 120.261C9.38913 119.762 9.4363 119.265 9.47299 118.805C9.57518 117.575 9.60663 116.616 9.60663 116.616L9.12185 114.22C8.98821 113.566 8.88601 112.906 8.81526 112.246C8.81526 112.16 8.79429 112.073 8.78381 111.984C8.66125 110.766 8.63934 109.54 8.7183 108.318C8.7183 108.229 8.7183 108.142 8.73402 108.055C8.93863 105.273 9.66403 102.554 10.8723 100.041L11.0033 99.7778C11.178 99.4274 11.3614 99.0832 11.5536 98.7451C11.6925 98.4954 11.8392 98.2484 11.9912 98.0041C12.3941 97.3497 12.8315 96.7172 13.3014 96.1095C13.3696 96.0201 13.4403 95.9334 13.5111 95.8467C14.3288 94.8301 15.2375 93.8908 16.2259 93.0403C18.8725 90.7594 21.3016 89.7687 23.508 89.6925C33.1565 89.3509 38.5677 106.463 39.4429 109.461C39.5268 109.75 39.5687 109.908 39.5687 109.908C39.5687 109.908 43.4784 113.831 42.3333 115.552C42.1112 115.931 41.9761 116.355 41.9376 116.792C41.6231 119.107 42.5246 122.92 42.5246 122.92C42.5246 122.92 42.8443 123.971 43.7771 126.489L44.0523 127.224C44.6366 128.801 44.7729 131.447 44.4375 133.817C44.1152 136.088 43.3579 138.095 42.1446 138.61C39.663 139.662 40.3313 140.713 40.9025 141.577C41.242 142.197 41.5252 142.846 41.7489 143.516C42.1079 144.486 42.4407 145.506 42.5665 145.902C42.6032 146.013 42.6215 146.073 42.6215 146.073C42.9691 145.938 43.3302 145.841 43.6985 145.784C44.1676 145.718 44.6314 145.766 44.7205 146.168C44.7677 146.383 45.0376 146.638 45.4175 146.893C46.5443 147.671 48.6302 148.485 48.6302 148.485Z" fill="black"/>
<path d="M48.0588 148.486C48.0428 148.686 47.9922 148.881 47.9094 149.064C46.9084 151.542 41.1906 158.235 41.1906 158.235C40.9291 159.027 40.6148 159.802 40.2499 160.552C39.6175 161.847 38.9024 163.1 38.109 164.302C36.4663 166.787 34.6465 169.149 32.6637 171.371L32.6035 171.436C32.6035 171.436 32.3729 171.612 32.006 171.838C31.3505 172.258 30.6282 172.562 29.8704 172.737L29.5507 172.643L29.113 172.506C28.3793 172.275 27.6517 172.022 26.9302 171.746L26.4926 171.578C25.7938 171.309 25.1099 171.019 24.4408 170.709L24.0032 170.509C23.3044 170.183 22.6205 169.839 21.9514 169.476C21.7103 169.35 21.4718 169.213 21.236 169.085C20.5232 168.685 19.8245 168.266 19.1397 167.829C18.4129 167.364 17.7019 166.88 17.0066 166.375C16.6852 166.144 16.3672 165.907 16.0528 165.663C15.699 164.991 15.416 164.423 15.2404 164.071C14.8107 163.206 14.774 161.969 14.8264 161.073C14.8264 160.981 14.8264 160.894 14.8421 160.81C14.8867 160.248 14.9548 159.861 14.9548 159.861C14.9548 159.861 14.7426 159.575 14.4858 159.186C14.3416 158.97 14.187 158.721 14.0482 158.474C13.7861 158.011 13.5817 157.544 13.621 157.278C13.6263 157.233 13.6263 157.187 13.621 157.142C13.6171 157.053 13.6039 156.965 13.5817 156.879C13.3799 156.048 12.51 154.622 11.7081 153.725C11.1106 153.066 11.074 150.601 11.129 148.854C11.129 148.764 11.129 148.678 11.129 148.591C11.1657 147.684 11.2207 147.03 11.2207 147.03C10.9246 146.901 10.6966 145.947 10.5499 144.928L10.5106 144.665C10.3429 143.459 10.2669 142.248 10.2669 142.248C8.32773 140.831 7.40534 138.621 6.97821 136.65C6.68064 135.27 6.5661 133.856 6.63755 132.446C6.63755 132.404 6.63755 132.38 6.63755 132.38C6.63755 132.38 6.86291 126.657 7.58091 124.432C7.60973 124.337 7.64118 124.25 7.67262 124.169C7.7355 124.032 7.81375 123.904 7.90584 123.785C8.30415 123.228 8.56881 121.888 8.74176 120.516L8.77321 120.253C8.9907 118.414 9.05098 116.609 9.05098 116.609L8.56357 114.212C8.4308 113.555 8.32861 112.898 8.25698 112.239C8.24388 112.152 8.23602 112.063 8.22554 111.976C8.103 110.758 8.08109 109.532 8.16003 108.31C8.16003 108.221 8.16003 108.134 8.17837 108.048C8.38173 105.265 9.1072 102.546 10.3166 100.033C10.3586 99.9437 10.4005 99.8569 10.4477 99.7702C10.7846 99.0877 11.159 98.4245 11.5692 97.7837C11.7107 97.5603 11.8548 97.3396 12.0068 97.1215C12.2453 96.7746 12.4942 96.433 12.7537 96.1019L12.9633 95.8391C13.774 94.8265 14.6747 93.8898 15.6545 93.0406C18.537 90.5626 21.1574 89.6062 23.5158 89.6929C32.8052 90.0266 38.0199 106.523 38.8768 109.461C38.9607 109.75 39.0026 109.908 39.0026 109.908C39.0026 109.908 42.9149 113.831 41.7698 115.552C41.5477 115.931 41.4126 116.355 41.3741 116.793C41.057 119.108 41.9611 122.921 41.9611 122.921C41.9611 122.921 42.2807 123.972 43.2136 126.489C43.2975 126.723 43.3892 126.967 43.4757 127.225C44.06 128.801 44.1963 131.448 43.8609 133.818C43.5386 136.091 42.7839 138.096 41.568 138.611C39.0891 139.662 39.7546 140.713 40.3285 141.577C40.668 142.197 40.9513 142.846 41.1749 143.517C41.6283 144.754 42.0449 146.074 42.0449 146.074C42.2164 146.007 42.3914 145.95 42.569 145.903C42.9335 145.782 43.3196 145.742 43.701 145.784C43.8066 145.793 43.9068 145.834 43.9873 145.903C44.0678 145.972 44.1245 146.065 44.1491 146.168C44.2199 146.483 44.7623 146.875 45.42 147.245C46.2741 147.712 47.1552 148.126 48.0588 148.486V148.486Z" fill="#CED7E7"/>
<path opacity="0.1" d="M13.5686 123.217C14.4753 123.169 24.2076 119.391 26.2122 120.681C28.2169 121.971 40.6246 130.343 40.6246 130.343C40.6246 130.343 32.8498 120.155 26.076 117.764C19.3021 115.373 13.5686 123.217 13.5686 123.217Z" fill="black"/>
<path opacity="0.1" d="M27.5591 138.621C27.5591 138.621 37.2914 140.581 38.7693 141.922L27.5591 138.621Z" fill="black"/>
<path opacity="0.1" d="M25.6855 153.215C25.544 153.359 22.0168 161.298 22.2998 161.298C22.5829 161.298 25.5911 156.568 25.5911 156.568L25.6855 153.215Z" fill="black"/>
<path opacity="0.1" d="M32.3179 143.689C32.3179 143.689 29.4563 144.696 29.7891 144.79C30.1219 144.885 32.2209 144.12 32.3179 143.689Z" fill="black"/>
<path opacity="0.1" d="M29.4563 155.698C29.9332 156.702 31.4583 159.716 31.7937 159.238C32.1291 158.76 29.4563 155.698 29.4563 155.698Z" fill="black"/>
<path opacity="0.1" d="M65.1783 76.1364L64.7695 76.7198C64.7695 76.7198 61.5227 74.4257 60.1889 73.2774C58.8551 72.1291 55.7054 77.3898 53.2238 78.8246C50.7423 80.2593 46.547 80.643 46.547 80.643C46.547 80.643 43.3029 77.3898 43.4024 76.4386C43.502 75.4873 41.8773 75.1957 41.7804 74.5256C41.6834 73.8555 41.1122 71.9425 40.3496 70.986C39.9461 70.4815 39.8884 68.9022 39.9251 67.5279C40.1871 67.4754 40.3496 67.4465 40.3496 67.4465C40.7569 66.7043 41.2717 66.0269 41.8773 65.4363C42.7368 64.6716 44.0706 59.9837 44.0706 59.9837C44.8332 57.4007 46.3583 58.1653 46.3583 58.1653C46.3583 62.0885 50.3675 63.5233 52.3696 65.1498C54.3716 66.7764 57.5213 70.986 60.0029 71.8479C62.039 72.5443 64.421 75.2377 65.1783 76.1364Z" fill="black"/>
<path d="M65.1782 75.5604L64.7694 76.1464C64.7694 76.1464 61.5096 73.8576 60.1758 72.7014C58.842 71.5452 55.6922 76.8138 53.2106 78.2485C50.7291 79.6833 46.5338 80.0696 46.5338 80.0696C46.5338 80.0696 43.2897 76.8138 43.3892 75.8652C43.4888 74.9166 41.8641 74.6223 41.7672 73.9496C41.6702 73.2769 41.099 71.3665 40.3364 70.41C39.9329 69.9055 39.8752 68.3262 39.9119 66.9519L40.3364 66.8731C40.7437 66.1309 41.2586 65.4535 41.8641 64.8629C42.7237 64.0956 44.0575 59.4103 44.0575 59.4103C44.82 56.8273 46.3451 57.5893 46.3451 57.5893C46.3451 61.5125 50.3544 62.9499 52.3564 64.5765C54.3584 66.203 57.5082 70.41 59.9897 71.2719C62.0389 71.9788 64.4209 74.6617 65.1782 75.5604Z" fill="#CED7E7"/>
<path opacity="0.1" d="M65.4218 76.3387C65.4218 76.3387 62.6101 77.868 60.4142 78.0126C60.1267 78.026 59.8387 78.0093 59.5547 77.9626C59.5547 77.9626 61.9786 76.1469 64.2295 75.7764L65.4218 76.3387Z" fill="black"/>
<path opacity="0.1" d="M71.1475 84.1348C71.1475 84.1348 67.602 82.75 66.4307 84.8338C66.47 83.8773 66.4857 83.0837 66.4857 83.0837L70.3508 82.3164C70.3508 82.3164 70.7229 83.0075 71.1579 83.9377C71.1475 84.0612 71.1475 84.1348 71.1475 84.1348Z" fill="black"/>
<path d="M59.5547 77.9626C59.5547 77.9626 63.8024 75.4058 65.8437 75.6213C67.9846 75.8446 72.1328 76.0023 72.1328 76.0023C72.1328 76.0023 70.702 79.2554 70.8933 79.9255C71.0846 80.5956 71.1318 83.8487 71.1318 83.8487C71.1318 83.8487 66.8395 82.1749 66.1241 85.2835C66.1241 85.2835 63.7867 81.7912 62.2118 80.7375C61.1668 79.9804 60.2667 79.0404 59.5547 77.9626Z" fill="#63667E"/>
<path opacity="0.1" d="M83.55 80.932C82.3105 80.932 77.9213 78.1545 76.9675 76.3387C76.0136 74.5229 74.6772 76.5279 73.4377 77.2006C72.6516 77.6315 69.5359 76.7302 67.8562 76.0759C68.7078 75.4952 70.5946 73.8607 71.1475 73.4692C71.8131 72.9883 72.4839 65.2391 72.4839 65.2391C74.8685 63.9962 77.4444 75.285 77.4444 75.285C77.4444 75.285 81.9306 76.6251 82.3105 77.5816C82.3839 77.7708 82.7219 78.1072 83.2303 78.5144C83.7544 79.8388 84.0426 80.932 83.55 80.932Z" fill="black"/>
<path d="M83.55 80.3557C82.3105 80.3557 77.9213 77.5808 76.9674 75.7651C76.0136 73.9493 74.6772 75.9543 73.4377 76.6243C72.6516 77.0553 70.1543 76.2223 68.4746 75.5732C69.3263 74.9951 70.5945 73.2924 71.1475 72.8982C71.813 72.42 72.4839 64.6708 72.4839 64.6708C74.8685 63.4279 77.4444 74.7166 77.4444 74.7166C77.4444 74.7166 81.9306 76.0568 82.3105 77.0132C82.3839 77.2024 82.7219 77.5388 83.2303 77.9461C83.7544 79.2626 84.0426 80.3557 83.55 80.3557Z" fill="#CED7E7"/>
<path d="M100.502 164.173L141.986 129.487C142.4 129.136 142.927 128.949 143.469 128.961L158.945 129.369C158.945 129.369 160.017 130.157 158.445 131.881L119.311 164.084C118.888 164.43 118.363 164.628 117.817 164.646L100.895 165.208C100.773 165.212 100.653 165.178 100.552 165.11C100.451 165.043 100.373 164.945 100.33 164.831C100.287 164.717 100.28 164.593 100.311 164.475C100.342 164.357 100.408 164.251 100.502 164.173Z" fill="#14213D"/>
<path d="M120.569 159.906C120.569 159.906 129.63 172.918 139.698 160.815C149.766 148.712 146.854 142.352 143.802 142.016C140.749 141.68 123.572 154.931 120.569 159.906Z" fill="#FFA2A2"/>
<path opacity="0.1" d="M181.685 14.3659C181.685 14.3659 193.365 -8.36403 207.169 3.35829C207.169 3.35829 210.183 4.45931 209.955 7.65464C209.955 7.65464 208.794 7.0161 207.871 9.45726C207.533 10.3235 207.093 11.1464 206.561 11.9089C205.855 12.9391 204.834 13.7117 203.652 14.111V14.111C203.652 14.111 197.458 18.7647 185.983 15.1752C185.983 15.1752 182.739 15.6429 182.215 15.2383L185.985 12.4739C185.985 12.4739 187.901 15.325 190.702 15.6508C190.702 15.6508 185.985 12.6815 186.525 12.0377C186.635 11.9063 188.59 10.6634 188.59 10.6634C188.59 10.6634 191.942 15.6062 196.286 15.9714C196.286 15.9714 190.199 13.1886 189.327 10.1904L192.385 8.47975C192.385 8.47975 195.671 13.8797 200.605 14.4841C200.605 14.4841 194.342 11.3545 193.079 8.15128L196.315 6.88471C196.315 6.88471 199.625 12.0876 203.731 12.5632C203.731 12.5632 196.86 8.21435 197.075 6.64296C197.075 6.64296 200.117 5.66019 201.05 5.78895C201.05 5.78895 203.511 9.46778 205.922 9.53347C205.922 9.53347 201.637 6.13844 201.92 5.61552C201.92 5.61552 206.223 5.39216 208.471 6.43537C208.471 6.43537 205.274 4.65114 201.92 4.94019C201.92 4.94019 203.438 3.1507 205.416 2.75654C205.416 2.75654 203.044 1.77903 200.877 5.00589C200.877 5.00589 197.531 5.31333 197.117 5.68647C197.117 5.68647 198.81 2.19684 200.893 0.712167C200.893 0.712167 197.788 1.26136 196.25 5.99129L192.969 7.19216C192.969 7.19216 194.963 2.46224 196.721 1.00122C196.721 1.00122 193.64 2.05231 192.167 7.57055L189.148 9.21551C189.148 9.21551 190.555 5.01114 192.162 2.95888C192.162 2.95888 189.513 4.55129 188.299 9.71741L186.413 11.0497C186.413 11.0497 187.495 7.99624 187.885 7.14749C188.276 6.29873 188.079 6.12267 188.079 6.12267C186.768 7.67755 185.912 9.56694 185.608 11.5805C185.608 11.5805 181.903 14.5761 181.685 14.3659Z" fill="#14213D"/>
<path opacity="0.1" d="M229.988 26.5213C229.988 26.5213 235.266 16.2495 241.502 21.547C241.502 21.547 242.865 22.0436 242.76 23.4863C242.76 23.4863 242.236 23.1998 241.819 24.3035C241.668 24.6944 241.471 25.0658 241.232 25.4098C240.913 25.8741 240.454 26.2232 239.922 26.4057V26.4057C239.922 26.4057 237.121 28.5079 231.935 26.8865C231.935 26.8865 230.47 27.0968 230.234 26.9154L231.938 25.6646C231.938 25.6646 232.802 26.9549 234.071 27.0994C234.071 27.0994 231.943 25.7592 232.184 25.4676C232.231 25.4098 233.114 24.8474 233.114 24.8474C233.114 24.8474 234.629 27.081 236.594 27.2465C236.594 27.2465 233.843 25.9879 233.45 24.6188L234.833 23.8489C234.833 23.8489 236.316 26.29 238.546 26.5633C238.546 26.5633 235.716 25.1496 235.14 23.7017L236.602 23.1289C236.602 23.1289 238.096 25.4807 239.951 25.6962C239.951 25.6962 236.846 23.7306 236.945 23.0211C236.945 23.0211 238.318 22.5771 238.74 22.6349C238.74 22.6349 239.851 24.2982 240.941 24.3245C240.941 24.3245 239.005 22.7925 239.133 22.556C239.133 22.556 241.078 22.4562 242.089 22.9265C242.089 22.9265 240.645 22.1198 239.133 22.2512C239.55 21.7755 240.097 21.4322 240.706 21.2632C240.706 21.2632 239.634 20.8217 238.654 22.2801C238.654 22.2801 237.142 22.4194 236.956 22.5876C236.956 22.5876 237.721 21.0109 238.662 20.3409C238.662 20.3409 237.257 20.5879 236.565 22.7268L235.098 23.2787C235.098 23.2787 235.997 21.1423 236.793 20.4801C236.793 20.4801 235.399 20.9558 234.734 23.4468L233.371 24.1879C233.371 24.1879 234.005 22.2854 234.731 21.3604C234.731 21.3604 233.533 22.0804 232.988 24.4138L232.134 25.0156C232.134 25.0156 232.624 23.636 232.8 23.2524C232.975 22.8687 232.886 22.7899 232.886 22.7899C232.294 23.495 231.907 24.3508 231.77 25.2626C231.77 25.2626 230.08 26.6159 229.988 26.5213Z" fill="#14213D"/>
<path opacity="0.1" d="M172.802 38.4725C172.802 38.4725 178.08 28.2006 184.332 33.4982C184.332 33.4982 185.692 33.9948 185.59 35.4401C185.59 35.4401 185.066 35.151 184.649 36.2547C184.497 36.6451 184.3 37.0164 184.062 37.3609C183.74 37.8275 183.276 38.1769 182.739 38.3568V38.3568C182.739 38.3568 179.94 40.459 174.754 38.8377C174.754 38.8377 173.29 39.0506 173.054 38.8666L174.757 37.6158C174.757 37.6158 175.622 38.906 176.887 39.0532C176.887 39.0532 174.76 37.7104 175.001 37.4187C175.051 37.3609 175.934 36.7986 175.934 36.7986C175.934 36.7986 177.448 39.0322 179.411 39.1977C179.411 39.1977 176.662 37.939 176.266 36.57L177.65 35.8027C177.65 35.8027 179.136 38.2412 181.366 38.5145C181.366 38.5145 178.536 37.1008 177.959 35.6529L179.421 35.0801C179.421 35.0801 180.918 37.4319 182.773 37.6473C182.773 37.6473 179.668 35.6818 179.765 34.9723C179.765 34.9723 181.14 34.5282 181.562 34.586C181.562 34.586 182.673 36.2494 183.764 36.2783C183.764 36.2783 181.827 34.7437 181.955 34.5072C181.955 34.5072 183.897 34.4074 184.911 34.8777C184.911 34.8777 183.465 34.071 181.953 34.2024C182.37 33.7267 182.916 33.3833 183.525 33.2144C183.525 33.2144 182.456 32.7729 181.476 34.2313C181.476 34.2313 179.964 34.3706 179.778 34.5387C179.778 34.5387 180.54 32.9621 181.484 32.292C181.484 32.292 180.079 32.539 179.387 34.678L177.902 35.2298C177.902 35.2298 178.803 33.0935 179.597 32.4339C179.597 32.4339 178.206 32.9069 177.54 35.398L176.175 36.139C176.175 36.139 176.812 34.2366 177.537 33.3116C177.537 33.3116 176.34 34.0316 175.792 36.365L174.938 36.9668C174.938 36.9668 175.428 35.5872 175.603 35.2036C175.779 34.8199 175.693 34.7411 175.693 34.7411C175.099 35.4454 174.712 36.3016 174.576 37.2138C174.576 37.2138 172.894 38.5671 172.802 38.4725Z" fill="#14213D"/>
</g>
<defs>
<clipPath id="clip0_343_553">
<rect width="281" height="205" fill="white"/>
</clipPath>
</defs>
</svg>
