<svg width="96" height="96" viewBox="0 0 96 96" fill="none" xmlns="http://www.w3.org/2000/svg">
<path d="M17.5102 74.4847H16.6368V73.611C16.6368 72.957 16.1069 72.4271 15.4529 72.4271C14.7989 72.4271 14.2691 72.9574 14.2691 73.611V74.4847H13.3953C12.7413 74.4847 12.2114 75.0146 12.2114 75.6686C12.2114 76.3226 12.7413 76.8525 13.3953 76.8525H14.2691V77.7262C14.2691 78.3802 14.7989 78.9101 15.4529 78.9101C16.1069 78.9101 16.6368 78.3802 16.6368 77.7262V76.8525H17.5102C18.1642 76.8525 18.6941 76.3226 18.6941 75.6686C18.6941 75.0146 18.1642 74.4847 17.5102 74.4847Z" fill="#EDF4FC"/>
<path d="M94.7337 25.9271C95.4331 25.9271 96 25.3602 96 24.6608C96 23.9614 95.4331 23.3944 94.7337 23.3944C94.0343 23.3944 93.4673 23.9614 93.4673 24.6608C93.4673 25.3602 94.0343 25.9271 94.7337 25.9271Z" fill="#EDF4FC"/>
<path d="M9.23366 68.3021C9.93306 68.3021 10.5 67.7352 10.5 67.0358C10.5 66.3364 9.93306 65.7694 9.23366 65.7694C8.53426 65.7694 7.96729 66.3364 7.96729 67.0358C7.96729 67.7352 8.53426 68.3021 9.23366 68.3021Z" fill="#EDF4FC"/>
<path d="M13.4994 21.678H10.3581C8.66306 21.678 7.28906 23.052 7.28906 24.7474V56.8088C7.28906 58.5038 8.66306 59.8781 10.3581 59.8781H13.4994C15.1944 59.8781 16.5684 58.5041 16.5684 56.8088V24.7474C16.5684 23.0524 15.1944 21.678 13.4994 21.678Z" fill="#14213D"/>
<path d="M82.601 21.678H79.4596C77.7646 21.678 76.3906 23.052 76.3906 24.7474V52.3163H78.0684C79.7634 52.3163 81.1374 53.6903 81.1374 55.3853V59.8778H82.601C84.296 59.8778 85.67 58.5038 85.67 56.8088V24.7474C85.67 23.0524 84.296 21.678 82.601 21.678Z" fill="#14213D"/>
<path d="M67.1109 36.138H25.8481V45.4178H67.1109V36.138Z" fill="#C7D7E5"/>
<path d="M56.756 36.138H36.2026V45.4178H56.756V36.138Z" fill="#EDF4FC"/>
<path d="M87.3814 36.138H85.6699V45.4178H87.3814C89.9438 45.4178 92.0213 43.3403 92.0213 40.7779C92.0213 38.2155 89.9442 36.138 87.3814 36.138Z" fill="#C7D7E5"/>
<path d="M5.57738 36.138C3.015 36.138 0.9375 38.2151 0.9375 40.7779C0.9375 43.3403 3.01463 45.4178 5.57738 45.4178H7.28888V36.138H5.57738Z" fill="#C7D7E5"/>
<path d="M71.8576 62.4608H39.2251V71.7405H71.8576V62.4608Z" fill="#C7D7E5"/>
<path d="M65.8175 62.4608H45.2642V71.7405H65.8175V62.4608Z" fill="#EDF4FC"/>
<path d="M78.0678 52.3163H74.9264C73.2314 52.3163 71.8574 53.6903 71.8574 55.3853V78.816C71.8574 80.511 73.2314 81.885 74.9264 81.885H78.0678C79.7628 81.885 81.1368 80.511 81.1368 78.816V55.3853C81.1372 53.6903 79.7628 52.3163 78.0678 52.3163Z" fill="#FCA311"/>
<path d="M82.8487 62.4608H81.1372V71.7405H82.8487C85.4111 71.7405 87.4886 69.6634 87.4886 67.1006C87.4886 64.5379 85.4111 62.4608 82.8487 62.4608Z" fill="#C7D7E5"/>
<path d="M36.1562 52.3163H33.0148C31.3198 52.3163 29.9458 53.6903 29.9458 55.3853V78.816C29.9458 80.511 31.3198 81.885 33.0148 81.885H36.1562C37.8512 81.885 39.2252 80.511 39.2252 78.816V55.3853C39.2252 53.6903 37.8512 52.3163 36.1562 52.3163Z" fill="#FCA311"/>
<path d="M28.2341 62.4608C25.6717 62.4608 23.5942 64.5379 23.5942 67.1006C23.5942 69.6634 25.6714 71.7405 28.2341 71.7405H29.9456V62.4608H28.2341V62.4608Z" fill="#C7D7E5"/>
<path d="M73.3212 14.358H70.1798C68.4848 14.358 67.1108 15.732 67.1108 17.4274V62.4611H71.8576V55.3856C71.8576 53.6906 73.2316 52.3166 74.9266 52.3166H76.3902V17.4274C76.3906 15.732 75.0162 14.358 73.3212 14.358Z" fill="#304B84"/>
<path d="M22.7792 14.358H19.6378C17.9428 14.358 16.5688 15.732 16.5688 17.4274V64.1288C16.5688 65.8238 17.9428 67.1981 19.6378 67.1981H22.7792C23.0623 67.1981 23.335 67.1565 23.5956 67.0849C23.6012 65.403 24.5042 63.936 25.8486 63.1271V17.4274C25.8482 15.732 24.4742 14.358 22.7792 14.358Z" fill="#304B84"/>
<path d="M16.5877 55.9391C16.0653 55.9234 15.6416 56.3381 15.63 56.856C15.6052 58.005 14.649 58.9403 13.4988 58.9403H10.3575C9.18221 58.9403 8.22559 57.984 8.22559 56.8088V24.7474C8.22559 23.5721 9.18184 22.6159 10.3575 22.6159H13.4988C14.6595 22.6159 15.6153 23.5598 15.6303 24.7193C15.6371 25.2371 16.0623 25.6459 16.5798 25.6448C17.0977 25.638 17.5121 25.2131 17.5053 24.6953C17.4772 22.5146 15.6802 20.7405 13.4988 20.7405H10.3575C8.14796 20.7405 6.35059 22.5379 6.35059 24.747V56.8084C6.35059 59.0175 8.14796 60.8149 10.3575 60.8149H13.4988C15.6607 60.8149 17.4577 59.0569 17.5046 56.8965C17.5158 56.379 17.1056 55.9504 16.5877 55.9391Z" fill="black"/>
<path d="M82.6011 20.7405H79.4597C77.2779 20.7405 75.4809 22.515 75.4532 24.6964C75.4468 25.2139 75.8612 25.6391 76.3791 25.6455C76.9 25.6466 77.3218 25.2375 77.3282 24.7196C77.3428 23.5594 78.2987 22.6155 79.4597 22.6155H82.6011C83.7763 22.6155 84.7326 23.5718 84.7326 24.7474V56.8088C84.7326 57.984 83.7763 58.9403 82.6011 58.9403H81.4926C80.9747 58.9403 80.5551 59.3599 80.5551 59.8778C80.5551 60.3956 80.9747 60.8153 81.4926 60.8153H82.6011C84.8102 60.8153 86.6076 59.0179 86.6076 56.8088V24.7474C86.6076 22.5379 84.8102 20.7405 82.6011 20.7405Z" fill="black"/>
<path d="M66.9377 35.2009H26.1797C25.6618 35.2009 25.2422 35.6205 25.2422 36.1384C25.2422 36.6562 25.6618 37.0759 26.1797 37.0759H66.9377C67.4556 37.0759 67.8752 36.6562 67.8752 36.1384C67.8752 35.6205 67.4556 35.2009 66.9377 35.2009Z" fill="black"/>
<path d="M66.7266 44.4803H26.2266C25.7087 44.4803 25.2891 44.8999 25.2891 45.4178C25.2891 45.9356 25.7087 46.3553 26.2266 46.3553H66.7266C67.2444 46.3553 67.6641 45.9356 67.6641 45.4178C67.6641 44.8999 67.2444 44.4803 66.7266 44.4803Z" fill="black"/>
<path d="M56.7563 35.5781C56.2385 35.5781 55.8188 35.9977 55.8188 36.5156V45.0705C55.8188 45.5884 56.2385 46.008 56.7563 46.008C57.2742 46.008 57.6938 45.5884 57.6938 45.0705V36.5156C57.6938 35.9977 57.2738 35.5781 56.7563 35.5781Z" fill="black"/>
<path d="M36.2026 35.5703C35.6848 35.5703 35.2651 35.9899 35.2651 36.5078V45.1249C35.2651 45.6428 35.6848 46.0624 36.2026 46.0624C36.7205 46.0624 37.1401 45.6428 37.1401 45.1249V36.5078C37.1401 35.9899 36.7201 35.5703 36.2026 35.5703Z" fill="black"/>
<path d="M87.3815 35.2009H86.0158C85.4979 35.2009 85.0783 35.6205 85.0783 36.1384C85.0783 36.6562 85.4979 37.0759 86.0158 37.0759H87.3815C89.423 37.0759 91.0839 38.7367 91.0839 40.7782C91.0839 42.8197 89.423 44.4806 87.3815 44.4806H86C85.4821 44.4806 85.0625 44.9002 85.0625 45.4181C85.0625 45.936 85.4821 46.3556 86 46.3556H87.3815C90.4569 46.3556 92.9589 43.8536 92.9589 40.7782C92.9589 37.7029 90.4569 35.2009 87.3815 35.2009Z" fill="black"/>
<path d="M6.78113 44.4803H5.57738C3.53588 44.4803 1.875 42.8194 1.875 40.7779C1.875 38.7364 3.53588 37.0755 5.57738 37.0755H7.03088C7.54875 37.0755 7.96838 36.6559 7.96838 36.138C7.96838 35.6201 7.54875 35.2005 7.03088 35.2005H5.57738C2.502 35.2009 0 37.7029 0 40.7779C0 43.8533 2.502 46.3553 5.57738 46.3553H6.78113C7.299 46.3553 7.71863 45.9356 7.71863 45.4178C7.71863 44.8999 7.299 44.4803 6.78113 44.4803Z" fill="black"/>
<path d="M71.5625 61.5236H39.4531C38.9352 61.5236 38.5156 61.9433 38.5156 62.4611C38.5156 62.979 38.9352 63.3986 39.4531 63.3986H71.5625C72.0804 63.3986 72.5 62.979 72.5 62.4611C72.5 61.9433 72.0804 61.5236 71.5625 61.5236Z" fill="black"/>
<path d="M71.5081 70.803H39.5273C39.0095 70.803 38.5898 71.2226 38.5898 71.7405C38.5898 72.2584 39.0095 72.678 39.5273 72.678H71.5081C72.026 72.678 72.4456 72.2584 72.4456 71.7405C72.4456 71.2226 72.026 70.803 71.5081 70.803Z" fill="black"/>
<path d="M65.8184 61.875C65.3005 61.875 64.8809 62.2946 64.8809 62.8125V71.3674C64.8809 71.8853 65.3005 72.3049 65.8184 72.3049C66.3362 72.3049 66.7559 71.8853 66.7559 71.3674V62.8125C66.7559 62.295 66.3362 61.875 65.8184 61.875Z" fill="black"/>
<path d="M45.2646 61.8518C44.7468 61.8518 44.3271 62.2714 44.3271 62.7893V71.4375C44.3271 71.9554 44.7468 72.375 45.2646 72.375C45.7825 72.375 46.2021 71.9554 46.2021 71.4375V62.7889C46.2021 62.2714 45.7821 61.8518 45.2646 61.8518Z" fill="black"/>
<path d="M78.0678 51.3784H74.9264C72.7173 51.3784 70.9199 53.1758 70.9199 55.3853V78.816C70.9199 81.0255 72.7173 82.8229 74.9264 82.8229H78.0678C80.2773 82.8229 82.0747 81.0255 82.0747 78.816V55.3853C82.0747 53.1758 80.2773 51.3784 78.0678 51.3784ZM80.1997 78.816C80.1997 79.9913 79.2434 80.9479 78.0678 80.9479H74.9264C73.7512 80.9479 72.7949 79.9916 72.7949 78.816V55.3853C72.7949 54.21 73.7512 53.2534 74.9264 53.2534H78.0678C79.243 53.2534 80.1997 54.2096 80.1997 55.3853V78.816Z" fill="black"/>
<path d="M82.8487 61.5236H81.375C80.8571 61.5236 80.4375 61.9433 80.4375 62.4611C80.4375 62.979 80.8571 63.3986 81.375 63.3986H82.8487C84.8902 63.3986 86.5511 65.0595 86.5511 67.101C86.5511 69.1425 84.8902 70.8034 82.8487 70.8034H81.4687C80.9509 70.8034 80.5312 71.223 80.5312 71.7409C80.5312 72.2588 80.9509 72.6784 81.4687 72.6784H82.8487C85.9241 72.6784 88.4261 70.1764 88.4261 67.101C88.4257 64.0253 85.9237 61.5236 82.8487 61.5236Z" fill="black"/>
<path d="M36.1561 51.3784H33.0147C30.8052 51.3784 29.0078 53.1758 29.0078 55.3853V78.816C29.0078 81.0255 30.8052 82.8229 33.0147 82.8229H36.1561C38.3652 82.8229 40.1626 81.0255 40.1626 78.816V55.3853C40.1626 53.1758 38.3652 51.3784 36.1561 51.3784ZM38.2876 78.816C38.2876 79.9913 37.3313 80.9479 36.1561 80.9479H33.0147C31.8394 80.9479 30.8828 79.9916 30.8828 78.816V55.3853C30.8828 54.21 31.8391 53.2534 33.0147 53.2534H36.1561C37.3313 53.2534 38.2876 54.2096 38.2876 55.3853V78.816Z" fill="black"/>
<path d="M29.5312 70.803H28.2341C26.1926 70.803 24.5317 69.1421 24.5317 67.1006C24.5317 65.0591 26.1926 63.3983 28.2341 63.3983H29.6876C30.2055 63.3983 30.6251 62.9786 30.6251 62.4608C30.6251 61.9429 30.2055 61.5233 29.6876 61.5233H28.2341C25.1587 61.5233 22.6567 64.0253 22.6567 67.1006C22.6567 70.176 25.1587 72.678 28.2341 72.678H29.5312C30.0491 72.678 30.4687 72.2584 30.4687 71.7405C30.4687 71.2226 30.0491 70.803 29.5312 70.803Z" fill="black"/>
<path d="M73.3211 13.4205H70.1797C67.9702 13.4205 66.1729 15.2179 66.1729 17.4274V62.0003C66.1729 62.5181 66.5925 62.9378 67.1104 62.9378C67.6282 62.9378 68.0479 62.5181 68.0479 62.0003V17.4274C68.0479 16.2521 69.0041 15.2955 70.1797 15.2955H73.3211C74.4964 15.2955 75.4526 16.2518 75.4526 17.4274V52.0939C75.4526 52.6118 75.8722 53.0314 76.3901 53.0314C76.908 53.0314 77.3276 52.6118 77.3276 52.0939V17.4274C77.328 15.2179 75.5306 13.4205 73.3211 13.4205Z" fill="black"/>
<path d="M22.7791 13.4205H19.6377C17.4282 13.4205 15.6309 15.2179 15.6309 17.4274V64.1288C15.6309 66.3383 17.4282 68.1356 19.6377 68.1356H22.7791C22.9917 68.1356 23.2077 68.1176 23.4204 68.0824C23.9311 67.9973 24.2765 67.5146 24.1917 67.0039C24.107 66.4931 23.6259 66.1481 23.1132 66.2325C23.0015 66.2513 22.889 66.2606 22.7791 66.2606H19.6377C18.4625 66.2606 17.5059 65.3044 17.5059 64.1288V17.4274C17.5059 16.2521 18.4621 15.2955 19.6377 15.2955H22.7791C23.9544 15.2955 24.9106 16.2518 24.9106 17.4274V62.9374C24.9106 63.4553 25.3302 63.8749 25.8481 63.8749C26.366 63.8749 26.7856 63.4553 26.7856 62.9374V17.4274C26.7856 15.2179 24.9882 13.4205 22.7791 13.4205Z" fill="black"/>
</svg>
