<svg width="20" height="20" viewBox="0 0 20 20" fill="none" xmlns="http://www.w3.org/2000/svg">
<path d="M17.893 0H2.10698C0.943242 0 0 0.947325 0 2.10698V17.893C0 19.0568 0.947325 20 2.10698 20H17.893C19.0568 20 20 19.0527 20 17.893V2.10698C20 0.947325 19.0527 0 17.893 0ZM18.9996 17.893C18.9996 18.5014 18.5014 18.9996 17.893 18.9996H2.10698C1.49857 18.9996 1.00041 18.5014 1.00041 17.893V2.10698C1.00041 1.49857 1.49857 1.00041 2.10698 1.00041H17.893C18.5014 1.00041 18.9996 1.49857 18.9996 2.10698V17.893V17.893Z" fill="white"/>
<path d="M13.777 9.50184H10.4982V6.22295C10.4982 5.94528 10.2736 5.7207 9.99591 5.7207C9.71824 5.7207 9.49366 5.94528 9.49366 6.22295V9.50184H6.21477C5.93711 9.50184 5.71252 9.72642 5.71252 10C5.71252 10.2777 5.93711 10.5022 6.21477 10.5022H9.49366V13.7811C9.49366 14.0588 9.71824 14.2834 9.99591 14.2834C10.2736 14.2834 10.4982 14.0588 10.4982 13.7811V10.5022H13.777C14.0547 10.5022 14.2793 10.2777 14.2793 10C14.2793 9.72234 14.0547 9.50184 13.777 9.50184Z" fill="white"/>
</svg>
