<svg width="22" height="26" viewBox="0 0 22 26" fill="none" xmlns="http://www.w3.org/2000/svg">
<path d="M7.35625 18.1205L6.9683 20.3942C6.87991 20.9147 7.09107 21.4304 7.5183 21.7397C7.75893 21.9116 8.04375 22.0049 8.32366 22.0049C8.53973 22.0049 8.76071 21.9509 8.96205 21.8429L11 20.7723L13.0379 21.8429C13.5045 22.0884 14.0594 22.0491 14.4866 21.7397C14.9138 21.4304 15.125 20.9147 15.0366 20.3942L14.6487 18.1205L16.2937 16.5147C16.6719 16.1464 16.8045 15.6062 16.6424 15.1054C16.4804 14.6045 16.0531 14.246 15.5326 14.1723L13.254 13.8384L12.2375 11.771C11.9969 11.2946 11.5254 11 11 11C10.4746 11 10.0031 11.2946 9.77232 11.7661L8.7558 13.8335L6.47723 14.1674C5.9567 14.2411 5.52946 14.5996 5.36741 15.1004C5.20536 15.6013 5.33795 16.1415 5.71607 16.5098L7.35625 18.1205ZM9.79196 15.2674L11 12.817L12.208 15.2674L14.9089 15.6603L12.9545 17.5705L13.4161 20.2616L11 18.9946L8.58393 20.2665L9.04554 17.5754L7.09107 15.6652L9.79196 15.2674ZM19.6429 3.14286H17.2857V0.392857C17.2857 0.176786 17.1089 0 16.8929 0H16.1071C15.8911 0 15.7143 0.176786 15.7143 0.392857V3.14286H6.28571V0.392857C6.28571 0.176786 6.10893 0 5.89286 0H5.10714C4.89107 0 4.71429 0.176786 4.71429 0.392857V3.14286H2.35714C1.0558 3.14286 0 4.19866 0 5.5V22.7857C0 24.0871 1.0558 25.1429 2.35714 25.1429H19.6429C20.9442 25.1429 22 24.0871 22 22.7857V5.5C22 4.19866 20.9442 3.14286 19.6429 3.14286ZM20.4286 22.7857C20.4286 23.2179 20.075 23.5714 19.6429 23.5714H2.35714C1.925 23.5714 1.57143 23.2179 1.57143 22.7857V9.42857H20.4286V22.7857ZM20.4286 7.85714H1.57143V5.5C1.57143 5.06786 1.925 4.71429 2.35714 4.71429H19.6429C20.075 4.71429 20.4286 5.06786 20.4286 5.5V7.85714Z" fill="#14213D"/>
</svg>
