<svg viewBox="0 0 68 52" fill="none" xmlns="http://www.w3.org/2000/svg">
<path d="M38.25 7.3125C38.25 5.06797 36.3481 3.25 34 3.25C31.6519 3.25 29.75 5.06797 29.75 7.3125C29.75 9.55703 31.6519 11.375 34 11.375C36.3481 11.375 38.25 9.55703 38.25 7.3125ZM15.3 21.125C17.6481 21.125 19.55 19.307 19.55 17.0625C19.55 14.818 17.6481 13 15.3 13C12.9519 13 11.05 14.818 11.05 17.0625C11.05 19.307 12.9519 21.125 15.3 21.125ZM3.4 42.25C1.51937 42.25 0 43.7023 0 45.5C0 47.2977 1.51937 48.75 3.4 48.75H64.6C66.4806 48.75 68 47.2977 68 45.5C68 43.7023 66.4806 42.25 64.6 42.25H3.4ZM52.7 21.125C55.0481 21.125 56.95 19.307 56.95 17.0625C56.95 14.818 55.0481 13 52.7 13C50.3519 13 48.45 14.818 48.45 17.0625C48.45 19.307 50.3519 21.125 52.7 21.125ZM21.25 31.8398L24.1081 36.9078C24.7775 38.0961 26.3181 38.5328 27.5613 37.9031C28.8044 37.2734 29.2613 35.7906 28.6025 34.6023L24.7456 27.7469C24.9263 27.5742 25.0856 27.3812 25.2025 27.1578L28.05 22.0898V27.625C28.05 29.4227 29.5694 30.875 31.45 30.875H36.55C38.4306 30.875 39.95 29.4227 39.95 27.625V22.0898L42.8081 27.1578C42.9356 27.3812 43.0844 27.5742 43.265 27.7469L39.4081 34.6023C38.7388 35.7906 39.2063 37.2633 40.4494 37.9031C41.6925 38.543 43.2331 38.0961 43.9025 36.9078L46.75 31.8398V35.75C46.75 37.5477 48.2694 39 50.15 39H55.25C57.1306 39 58.65 37.5477 58.65 35.75V31.8398L61.5081 36.9078C62.1775 38.0961 63.7181 38.5328 64.9613 37.9031C66.2044 37.2734 66.6613 35.7906 66.0025 34.6023L61.9756 27.4625C60.35 24.568 57.1838 22.7602 53.7412 22.7602H51.6588C49.9269 22.7602 48.2694 23.2172 46.835 24.0398L43.265 17.7125C41.6394 14.818 38.4731 13.0102 35.0306 13.0102H32.9588C29.5163 13.0102 26.3606 14.818 24.7244 17.7125L21.1544 24.0398C19.72 23.2172 18.0625 22.7602 16.3306 22.7602H14.2587C10.8162 22.7602 7.66063 24.568 6.02438 27.4625L2.00813 34.5922C1.33875 35.7805 1.80625 37.2531 3.04938 37.893C4.2925 38.5328 5.83313 38.0859 6.5025 36.8977L9.35 31.8398V35.75C9.35 37.5477 10.8694 39 12.75 39H17.85C19.7306 39 21.25 37.5477 21.25 35.75V31.8398Z" fill="#14213D"/>
</svg>
