<svg width="23" height="18" viewBox="0 0 23 18" fill="none" xmlns="http://www.w3.org/2000/svg">
<g clip-path="url(#clip0_415_569)">
<path d="M4.04995 3.50039C4.04995 2.89195 4.54151 2.40039 5.14995 2.40039H5.69995C6.30839 2.40039 6.79995 2.89195 6.79995 3.50039V7.90039V10.1004L6.79995 14.5004C6.79995 15.1088 6.30839 15.6004 5.69995 15.6004H5.14995C4.54151 15.6004 4.04995 15.1088 4.04995 14.5004L4.04995 13.4004H2.39995C1.79151 13.4004 1.29995 12.9088 1.29995 12.3004V10.1004C0.691514 10.1004 0.199951 9.60883 0.199951 9.00039C0.199951 8.39195 0.691514 7.90039 1.29995 7.90039V5.70039C1.29995 5.09195 1.79151 4.60039 2.39995 4.60039H4.04995V3.50039ZM18.35 3.50039V4.60039H20C20.6084 4.60039 21.1 5.09195 21.1 5.70039V7.90039C21.7084 7.90039 22.2 8.39195 22.2 9.00039C22.2 9.60883 21.7084 10.1004 21.1 10.1004V12.3004C21.1 12.9088 20.6084 13.4004 20 13.4004H18.35V14.5004C18.35 15.1088 17.8584 15.6004 17.25 15.6004H16.7C16.0915 15.6004 15.6 15.1088 15.6 14.5004V10.1004V7.90039V3.50039C15.6 2.89195 16.0915 2.40039 16.7 2.40039H17.25C17.8584 2.40039 18.35 2.89195 18.35 3.50039ZM14.5 7.90039V10.1004H7.89995V7.90039L14.5 7.90039Z" fill="#14213D"/>
</g>
<defs>
<clipPath id="clip0_415_569">
<rect width="22" height="17.6" fill="white" transform="translate(0.199951 0.200195)"/>
</clipPath>
</defs>
</svg>
