<svg width="20" height="16" viewBox="0 0 20 16" fill="none" xmlns="http://www.w3.org/2000/svg">
<path d="M9.99993 12.5C7.62962 12.5 5.71087 10.6653 5.53431 8.34032L2.25618 5.80688C1.82524 6.34751 1.42868 6.91907 1.10868 7.54407C1.0372 7.68548 0.999949 7.84171 0.999949 8.00016C0.999949 8.15861 1.0372 8.31485 1.10868 8.45626C2.80337 11.7628 6.15837 14 9.99993 14C10.8409 14 11.6521 13.875 12.434 13.6731L10.8124 12.4184C10.5446 12.4702 10.2727 12.4975 9.99993 12.5ZM19.8068 14.3156L16.3521 11.6456C17.4015 10.7612 18.2646 9.67697 18.8912 8.45594C18.9627 8.31453 18.9999 8.1583 18.9999 7.99985C18.9999 7.8414 18.9627 7.68516 18.8912 7.54376C17.1965 4.23719 13.8415 2.00001 9.99993 2.00001C8.39103 2.00196 6.80825 2.407 5.39618 3.17813L1.42056 0.105318C1.36871 0.0649768 1.30943 0.0352465 1.24609 0.0178261C1.18276 0.000405669 1.11661 -0.00436333 1.05142 0.00379159C0.986243 0.0119465 0.923308 0.0328655 0.866214 0.0653532C0.809121 0.0978409 0.758989 0.14126 0.718682 0.193131L0.105245 0.982818C0.0238694 1.0875 -0.0125944 1.22022 0.00387316 1.35178C0.0203407 1.48335 0.088391 1.60298 0.193057 1.68438L18.5793 15.8947C18.6312 15.935 18.6904 15.9648 18.7538 15.9822C18.8171 15.9996 18.8833 16.0044 18.9484 15.9962C19.0136 15.9881 19.0766 15.9671 19.1337 15.9347C19.1907 15.9022 19.2409 15.8588 19.2812 15.8069L19.8949 15.0172C19.9763 14.9125 20.0127 14.7797 19.9962 14.6482C19.9796 14.5166 19.9115 14.397 19.8068 14.3156ZM14.0656 9.87813L12.8374 8.92876C12.9409 8.62984 12.9957 8.31628 12.9999 8.00001C13.006 7.53696 12.9034 7.07894 12.7004 6.66274C12.4974 6.24653 12.1996 5.88374 11.8309 5.60351C11.4623 5.32328 11.033 5.13342 10.5776 5.04917C10.1223 4.96493 9.65352 4.98866 9.20899 5.11844C9.39744 5.37379 9.49937 5.68266 9.49993 6.00001C9.49527 6.10561 9.47913 6.21039 9.45181 6.31251L7.15149 4.53469C7.95055 3.86695 8.9586 3.50078 9.99993 3.50001C10.591 3.49968 11.1763 3.61585 11.7224 3.84188C12.2685 4.06791 12.7647 4.39936 13.1826 4.81729C13.6006 5.23522 13.932 5.73143 14.1581 6.27754C14.3841 6.82366 14.5003 7.40896 14.4999 8.00001C14.4999 8.67594 14.3346 9.30594 14.0656 9.87844V9.87813Z" fill="#A8A8B3"/>
</svg>
