<svg width="20" height="18" viewBox="0 0 20 18" fill="none" xmlns="http://www.w3.org/2000/svg">
<path d="M19.8792 8.4945C17.9962 4.83098 14.2684 2.35228 10 2.35228C5.7316 2.35228 2.00278 4.83271 0.120833 8.49485C0.0414035 8.65152 1.90735e-05 8.82462 1.90735e-05 9.00018C1.90735e-05 9.17574 0.0414035 9.34884 0.120833 9.50551C2.00382 13.169 5.7316 15.6477 10 15.6477C14.2684 15.6477 17.9972 13.1673 19.8792 9.50517C19.9586 9.34849 20 9.17539 20 8.99983C20 8.82428 19.9586 8.65118 19.8792 8.4945ZM10 13.9858C9.01109 13.9858 8.04439 13.6934 7.22215 13.1455C6.3999 12.5977 5.75904 11.819 5.3806 10.908C5.00216 9.99695 4.90315 8.99448 5.09607 8.02733C5.289 7.06018 5.7652 6.17179 6.46447 5.47452C7.16373 4.77724 8.05464 4.30239 9.02455 4.11001C9.99445 3.91763 10.9998 4.01637 11.9134 4.39373C12.827 4.7711 13.6079 5.41014 14.1573 6.23005C14.7068 7.04996 15 8.01391 15 9.00001C15.0003 9.65484 14.8712 10.3033 14.62 10.9084C14.3689 11.5134 14.0006 12.0632 13.5362 12.5262C13.0719 12.9892 12.5206 13.3565 11.9138 13.6069C11.307 13.8574 10.6567 13.9861 10 13.9858ZM10 5.67614C9.70248 5.68029 9.40687 5.72443 9.12118 5.80737C9.35667 6.12648 9.46968 6.51919 9.43971 6.91426C9.40974 7.30934 9.23877 7.68062 8.95781 7.96078C8.67686 8.24094 8.30451 8.41142 7.90831 8.44131C7.51211 8.47119 7.11829 8.35851 6.79826 8.12368C6.61603 8.79316 6.64893 9.50277 6.89232 10.1526C7.13572 10.8025 7.57735 11.3599 8.15507 11.7463C8.73279 12.1328 9.41751 12.3289 10.1128 12.307C10.8082 12.2851 11.4791 12.0463 12.0312 11.6242C12.5833 11.2022 12.9888 10.6181 13.1906 9.95423C13.3923 9.29035 13.3803 8.58009 13.156 7.92341C12.9318 7.26674 12.5066 6.69672 11.9405 6.29359C11.3743 5.89046 10.6957 5.67451 10 5.67614Z" fill="#A8A8B3"/>
</svg>
