<svg viewBox="0 0 51 39" fill="none" xmlns="http://www.w3.org/2000/svg">
<g clip-path="url(#clip0_481_1052)">
<path d="M3.76129 3.65625H10.657C11.6992 3.65625 12.5376 2.84121 12.5376 1.82812C12.5376 0.815039 11.6992 0 10.657 0H2.50753C1.12055 0 0 1.08926 0 2.4375V10.3594C0 11.3725 0.838454 12.1875 1.88065 12.1875C2.92284 12.1875 3.76129 11.3725 3.76129 10.3594V3.65625ZM13.7757 17.0625C15.8523 17.0625 17.537 15.4248 17.537 13.4062C17.537 11.3877 15.8523 9.75 13.7757 9.75C11.6992 9.75 10.0144 11.3877 10.0144 13.4062C10.0144 15.4248 11.6992 17.0625 13.7757 17.0625ZM11.6992 19.5C9.39539 19.5 7.52258 21.3205 7.52258 23.56C7.52258 24.6797 8.45507 25.5938 9.6148 25.5938H14.0108C14.6377 22.9963 16.581 20.8939 19.1199 19.9875C18.5322 19.6752 17.8505 19.5 17.1374 19.5H11.6992ZM40.5357 25.5938C41.6876 25.5938 42.628 24.6873 42.628 23.56C42.628 21.3129 40.7551 19.5 38.4514 19.5H33.0132C32.2922 19.5 31.6183 19.6752 31.0306 19.9875C33.5695 20.8939 35.5129 22.9963 36.1397 25.5938H40.5357ZM33.5303 25.5938C32.8564 23.7428 31.1874 22.3488 29.15 22.0137C28.8444 21.9604 28.531 21.9375 28.2097 21.9375H21.9409C21.6196 21.9375 21.3061 21.9604 21.0005 22.0137C18.9632 22.3488 17.2941 23.7428 16.6202 25.5938C16.4086 26.165 16.2989 26.782 16.2989 27.4219C16.2989 28.435 17.1374 29.25 18.1796 29.25H31.971C33.0132 29.25 33.8516 28.435 33.8516 27.4219C33.8516 26.782 33.7419 26.165 33.5303 25.5938ZM36.3591 17.0625C38.4357 17.0625 40.1204 15.4248 40.1204 13.4062C40.1204 11.3877 38.4357 9.75 36.3591 9.75C34.2826 9.75 32.5979 11.3877 32.5979 13.4062C32.5979 15.4248 34.2826 17.0625 36.3591 17.0625ZM30.0903 14.625C30.0903 11.9361 27.8414 9.75 25.0753 9.75C22.3092 9.75 20.0602 11.9361 20.0602 14.625C20.0602 17.3139 22.3092 19.5 25.0753 19.5C27.8414 19.5 30.0903 17.3139 30.0903 14.625ZM39.4935 3.65625H46.3892V10.3594C46.3892 11.3725 47.2277 12.1875 48.2699 12.1875C49.3121 12.1875 50.1505 11.3725 50.1505 10.3594V2.4375C50.1505 1.08926 49.03 0 47.643 0H39.4935C38.4514 0 37.6129 0.815039 37.6129 1.82812C37.6129 2.84121 38.4514 3.65625 39.4935 3.65625ZM3.76129 35.3438V28.6406C3.76129 27.6275 2.92284 26.8125 1.88065 26.8125C0.838454 26.8125 0 27.6275 0 28.6406V36.5625C0 37.9107 1.12055 39 2.50753 39H10.657C11.6992 39 12.5376 38.185 12.5376 37.1719C12.5376 36.1588 11.6992 35.3438 10.657 35.3438H3.76129ZM39.4935 35.3438C38.4514 35.3438 37.6129 36.1588 37.6129 37.1719C37.6129 38.185 38.4514 39 39.4935 39H47.643C49.03 39 50.1505 37.9107 50.1505 36.5625V28.6406C50.1505 27.6275 49.3121 26.8125 48.2699 26.8125C47.2277 26.8125 46.3892 27.6275 46.3892 28.6406V35.3438H39.4935Z" fill="#14213D"/>
</g>
<defs>
<clipPath id="clip0_481_1052">
<rect width="50.1505" height="39" fill="white"/>
</clipPath>
</defs>
</svg>
