<svg viewBox="0 0 46 40" fill="none" xmlns="http://www.w3.org/2000/svg">
<path d="M0 7.5H46C46 4.74219 43.708 2.5 40.8889 2.5H5.11111C2.29201 2.5 0 4.74219 0 7.5ZM0 10V32.5C0 35.2578 2.29201 37.5 5.11111 37.5H40.8889C43.708 37.5 46 35.2578 46 32.5V10H0ZM5.11111 31.6641C5.11111 29.3594 7.01979 27.5 9.36771 27.5H18.7434C21.0993 27.5 23 29.3672 23 31.6641C23 32.125 22.6167 32.5 22.1455 32.5H5.96562C5.49444 32.5 5.11111 32.125 5.11111 31.6641ZM14.0556 25C11.2365 25 8.94444 22.7578 8.94444 20C8.94444 17.2422 11.2365 15 14.0556 15C16.8747 15 19.1667 17.2422 19.1667 20C19.1667 22.7578 16.8747 25 14.0556 25ZM28.1111 16.25C28.1111 15.5625 28.6861 15 29.3889 15H39.6111C40.3139 15 40.8889 15.5625 40.8889 16.25C40.8889 16.9375 40.3139 17.5 39.6111 17.5H29.3889C28.6861 17.5 28.1111 16.9375 28.1111 16.25ZM28.1111 21.25C28.1111 20.5625 28.6861 20 29.3889 20H39.6111C40.3139 20 40.8889 20.5625 40.8889 21.25C40.8889 21.9375 40.3139 22.5 39.6111 22.5H29.3889C28.6861 22.5 28.1111 21.9375 28.1111 21.25ZM28.1111 26.25C28.1111 25.5625 28.6861 25 29.3889 25H39.6111C40.3139 25 40.8889 25.5625 40.8889 26.25C40.8889 26.9375 40.3139 27.5 39.6111 27.5H29.3889C28.6861 27.5 28.1111 26.9375 28.1111 26.25Z" fill="#14213D"/>
</svg>
