<svg viewBox="0 0 68 68" fill="none" xmlns="http://www.w3.org/2000/svg">
<path d="M56.9326 9.11507C57.2476 9.4279 57.4892 9.78109 57.6572 10.1545C57.8252 10.5278 57.9092 10.9416 57.9092 11.3856V11.3957V21.0832C57.9092 22.8693 56.4075 24.3123 54.5488 24.3123C52.69 24.3123 51.1883 22.8693 51.1883 21.0832V19.1961L40.1198 29.8221C38.8807 31.0129 36.8854 31.0936 35.5517 29.9937L25.9849 22.1024L16.4076 29.9937C15.0004 31.1541 12.8792 30.9927 11.6715 29.6405C10.4638 28.2882 10.6319 26.2498 12.0391 25.0894L23.8006 15.4019C25.0608 14.3625 26.9195 14.3625 28.1797 15.4019L37.5785 23.1418L46.4312 14.6248H44.4674C42.6087 14.6248 41.107 13.1818 41.107 11.3957C41.107 9.60954 42.6087 8.1665 44.4674 8.1665H54.5488C55.4729 8.1665 56.313 8.52979 56.9221 9.10498L56.9326 9.11507ZM7.50244 38.8436C7.50244 36.1694 9.76024 33.9998 12.5431 33.9998H56.229C59.0119 33.9998 61.2697 36.1694 61.2697 38.8436V54.9894C61.2697 57.6636 59.0119 59.8332 56.229 59.8332H12.5431C9.76024 59.8332 7.50244 57.6636 7.50244 54.9894V38.8436ZM12.5431 50.1457V54.9894H17.5838C17.5838 52.3153 15.326 50.1457 12.5431 50.1457ZM17.5838 38.8436H12.5431V43.6873C15.326 43.6873 17.5838 41.5177 17.5838 38.8436ZM56.229 50.1457C53.4461 50.1457 51.1883 52.3153 51.1883 54.9894H56.229V50.1457ZM51.1883 38.8436C51.1883 41.5177 53.4461 43.6873 56.229 43.6873V38.8436H51.1883ZM41.107 46.9165C41.107 43.3543 38.0931 40.4582 34.3861 40.4582C30.6791 40.4582 27.6651 43.3543 27.6651 46.9165C27.6651 50.4787 30.6791 53.3748 34.3861 53.3748C38.0931 53.3748 41.107 50.4787 41.107 46.9165Z" fill="#14213D"/>
</svg>
