<svg width="21" height="20" viewBox="0 0 21 20" fill="none" xmlns="http://www.w3.org/2000/svg">
<path d="M19.2756 2.19766L17.8104 0.732422C17.3225 0.244141 16.6826 0 16.0428 0C15.403 0 14.7631 0.244141 14.2748 0.732031L0.510047 14.4969L0.013955 18.9586C-0.0485447 19.5203 0.394031 20 0.943638 20C0.978404 20 1.01317 19.998 1.04872 19.9941L5.50729 19.5016L19.276 5.73281C20.2521 4.75664 20.2521 3.17383 19.2756 2.19766ZM4.93347 18.3078L1.2995 18.7105L1.70418 15.0711L12.0123 4.76289L15.2455 7.99609L4.93347 18.3078ZM18.392 4.84922L16.1291 7.11211L12.8959 3.87891L15.1588 1.61602C15.3947 1.38008 15.7088 1.25 16.0428 1.25C16.3768 1.25 16.6904 1.38008 16.9268 1.61602L18.392 3.08125C18.8791 3.56875 18.8791 4.36172 18.392 4.84922Z" fill="#A8A8B3"/>
</svg>
