<svg viewBox="0 0 61 55" fill="none" xmlns="http://www.w3.org/2000/svg">
<path d="M18.2999 6.875C18.2999 10.667 15.5645 13.75 12.1999 13.75C8.83542 13.75 6.09995 10.667 6.09995 6.875C6.09995 3.08301 8.83542 0 12.1999 0C15.5645 0 18.2999 3.08301 18.2999 6.875ZM2.46854 25.0723C2.7926 20.6143 6.09995 17.1875 10.0649 17.1875H14.3349C16.9084 17.1875 19.1959 18.627 20.5779 20.8506C20.3206 21.0547 20.0823 21.2803 19.8631 21.5273L13.7631 28.4023C11.6757 30.7549 11.6757 34.5576 13.7631 36.9102L18.2999 42.0234V49.8438C18.2999 52.6904 16.2507 55 13.7249 55H10.6749C8.14917 55 6.09995 52.6904 6.09995 49.8438V37.415C3.57417 36.3945 1.83948 33.5693 2.07776 30.3682L2.46854 25.0723ZM54.8999 6.875C54.8999 10.667 52.1645 13.75 48.7999 13.75C45.4354 13.75 42.6999 10.667 42.6999 6.875C42.6999 3.08301 45.4354 0 48.7999 0C52.1645 0 54.8999 3.08301 54.8999 6.875ZM41.1368 21.5273C40.9176 21.2803 40.6698 21.0547 40.422 20.8506C41.804 18.627 44.101 17.1875 46.6649 17.1875H50.9349C54.8999 17.1875 58.2073 20.6143 58.5313 25.0723L58.9221 30.3682C59.1604 33.5693 57.4257 36.3945 54.8999 37.415V49.8438C54.8999 52.6904 52.8507 55 50.3249 55H47.2749C44.7492 55 42.6999 52.6904 42.6999 49.8438V42.0234L47.2368 36.9102C49.3242 34.5576 49.3242 30.7549 47.2368 28.4023L41.1368 21.5273ZM25.9249 25.7812V29.2188H35.0749V25.7812C35.0749 24.7393 35.6278 23.7939 36.4856 23.3965C37.3434 22.999 38.3251 23.2139 38.9828 23.9551L45.0828 30.8301C45.9787 31.8398 45.9787 33.4727 45.0828 34.4717L38.9828 41.3467C38.3251 42.0879 37.3434 42.3027 36.4856 41.9053C35.6278 41.5078 35.0749 40.5625 35.0749 39.5205V36.0938H25.9249V39.5312C25.9249 40.5732 25.3721 41.5186 24.5143 41.916C23.6565 42.3135 22.6748 42.0986 22.0171 41.3574L15.9171 34.4824C15.0212 33.4727 15.0212 31.8398 15.9171 30.8408L22.0171 23.9658C22.6748 23.2246 23.6565 23.0098 24.5143 23.4072C25.3721 23.8047 25.9249 24.75 25.9249 25.792V25.7812Z" fill="#14213D"/>
</svg>
