<svg viewBox="0 0 80 58" fill="none" xmlns="http://www.w3.org/2000/svg">
<path d="M23 9.96875C23 13.4691 19.8625 16.3125 16 16.3125C12.1375 16.3125 9 13.4691 9 9.96875C9 6.46836 12.1375 3.625 16 3.625C19.8625 3.625 23 6.46836 23 9.96875ZM8 27.8332C6.75 29.102 6 30.7898 6 32.625C6 34.4602 6.75 36.148 8 37.4168V27.8332ZM26.05 22.2484C22.3375 25.2277 20 29.5891 20 34.4375C20 38.323 21.5 41.8914 24 44.6895V47.125C24 49.1301 22.2125 50.75 20 50.75H12C9.7875 50.75 8 49.1301 8 47.125V44.0891C3.275 42.05 0 37.6887 0 32.625C0 25.6129 6.2625 19.9375 14 19.9375H18C21 19.9375 23.775 20.7871 26.05 22.2371V22.2484ZM56 47.125V44.6895C58.5 41.8914 60 38.323 60 34.4375C60 29.5891 57.6625 25.2277 53.95 22.2371C56.225 20.7871 59 19.9375 62 19.9375H66C73.7375 19.9375 80 25.6129 80 32.625C80 37.6887 76.725 42.05 72 44.0891V47.125C72 49.1301 70.2125 50.75 68 50.75H60C57.7875 50.75 56 49.1301 56 47.125ZM71 9.96875C71 13.4691 67.8625 16.3125 64 16.3125C60.1375 16.3125 57 13.4691 57 9.96875C57 6.46836 60.1375 3.625 64 3.625C67.8625 3.625 71 6.46836 71 9.96875ZM72 27.8332V37.4281C73.25 36.148 74 34.4715 74 32.6363C74 30.8012 73.25 29.1133 72 27.8445V27.8332ZM40 18.125C35.5875 18.125 32 14.8738 32 10.875C32 6.87617 35.5875 3.625 40 3.625C44.4125 3.625 48 6.87617 48 10.875C48 14.8738 44.4125 18.125 40 18.125ZM30 34.4375C30 36.2727 30.75 37.9492 32 39.2293V29.6457C30.75 30.9258 30 32.6023 30 34.4375ZM48 29.6457V39.2406C49.25 37.9605 50 36.284 50 34.4488C50 32.6137 49.25 30.9258 48 29.657V29.6457ZM56 34.4375C56 39.5012 52.725 43.8625 48 45.9016V50.75C48 52.7551 46.2125 54.375 44 54.375H36C33.7875 54.375 32 52.7551 32 50.75V45.9016C27.275 43.8625 24 39.5012 24 34.4375C24 27.4254 30.2625 21.75 38 21.75H42C49.7375 21.75 56 27.4254 56 34.4375Z" fill="#14213D"/>
</svg>
