<svg viewBox="0 0 45 40" fill="none" xmlns="http://www.w3.org/2000/svg">
<path d="M28.75 26.875H36.25C37.2852 26.875 38.125 26.0352 38.125 25C38.125 23.9648 37.2852 23.125 36.25 23.125H28.75C27.7148 23.125 26.875 23.9648 26.875 25C26.875 26.0352 27.7188 26.875 28.75 26.875ZM16.25 25C19.0117 25 21.25 22.7617 21.25 20C21.25 17.2383 19.0117 15 16.25 15C13.4883 15 11.25 17.2383 11.25 20C11.25 22.7578 13.4922 25 16.25 25ZM40 2.5H5C2.23828 2.5 0 4.73828 0 7.5V32.5C0 35.2617 2.23828 37.5 5 37.5H40C42.7617 37.5 45 35.2617 45 32.5V7.5C45 4.73828 42.7578 2.5 40 2.5ZM41.25 32.5C41.25 33.1892 40.6892 33.75 40 33.75H25C25 30.2984 22.2016 27.5 18.75 27.5H13.75C10.2969 27.5 7.5 30.2969 7.5 33.75H5C4.31078 33.75 3.75 33.1892 3.75 32.5V12.5H41.25V32.5ZM28.75 20.625H36.25C37.2852 20.625 38.125 19.7852 38.125 18.75C38.125 17.7148 37.2852 16.875 36.25 16.875H28.75C27.7148 16.875 26.875 17.7148 26.875 18.75C26.875 19.7852 27.7188 20.625 28.75 20.625Z" fill="#14213D"/>
</svg>
