<svg width="22" height="25" viewBox="0 0 22 25" fill="none" xmlns="http://www.w3.org/2000/svg">
<path d="M11 15.498C12.2556 15.498 13.0808 15.2842 13.7581 15.0771C13.8411 15.0517 13.9199 15.0273 13.9953 15.0038C14.5364 14.8357 14.9029 14.7218 15.4 14.7218C18.6382 14.7218 21.25 17.3151 21.25 20.4919V22.5101C21.25 23.3729 20.5386 24.0887 19.6429 24.0887H2.35714C1.46139 24.0887 0.75 23.3729 0.75 22.5101V20.4919C0.75 17.3151 3.36183 14.7218 6.6 14.7218C7.09987 14.7218 7.46718 14.836 8.00859 15.0044C8.08332 15.0276 8.16136 15.0519 8.24353 15.077C8.9203 15.2842 9.74432 15.498 11 15.498ZM19.6429 24.0363C20.4806 24.0363 21.1786 23.3598 21.1786 22.5101V20.4919C21.1786 17.3282 18.5801 14.7742 15.4 14.7742C15.0605 14.7742 14.7446 14.8427 14.4554 14.9224C14.318 14.9602 14.1376 15.0158 13.9583 15.071C13.8172 15.1144 13.6768 15.1577 13.5586 15.1919C12.9372 15.3718 12.1497 15.5504 11 15.5504C9.84776 15.5504 9.06021 15.3717 8.4397 15.1919C8.32179 15.1578 8.18117 15.1144 8.03984 15.0708C7.86086 15.0157 7.68076 14.9601 7.5442 14.9225C7.25522 14.8428 6.93959 14.7742 6.6 14.7742C3.41986 14.7742 0.821429 17.3282 0.821429 20.4919V22.5101C0.821429 23.3598 1.51942 24.0363 2.35714 24.0363H19.6429ZM16.5357 6.20968C16.5357 9.21676 14.0663 11.6694 11 11.6694C7.93371 11.6694 5.46429 9.21676 5.46429 6.20968C5.46429 3.20259 7.93371 0.75 11 0.75C14.0663 0.75 16.5357 3.20259 16.5357 6.20968ZM16.4643 6.20968C16.4643 3.22054 14.0033 0.802419 11 0.802419C7.99665 0.802419 5.53571 3.22054 5.53571 6.20968C5.53571 9.19881 7.99665 11.6169 11 11.6169C14.0033 11.6169 16.4643 9.19881 16.4643 6.20968Z" fill="#14213D" stroke="black" stroke-width="1.5"/>
</svg>
