<svg viewBox="0 0 44 55" fill="none" xmlns="http://www.w3.org/2000/svg">
<path d="M28.7941 9.21896C28.7941 11.5482 26.3765 13.4379 23.3968 13.4379C20.417 13.4379 17.9995 11.5482 17.9995 9.21896C17.9995 6.88974 20.417 5 23.3968 5C26.3765 5 28.7941 6.88974 28.7941 9.21896ZM14.2326 22.5175C14.1201 22.5526 14.0189 22.5878 13.9065 22.6229L13.0069 22.9306C11.1629 23.5722 9.74608 24.7939 9.10515 26.2881L8.81279 26.9737C8.18311 28.4504 6.14787 29.2414 4.25881 28.7492C2.36976 28.257 1.35776 26.6661 1.98745 25.1895L2.2798 24.5039C3.56166 21.5067 6.39525 19.0632 10.0834 17.7799L10.983 17.4723C13.3218 16.6637 15.8518 16.2418 18.4155 16.2418C23.4305 16.2418 27.9507 18.5973 29.8735 22.2098L31.6052 25.4531L34.0115 26.3936C35.7881 27.088 36.5077 28.7756 35.6194 30.1643C34.7311 31.5531 32.5722 32.1156 30.7956 31.4212L27.7821 30.2522C26.6239 29.7952 25.7131 29.0393 25.2184 28.0988L24.1389 26.0772L21.9687 31.8343L27.5347 36.5806C28.1419 37.0992 28.5692 37.7233 28.7941 38.4089L31.3803 46.504C31.8638 48.007 30.6944 49.5364 28.7603 49.9143C26.8263 50.2923 24.881 49.3781 24.3975 47.8664L21.9237 40.1228L13.974 33.3461C12.3098 31.931 11.6914 29.9534 12.321 28.0988L14.2213 22.5175H14.2326ZM7.73333 39.9822L10.5444 34.4975C10.7806 34.7612 11.0504 35.0073 11.3315 35.2534L15.908 39.156L14.2776 42.3378C14.0077 42.8651 13.6029 43.3486 13.0857 43.7529L6.14787 49.176C4.74232 50.2747 2.45971 50.2747 1.05416 49.176C-0.351387 48.0773 -0.351387 46.293 1.05416 45.1943L7.73333 39.9822Z" fill="#14213D"/>
</svg>
