<svg viewBox="0 0 61 46" fill="none" xmlns="http://www.w3.org/2000/svg">
<path d="M18.3 8.625C20.8258 8.625 22.875 6.69336 22.875 4.3125C22.875 1.93164 20.8258 0 18.3 0C15.7742 0 13.725 1.93164 13.725 4.3125C13.725 6.69336 15.7742 8.625 18.3 8.625ZM17.5375 43.125V31.625H19.0625V43.125C19.0625 44.7152 20.4255 46 22.1125 46C23.7995 46 25.1625 44.7152 25.1625 43.125V17.25H30.5H36.6H38.125C39.812 17.25 41.175 15.9652 41.175 14.375C41.175 12.7848 39.812 11.5 38.125 11.5H36.6V5.75H54.9V23H36.6V20.125H30.5V24.4375C30.5 26.8184 32.5492 28.75 35.075 28.75H56.425C58.9508 28.75 61 26.8184 61 24.4375V4.3125C61 1.93164 58.9508 0 56.425 0H35.075C32.5492 0 30.5 1.93164 30.5 4.3125V11.5H23.1705H16.8798C13.6678 11.5 10.694 13.0902 9.03561 15.6867L3.47889 24.4016C2.61155 25.7582 3.07858 27.5281 4.5178 28.3457C5.95702 29.1633 7.83467 28.723 8.70202 27.3664L11.4375 23.0809V43.125C11.4375 44.7152 12.8005 46 14.4875 46C16.1745 46 17.5375 44.7152 17.5375 43.125Z" fill="#14213D"/>
</svg>
