<svg width="58" height="44" viewBox="0 0 58 44" fill="none" xmlns="http://www.w3.org/2000/svg">
<g clip-path="url(#clip0_475_775)">
<path d="M20.9445 4.125C20.9445 6.40234 18.7796 8.25 16.1112 8.25C13.4428 8.25 11.2778 6.40234 11.2778 4.125C11.2778 1.84766 13.4428 0 16.1112 0C18.7796 0 20.9445 1.84766 20.9445 4.125ZM15.3056 30.25V41.25C15.3056 42.7711 13.8657 44 12.0834 44C10.3011 44 8.86115 42.7711 8.86115 41.25V22.0773L5.98129 26.168C5.06497 27.4656 3.08129 27.8867 1.56081 27.1047C0.0403203 26.3227 -0.453082 24.6297 0.463237 23.332L6.33372 14.9961C8.08581 12.5125 11.2275 10.9914 14.6209 10.9914H17.6115C21.0049 10.9914 24.1466 12.5125 25.8987 14.9961L30.4198 21.4156C28.7987 22.9281 27.54 24.7242 26.7344 26.7008C26.5431 26.5461 26.382 26.3656 26.241 26.1594L23.3612 22.0773V41.25C23.3612 42.7711 21.9212 44 20.1389 44C18.3566 44 16.9167 42.7711 16.9167 41.25V30.25H15.3056ZM43.5 44C35.4948 44 29 38.457 29 31.625C29 24.793 35.4948 19.25 43.5 19.25C51.5053 19.25 58 24.793 58 31.625C58 38.457 51.5053 44 43.5 44ZM43.5 39.875C44.8393 39.875 45.9167 38.9555 45.9167 37.8125C45.9167 36.6695 44.8393 35.75 43.5 35.75C42.1608 35.75 41.0834 36.6695 41.0834 37.8125C41.0834 38.9555 42.1608 39.875 43.5 39.875ZM37.0556 27.6375V28.1875C37.0556 28.9438 37.7806 29.5625 38.6667 29.5625C39.5528 29.5625 40.2778 28.9438 40.2778 28.1875V27.6375C40.2778 27.182 40.7108 26.8125 41.2445 26.8125H45.3226C46.098 26.8125 46.7223 27.3453 46.7223 28.007C46.7223 28.4539 46.4303 28.8578 45.9771 29.0641L42.7549 30.5078C42.2212 30.7484 41.8889 31.2125 41.8889 31.7281V33C41.8889 33.7563 42.6139 34.375 43.5 34.375C44.3862 34.375 45.1112 33.7563 45.1112 33V32.5617L47.4775 31.5047C48.998 30.8258 49.9445 29.4766 49.9445 28.0156C49.9445 25.8328 47.8702 24.0711 45.3226 24.0711H41.2445C38.9285 24.0711 37.0556 25.6695 37.0556 27.6461V27.6375Z" fill="#14213D"/>
</g>
<defs>
<clipPath id="clip0_475_775">
<rect width="58" height="44" fill="white"/>
</clipPath>
</defs>
</svg>
