<svg viewBox="0 0 66 55" fill="none" xmlns="http://www.w3.org/2000/svg">
<g clip-path="url(#clip0_482_1154)">
<path d="M49.5 10.3125C52.2328 10.3125 54.45 8.00293 54.45 5.15625C54.45 2.30957 52.2328 0 49.5 0C46.7671 0 44.55 2.30957 44.55 5.15625C44.55 8.00293 46.7671 10.3125 49.5 10.3125ZM48.675 51.5625V37.8125H50.325V51.5625C50.325 53.4639 51.7996 55 53.625 55C55.4503 55 56.9249 53.4639 56.9249 51.5625V27.5967L59.8743 32.6992C60.8128 34.3213 62.8443 34.8477 64.4015 33.8701C65.9587 32.8926 66.464 30.7764 65.5256 29.1543L59.5134 18.7344C57.719 15.6299 54.5015 13.7285 51.0262 13.7285H47.9634C44.4881 13.7285 41.2706 15.6299 39.4762 18.7344L33.464 29.1543C32.5256 30.7764 33.0309 32.8926 34.5881 33.8701C36.1453 34.8477 38.1768 34.3213 39.1153 32.6992L42.075 27.5967V51.5625C42.075 53.4639 43.5496 55 45.375 55C47.2003 55 48.675 53.4639 48.675 51.5625ZM19.6865 1.94434C19.4287 1.28906 18.8306 0.859375 18.15 0.859375C17.4693 0.859375 16.8712 1.28906 16.6134 1.94434L13.5815 9.89355L5.7337 7.40137C5.08402 7.19727 4.38277 7.42285 3.95995 7.9707C3.53714 8.51855 3.48558 9.28125 3.81558 9.89355L7.88902 17.3164L1.12402 22.1719C0.567141 22.5693 0.299016 23.2783 0.453704 23.9658C0.608391 24.6533 1.14464 25.1689 1.80464 25.2764L9.92058 26.5869L9.34308 35.127C9.29152 35.8252 9.66277 36.4912 10.2712 36.792C10.8796 37.0928 11.6015 36.9854 12.1068 36.5127L18.15 30.7334L24.1931 36.5234C24.6881 36.9961 25.4203 37.1143 26.0287 36.8027C26.6371 36.4912 27.0084 35.8359 26.9568 35.1377L26.3793 26.6084L31.5871 25.7705L34.1034 21.4199L28.4109 17.3379L32.4843 9.9043C32.8246 9.29199 32.7628 8.5293 32.34 7.98145C31.9171 7.43359 31.2159 7.20801 30.5662 7.41211L22.7184 9.89355L19.6865 1.94434Z" fill="#14213D"/>
</g>
<defs>
<clipPath id="clip0_482_1154">
<rect width="66" height="55" fill="white"/>
</clipPath>
</defs>
</svg>
