<svg width="22" height="26" viewBox="0 0 22 26" fill="none" xmlns="http://www.w3.org/2000/svg">
<path d="M5.5 21.2143H7.07143C7.94062 21.2143 8.64286 20.5071 8.64286 19.6429V18.0714C8.64286 17.2071 7.94062 16.5 7.07143 16.5H5.5C4.6308 16.5 3.92857 17.2071 3.92857 18.0714V19.6429C3.92857 20.5071 4.6308 21.2143 5.5 21.2143ZM5.5 18.0714H7.07143V19.6429H5.5V18.0714ZM5.5 8.64286H7.07143C7.94062 8.64286 8.64286 7.93571 8.64286 7.07143V5.5C8.64286 4.63571 7.94062 3.92857 7.07143 3.92857H5.5C4.6308 3.92857 3.92857 4.63571 3.92857 5.5V7.07143C3.92857 7.93571 4.6308 8.64286 5.5 8.64286ZM5.5 5.5H7.07143V7.07143H5.5V5.5ZM20.4286 0H1.57143C0.702232 0 0 0.707143 0 1.57143V23.5714C0 24.4357 0.702232 25.1429 1.57143 25.1429H20.4286C21.2978 25.1429 22 24.4357 22 23.5714V1.57143C22 0.707143 21.2978 0 20.4286 0ZM20.4286 23.5714H1.57143V1.57143H20.4286V23.5714ZM10.6071 7.07143H16.8929C17.1089 7.07143 17.2857 6.89464 17.2857 6.67857V5.89286C17.2857 5.67679 17.1089 5.5 16.8929 5.5H10.6071C10.3911 5.5 10.2143 5.67679 10.2143 5.89286V6.67857C10.2143 6.89464 10.3911 7.07143 10.6071 7.07143ZM10.6071 13.3571H16.8929C17.1089 13.3571 17.2857 13.1804 17.2857 12.9643V12.1786C17.2857 11.9625 17.1089 11.7857 16.8929 11.7857H10.6071C10.3911 11.7857 10.2143 11.9625 10.2143 12.1786V12.9643C10.2143 13.1804 10.3911 13.3571 10.6071 13.3571ZM10.6071 19.6429H16.8929C17.1089 19.6429 17.2857 19.4661 17.2857 19.25V18.4643C17.2857 18.2482 17.1089 18.0714 16.8929 18.0714H10.6071C10.3911 18.0714 10.2143 18.2482 10.2143 18.4643V19.25C10.2143 19.4661 10.3911 19.6429 10.6071 19.6429ZM5.82411 14.0643C5.92723 14.1674 6.0942 14.1674 6.19732 14.0643L9.35 10.9411C9.45312 10.8379 9.45312 10.671 9.35 10.5679L8.73125 9.9442C8.62813 9.84107 8.46116 9.84107 8.35804 9.9442L6.02054 12.2621L5.00893 11.2357C4.9058 11.1326 4.73884 11.1326 4.63571 11.2357L4.01205 11.8545C3.90893 11.9576 3.90893 12.1246 4.01205 12.2277L5.82411 14.0643Z" fill="#14213D"/>
</svg>
