<svg width="22" height="20" viewBox="0 0 22 20" fill="none" xmlns="http://www.w3.org/2000/svg">
<path d="M20.7778 1.22222V18.3333H19.5556V1.22222H20.7778ZM14.6667 6.11111V18.3333H13.4444V6.11111H14.6667ZM8.55556 11V18.3333H7.33333V11H8.55556ZM2.44444 15.8889V18.3333H1.22222V15.8889H2.44444ZM20.7778 0H19.5556C18.8807 0 18.3333 0.547326 18.3333 1.22222V18.3333C18.3333 19.0082 18.8807 19.5556 19.5556 19.5556H20.7778C21.4527 19.5556 22 19.0082 22 18.3333V1.22222C22 0.547326 21.4527 0 20.7778 0ZM14.6667 4.88889H13.4444C12.7695 4.88889 12.2222 5.43622 12.2222 6.11111V18.3333C12.2222 19.0082 12.7695 19.5556 13.4444 19.5556H14.6667C15.3416 19.5556 15.8889 19.0082 15.8889 18.3333V6.11111C15.8889 5.43622 15.3416 4.88889 14.6667 4.88889ZM8.55556 9.77778H7.33333C6.65844 9.77778 6.11111 10.3251 6.11111 11V18.3333C6.11111 19.0082 6.65844 19.5556 7.33333 19.5556H8.55556C9.23045 19.5556 9.77778 19.0082 9.77778 18.3333V11C9.77778 10.3251 9.23045 9.77778 8.55556 9.77778ZM2.44444 14.6667H1.22222C0.547326 14.6667 0 15.214 0 15.8889V18.3333C0 19.0082 0.547326 19.5556 1.22222 19.5556H2.44444C3.11934 19.5556 3.66667 19.0082 3.66667 18.3333V15.8889C3.66667 15.214 3.11934 14.6667 2.44444 14.6667Z" fill="#14213D"/>
</svg>
