<svg viewBox="0 0 20 21" fill="none" xmlns="http://www.w3.org/2000/svg">
<path d="M11.5559 10.8586L11.4145 11L11.5559 11.1414L17.7416 17.3269C17.8195 17.4048 17.8195 17.5317 17.7416 17.6096L16.61 18.7411C16.5321 18.819 16.4053 18.819 16.3274 18.7411L15.2698 17.6836L10.1417 12.5556L10.0003 12.4142L9.85884 12.5556L3.67264 18.7411L3.67264 18.7411C3.59474 18.819 3.46786 18.819 3.38996 18.7411L2.25842 17.6096C2.18053 17.5317 2.18053 17.4048 2.25842 17.3269C2.25842 17.3269 2.25842 17.3269 2.25842 17.3269L8.44461 11.1414L8.58605 11L8.44462 10.8586L2.25842 4.67258C2.18054 4.59469 2.18053 4.46785 2.25839 4.38995C2.2584 4.38994 2.25841 4.38993 2.25842 4.38992L3.39043 3.25845L3.39046 3.25842C3.46836 3.18053 3.59523 3.18053 3.67313 3.25842C3.67313 3.25842 3.67314 3.25842 3.67314 3.25842L9.85883 9.44442L10.0002 9.58584L10.1417 9.44442L16.3274 3.25892C16.4053 3.18103 16.5321 3.18103 16.61 3.25892L17.7416 4.39042C17.8195 4.46832 17.8195 4.59518 17.7416 4.67308L16.684 5.73058L11.5559 10.8586Z" fill="#A8A8B3" stroke="white" stroke-width="0.4"/>
</svg>
