<svg width="320" height="172" viewBox="0 0 320 172" fill="none" xmlns="http://www.w3.org/2000/svg">
<path d="M90.0068 158.587C90.0068 158.291 89.9567 158.026 89.8564 157.794C89.7562 157.557 89.5898 157.347 89.3574 157.165C89.1296 156.978 88.8288 156.805 88.4551 156.646C88.0814 156.486 87.6211 156.331 87.0742 156.181C86.5729 156.044 86.1195 155.896 85.7139 155.736C85.3128 155.572 84.9688 155.385 84.6816 155.176C84.3991 154.966 84.1826 154.718 84.0322 154.431C83.8818 154.139 83.8066 153.795 83.8066 153.398C83.8066 153.016 83.8887 152.672 84.0527 152.366C84.2168 152.061 84.4469 151.801 84.7432 151.587C85.0439 151.368 85.3949 151.202 85.7959 151.088C86.2015 150.969 86.6436 150.91 87.1221 150.91C87.792 150.91 88.3776 151.038 88.8789 151.293C89.3802 151.544 89.7721 151.892 90.0547 152.339C90.3372 152.781 90.4785 153.289 90.4785 153.863H89.9248C89.9248 153.394 89.8086 152.975 89.5762 152.605C89.3483 152.236 89.0247 151.947 88.6055 151.737C88.1908 151.523 87.6963 151.416 87.1221 151.416C86.5296 151.416 86.026 151.507 85.6113 151.689C85.2012 151.872 84.889 152.113 84.6748 152.414C84.4652 152.71 84.3604 153.034 84.3604 153.385C84.3604 153.635 84.4059 153.87 84.4971 154.089C84.5928 154.308 84.7477 154.508 84.9619 154.69C85.1807 154.873 85.4746 155.046 85.8438 155.21C86.2174 155.369 86.6823 155.524 87.2383 155.675C87.7487 155.807 88.2067 155.957 88.6123 156.126C89.0225 156.29 89.3734 156.484 89.665 156.707C89.9567 156.93 90.18 157.195 90.335 157.5C90.4899 157.805 90.5674 158.163 90.5674 158.573C90.5674 158.979 90.4808 159.341 90.3076 159.66C90.1344 159.975 89.8929 160.243 89.583 160.467C89.2777 160.686 88.9176 160.852 88.5029 160.966C88.0928 161.08 87.6507 161.137 87.1768 161.137C86.7438 161.137 86.3086 161.084 85.8711 160.979C85.4382 160.875 85.0417 160.706 84.6816 160.474C84.3216 160.241 84.0322 159.936 83.8135 159.558C83.5947 159.179 83.4854 158.719 83.4854 158.177H84.0391C84.0391 158.642 84.1348 159.034 84.3262 159.353C84.5176 159.667 84.7682 159.918 85.0781 160.104C85.388 160.291 85.7253 160.426 86.0898 160.508C86.459 160.59 86.8213 160.631 87.1768 160.631C87.7327 160.631 88.2227 160.547 88.6465 160.378C89.0749 160.205 89.4076 159.965 89.6445 159.66C89.8861 159.35 90.0068 158.993 90.0068 158.587ZM92.8096 150.5V161H92.2695V150.5H92.8096ZM92.707 156.734L92.4404 156.42C92.4814 156.028 92.5771 155.654 92.7275 155.299C92.8825 154.943 93.0853 154.629 93.3359 154.355C93.5911 154.082 93.8874 153.866 94.2246 153.706C94.5664 153.547 94.9424 153.467 95.3525 153.467C95.7217 153.467 96.0521 153.519 96.3438 153.624C96.6354 153.724 96.8815 153.884 97.082 154.103C97.2871 154.321 97.4421 154.604 97.5469 154.95C97.6517 155.292 97.7041 155.709 97.7041 156.201V161H97.1641V156.201C97.1641 155.618 97.0843 155.167 96.9248 154.848C96.7653 154.524 96.542 154.296 96.2549 154.164C95.9723 154.032 95.6419 153.966 95.2637 153.966C94.8262 153.966 94.4479 154.064 94.1289 154.26C93.8145 154.451 93.5547 154.695 93.3496 154.991C93.1445 155.283 92.9873 155.586 92.8779 155.9C92.7731 156.215 92.7161 156.493 92.707 156.734ZM104.526 159.64V155.818C104.526 155.431 104.444 155.098 104.28 154.82C104.116 154.542 103.877 154.33 103.562 154.185C103.248 154.034 102.863 153.959 102.407 153.959C101.983 153.959 101.603 154.034 101.266 154.185C100.933 154.33 100.671 154.531 100.479 154.786C100.288 155.041 100.192 155.326 100.192 155.641L99.6455 155.634C99.6455 155.351 99.7116 155.08 99.8438 154.82C99.9805 154.561 100.172 154.33 100.418 154.13C100.669 153.925 100.963 153.763 101.3 153.645C101.642 153.526 102.015 153.467 102.421 153.467C102.94 153.467 103.398 153.556 103.795 153.733C104.196 153.907 104.508 154.169 104.731 154.52C104.955 154.87 105.066 155.308 105.066 155.832V159.482C105.066 159.747 105.085 160.013 105.121 160.282C105.158 160.551 105.208 160.768 105.271 160.932V161H104.677C104.627 160.827 104.588 160.615 104.561 160.364C104.538 160.114 104.526 159.872 104.526 159.64ZM104.704 156.803L104.718 157.274H102.913C102.457 157.274 102.049 157.318 101.689 157.404C101.329 157.491 101.024 157.614 100.773 157.773C100.523 157.933 100.331 158.122 100.199 158.341C100.067 158.56 100.001 158.806 100.001 159.079C100.001 159.362 100.076 159.621 100.227 159.858C100.377 160.095 100.589 160.285 100.862 160.426C101.136 160.562 101.452 160.631 101.812 160.631C102.305 160.631 102.74 160.547 103.118 160.378C103.501 160.205 103.822 159.972 104.082 159.681C104.342 159.384 104.531 159.043 104.649 158.655L104.889 159.052C104.811 159.293 104.69 159.537 104.526 159.783C104.362 160.029 104.15 160.255 103.891 160.46C103.631 160.66 103.326 160.825 102.975 160.952C102.624 161.075 102.225 161.137 101.778 161.137C101.309 161.137 100.899 161.05 100.548 160.877C100.201 160.699 99.9326 160.458 99.7412 160.152C99.5498 159.842 99.4541 159.489 99.4541 159.093C99.4541 158.751 99.5316 158.439 99.6865 158.156C99.8415 157.874 100.065 157.632 100.356 157.432C100.653 157.227 101.01 157.072 101.43 156.967C101.854 156.857 102.33 156.803 102.858 156.803H104.704ZM107.917 154.861V161H107.377V153.604H107.91L107.917 154.861ZM110.733 153.549L110.699 154.041C110.617 154.027 110.535 154.016 110.453 154.007C110.371 153.998 110.285 153.993 110.193 153.993C109.801 153.993 109.457 154.071 109.161 154.226C108.869 154.381 108.623 154.592 108.423 154.861C108.227 155.13 108.079 155.442 107.979 155.798C107.878 156.153 107.826 156.534 107.821 156.939L107.555 156.994C107.555 156.488 107.607 156.021 107.712 155.593C107.821 155.164 107.985 154.791 108.204 154.472C108.423 154.153 108.699 153.907 109.031 153.733C109.364 153.556 109.756 153.467 110.207 153.467C110.316 153.467 110.417 153.476 110.508 153.494C110.599 153.508 110.674 153.526 110.733 153.549ZM114.685 161.137C114.22 161.137 113.789 161.048 113.393 160.87C112.996 160.688 112.65 160.435 112.354 160.111C112.057 159.783 111.825 159.396 111.656 158.949C111.492 158.503 111.41 158.013 111.41 157.479V157.179C111.41 156.627 111.492 156.126 111.656 155.675C111.825 155.219 112.053 154.827 112.34 154.499C112.627 154.166 112.957 153.911 113.331 153.733C113.709 153.556 114.113 153.467 114.541 153.467C114.974 153.467 115.366 153.547 115.717 153.706C116.068 153.866 116.368 154.089 116.619 154.376C116.87 154.663 117.061 155.005 117.193 155.401C117.326 155.798 117.392 156.235 117.392 156.714V157.172H111.752V156.673H116.852V156.584C116.847 156.119 116.751 155.688 116.564 155.292C116.382 154.896 116.12 154.576 115.778 154.335C115.437 154.089 115.024 153.966 114.541 153.966C114.154 153.966 113.8 154.048 113.481 154.212C113.167 154.376 112.896 154.604 112.668 154.896C112.44 155.183 112.265 155.522 112.142 155.914C112.019 156.301 111.957 156.723 111.957 157.179V157.479C111.957 157.917 112.025 158.327 112.162 158.71C112.299 159.093 112.49 159.43 112.736 159.722C112.982 160.009 113.272 160.234 113.604 160.398C113.937 160.562 114.302 160.645 114.698 160.645C115.127 160.645 115.519 160.569 115.874 160.419C116.229 160.269 116.553 160.004 116.845 159.626L117.2 159.893C117.036 160.13 116.838 160.341 116.605 160.528C116.373 160.715 116.097 160.863 115.778 160.973C115.464 161.082 115.099 161.137 114.685 161.137ZM124.945 156.263V156.762H121.712V156.263H124.945ZM133.347 156.857H130.394V156.352H133.347C133.985 156.352 134.504 156.247 134.905 156.037C135.306 155.823 135.598 155.538 135.78 155.183C135.967 154.823 136.061 154.426 136.061 153.993C136.061 153.547 135.967 153.139 135.78 152.77C135.598 152.4 135.306 152.106 134.905 151.888C134.504 151.664 133.985 151.553 133.347 151.553H130.681V161H130.127V151.047H133.347C134.062 151.047 134.661 151.17 135.145 151.416C135.632 151.662 135.999 152.006 136.245 152.448C136.491 152.886 136.614 153.396 136.614 153.979C136.614 154.572 136.491 155.085 136.245 155.518C135.999 155.946 135.634 156.276 135.151 156.509C134.668 156.741 134.067 156.857 133.347 156.857ZM141.071 161.137C140.606 161.137 140.176 161.048 139.779 160.87C139.383 160.688 139.036 160.435 138.74 160.111C138.444 159.783 138.212 159.396 138.043 158.949C137.879 158.503 137.797 158.013 137.797 157.479V157.179C137.797 156.627 137.879 156.126 138.043 155.675C138.212 155.219 138.439 154.827 138.727 154.499C139.014 154.166 139.344 153.911 139.718 153.733C140.096 153.556 140.499 153.467 140.928 153.467C141.361 153.467 141.753 153.547 142.104 153.706C142.454 153.866 142.755 154.089 143.006 154.376C143.257 154.663 143.448 155.005 143.58 155.401C143.712 155.798 143.778 156.235 143.778 156.714V157.172H138.139V156.673H143.238V156.584C143.234 156.119 143.138 155.688 142.951 155.292C142.769 154.896 142.507 154.576 142.165 154.335C141.823 154.089 141.411 153.966 140.928 153.966C140.54 153.966 140.187 154.048 139.868 154.212C139.554 154.376 139.283 154.604 139.055 154.896C138.827 155.183 138.651 155.522 138.528 155.914C138.405 156.301 138.344 156.723 138.344 157.179V157.479C138.344 157.917 138.412 158.327 138.549 158.71C138.686 159.093 138.877 159.43 139.123 159.722C139.369 160.009 139.659 160.234 139.991 160.398C140.324 160.562 140.688 160.645 141.085 160.645C141.513 160.645 141.905 160.569 142.261 160.419C142.616 160.269 142.94 160.004 143.231 159.626L143.587 159.893C143.423 160.13 143.225 160.341 142.992 160.528C142.76 160.715 142.484 160.863 142.165 160.973C141.851 161.082 141.486 161.137 141.071 161.137ZM146.007 154.861V161H145.467V153.604H146L146.007 154.861ZM148.823 153.549L148.789 154.041C148.707 154.027 148.625 154.016 148.543 154.007C148.461 153.998 148.374 153.993 148.283 153.993C147.891 153.993 147.547 154.071 147.251 154.226C146.959 154.381 146.713 154.592 146.513 154.861C146.317 155.13 146.169 155.442 146.068 155.798C145.968 156.153 145.916 156.534 145.911 156.939L145.645 156.994C145.645 156.488 145.697 156.021 145.802 155.593C145.911 155.164 146.075 154.791 146.294 154.472C146.513 154.153 146.788 153.907 147.121 153.733C147.454 153.556 147.846 153.467 148.297 153.467C148.406 153.467 148.507 153.476 148.598 153.494C148.689 153.508 148.764 153.526 148.823 153.549ZM154.682 159.161C154.682 158.942 154.622 158.726 154.504 158.512C154.39 158.298 154.178 158.097 153.868 157.91C153.563 157.723 153.118 157.566 152.535 157.438C152.12 157.347 151.754 157.247 151.435 157.138C151.12 157.028 150.856 156.896 150.642 156.741C150.427 156.582 150.266 156.393 150.156 156.174C150.051 155.955 149.999 155.693 149.999 155.388C149.999 155.123 150.056 154.875 150.17 154.643C150.284 154.41 150.45 154.207 150.669 154.034C150.892 153.856 151.159 153.717 151.469 153.617C151.779 153.517 152.13 153.467 152.521 153.467C153.082 153.467 153.561 153.56 153.957 153.747C154.358 153.929 154.666 154.182 154.88 154.506C155.094 154.825 155.201 155.196 155.201 155.62H154.654C154.654 155.333 154.572 155.064 154.408 154.813C154.244 154.563 154.003 154.36 153.684 154.205C153.369 154.046 152.982 153.966 152.521 153.966C152.057 153.966 151.678 154.036 151.387 154.178C151.095 154.319 150.881 154.499 150.744 154.718C150.612 154.932 150.546 155.151 150.546 155.374C150.546 155.552 150.571 155.718 150.621 155.873C150.676 156.023 150.778 156.162 150.929 156.29C151.079 156.418 151.296 156.541 151.578 156.659C151.861 156.773 152.228 156.88 152.679 156.98C153.271 157.113 153.754 157.274 154.128 157.466C154.502 157.653 154.777 157.883 154.955 158.156C155.133 158.425 155.222 158.756 155.222 159.147C155.222 159.439 155.16 159.708 155.037 159.954C154.914 160.196 154.736 160.405 154.504 160.583C154.276 160.761 153.998 160.897 153.67 160.993C153.342 161.089 152.977 161.137 152.576 161.137C151.97 161.137 151.455 161.041 151.031 160.85C150.612 160.654 150.293 160.396 150.074 160.077C149.86 159.758 149.753 159.414 149.753 159.045H150.3C150.332 159.451 150.464 159.77 150.696 160.002C150.933 160.234 151.22 160.398 151.558 160.494C151.899 160.59 152.239 160.638 152.576 160.638C153.036 160.638 153.422 160.567 153.731 160.426C154.046 160.28 154.283 160.095 154.442 159.872C154.602 159.644 154.682 159.407 154.682 159.161ZM157.819 153.604V161H157.272V153.604H157.819ZM157.102 151.361C157.102 151.238 157.143 151.133 157.225 151.047C157.311 150.956 157.421 150.91 157.553 150.91C157.68 150.91 157.787 150.956 157.874 151.047C157.961 151.133 158.004 151.238 158.004 151.361C158.004 151.484 157.961 151.589 157.874 151.676C157.787 151.758 157.68 151.799 157.553 151.799C157.421 151.799 157.311 151.758 157.225 151.676C157.143 151.589 157.102 151.484 157.102 151.361ZM164.689 159.161C164.689 158.942 164.63 158.726 164.512 158.512C164.398 158.298 164.186 158.097 163.876 157.91C163.571 157.723 163.126 157.566 162.543 157.438C162.128 157.347 161.761 157.247 161.442 157.138C161.128 157.028 160.864 156.896 160.649 156.741C160.435 156.582 160.273 156.393 160.164 156.174C160.059 155.955 160.007 155.693 160.007 155.388C160.007 155.123 160.064 154.875 160.178 154.643C160.292 154.41 160.458 154.207 160.677 154.034C160.9 153.856 161.167 153.717 161.477 153.617C161.786 153.517 162.137 153.467 162.529 153.467C163.09 153.467 163.568 153.56 163.965 153.747C164.366 153.929 164.674 154.182 164.888 154.506C165.102 154.825 165.209 155.196 165.209 155.62H164.662C164.662 155.333 164.58 155.064 164.416 154.813C164.252 154.563 164.01 154.36 163.691 154.205C163.377 154.046 162.99 153.966 162.529 153.966C162.064 153.966 161.686 154.036 161.395 154.178C161.103 154.319 160.889 154.499 160.752 154.718C160.62 154.932 160.554 155.151 160.554 155.374C160.554 155.552 160.579 155.718 160.629 155.873C160.684 156.023 160.786 156.162 160.937 156.29C161.087 156.418 161.303 156.541 161.586 156.659C161.868 156.773 162.235 156.88 162.687 156.98C163.279 157.113 163.762 157.274 164.136 157.466C164.509 157.653 164.785 157.883 164.963 158.156C165.141 158.425 165.229 158.756 165.229 159.147C165.229 159.439 165.168 159.708 165.045 159.954C164.922 160.196 164.744 160.405 164.512 160.583C164.284 160.761 164.006 160.897 163.678 160.993C163.35 161.089 162.985 161.137 162.584 161.137C161.978 161.137 161.463 161.041 161.039 160.85C160.62 160.654 160.301 160.396 160.082 160.077C159.868 159.758 159.761 159.414 159.761 159.045H160.308C160.34 159.451 160.472 159.77 160.704 160.002C160.941 160.234 161.228 160.398 161.565 160.494C161.907 160.59 162.247 160.638 162.584 160.638C163.044 160.638 163.429 160.567 163.739 160.426C164.054 160.28 164.291 160.095 164.45 159.872C164.61 159.644 164.689 159.407 164.689 159.161ZM169.816 153.604V154.096H166.275V153.604H169.816ZM167.643 151.648H168.189V159.216C168.189 159.612 168.237 159.913 168.333 160.118C168.433 160.319 168.563 160.455 168.723 160.528C168.887 160.597 169.062 160.631 169.249 160.631C169.381 160.631 169.502 160.624 169.611 160.61C169.725 160.597 169.839 160.581 169.953 160.562L170.001 161.041C169.901 161.073 169.771 161.096 169.611 161.109C169.452 161.128 169.311 161.137 169.188 161.137C168.878 161.137 168.606 161.08 168.374 160.966C168.142 160.852 167.962 160.656 167.834 160.378C167.706 160.095 167.643 159.708 167.643 159.216V151.648ZM177.514 156.263V156.762H174.28V156.263H177.514ZM189.019 157.931H189.572C189.504 158.628 189.317 159.216 189.012 159.694C188.706 160.168 188.296 160.528 187.781 160.774C187.271 161.016 186.669 161.137 185.977 161.137C185.425 161.137 184.924 161.032 184.473 160.822C184.026 160.608 183.641 160.307 183.317 159.92C182.998 159.528 182.752 159.061 182.579 158.519C182.406 157.976 182.319 157.377 182.319 156.721V155.326C182.319 154.665 182.406 154.066 182.579 153.528C182.752 152.986 182.998 152.521 183.317 152.134C183.641 151.742 184.028 151.441 184.479 151.231C184.935 151.017 185.443 150.91 186.004 150.91C186.683 150.91 187.278 151.031 187.788 151.272C188.299 151.514 188.706 151.874 189.012 152.353C189.317 152.826 189.504 153.412 189.572 154.109H189.019C188.95 153.531 188.793 153.043 188.547 152.646C188.305 152.245 187.973 151.94 187.549 151.73C187.125 151.521 186.61 151.416 186.004 151.416C185.525 151.416 185.095 151.509 184.712 151.696C184.329 151.879 184.001 152.143 183.728 152.489C183.454 152.831 183.242 153.241 183.092 153.72C182.946 154.194 182.873 154.725 182.873 155.312V156.721C182.873 157.299 182.946 157.83 183.092 158.313C183.238 158.792 183.445 159.204 183.714 159.551C183.983 159.893 184.309 160.159 184.691 160.351C185.074 160.537 185.503 160.631 185.977 160.631C186.583 160.631 187.1 160.535 187.528 160.344C187.957 160.148 188.294 159.849 188.54 159.448C188.791 159.047 188.95 158.541 189.019 157.931ZM191.062 157.432V157.172C191.062 156.63 191.14 156.133 191.295 155.682C191.454 155.23 191.678 154.841 191.965 154.513C192.252 154.18 192.594 153.923 192.99 153.74C193.391 153.558 193.836 153.467 194.323 153.467C194.811 153.467 195.255 153.558 195.656 153.74C196.057 153.923 196.401 154.18 196.688 154.513C196.98 154.841 197.203 155.23 197.358 155.682C197.513 156.133 197.591 156.63 197.591 157.172V157.432C197.591 157.974 197.513 158.471 197.358 158.922C197.203 159.373 196.982 159.765 196.695 160.098C196.408 160.426 196.064 160.681 195.663 160.863C195.267 161.046 194.825 161.137 194.337 161.137C193.845 161.137 193.398 161.046 192.997 160.863C192.601 160.681 192.257 160.426 191.965 160.098C191.678 159.765 191.454 159.373 191.295 158.922C191.14 158.471 191.062 157.974 191.062 157.432ZM191.609 157.172V157.432C191.609 157.86 191.669 158.268 191.787 158.655C191.91 159.038 192.088 159.38 192.32 159.681C192.553 159.977 192.838 160.212 193.175 160.385C193.512 160.553 193.899 160.638 194.337 160.638C194.765 160.638 195.148 160.553 195.485 160.385C195.823 160.212 196.105 159.977 196.333 159.681C196.565 159.38 196.741 159.038 196.859 158.655C196.982 158.268 197.044 157.86 197.044 157.432V157.172C197.044 156.753 196.982 156.352 196.859 155.969C196.741 155.586 196.565 155.244 196.333 154.943C196.101 154.643 195.816 154.406 195.479 154.232C195.141 154.055 194.756 153.966 194.323 153.966C193.89 153.966 193.505 154.055 193.168 154.232C192.835 154.406 192.55 154.643 192.313 154.943C192.081 155.244 191.906 155.586 191.787 155.969C191.669 156.352 191.609 156.753 191.609 157.172ZM199.833 155.169V161H199.286V153.604H199.819L199.833 155.169ZM199.744 156.734L199.471 156.42C199.507 156.028 199.598 155.654 199.744 155.299C199.895 154.943 200.093 154.629 200.339 154.355C200.59 154.082 200.883 153.866 201.221 153.706C201.562 153.547 201.943 153.467 202.362 153.467C202.731 153.467 203.062 153.517 203.354 153.617C203.65 153.713 203.9 153.866 204.105 154.075C204.311 154.28 204.468 154.549 204.577 154.882C204.687 155.215 204.741 155.613 204.741 156.078V161H204.194V156.092C204.194 155.536 204.112 155.105 203.948 154.8C203.784 154.494 203.556 154.28 203.265 154.157C202.973 154.03 202.638 153.966 202.26 153.966C201.813 153.966 201.433 154.064 201.118 154.26C200.804 154.451 200.546 154.695 200.346 154.991C200.15 155.283 200.004 155.586 199.908 155.9C199.812 156.215 199.758 156.493 199.744 156.734ZM204.734 156.126L204.365 155.996C204.402 155.663 204.495 155.347 204.646 155.046C204.8 154.741 205.003 154.472 205.254 154.239C205.505 154.002 205.799 153.815 206.136 153.679C206.478 153.537 206.856 153.467 207.271 153.467C207.649 153.467 207.986 153.519 208.282 153.624C208.583 153.724 208.834 153.886 209.034 154.109C209.239 154.328 209.396 154.611 209.506 154.957C209.615 155.299 209.67 155.714 209.67 156.201V161H209.123V156.194C209.123 155.611 209.041 155.158 208.877 154.834C208.713 154.51 208.485 154.285 208.193 154.157C207.902 154.025 207.564 153.961 207.182 153.966C206.776 153.97 206.423 154.046 206.122 154.191C205.821 154.337 205.571 154.522 205.37 154.745C205.17 154.968 205.017 155.203 204.912 155.449C204.807 155.691 204.748 155.916 204.734 156.126ZM212.377 155.025V163.844H211.83V153.604H212.356L212.377 155.025ZM217.613 157.227V157.37C217.613 157.931 217.549 158.441 217.422 158.901C217.299 159.362 217.117 159.758 216.875 160.091C216.638 160.424 216.346 160.681 216 160.863C215.654 161.046 215.259 161.137 214.817 161.137C214.394 161.137 214.013 161.075 213.676 160.952C213.339 160.825 213.047 160.647 212.801 160.419C212.555 160.191 212.356 159.931 212.206 159.64C212.056 159.343 211.951 159.027 211.892 158.689V156.119C211.969 155.732 212.085 155.379 212.24 155.06C212.4 154.736 212.598 154.456 212.835 154.219C213.076 153.977 213.361 153.793 213.689 153.665C214.018 153.533 214.389 153.467 214.804 153.467C215.246 153.467 215.64 153.556 215.986 153.733C216.337 153.907 216.633 154.157 216.875 154.485C217.117 154.809 217.299 155.203 217.422 155.668C217.549 156.128 217.613 156.648 217.613 157.227ZM217.06 157.37V157.227C217.06 156.762 217.012 156.331 216.916 155.935C216.825 155.538 216.684 155.194 216.492 154.902C216.301 154.611 216.059 154.383 215.768 154.219C215.476 154.055 215.132 153.973 214.735 153.973C214.302 153.973 213.936 154.046 213.635 154.191C213.334 154.333 213.086 154.517 212.89 154.745C212.698 154.973 212.55 155.219 212.445 155.483C212.34 155.743 212.263 155.989 212.213 156.222V158.648C212.295 159.013 212.441 159.346 212.65 159.646C212.86 159.947 213.138 160.189 213.484 160.371C213.835 160.549 214.257 160.638 214.749 160.638C215.146 160.638 215.487 160.556 215.774 160.392C216.062 160.228 216.301 160 216.492 159.708C216.684 159.416 216.825 159.072 216.916 158.676C217.012 158.275 217.06 157.84 217.06 157.37ZM222.296 161.137C221.831 161.137 221.4 161.048 221.004 160.87C220.607 160.688 220.261 160.435 219.965 160.111C219.669 159.783 219.436 159.396 219.268 158.949C219.104 158.503 219.021 158.013 219.021 157.479V157.179C219.021 156.627 219.104 156.126 219.268 155.675C219.436 155.219 219.664 154.827 219.951 154.499C220.238 154.166 220.569 153.911 220.942 153.733C221.321 153.556 221.724 153.467 222.152 153.467C222.585 153.467 222.977 153.547 223.328 153.706C223.679 153.866 223.98 154.089 224.23 154.376C224.481 154.663 224.673 155.005 224.805 155.401C224.937 155.798 225.003 156.235 225.003 156.714V157.172H219.363V156.673H224.463V156.584C224.458 156.119 224.363 155.688 224.176 155.292C223.993 154.896 223.731 154.576 223.39 154.335C223.048 154.089 222.635 153.966 222.152 153.966C221.765 153.966 221.412 154.048 221.093 154.212C220.778 154.376 220.507 154.604 220.279 154.896C220.051 155.183 219.876 155.522 219.753 155.914C219.63 156.301 219.568 156.723 219.568 157.179V157.479C219.568 157.917 219.637 158.327 219.773 158.71C219.91 159.093 220.102 159.43 220.348 159.722C220.594 160.009 220.883 160.234 221.216 160.398C221.549 160.562 221.913 160.645 222.31 160.645C222.738 160.645 223.13 160.569 223.485 160.419C223.841 160.269 224.164 160.004 224.456 159.626L224.812 159.893C224.647 160.13 224.449 160.341 224.217 160.528C223.984 160.715 223.709 160.863 223.39 160.973C223.075 161.082 222.711 161.137 222.296 161.137ZM229.316 153.604V154.096H225.775V153.604H229.316ZM227.143 151.648H227.689V159.216C227.689 159.612 227.737 159.913 227.833 160.118C227.933 160.319 228.063 160.455 228.223 160.528C228.387 160.597 228.562 160.631 228.749 160.631C228.881 160.631 229.002 160.624 229.111 160.61C229.225 160.597 229.339 160.581 229.453 160.562L229.501 161.041C229.401 161.073 229.271 161.096 229.111 161.109C228.952 161.128 228.811 161.137 228.688 161.137C228.378 161.137 228.106 161.08 227.874 160.966C227.642 160.852 227.462 160.656 227.334 160.378C227.206 160.095 227.143 159.708 227.143 159.216V151.648ZM233.89 161.137C233.425 161.137 232.994 161.048 232.598 160.87C232.201 160.688 231.855 160.435 231.559 160.111C231.262 159.783 231.03 159.396 230.861 158.949C230.697 158.503 230.615 158.013 230.615 157.479V157.179C230.615 156.627 230.697 156.126 230.861 155.675C231.03 155.219 231.258 154.827 231.545 154.499C231.832 154.166 232.162 153.911 232.536 153.733C232.914 153.556 233.318 153.467 233.746 153.467C234.179 153.467 234.571 153.547 234.922 153.706C235.273 153.866 235.574 154.089 235.824 154.376C236.075 154.663 236.266 155.005 236.398 155.401C236.531 155.798 236.597 156.235 236.597 156.714V157.172H230.957V156.673H236.057V156.584C236.052 156.119 235.956 155.688 235.77 155.292C235.587 154.896 235.325 154.576 234.983 154.335C234.642 154.089 234.229 153.966 233.746 153.966C233.359 153.966 233.006 154.048 232.687 154.212C232.372 154.376 232.101 154.604 231.873 154.896C231.645 155.183 231.47 155.522 231.347 155.914C231.224 156.301 231.162 156.723 231.162 157.179V157.479C231.162 157.917 231.23 158.327 231.367 158.71C231.504 159.093 231.695 159.43 231.941 159.722C232.188 160.009 232.477 160.234 232.81 160.398C233.142 160.562 233.507 160.645 233.903 160.645C234.332 160.645 234.724 160.569 235.079 160.419C235.435 160.269 235.758 160.004 236.05 159.626L236.405 159.893C236.241 160.13 236.043 160.341 235.811 160.528C235.578 160.715 235.302 160.863 234.983 160.973C234.669 161.082 234.304 161.137 233.89 161.137Z" fill="#A8A8B3"/>
<path d="M116.806 105.52H115.569V104.282C115.569 103.356 114.818 102.605 113.892 102.605C112.965 102.605 112.215 103.356 112.215 104.282V105.52H110.977C110.05 105.52 109.3 106.271 109.3 107.197C109.3 108.124 110.05 108.874 110.977 108.874H112.215V110.112C112.215 111.039 112.965 111.789 113.892 111.789C114.818 111.789 115.569 111.039 115.569 110.112V108.874H116.806C117.733 108.874 118.483 108.124 118.483 107.197C118.483 106.271 117.733 105.52 116.806 105.52Z" fill="#EDF4FC"/>
<path d="M226.206 36.7301C227.197 36.7301 228 35.9269 228 34.9361C228 33.9452 227.197 33.142 226.206 33.142C225.215 33.142 224.412 33.9452 224.412 34.9361C224.412 35.9269 225.215 36.7301 226.206 36.7301Z" fill="#EDF4FC"/>
<path d="M105.081 96.7613C106.072 96.7613 106.875 95.9581 106.875 94.9673C106.875 93.9765 106.072 93.1733 105.081 93.1733C104.09 93.1733 103.287 93.9765 103.287 94.9673C103.287 95.9581 104.09 96.7613 105.081 96.7613Z" fill="#EDF4FC"/>
<path d="M111.124 30.7105H106.674C104.272 30.7105 102.326 32.657 102.326 35.0588V80.4791C102.326 82.8803 104.272 84.8273 106.674 84.8273H111.124C113.525 84.8273 115.472 82.8808 115.472 80.4791V35.0588C115.472 32.6575 113.525 30.7105 111.124 30.7105Z" fill="#14213D"/>
<path d="M209.018 30.7105H204.568C202.166 30.7105 200.22 32.657 200.22 35.0588V74.1147H202.597C204.998 74.1147 206.944 76.0612 206.944 78.4624V84.8268H209.018C211.419 84.8268 213.366 82.8803 213.366 80.4791V35.0588C213.366 32.6575 211.419 30.7105 209.018 30.7105Z" fill="#14213D"/>
<path d="M187.074 51.1955H128.618V64.3418H187.074V51.1955Z" fill="#C7D7E5"/>
<path d="M172.404 51.1955H143.287V64.3418H172.404V51.1955Z" fill="#EDF4FC"/>
<path d="M215.79 51.1955H213.366V64.3418H215.79C219.42 64.3418 222.363 61.3987 222.363 57.7687C222.363 54.1386 219.421 51.1955 215.79 51.1955Z" fill="#C7D7E5"/>
<path d="M99.9013 51.1955C96.2713 51.1955 93.3281 54.1381 93.3281 57.7687C93.3281 61.3987 96.2707 64.3418 99.9013 64.3418H102.326V51.1955H99.9013Z" fill="#C7D7E5"/>
<path d="M193.798 88.4861H147.569V101.632H193.798V88.4861Z" fill="#C7D7E5"/>
<path d="M185.242 88.4861H156.125V101.632H185.242V88.4861Z" fill="#EDF4FC"/>
<path d="M202.596 74.1147H198.146C195.745 74.1147 193.798 76.0612 193.798 78.4624V111.656C193.798 114.057 195.745 116.004 198.146 116.004H202.596C204.997 116.004 206.944 114.057 206.944 111.656V78.4624C206.944 76.0612 204.997 74.1147 202.596 74.1147Z" fill="#FCA311"/>
<path d="M209.369 88.4861H206.944V101.632H209.369C212.999 101.632 215.942 98.6898 215.942 95.0592C215.942 91.4287 212.999 88.4861 209.369 88.4861Z" fill="#C7D7E5"/>
<path d="M143.221 74.1147H138.771C136.369 74.1147 134.423 76.0612 134.423 78.4624V111.656C134.423 114.057 136.369 116.004 138.771 116.004H143.221C145.622 116.004 147.569 114.057 147.569 111.656V78.4624C147.569 76.0612 145.622 74.1147 143.221 74.1147Z" fill="#FCA311"/>
<path d="M131.998 88.4861C128.368 88.4861 125.425 91.4287 125.425 95.0592C125.425 98.6898 128.368 101.632 131.998 101.632H134.423V88.4861H131.998Z" fill="#C7D7E5"/>
<path d="M195.872 20.3405H191.421C189.02 20.3405 187.074 22.287 187.074 24.6888V88.4866H193.798V78.463C193.798 76.0617 195.745 74.1152 198.146 74.1152H200.219V24.6888C200.22 22.287 198.273 20.3405 195.872 20.3405Z" fill="#304B84"/>
<path d="M124.27 20.3405H119.82C117.419 20.3405 115.472 22.287 115.472 24.6888V90.8491C115.472 93.2503 117.419 95.1973 119.82 95.1973H124.27C124.671 95.1973 125.058 95.1384 125.427 95.0369C125.435 92.6543 126.714 90.576 128.619 89.4301V24.6888C128.618 22.287 126.671 20.3405 124.27 20.3405Z" fill="#304B84"/>
<path d="M115.499 79.2471C114.759 79.2248 114.159 79.8123 114.143 80.546C114.107 82.1737 112.753 83.4987 111.123 83.4987H106.673C105.008 83.4987 103.653 82.144 103.653 80.4791V35.0588C103.653 33.3938 105.008 32.0392 106.673 32.0392H111.123C112.768 32.0392 114.122 33.3763 114.143 35.0189C114.153 35.7526 114.755 36.3317 115.488 36.3301C116.222 36.3205 116.809 35.7186 116.799 34.9849C116.759 31.8957 114.214 29.3824 111.123 29.3824H106.673C103.543 29.3824 100.997 31.9287 100.997 35.0582V80.4785C100.997 83.6081 103.543 86.1544 106.673 86.1544H111.123C114.186 86.1544 116.732 83.6639 116.798 80.6034C116.814 79.8703 116.233 79.263 115.499 79.2471Z" fill="black"/>
<path d="M209.018 29.3824H204.568C201.477 29.3824 198.931 31.8963 198.892 34.9865C198.883 35.7197 199.47 36.3221 200.203 36.3311C200.941 36.3327 201.539 35.7531 201.548 35.0195C201.569 33.3758 202.923 32.0386 204.568 32.0386H209.018C210.683 32.0386 212.038 33.3933 212.038 35.0588V80.4791C212.038 82.144 210.683 83.4987 209.018 83.4987H207.448C206.714 83.4987 206.119 84.0932 206.119 84.8268C206.119 85.5605 206.714 86.1549 207.448 86.1549H209.018C212.147 86.1549 214.694 83.6087 214.694 80.4791V35.0588C214.694 31.9287 212.147 29.3824 209.018 29.3824Z" fill="black"/>
<path d="M186.828 49.8679H129.088C128.354 49.8679 127.759 50.4624 127.759 51.196C127.759 51.9297 128.354 52.5242 129.088 52.5242H186.828C187.562 52.5242 188.156 51.9297 188.156 51.196C188.156 50.4624 187.562 49.8679 186.828 49.8679Z" fill="black"/>
<path d="M186.53 63.0137H129.155C128.421 63.0137 127.826 63.6082 127.826 64.3418C127.826 65.0755 128.421 65.6699 129.155 65.6699H186.53C187.263 65.6699 187.858 65.0755 187.858 64.3418C187.858 63.6082 187.263 63.0137 186.53 63.0137Z" fill="black"/>
<path d="M172.405 50.4023C171.671 50.4023 171.077 50.9968 171.077 51.7305V63.8499C171.077 64.5835 171.671 65.178 172.405 65.178C173.138 65.178 173.733 64.5835 173.733 63.8499V51.7305C173.733 50.9968 173.138 50.4023 172.405 50.4023Z" fill="black"/>
<path d="M143.287 50.3912C142.554 50.3912 141.959 50.9857 141.959 51.7193V63.9269C141.959 64.6606 142.554 65.255 143.287 65.255C144.021 65.255 144.616 64.6606 144.616 63.9269V51.7193C144.616 50.9857 144.021 50.3912 143.287 50.3912Z" fill="black"/>
<path d="M215.79 49.8679H213.855C213.122 49.8679 212.527 50.4624 212.527 51.196C212.527 51.9297 213.122 52.5242 213.855 52.5242H215.79C218.682 52.5242 221.035 54.8771 221.035 57.7692C221.035 60.6613 218.682 63.0142 215.79 63.0142H213.833C213.1 63.0142 212.505 63.6087 212.505 64.3423C212.505 65.076 213.1 65.6705 213.833 65.6705H215.79C220.147 65.6705 223.692 62.126 223.692 57.7692C223.692 53.4124 220.147 49.8679 215.79 49.8679Z" fill="black"/>
<path d="M101.607 63.0137H99.9013C97.0092 63.0137 94.6562 60.6608 94.6562 57.7687C94.6562 54.8765 97.0092 52.5236 99.9013 52.5236H101.96C102.694 52.5236 103.289 51.9292 103.289 51.1955C103.289 50.4618 102.694 49.8674 101.96 49.8674H99.9013C95.5445 49.8679 92 53.4124 92 57.7687C92 62.1254 95.5445 65.6699 99.9013 65.6699H101.607C102.34 65.6699 102.935 65.0755 102.935 64.3418C102.935 63.6082 102.34 63.0137 101.607 63.0137Z" fill="black"/>
<path d="M193.38 87.1585H147.892C147.158 87.1585 146.564 87.7529 146.564 88.4866C146.564 89.2203 147.158 89.8147 147.892 89.8147H193.38C194.114 89.8147 194.708 89.2203 194.708 88.4866C194.708 87.7529 194.114 87.1585 193.38 87.1585Z" fill="black"/>
<path d="M193.303 100.304H147.997C147.263 100.304 146.669 100.899 146.669 101.632C146.669 102.366 147.263 102.961 147.997 102.961H193.303C194.037 102.961 194.631 102.366 194.631 101.632C194.631 100.899 194.037 100.304 193.303 100.304Z" fill="black"/>
<path d="M185.242 87.6563C184.509 87.6563 183.914 88.2507 183.914 88.9844V101.104C183.914 101.837 184.509 102.432 185.242 102.432C185.976 102.432 186.57 101.837 186.57 101.104V88.9844C186.57 88.2513 185.976 87.6563 185.242 87.6563Z" fill="black"/>
<path d="M156.125 87.6233C155.391 87.6233 154.797 88.2178 154.797 88.9514V101.203C154.797 101.937 155.391 102.531 156.125 102.531C156.859 102.531 157.453 101.937 157.453 101.203V88.9509C157.453 88.2178 156.858 87.6233 156.125 87.6233Z" fill="black"/>
<path d="M202.596 72.786H198.146C195.016 72.786 192.47 75.3323 192.47 78.4624V111.656C192.47 114.786 195.016 117.332 198.146 117.332H202.596C205.726 117.332 208.273 114.786 208.273 111.656V78.4624C208.273 75.3323 205.726 72.786 202.596 72.786ZM205.616 111.656C205.616 113.321 204.262 114.676 202.596 114.676H198.146C196.481 114.676 195.126 113.321 195.126 111.656V78.4624C195.126 76.7975 196.481 75.4423 198.146 75.4423H202.596C204.261 75.4423 205.616 76.797 205.616 78.4624V111.656Z" fill="black"/>
<path d="M209.369 87.1585H207.281C206.548 87.1585 205.953 87.7529 205.953 88.4866C205.953 89.2203 206.548 89.8147 207.281 89.8147H209.369C212.261 89.8147 214.614 92.1676 214.614 95.0598C214.614 97.9519 212.261 100.305 209.369 100.305H207.414C206.68 100.305 206.086 100.899 206.086 101.633C206.086 102.367 206.68 102.961 207.414 102.961H209.369C213.726 102.961 217.27 99.4165 217.27 95.0598C217.27 90.7024 213.725 87.1585 209.369 87.1585Z" fill="black"/>
<path d="M143.221 72.786H138.771C135.641 72.786 133.094 75.3323 133.094 78.4624V111.656C133.094 114.786 135.641 117.332 138.771 117.332H143.221C146.351 117.332 148.897 114.786 148.897 111.656V78.4624C148.897 75.3323 146.351 72.786 143.221 72.786ZM146.241 111.656C146.241 113.321 144.886 114.676 143.221 114.676H138.771C137.106 114.676 135.751 113.321 135.751 111.656V78.4624C135.751 76.7975 137.105 75.4423 138.771 75.4423H143.221C144.886 75.4423 146.241 76.797 146.241 78.4624V111.656Z" fill="black"/>
<path d="M133.836 100.304H131.998C129.106 100.304 126.753 97.9513 126.753 95.0592C126.753 92.1671 129.106 89.8142 131.998 89.8142H134.057C134.791 89.8142 135.386 89.2197 135.386 88.4861C135.386 87.7524 134.791 87.1579 134.057 87.1579H131.998C127.642 87.1579 124.097 90.7024 124.097 95.0592C124.097 99.416 127.642 102.96 131.998 102.96H133.836C134.57 102.96 135.164 102.366 135.164 101.632C135.164 100.899 134.57 100.304 133.836 100.304Z" fill="black"/>
<path d="M195.872 19.0124H191.421C188.291 19.0124 185.745 21.5587 185.745 24.6888V87.8337C185.745 88.5673 186.339 89.1618 187.073 89.1618C187.807 89.1618 188.401 88.5673 188.401 87.8337V24.6888C188.401 23.0238 189.756 21.6686 191.421 21.6686H195.872C197.537 21.6686 198.891 23.0233 198.891 24.6888V73.7997C198.891 74.5333 199.486 75.1278 200.219 75.1278C200.953 75.1278 201.547 74.5333 201.547 73.7997V24.6888C201.548 21.5587 199.002 19.0124 195.872 19.0124Z" fill="black"/>
<path d="M124.27 19.0124H119.82C116.69 19.0124 114.144 21.5587 114.144 24.6888V90.8491C114.144 93.9792 116.69 96.5255 119.82 96.5255H124.27C124.571 96.5255 124.877 96.5 125.179 96.45C125.902 96.3294 126.392 95.6457 126.271 94.9222C126.151 94.1986 125.47 93.7098 124.744 93.8294C124.585 93.8559 124.426 93.8692 124.27 93.8692H119.82C118.155 93.8692 116.8 92.5145 116.8 90.8491V24.6888C116.8 23.0238 118.154 21.6686 119.82 21.6686H124.27C125.935 21.6686 127.29 23.0233 127.29 24.6888V89.1613C127.29 89.8949 127.884 90.4894 128.618 90.4894C129.352 90.4894 129.946 89.8949 129.946 89.1613V24.6888C129.946 21.5587 127.4 19.0124 124.27 19.0124Z" fill="black"/>
<path d="M106.809 120.477L100.645 137H99.9531L106.34 119.938H106.949L106.809 120.477ZM112.809 137L106.645 120.477L106.516 119.938H107.113L113.5 137H112.809ZM111.004 131.27V131.902H102.461V131.27H111.004ZM120.227 136.602C120.891 136.602 121.52 136.484 122.113 136.25C122.715 136.008 123.215 135.633 123.613 135.125C124.02 134.617 124.246 133.961 124.293 133.156H124.926C124.887 134.016 124.648 134.75 124.211 135.359C123.773 135.969 123.207 136.434 122.512 136.754C121.816 137.074 121.055 137.234 120.227 137.234C119.406 137.234 118.672 137.082 118.023 136.777C117.383 136.465 116.84 136.027 116.395 135.465C115.957 134.902 115.621 134.234 115.387 133.461C115.16 132.688 115.047 131.836 115.047 130.906V130.414C115.047 129.484 115.16 128.633 115.387 127.859C115.621 127.086 115.957 126.418 116.395 125.855C116.84 125.293 117.379 124.859 118.012 124.555C118.652 124.242 119.383 124.086 120.203 124.086C121.023 124.086 121.781 124.254 122.477 124.59C123.18 124.918 123.754 125.41 124.199 126.066C124.645 126.723 124.887 127.535 124.926 128.504H124.293C124.254 127.66 124.039 126.961 123.648 126.406C123.266 125.844 122.77 125.422 122.16 125.141C121.551 124.859 120.898 124.719 120.203 124.719C119.43 124.719 118.758 124.867 118.188 125.164C117.617 125.453 117.145 125.859 116.77 126.383C116.402 126.906 116.129 127.512 115.949 128.199C115.77 128.887 115.68 129.625 115.68 130.414V130.906C115.68 131.703 115.77 132.445 115.949 133.133C116.129 133.82 116.402 134.426 116.77 134.949C117.145 135.465 117.617 135.871 118.188 136.168C118.766 136.457 119.445 136.602 120.227 136.602ZM136.07 134.621V128.07C136.07 127.367 135.918 126.766 135.613 126.266C135.316 125.766 134.879 125.383 134.301 125.117C133.73 124.852 133.031 124.719 132.203 124.719C131.438 124.719 130.746 124.855 130.129 125.129C129.52 125.395 129.035 125.762 128.676 126.23C128.324 126.699 128.148 127.227 128.148 127.812L127.516 127.789C127.516 127.297 127.629 126.828 127.855 126.383C128.09 125.938 128.414 125.543 128.828 125.199C129.25 124.855 129.746 124.586 130.316 124.391C130.895 124.188 131.523 124.086 132.203 124.086C133.086 124.086 133.863 124.234 134.535 124.531C135.215 124.828 135.746 125.273 136.129 125.867C136.512 126.461 136.703 127.203 136.703 128.094V134.445C136.703 134.898 136.73 135.355 136.785 135.816C136.848 136.277 136.93 136.637 137.031 136.895V137H136.305C136.227 136.695 136.168 136.328 136.129 135.898C136.09 135.461 136.07 135.035 136.07 134.621ZM136.352 129.922L136.375 130.566H133.07C132.25 130.566 131.516 130.648 130.867 130.812C130.219 130.969 129.668 131.191 129.215 131.48C128.762 131.77 128.414 132.113 128.172 132.512C127.93 132.91 127.809 133.352 127.809 133.836C127.809 134.344 127.945 134.809 128.219 135.23C128.5 135.652 128.887 135.988 129.379 136.238C129.871 136.488 130.438 136.613 131.078 136.613C131.969 136.613 132.758 136.469 133.445 136.18C134.133 135.883 134.715 135.469 135.191 134.938C135.668 134.406 136.031 133.777 136.281 133.051L136.562 133.637C136.414 134.074 136.191 134.508 135.895 134.938C135.605 135.359 135.234 135.746 134.781 136.098C134.328 136.441 133.793 136.719 133.176 136.93C132.566 137.133 131.867 137.234 131.078 137.234C130.289 137.234 129.602 137.09 129.016 136.801C128.43 136.504 127.977 136.098 127.656 135.582C127.336 135.059 127.176 134.461 127.176 133.789C127.176 133.227 127.309 132.711 127.574 132.242C127.84 131.766 128.223 131.355 128.723 131.012C129.23 130.66 129.848 130.391 130.574 130.203C131.301 130.016 132.121 129.922 133.035 129.922H136.352ZM149.289 134.539V119H149.922V137H149.289V134.539ZM140.207 130.777V130.531C140.207 129.531 140.312 128.637 140.523 127.848C140.742 127.051 141.055 126.375 141.461 125.82C141.875 125.258 142.379 124.828 142.973 124.531C143.566 124.234 144.238 124.086 144.988 124.086C145.684 124.086 146.301 124.191 146.84 124.402C147.387 124.613 147.859 124.91 148.258 125.293C148.664 125.668 149 126.109 149.266 126.617C149.531 127.125 149.734 127.676 149.875 128.27V133.438C149.773 133.938 149.594 134.418 149.336 134.879C149.086 135.332 148.754 135.738 148.34 136.098C147.934 136.449 147.449 136.727 146.887 136.93C146.324 137.133 145.684 137.234 144.965 137.234C144.215 137.234 143.543 137.082 142.949 136.777C142.363 136.465 141.867 136.023 141.461 135.453C141.055 134.883 140.742 134.203 140.523 133.414C140.312 132.625 140.207 131.746 140.207 130.777ZM140.863 130.531V130.777C140.863 131.621 140.945 132.398 141.109 133.109C141.281 133.82 141.535 134.438 141.871 134.961C142.207 135.477 142.633 135.879 143.148 136.168C143.664 136.457 144.266 136.602 144.953 136.602C145.844 136.602 146.602 136.445 147.227 136.133C147.852 135.82 148.352 135.402 148.727 134.879C149.102 134.355 149.359 133.777 149.5 133.145V128.691C149.414 128.301 149.277 127.879 149.09 127.426C148.91 126.965 148.648 126.531 148.305 126.125C147.969 125.711 147.527 125.375 146.98 125.117C146.441 124.852 145.773 124.719 144.977 124.719C144.281 124.719 143.676 124.863 143.16 125.152C142.645 125.441 142.215 125.848 141.871 126.371C141.535 126.887 141.281 127.5 141.109 128.211C140.945 128.914 140.863 129.688 140.863 130.531ZM172.035 129.266V135.172C171.855 135.43 171.516 135.719 171.016 136.039C170.523 136.359 169.875 136.641 169.07 136.883C168.273 137.117 167.32 137.234 166.211 137.234C165.242 137.234 164.355 137.055 163.551 136.695C162.746 136.336 162.051 135.824 161.465 135.16C160.879 134.488 160.426 133.695 160.105 132.781C159.793 131.859 159.637 130.844 159.637 129.734V126.945C159.637 125.867 159.789 124.887 160.094 124.004C160.406 123.121 160.844 122.359 161.406 121.719C161.977 121.07 162.652 120.574 163.434 120.23C164.215 119.879 165.074 119.703 166.012 119.703C167.246 119.703 168.289 119.918 169.141 120.348C169.992 120.777 170.656 121.359 171.133 122.094C171.617 122.82 171.91 123.641 172.012 124.555H171.379C171.262 123.812 171.008 123.121 170.617 122.48C170.227 121.84 169.656 121.324 168.906 120.934C168.164 120.535 167.199 120.336 166.012 120.336C165.145 120.336 164.355 120.5 163.645 120.828C162.941 121.148 162.336 121.602 161.828 122.188C161.328 122.773 160.941 123.469 160.668 124.273C160.402 125.078 160.27 125.961 160.27 126.922V129.734C160.27 130.742 160.406 131.664 160.68 132.5C160.961 133.336 161.363 134.062 161.887 134.68C162.41 135.289 163.035 135.762 163.762 136.098C164.496 136.434 165.312 136.602 166.211 136.602C167.141 136.602 167.961 136.508 168.672 136.32C169.391 136.125 169.98 135.895 170.441 135.629C170.91 135.355 171.23 135.105 171.402 134.879V129.91H166.188V129.266H172.035ZM184.117 134.621V128.07C184.117 127.367 183.965 126.766 183.66 126.266C183.363 125.766 182.926 125.383 182.348 125.117C181.777 124.852 181.078 124.719 180.25 124.719C179.484 124.719 178.793 124.855 178.176 125.129C177.566 125.395 177.082 125.762 176.723 126.23C176.371 126.699 176.195 127.227 176.195 127.812L175.562 127.789C175.562 127.297 175.676 126.828 175.902 126.383C176.137 125.938 176.461 125.543 176.875 125.199C177.297 124.855 177.793 124.586 178.363 124.391C178.941 124.188 179.57 124.086 180.25 124.086C181.133 124.086 181.91 124.234 182.582 124.531C183.262 124.828 183.793 125.273 184.176 125.867C184.559 126.461 184.75 127.203 184.75 128.094V134.445C184.75 134.898 184.777 135.355 184.832 135.816C184.895 136.277 184.977 136.637 185.078 136.895V137H184.352C184.273 136.695 184.215 136.328 184.176 135.898C184.137 135.461 184.117 135.035 184.117 134.621ZM184.398 129.922L184.422 130.566H181.117C180.297 130.566 179.562 130.648 178.914 130.812C178.266 130.969 177.715 131.191 177.262 131.48C176.809 131.77 176.461 132.113 176.219 132.512C175.977 132.91 175.855 133.352 175.855 133.836C175.855 134.344 175.992 134.809 176.266 135.23C176.547 135.652 176.934 135.988 177.426 136.238C177.918 136.488 178.484 136.613 179.125 136.613C180.016 136.613 180.805 136.469 181.492 136.18C182.18 135.883 182.762 135.469 183.238 134.938C183.715 134.406 184.078 133.777 184.328 133.051L184.609 133.637C184.461 134.074 184.238 134.508 183.941 134.938C183.652 135.359 183.281 135.746 182.828 136.098C182.375 136.441 181.84 136.719 181.223 136.93C180.613 137.133 179.914 137.234 179.125 137.234C178.336 137.234 177.648 137.09 177.062 136.801C176.477 136.504 176.023 136.098 175.703 135.582C175.383 135.059 175.223 134.461 175.223 133.789C175.223 133.227 175.355 132.711 175.621 132.242C175.887 131.766 176.27 131.355 176.77 131.012C177.277 130.66 177.895 130.391 178.621 130.203C179.348 130.016 180.168 129.922 181.082 129.922H184.398ZM189.355 127.039V137H188.711V124.32H189.355V127.039ZM189.273 129.57L188.934 128.902C189.012 128.277 189.18 127.68 189.438 127.109C189.703 126.531 190.047 126.016 190.469 125.562C190.898 125.109 191.395 124.75 191.957 124.484C192.527 124.219 193.156 124.086 193.844 124.086C194.484 124.086 195.055 124.172 195.555 124.344C196.062 124.508 196.488 124.77 196.832 125.129C197.184 125.48 197.449 125.941 197.629 126.512C197.816 127.082 197.91 127.766 197.91 128.562V137H197.277V128.562C197.277 127.547 197.129 126.762 196.832 126.207C196.535 125.652 196.125 125.266 195.602 125.047C195.078 124.82 194.48 124.707 193.809 124.707C193.012 124.707 192.332 124.887 191.77 125.246C191.207 125.598 190.746 126.039 190.387 126.57C190.027 127.102 189.758 127.641 189.578 128.188C189.398 128.734 189.297 129.195 189.273 129.57ZM197.91 128.562L197.477 128.176C197.555 127.637 197.727 127.125 197.992 126.641C198.266 126.148 198.617 125.711 199.047 125.328C199.477 124.945 199.977 124.645 200.547 124.426C201.125 124.199 201.758 124.086 202.445 124.086C203.086 124.086 203.656 124.176 204.156 124.355C204.664 124.527 205.09 124.805 205.434 125.188C205.785 125.562 206.051 126.047 206.23 126.641C206.418 127.234 206.512 127.953 206.512 128.797V137H205.879V128.797C205.879 127.719 205.73 126.883 205.434 126.289C205.137 125.695 204.727 125.281 204.203 125.047C203.68 124.812 203.082 124.699 202.41 124.707C201.66 124.715 201.008 124.855 200.453 125.129C199.906 125.395 199.449 125.73 199.082 126.137C198.715 126.543 198.434 126.965 198.238 127.402C198.051 127.832 197.941 128.219 197.91 128.562ZM214.914 137.234C214.141 137.234 213.418 137.082 212.746 136.777C212.074 136.465 211.484 136.027 210.977 135.465C210.469 134.902 210.07 134.238 209.781 133.473C209.5 132.699 209.359 131.852 209.359 130.93V130.414C209.359 129.484 209.496 128.637 209.77 127.871C210.051 127.098 210.434 126.43 210.918 125.867C211.41 125.297 211.977 124.859 212.617 124.555C213.258 124.242 213.945 124.086 214.68 124.086C215.383 124.086 216.027 124.219 216.613 124.484C217.199 124.742 217.707 125.109 218.137 125.586C218.574 126.062 218.91 126.633 219.145 127.297C219.379 127.961 219.496 128.695 219.496 129.5V130.238H209.77V129.605H218.863V129.453C218.863 128.602 218.691 127.82 218.348 127.109C218.004 126.391 217.52 125.812 216.895 125.375C216.27 124.938 215.531 124.719 214.68 124.719C213.977 124.719 213.336 124.867 212.758 125.164C212.188 125.461 211.695 125.871 211.281 126.395C210.867 126.91 210.547 127.512 210.32 128.199C210.102 128.887 209.992 129.625 209.992 130.414V130.93C209.992 131.719 210.117 132.457 210.367 133.145C210.617 133.832 210.965 134.438 211.41 134.961C211.855 135.477 212.375 135.883 212.969 136.18C213.57 136.469 214.219 136.613 214.914 136.613C215.641 136.613 216.316 136.492 216.941 136.25C217.574 136.008 218.152 135.547 218.676 134.867L219.121 135.184C218.84 135.582 218.5 135.938 218.102 136.25C217.711 136.555 217.25 136.797 216.719 136.977C216.195 137.148 215.594 137.234 214.914 137.234Z" fill="#14213D"/>
</svg>
