<svg width="87" height="87" viewBox="0 0 87 87" fill="none" xmlns="http://www.w3.org/2000/svg">
<path d="M15.8686 67.5014H15.0771V66.7096C15.0771 66.1169 14.5969 65.6367 14.0043 65.6367C13.4116 65.6367 12.9314 66.1173 12.9314 66.7096V67.5014H12.1395C11.5469 67.5014 11.0667 67.9816 11.0667 68.5743C11.0667 69.167 11.5469 69.6472 12.1395 69.6472H12.9314V70.439C12.9314 71.0317 13.4116 71.5119 14.0043 71.5119C14.5969 71.5119 15.0771 71.0317 15.0771 70.439V69.6472H15.8686C16.4613 69.6472 16.9415 69.167 16.9415 68.5743C16.9415 67.9816 16.4613 67.5014 15.8686 67.5014Z" fill="#EDF4FC"/>
<path d="M85.8524 23.4965C86.4862 23.4965 87 22.9827 87 22.3488C87 21.715 86.4862 21.2012 85.8524 21.2012C85.2185 21.2012 84.7047 21.715 84.7047 22.3488C84.7047 22.9827 85.2185 23.4965 85.8524 23.4965Z" fill="#EDF4FC"/>
<path d="M8.36799 61.8988C9.00182 61.8988 9.51564 61.385 9.51564 60.7512C9.51564 60.1173 9.00182 59.6035 8.36799 59.6035C7.73416 59.6035 7.22034 60.1173 7.22034 60.7512C7.22034 61.385 7.73416 61.8988 8.36799 61.8988Z" fill="#EDF4FC"/>
<path d="M12.2337 19.6455H9.38687C7.85078 19.6455 6.60559 20.8907 6.60559 22.4271V51.4828C6.60559 53.0188 7.85078 54.2644 9.38687 54.2644H12.2337C13.7698 54.2644 15.015 53.0192 15.015 51.4828V22.4271C15.015 20.891 13.7698 19.6455 12.2337 19.6455Z" fill="#14213D"/>
<path d="M74.857 19.6455H72.0102C70.4741 19.6455 69.2289 20.8907 69.2289 22.4271V47.4114H70.7493C72.2854 47.4114 73.5306 48.6566 73.5306 50.1927V54.264H74.857C76.3931 54.264 77.6383 53.0188 77.6383 51.4828V22.4271C77.6383 20.891 76.3931 19.6455 74.857 19.6455Z" fill="#14213D"/>
<path d="M60.8192 32.75H23.4248V41.1598H60.8192V32.75Z" fill="#C7D7E5"/>
<path d="M51.435 32.75H32.8085V41.1598H51.435V32.75Z" fill="#EDF4FC"/>
<path d="M79.1894 32.75H77.6383V41.1598H79.1894C81.5115 41.1598 83.3942 39.277 83.3942 36.9549C83.3942 34.6327 81.5118 32.75 79.1894 32.75Z" fill="#C7D7E5"/>
<path d="M5.0545 32.75C2.73234 32.75 0.849609 34.6324 0.849609 36.9549C0.849609 39.277 2.732 41.1598 5.0545 41.1598H6.60554V32.75H5.0545Z" fill="#C7D7E5"/>
<path d="M65.1208 56.6045H35.5476V65.0143H65.1208V56.6045Z" fill="#C7D7E5"/>
<path d="M59.6474 56.6045H41.0209V65.0143H59.6474V56.6045Z" fill="#EDF4FC"/>
<path d="M70.749 47.4111H67.9021C66.366 47.4111 65.1208 48.6563 65.1208 50.1924V71.4265C65.1208 72.9626 66.366 74.2078 67.9021 74.2078H70.749C72.2851 74.2078 73.5303 72.9626 73.5303 71.4265V50.1924C73.5306 48.6563 72.2851 47.4111 70.749 47.4111Z" fill="#FCA311"/>
<path d="M75.0817 56.6045H73.5306V65.0143H75.0817C77.4038 65.0143 79.2866 63.1319 79.2866 60.8094C79.2866 58.4869 77.4038 56.6045 75.0817 56.6045Z" fill="#C7D7E5"/>
<path d="M32.7663 47.4111H29.9195C28.3834 47.4111 27.1382 48.6563 27.1382 50.1924V71.4265C27.1382 72.9626 28.3834 74.2078 29.9195 74.2078H32.7663C34.3024 74.2078 35.5476 72.9626 35.5476 71.4265V50.1924C35.5476 48.6563 34.3024 47.4111 32.7663 47.4111Z" fill="#FCA311"/>
<path d="M25.5872 56.6045C23.2651 56.6045 21.3823 58.4869 21.3823 60.8094C21.3823 63.1319 23.2647 65.0143 25.5872 65.0143H27.1383V56.6045H25.5872Z" fill="#C7D7E5"/>
<path d="M66.4472 13.0117H63.6004C62.0643 13.0117 60.8191 14.2569 60.8191 15.7933V56.6052H65.1208V50.193C65.1208 48.6569 66.366 47.4117 67.9021 47.4117H69.2285V15.7933C69.2289 14.2569 67.9833 13.0117 66.4472 13.0117Z" fill="#304B84"/>
<path d="M20.6434 13.0117H17.7965C16.2604 13.0117 15.0153 14.2569 15.0153 15.7933V58.1165C15.0153 59.6526 16.2604 60.8981 17.7965 60.8981H20.6434C20.9 60.8981 21.1471 60.8604 21.3833 60.7955C21.3883 59.2713 22.2067 57.9418 23.425 57.2087V15.7933C23.4247 14.2569 22.1795 13.0117 20.6434 13.0117Z" fill="#304B84"/>
<path d="M15.0326 50.6947C14.5592 50.6804 14.1752 51.0562 14.1647 51.5256C14.1423 52.5669 13.2757 53.4144 12.2334 53.4144H9.38648C8.32141 53.4144 7.45447 52.5478 7.45447 51.4828V22.4271C7.45447 21.3621 8.32107 20.4955 9.38648 20.4955H12.2334C13.2852 20.4955 14.1514 21.3508 14.165 22.4016C14.1711 22.871 14.5565 23.2414 15.0255 23.2404C15.4948 23.2343 15.8704 22.8492 15.8642 22.3799C15.8388 20.4037 14.2102 18.7959 12.2334 18.7959H9.38648C7.38412 18.7959 5.75525 20.4248 5.75525 22.4268V51.4824C5.75525 53.4844 7.38412 55.1133 9.38648 55.1133H12.2334C14.1926 55.1133 15.8211 53.5201 15.8636 51.5623C15.8738 51.0933 15.502 50.7048 15.0326 50.6947Z" fill="black"/>
<path d="M74.857 18.7959H72.0101C70.0329 18.7959 68.4044 20.404 68.3792 22.3809C68.3734 22.8499 68.749 23.2353 69.2183 23.2411C69.6903 23.2421 70.0727 22.8713 70.0784 22.402C70.0917 21.3505 70.958 20.4951 72.0101 20.4951H74.857C75.922 20.4951 76.7887 21.3617 76.7887 22.4271V51.4828C76.7887 52.5478 75.922 53.4144 74.857 53.4144H73.8524C73.3831 53.4144 73.0028 53.7947 73.0028 54.264C73.0028 54.7334 73.3831 55.1136 73.8524 55.1136H74.857C76.859 55.1136 78.4879 53.4848 78.4879 51.4828V22.4271C78.4879 20.4248 76.859 18.7959 74.857 18.7959Z" fill="black"/>
<path d="M60.6622 31.9004H23.7252C23.2559 31.9004 22.8756 32.2807 22.8756 32.75C22.8756 33.2193 23.2559 33.5996 23.7252 33.5996H60.6622C61.1315 33.5996 61.5118 33.2193 61.5118 32.75C61.5118 32.2807 61.1315 31.9004 60.6622 31.9004Z" fill="black"/>
<path d="M60.4711 40.3096H23.7679C23.2986 40.3096 22.9183 40.6899 22.9183 41.1592C22.9183 41.6285 23.2986 42.0088 23.7679 42.0088H60.4711C60.9404 42.0088 61.3207 41.6285 61.3207 41.1592C61.3207 40.6899 60.9404 40.3096 60.4711 40.3096Z" fill="black"/>
<path d="M51.4353 32.2422C50.966 32.2422 50.5857 32.6225 50.5857 33.0918V40.8447C50.5857 41.314 50.966 41.6943 51.4353 41.6943C51.9046 41.6943 52.2849 41.314 52.2849 40.8447V33.0918C52.2849 32.6225 51.9043 32.2422 51.4353 32.2422Z" fill="black"/>
<path d="M32.8088 32.2354C32.3395 32.2354 31.9592 32.6156 31.9592 33.085V40.8942C31.9592 41.3636 32.3395 41.7438 32.8088 41.7438C33.2782 41.7438 33.6584 41.3636 33.6584 40.8942V33.085C33.6584 32.6156 33.2778 32.2354 32.8088 32.2354Z" fill="black"/>
<path d="M79.1894 31.9004H77.9517C77.4823 31.9004 77.102 32.2807 77.102 32.75C77.102 33.2193 77.4823 33.5996 77.9517 33.5996H79.1894C81.0395 33.5996 82.5446 35.1048 82.5446 36.9549C82.5446 38.805 81.0395 40.3102 79.1894 40.3102H77.9374C77.4681 40.3102 77.0878 40.6904 77.0878 41.1598C77.0878 41.6291 77.4681 42.0094 77.9374 42.0094H79.1894C81.9764 42.0094 84.2439 39.7419 84.2439 36.9549C84.2439 34.1678 81.9764 31.9004 79.1894 31.9004Z" fill="black"/>
<path d="M6.14539 40.3102H5.0545C3.20439 40.3102 1.69922 38.805 1.69922 36.9549C1.69922 35.1048 3.20439 33.5996 5.0545 33.5996H6.37173C6.84105 33.5996 7.22134 33.2193 7.22134 32.75C7.22134 32.2807 6.84105 31.9004 6.37173 31.9004H5.0545C2.26744 31.9007 0 34.1682 0 36.9549C0 39.7419 2.26744 42.0094 5.0545 42.0094H6.14539C6.61472 42.0094 6.995 41.6291 6.995 41.1598C6.995 40.6904 6.61472 40.3102 6.14539 40.3102Z" fill="black"/>
<path d="M64.8534 55.7559H35.7543C35.2849 55.7559 34.9047 56.1361 34.9047 56.6055C34.9047 57.0748 35.2849 57.4551 35.7543 57.4551H64.8534C65.3227 57.4551 65.703 57.0748 65.703 56.6055C65.703 56.1361 65.3227 55.7559 64.8534 55.7559Z" fill="black"/>
<path d="M64.8041 64.165H35.8215C35.3522 64.165 34.9719 64.5453 34.9719 65.0146C34.9719 65.484 35.3522 65.8643 35.8215 65.8643H64.8041C65.2734 65.8643 65.6537 65.484 65.6537 65.0146C65.6537 64.5453 65.2734 64.165 64.8041 64.165Z" fill="black"/>
<path d="M59.6477 56.0742C59.1784 56.0742 58.7981 56.4545 58.7981 56.9238V64.6767C58.7981 65.146 59.1784 65.5263 59.6477 65.5263C60.117 65.5263 60.4973 65.146 60.4973 64.6767V56.9238C60.4973 56.4548 60.117 56.0742 59.6477 56.0742Z" fill="black"/>
<path d="M41.0212 56.0527C40.5519 56.0527 40.1716 56.433 40.1716 56.9023V64.7398C40.1716 65.2091 40.5519 65.5894 41.0212 65.5894C41.4906 65.5894 41.8708 65.2091 41.8708 64.7398V56.902C41.8708 56.433 41.4902 56.0527 41.0212 56.0527Z" fill="black"/>
<path d="M70.749 46.5615H67.9021C65.9001 46.5615 64.2712 48.1904 64.2712 50.1928V71.4269C64.2712 73.4292 65.9001 75.0581 67.9021 75.0581H70.749C72.7514 75.0581 74.3802 73.4292 74.3802 71.4269V50.1928C74.3802 48.1904 72.7514 46.5615 70.749 46.5615ZM72.681 71.4269C72.681 72.4919 71.8144 73.3589 70.749 73.3589H67.9021C66.8371 73.3589 65.9705 72.4923 65.9705 71.4269V50.1928C65.9705 49.1277 66.8371 48.2607 67.9021 48.2607H70.749C71.8141 48.2607 72.681 49.1273 72.681 50.1928V71.4269Z" fill="black"/>
<path d="M75.0817 55.7559H73.7461C73.2768 55.7559 72.8965 56.1361 72.8965 56.6055C72.8965 57.0748 73.2768 57.4551 73.7461 57.4551H75.0817C76.9318 57.4551 78.437 58.9602 78.437 60.8104C78.437 62.6605 76.9318 64.1656 75.0817 64.1656H73.8311C73.3617 64.1656 72.9814 64.5459 72.9814 65.0152C72.9814 65.4846 73.3617 65.8649 73.8311 65.8649H75.0817C77.8687 65.8649 80.1362 63.5974 80.1362 60.8104C80.1358 58.023 77.8684 55.7559 75.0817 55.7559Z" fill="black"/>
<path d="M32.7664 46.5615H29.9196C27.9172 46.5615 26.2883 48.1904 26.2883 50.1928V71.4269C26.2883 73.4292 27.9172 75.0581 29.9196 75.0581H32.7664C34.7685 75.0581 36.3973 73.4292 36.3973 71.4269V50.1928C36.3973 48.1904 34.7685 46.5615 32.7664 46.5615ZM34.6981 71.4269C34.6981 72.4919 33.8315 73.3589 32.7664 73.3589H29.9196C28.8545 73.3589 27.9875 72.4923 27.9875 71.4269V50.1928C27.9875 49.1277 28.8542 48.2607 29.9196 48.2607H32.7664C33.8315 48.2607 34.6981 49.1273 34.6981 50.1928V71.4269Z" fill="black"/>
<path d="M26.7627 64.1647H25.5872C23.7371 64.1647 22.2319 62.6595 22.2319 60.8094C22.2319 58.9593 23.7371 57.4541 25.5872 57.4541H26.9044C27.3738 57.4541 27.7541 57.0738 27.7541 56.6045C27.7541 56.1352 27.3738 55.7549 26.9044 55.7549H25.5872C22.8002 55.7549 20.5327 58.0223 20.5327 60.8094C20.5327 63.5964 22.8002 65.8639 25.5872 65.8639H26.7627C27.2321 65.8639 27.6123 65.4836 27.6123 65.0143C27.6123 64.5449 27.2321 64.1647 26.7627 64.1647Z" fill="black"/>
<path d="M66.4472 12.1621H63.6003C61.598 12.1621 59.9691 13.791 59.9691 15.7933V56.1875C59.9691 56.6568 60.3494 57.0371 60.8187 57.0371C61.288 57.0371 61.6683 56.6568 61.6683 56.1875V15.7933C61.6683 14.7283 62.5349 13.8613 63.6003 13.8613H66.4472C67.5123 13.8613 68.3789 14.7279 68.3789 15.7933V47.2099C68.3789 47.6792 68.7592 48.0595 69.2285 48.0595C69.6978 48.0595 70.0781 47.6792 70.0781 47.2099V15.7933C70.0784 13.791 68.4496 12.1621 66.4472 12.1621Z" fill="black"/>
<path d="M20.6435 12.1621H17.7966C15.7943 12.1621 14.1654 13.791 14.1654 15.7933V58.1165C14.1654 60.1188 15.7943 61.7477 17.7966 61.7477H20.6435C20.8362 61.7477 21.0319 61.7314 21.2246 61.6994C21.6875 61.6223 22.0005 61.1849 21.9237 60.722C21.8469 60.2592 21.4109 59.9465 20.9463 60.023C20.845 60.04 20.7431 60.0485 20.6435 60.0485H17.7966C16.7316 60.0485 15.8646 59.1819 15.8646 58.1165V15.7933C15.8646 14.7283 16.7312 13.8613 17.7966 13.8613H20.6435C21.7086 13.8613 22.5752 14.7279 22.5752 15.7933V57.0368C22.5752 57.5061 22.9555 57.8864 23.4248 57.8864C23.8941 57.8864 24.2744 57.5061 24.2744 57.0368V15.7933C24.2744 13.791 22.6455 12.1621 20.6435 12.1621Z" fill="black"/>
</svg>
